G04 EAGLE Gerber X2 export*
%TF.Part,Single*%
%TF.FileFunction,Copper,L1,Top,Mixed*%
%TF.FilePolarity,Positive*%
%TF.GenerationSoftware,Autodesk,EAGLE,8.6.0*%
%TF.CreationDate,2018-02-23T21:09:10Z*%
G75*
%MOMM*%
%FSLAX34Y34*%
%LPD*%
%AMOC8*
5,1,8,0,0,1.08239X$1,22.5*%
G01*
%ADD10C,1.320800*%
%ADD11C,1.879600*%
%ADD12C,1.930400*%


D10*
X133096Y317500D02*
X146304Y317500D01*
X146304Y292100D02*
X133096Y292100D01*
X133096Y165100D02*
X146304Y165100D01*
X146304Y139700D02*
X133096Y139700D01*
X133096Y266700D02*
X146304Y266700D01*
X146304Y241300D02*
X133096Y241300D01*
X133096Y190500D02*
X146304Y190500D01*
X146304Y215900D02*
X133096Y215900D01*
X209296Y139700D02*
X222504Y139700D01*
X222504Y165100D02*
X209296Y165100D01*
X209296Y190500D02*
X222504Y190500D01*
X222504Y215900D02*
X209296Y215900D01*
X209296Y241300D02*
X222504Y241300D01*
X222504Y266700D02*
X209296Y266700D01*
X209296Y292100D02*
X222504Y292100D01*
X222504Y317500D02*
X209296Y317500D01*
D11*
X101600Y38100D03*
X127000Y38100D03*
X152400Y38100D03*
X177800Y38100D03*
X203200Y38100D03*
X228600Y38100D03*
X254000Y38100D03*
D12*
X312750Y147650D03*
X312750Y173050D03*
X312750Y198450D03*
X312750Y223850D03*
X312750Y249250D03*
X312750Y274650D03*
X312750Y300050D03*
X312750Y325450D03*
X27750Y325450D03*
X27750Y300050D03*
X27750Y274650D03*
X27750Y249250D03*
X27750Y223850D03*
X27750Y198450D03*
X27750Y173050D03*
X27750Y147650D03*
M02*
