G04 EAGLE Gerber X2 export*
%TF.Part,Single*%
%TF.FileFunction,Legend,Top,1*%
%TF.FilePolarity,Positive*%
%TF.GenerationSoftware,Autodesk,EAGLE,8.6.0*%
%TF.CreationDate,2018-02-23T21:09:10Z*%
G75*
%MOMM*%
%FSLAX34Y34*%
%LPD*%
%AMOC8*
5,1,8,0,0,1.08239X$1,22.5*%
G01*
%ADD10C,0.152400*%
%ADD11C,0.127000*%
%ADD12C,0.203200*%
%ADD13C,0.076200*%
%ADD14C,0.130000*%
%ADD15C,0.101600*%


D10*
X207010Y127000D02*
X207010Y330200D01*
X148590Y330200D02*
X148590Y127000D01*
X207010Y127000D01*
X207010Y330200D02*
X187960Y330200D01*
X167640Y330200D02*
X148590Y330200D01*
X167640Y330200D02*
X167643Y329953D01*
X167652Y329705D01*
X167667Y329458D01*
X167688Y329212D01*
X167715Y328966D01*
X167748Y328721D01*
X167787Y328476D01*
X167832Y328233D01*
X167883Y327991D01*
X167940Y327750D01*
X168002Y327511D01*
X168071Y327273D01*
X168145Y327037D01*
X168225Y326803D01*
X168310Y326571D01*
X168402Y326341D01*
X168498Y326113D01*
X168601Y325888D01*
X168708Y325665D01*
X168822Y325445D01*
X168940Y325228D01*
X169064Y325013D01*
X169193Y324802D01*
X169327Y324594D01*
X169466Y324389D01*
X169610Y324188D01*
X169758Y323990D01*
X169912Y323796D01*
X170070Y323606D01*
X170233Y323420D01*
X170400Y323238D01*
X170572Y323060D01*
X170748Y322886D01*
X170928Y322716D01*
X171113Y322551D01*
X171301Y322391D01*
X171493Y322235D01*
X171689Y322083D01*
X171888Y321937D01*
X172091Y321795D01*
X172298Y321659D01*
X172507Y321527D01*
X172720Y321401D01*
X172936Y321280D01*
X173154Y321164D01*
X173376Y321054D01*
X173600Y320949D01*
X173826Y320849D01*
X174055Y320755D01*
X174286Y320667D01*
X174520Y320584D01*
X174755Y320507D01*
X174992Y320436D01*
X175230Y320370D01*
X175470Y320311D01*
X175712Y320257D01*
X175955Y320209D01*
X176198Y320167D01*
X176443Y320131D01*
X176689Y320101D01*
X176935Y320077D01*
X177182Y320059D01*
X177429Y320047D01*
X177676Y320041D01*
X177924Y320041D01*
X178171Y320047D01*
X178418Y320059D01*
X178665Y320077D01*
X178911Y320101D01*
X179157Y320131D01*
X179402Y320167D01*
X179645Y320209D01*
X179888Y320257D01*
X180130Y320311D01*
X180370Y320370D01*
X180608Y320436D01*
X180845Y320507D01*
X181080Y320584D01*
X181314Y320667D01*
X181545Y320755D01*
X181774Y320849D01*
X182000Y320949D01*
X182224Y321054D01*
X182446Y321164D01*
X182664Y321280D01*
X182880Y321401D01*
X183093Y321527D01*
X183302Y321659D01*
X183509Y321795D01*
X183712Y321937D01*
X183911Y322083D01*
X184107Y322235D01*
X184299Y322391D01*
X184487Y322551D01*
X184672Y322716D01*
X184852Y322886D01*
X185028Y323060D01*
X185200Y323238D01*
X185367Y323420D01*
X185530Y323606D01*
X185688Y323796D01*
X185842Y323990D01*
X185990Y324188D01*
X186134Y324389D01*
X186273Y324594D01*
X186407Y324802D01*
X186536Y325013D01*
X186660Y325228D01*
X186778Y325445D01*
X186892Y325665D01*
X186999Y325888D01*
X187102Y326113D01*
X187198Y326341D01*
X187290Y326571D01*
X187375Y326803D01*
X187455Y327037D01*
X187529Y327273D01*
X187598Y327511D01*
X187660Y327750D01*
X187717Y327991D01*
X187768Y328233D01*
X187813Y328476D01*
X187852Y328721D01*
X187885Y328966D01*
X187912Y329212D01*
X187933Y329458D01*
X187948Y329705D01*
X187957Y329953D01*
X187960Y330200D01*
D11*
X150495Y334645D02*
X150495Y346075D01*
X149225Y334645D02*
X151765Y334645D01*
X151765Y346075D02*
X149225Y346075D01*
X158967Y334645D02*
X161507Y334645D01*
X158967Y334645D02*
X158867Y334647D01*
X158768Y334653D01*
X158668Y334663D01*
X158570Y334676D01*
X158471Y334694D01*
X158374Y334715D01*
X158278Y334740D01*
X158182Y334769D01*
X158088Y334802D01*
X157995Y334838D01*
X157904Y334878D01*
X157814Y334922D01*
X157726Y334969D01*
X157640Y335019D01*
X157556Y335073D01*
X157474Y335130D01*
X157395Y335190D01*
X157317Y335254D01*
X157243Y335320D01*
X157171Y335389D01*
X157102Y335461D01*
X157036Y335535D01*
X156972Y335613D01*
X156912Y335692D01*
X156855Y335774D01*
X156801Y335858D01*
X156751Y335944D01*
X156704Y336032D01*
X156660Y336122D01*
X156620Y336213D01*
X156584Y336306D01*
X156551Y336400D01*
X156522Y336496D01*
X156497Y336592D01*
X156476Y336689D01*
X156458Y336788D01*
X156445Y336886D01*
X156435Y336986D01*
X156429Y337085D01*
X156427Y337185D01*
X156427Y343535D01*
X156429Y343635D01*
X156435Y343734D01*
X156445Y343834D01*
X156458Y343932D01*
X156476Y344031D01*
X156497Y344128D01*
X156522Y344224D01*
X156551Y344320D01*
X156584Y344414D01*
X156620Y344507D01*
X156660Y344598D01*
X156704Y344688D01*
X156751Y344776D01*
X156801Y344862D01*
X156855Y344946D01*
X156912Y345028D01*
X156972Y345107D01*
X157036Y345185D01*
X157102Y345259D01*
X157171Y345331D01*
X157243Y345400D01*
X157317Y345466D01*
X157395Y345530D01*
X157474Y345590D01*
X157556Y345647D01*
X157640Y345701D01*
X157726Y345751D01*
X157814Y345798D01*
X157904Y345842D01*
X157995Y345882D01*
X158088Y345918D01*
X158182Y345951D01*
X158278Y345980D01*
X158374Y346005D01*
X158471Y346026D01*
X158570Y346044D01*
X158668Y346057D01*
X158768Y346067D01*
X158867Y346073D01*
X158967Y346075D01*
X161507Y346075D01*
X165989Y343535D02*
X169164Y346075D01*
X169164Y334645D01*
X165989Y334645D02*
X172339Y334645D01*
D12*
X247650Y50800D02*
X260350Y50800D01*
X266700Y44450D01*
X266700Y31750D02*
X260350Y25400D01*
X222250Y50800D02*
X215900Y44450D01*
X222250Y50800D02*
X234950Y50800D01*
X241300Y44450D01*
X241300Y31750D02*
X234950Y25400D01*
X222250Y25400D01*
X215900Y31750D01*
X241300Y44450D02*
X247650Y50800D01*
X241300Y31750D02*
X247650Y25400D01*
X260350Y25400D01*
X184150Y50800D02*
X171450Y50800D01*
X184150Y50800D02*
X190500Y44450D01*
X190500Y31750D02*
X184150Y25400D01*
X190500Y44450D02*
X196850Y50800D01*
X209550Y50800D01*
X215900Y44450D01*
X215900Y31750D02*
X209550Y25400D01*
X196850Y25400D01*
X190500Y31750D01*
X146050Y50800D02*
X139700Y44450D01*
X146050Y50800D02*
X158750Y50800D01*
X165100Y44450D01*
X165100Y31750D02*
X158750Y25400D01*
X146050Y25400D01*
X139700Y31750D01*
X165100Y44450D02*
X171450Y50800D01*
X165100Y31750D02*
X171450Y25400D01*
X184150Y25400D01*
X107950Y50800D02*
X95250Y50800D01*
X107950Y50800D02*
X114300Y44450D01*
X114300Y31750D02*
X107950Y25400D01*
X114300Y44450D02*
X120650Y50800D01*
X133350Y50800D01*
X139700Y44450D01*
X139700Y31750D02*
X133350Y25400D01*
X120650Y25400D01*
X114300Y31750D01*
X88900Y31750D02*
X88900Y44450D01*
X95250Y50800D01*
X88900Y31750D02*
X95250Y25400D01*
X107950Y25400D01*
X266700Y31750D02*
X266700Y44450D01*
D11*
X91144Y53777D02*
X91144Y57531D01*
X91143Y53777D02*
X91141Y53712D01*
X91135Y53648D01*
X91125Y53584D01*
X91112Y53520D01*
X91094Y53458D01*
X91073Y53397D01*
X91049Y53337D01*
X91020Y53279D01*
X90988Y53222D01*
X90953Y53168D01*
X90915Y53116D01*
X90873Y53066D01*
X90829Y53019D01*
X90782Y52975D01*
X90732Y52933D01*
X90680Y52895D01*
X90626Y52860D01*
X90569Y52828D01*
X90511Y52799D01*
X90451Y52775D01*
X90390Y52754D01*
X90328Y52736D01*
X90264Y52723D01*
X90200Y52713D01*
X90136Y52707D01*
X90071Y52705D01*
X89535Y52705D01*
X94092Y56459D02*
X95432Y57531D01*
X95432Y52705D01*
X94092Y52705D02*
X96773Y52705D01*
X338150Y57650D02*
X338150Y368450D01*
X7950Y368450D02*
X7950Y57650D01*
X338150Y57650D01*
X338150Y368450D02*
X7950Y368450D01*
D13*
X269293Y147269D02*
X269293Y139903D01*
X269293Y147269D02*
X271339Y147269D01*
X271428Y147267D01*
X271517Y147261D01*
X271606Y147251D01*
X271694Y147238D01*
X271782Y147221D01*
X271869Y147199D01*
X271954Y147174D01*
X272039Y147146D01*
X272122Y147113D01*
X272204Y147077D01*
X272284Y147038D01*
X272362Y146995D01*
X272438Y146949D01*
X272513Y146899D01*
X272585Y146846D01*
X272654Y146790D01*
X272721Y146731D01*
X272786Y146670D01*
X272847Y146605D01*
X272906Y146538D01*
X272962Y146469D01*
X273015Y146397D01*
X273065Y146322D01*
X273111Y146246D01*
X273154Y146168D01*
X273193Y146088D01*
X273229Y146006D01*
X273262Y145923D01*
X273290Y145838D01*
X273315Y145753D01*
X273337Y145666D01*
X273354Y145578D01*
X273367Y145490D01*
X273377Y145401D01*
X273383Y145312D01*
X273385Y145223D01*
X273383Y145134D01*
X273377Y145045D01*
X273367Y144956D01*
X273354Y144868D01*
X273337Y144780D01*
X273315Y144693D01*
X273290Y144608D01*
X273262Y144523D01*
X273229Y144440D01*
X273193Y144358D01*
X273154Y144278D01*
X273111Y144200D01*
X273065Y144124D01*
X273015Y144049D01*
X272962Y143977D01*
X272906Y143908D01*
X272847Y143841D01*
X272786Y143776D01*
X272721Y143715D01*
X272654Y143656D01*
X272585Y143600D01*
X272513Y143547D01*
X272438Y143497D01*
X272362Y143451D01*
X272284Y143408D01*
X272204Y143369D01*
X272122Y143333D01*
X272039Y143300D01*
X271954Y143272D01*
X271869Y143247D01*
X271782Y143225D01*
X271694Y143208D01*
X271606Y143195D01*
X271517Y143185D01*
X271428Y143179D01*
X271339Y143177D01*
X269293Y143177D01*
X271749Y143177D02*
X273386Y139903D01*
X276817Y139903D02*
X280091Y139903D01*
X276817Y139903D02*
X276817Y147269D01*
X280091Y147269D01*
X279272Y143995D02*
X276817Y143995D01*
X285109Y139903D02*
X285187Y139905D01*
X285265Y139910D01*
X285342Y139920D01*
X285419Y139933D01*
X285495Y139949D01*
X285570Y139969D01*
X285644Y139993D01*
X285717Y140020D01*
X285789Y140051D01*
X285859Y140085D01*
X285928Y140122D01*
X285994Y140163D01*
X286059Y140207D01*
X286121Y140253D01*
X286181Y140303D01*
X286239Y140355D01*
X286294Y140410D01*
X286346Y140468D01*
X286396Y140528D01*
X286442Y140590D01*
X286486Y140655D01*
X286527Y140722D01*
X286564Y140790D01*
X286598Y140860D01*
X286629Y140932D01*
X286656Y141005D01*
X286680Y141079D01*
X286700Y141154D01*
X286716Y141230D01*
X286729Y141307D01*
X286739Y141384D01*
X286744Y141462D01*
X286746Y141540D01*
X285109Y139903D02*
X284995Y139905D01*
X284882Y139910D01*
X284768Y139920D01*
X284655Y139933D01*
X284543Y139950D01*
X284431Y139970D01*
X284320Y139994D01*
X284209Y140022D01*
X284100Y140053D01*
X283992Y140088D01*
X283885Y140127D01*
X283779Y140169D01*
X283675Y140214D01*
X283572Y140263D01*
X283471Y140316D01*
X283372Y140371D01*
X283274Y140430D01*
X283179Y140492D01*
X283086Y140557D01*
X282994Y140625D01*
X282906Y140696D01*
X282819Y140770D01*
X282735Y140847D01*
X282654Y140926D01*
X282858Y145632D02*
X282860Y145710D01*
X282865Y145788D01*
X282875Y145865D01*
X282888Y145942D01*
X282904Y146018D01*
X282924Y146093D01*
X282948Y146167D01*
X282975Y146240D01*
X283006Y146312D01*
X283040Y146382D01*
X283077Y146451D01*
X283118Y146517D01*
X283162Y146582D01*
X283208Y146644D01*
X283258Y146704D01*
X283310Y146762D01*
X283365Y146817D01*
X283423Y146869D01*
X283483Y146919D01*
X283545Y146965D01*
X283610Y147009D01*
X283677Y147050D01*
X283745Y147087D01*
X283815Y147121D01*
X283887Y147152D01*
X283960Y147179D01*
X284034Y147203D01*
X284109Y147223D01*
X284185Y147239D01*
X284262Y147252D01*
X284339Y147262D01*
X284417Y147267D01*
X284495Y147269D01*
X284605Y147267D01*
X284714Y147261D01*
X284824Y147251D01*
X284932Y147238D01*
X285041Y147220D01*
X285148Y147199D01*
X285255Y147173D01*
X285361Y147144D01*
X285466Y147112D01*
X285569Y147075D01*
X285671Y147035D01*
X285772Y146991D01*
X285871Y146943D01*
X285968Y146893D01*
X286063Y146838D01*
X286156Y146780D01*
X286247Y146719D01*
X286336Y146655D01*
X283676Y144199D02*
X283609Y144241D01*
X283544Y144285D01*
X283482Y144333D01*
X283422Y144383D01*
X283364Y144436D01*
X283309Y144492D01*
X283257Y144551D01*
X283207Y144611D01*
X283160Y144675D01*
X283117Y144740D01*
X283076Y144807D01*
X283039Y144876D01*
X283005Y144947D01*
X282974Y145019D01*
X282947Y145093D01*
X282923Y145167D01*
X282903Y145243D01*
X282887Y145320D01*
X282874Y145397D01*
X282864Y145475D01*
X282859Y145554D01*
X282857Y145632D01*
X285927Y142972D02*
X285993Y142930D01*
X286058Y142886D01*
X286120Y142839D01*
X286180Y142788D01*
X286238Y142735D01*
X286293Y142679D01*
X286346Y142621D01*
X286395Y142560D01*
X286442Y142497D01*
X286485Y142432D01*
X286526Y142365D01*
X286563Y142296D01*
X286597Y142225D01*
X286628Y142153D01*
X286655Y142079D01*
X286679Y142004D01*
X286699Y141929D01*
X286715Y141852D01*
X286728Y141775D01*
X286738Y141697D01*
X286743Y141618D01*
X286745Y141540D01*
X285927Y142972D02*
X283676Y144200D01*
X289984Y139903D02*
X293258Y139903D01*
X289984Y139903D02*
X289984Y147269D01*
X293258Y147269D01*
X292440Y143995D02*
X289984Y143995D01*
X297623Y147269D02*
X297623Y139903D01*
X295577Y147269D02*
X299669Y147269D01*
X280891Y165303D02*
X283346Y172669D01*
X285802Y165303D01*
X285188Y167145D02*
X281505Y167145D01*
X288859Y165303D02*
X288859Y172669D01*
X290905Y172669D01*
X290994Y172667D01*
X291083Y172661D01*
X291172Y172651D01*
X291260Y172638D01*
X291348Y172621D01*
X291435Y172599D01*
X291520Y172574D01*
X291605Y172546D01*
X291688Y172513D01*
X291770Y172477D01*
X291850Y172438D01*
X291928Y172395D01*
X292004Y172349D01*
X292079Y172299D01*
X292151Y172246D01*
X292220Y172190D01*
X292287Y172131D01*
X292352Y172070D01*
X292413Y172005D01*
X292472Y171938D01*
X292528Y171869D01*
X292581Y171797D01*
X292631Y171722D01*
X292677Y171646D01*
X292720Y171568D01*
X292759Y171488D01*
X292795Y171406D01*
X292828Y171323D01*
X292856Y171238D01*
X292881Y171153D01*
X292903Y171066D01*
X292920Y170978D01*
X292933Y170890D01*
X292943Y170801D01*
X292949Y170712D01*
X292951Y170623D01*
X292952Y170623D02*
X292952Y167349D01*
X292951Y167349D02*
X292949Y167260D01*
X292943Y167171D01*
X292933Y167082D01*
X292920Y166994D01*
X292903Y166906D01*
X292881Y166819D01*
X292856Y166734D01*
X292828Y166649D01*
X292795Y166566D01*
X292759Y166484D01*
X292720Y166404D01*
X292677Y166326D01*
X292631Y166250D01*
X292581Y166175D01*
X292528Y166103D01*
X292472Y166034D01*
X292413Y165967D01*
X292352Y165902D01*
X292287Y165841D01*
X292220Y165782D01*
X292151Y165726D01*
X292079Y165673D01*
X292004Y165623D01*
X291928Y165577D01*
X291850Y165534D01*
X291770Y165495D01*
X291688Y165459D01*
X291605Y165426D01*
X291520Y165398D01*
X291435Y165373D01*
X291348Y165351D01*
X291260Y165334D01*
X291172Y165321D01*
X291083Y165311D01*
X290994Y165305D01*
X290905Y165303D01*
X288859Y165303D01*
X298032Y165303D02*
X299669Y165303D01*
X298032Y165303D02*
X297954Y165305D01*
X297876Y165310D01*
X297799Y165320D01*
X297722Y165333D01*
X297646Y165349D01*
X297571Y165369D01*
X297497Y165393D01*
X297424Y165420D01*
X297352Y165451D01*
X297282Y165485D01*
X297214Y165522D01*
X297147Y165563D01*
X297082Y165607D01*
X297020Y165653D01*
X296960Y165703D01*
X296902Y165755D01*
X296847Y165810D01*
X296795Y165868D01*
X296745Y165928D01*
X296699Y165990D01*
X296655Y166055D01*
X296614Y166122D01*
X296577Y166190D01*
X296543Y166260D01*
X296512Y166332D01*
X296485Y166405D01*
X296461Y166479D01*
X296441Y166554D01*
X296425Y166630D01*
X296412Y166707D01*
X296402Y166784D01*
X296397Y166862D01*
X296395Y166940D01*
X296395Y171032D01*
X296397Y171112D01*
X296403Y171192D01*
X296413Y171272D01*
X296426Y171351D01*
X296444Y171430D01*
X296465Y171507D01*
X296491Y171583D01*
X296520Y171658D01*
X296552Y171732D01*
X296588Y171804D01*
X296628Y171874D01*
X296671Y171941D01*
X296717Y172007D01*
X296767Y172070D01*
X296819Y172131D01*
X296874Y172190D01*
X296933Y172245D01*
X296993Y172297D01*
X297057Y172347D01*
X297123Y172393D01*
X297190Y172436D01*
X297260Y172476D01*
X297332Y172512D01*
X297406Y172544D01*
X297480Y172573D01*
X297557Y172599D01*
X297634Y172620D01*
X297713Y172638D01*
X297792Y172651D01*
X297872Y172661D01*
X297952Y172667D01*
X298032Y172669D01*
X299669Y172669D01*
X271518Y190703D02*
X269881Y190703D01*
X269803Y190705D01*
X269725Y190710D01*
X269648Y190720D01*
X269571Y190733D01*
X269495Y190749D01*
X269420Y190769D01*
X269346Y190793D01*
X269273Y190820D01*
X269201Y190851D01*
X269131Y190885D01*
X269063Y190922D01*
X268996Y190963D01*
X268931Y191007D01*
X268869Y191053D01*
X268809Y191103D01*
X268751Y191155D01*
X268696Y191210D01*
X268644Y191268D01*
X268594Y191328D01*
X268548Y191390D01*
X268504Y191455D01*
X268463Y191522D01*
X268426Y191590D01*
X268392Y191660D01*
X268361Y191732D01*
X268334Y191805D01*
X268310Y191879D01*
X268290Y191954D01*
X268274Y192030D01*
X268261Y192107D01*
X268251Y192184D01*
X268246Y192262D01*
X268244Y192340D01*
X268244Y196432D01*
X268246Y196512D01*
X268252Y196592D01*
X268262Y196672D01*
X268275Y196751D01*
X268293Y196830D01*
X268314Y196907D01*
X268340Y196983D01*
X268369Y197058D01*
X268401Y197132D01*
X268437Y197204D01*
X268477Y197274D01*
X268520Y197341D01*
X268566Y197407D01*
X268616Y197470D01*
X268668Y197531D01*
X268723Y197590D01*
X268782Y197645D01*
X268842Y197697D01*
X268906Y197747D01*
X268972Y197793D01*
X269039Y197836D01*
X269109Y197876D01*
X269181Y197912D01*
X269255Y197944D01*
X269329Y197973D01*
X269406Y197999D01*
X269483Y198020D01*
X269562Y198038D01*
X269641Y198051D01*
X269721Y198061D01*
X269801Y198067D01*
X269881Y198069D01*
X271518Y198069D01*
X274607Y198069D02*
X274607Y190703D01*
X274607Y194795D02*
X278699Y194795D01*
X278699Y198069D02*
X278699Y190703D01*
X281843Y189885D02*
X285117Y189885D01*
X288379Y190703D02*
X288379Y198069D01*
X290425Y198069D01*
X290514Y198067D01*
X290603Y198061D01*
X290692Y198051D01*
X290780Y198038D01*
X290868Y198021D01*
X290955Y197999D01*
X291040Y197974D01*
X291125Y197946D01*
X291208Y197913D01*
X291290Y197877D01*
X291370Y197838D01*
X291448Y197795D01*
X291524Y197749D01*
X291599Y197699D01*
X291671Y197646D01*
X291740Y197590D01*
X291807Y197531D01*
X291872Y197470D01*
X291933Y197405D01*
X291992Y197338D01*
X292048Y197269D01*
X292101Y197197D01*
X292151Y197122D01*
X292197Y197046D01*
X292240Y196968D01*
X292279Y196888D01*
X292315Y196806D01*
X292348Y196723D01*
X292376Y196638D01*
X292401Y196553D01*
X292423Y196466D01*
X292440Y196378D01*
X292453Y196290D01*
X292463Y196201D01*
X292469Y196112D01*
X292471Y196023D01*
X292469Y195934D01*
X292463Y195845D01*
X292453Y195756D01*
X292440Y195668D01*
X292423Y195580D01*
X292401Y195493D01*
X292376Y195408D01*
X292348Y195323D01*
X292315Y195240D01*
X292279Y195158D01*
X292240Y195078D01*
X292197Y195000D01*
X292151Y194924D01*
X292101Y194849D01*
X292048Y194777D01*
X291992Y194708D01*
X291933Y194641D01*
X291872Y194576D01*
X291807Y194515D01*
X291740Y194456D01*
X291671Y194400D01*
X291599Y194347D01*
X291524Y194297D01*
X291448Y194251D01*
X291370Y194208D01*
X291290Y194169D01*
X291208Y194133D01*
X291125Y194100D01*
X291040Y194072D01*
X290955Y194047D01*
X290868Y194025D01*
X290780Y194008D01*
X290692Y193995D01*
X290603Y193985D01*
X290514Y193979D01*
X290425Y193977D01*
X288379Y193977D01*
X295577Y190703D02*
X295577Y198069D01*
X297623Y198069D01*
X297712Y198067D01*
X297801Y198061D01*
X297890Y198051D01*
X297978Y198038D01*
X298066Y198021D01*
X298153Y197999D01*
X298238Y197974D01*
X298323Y197946D01*
X298406Y197913D01*
X298488Y197877D01*
X298568Y197838D01*
X298646Y197795D01*
X298722Y197749D01*
X298797Y197699D01*
X298869Y197646D01*
X298938Y197590D01*
X299005Y197531D01*
X299070Y197470D01*
X299131Y197405D01*
X299190Y197338D01*
X299246Y197269D01*
X299299Y197197D01*
X299349Y197122D01*
X299395Y197046D01*
X299438Y196968D01*
X299477Y196888D01*
X299513Y196806D01*
X299546Y196723D01*
X299574Y196638D01*
X299599Y196553D01*
X299621Y196466D01*
X299638Y196378D01*
X299651Y196290D01*
X299661Y196201D01*
X299667Y196112D01*
X299669Y196023D01*
X299669Y192749D01*
X299667Y192660D01*
X299661Y192571D01*
X299651Y192482D01*
X299638Y192394D01*
X299621Y192306D01*
X299599Y192219D01*
X299574Y192134D01*
X299546Y192049D01*
X299513Y191966D01*
X299477Y191884D01*
X299438Y191804D01*
X299395Y191726D01*
X299349Y191650D01*
X299299Y191575D01*
X299246Y191503D01*
X299190Y191434D01*
X299131Y191367D01*
X299070Y191302D01*
X299005Y191241D01*
X298938Y191182D01*
X298869Y191126D01*
X298797Y191073D01*
X298722Y191023D01*
X298646Y190977D01*
X298568Y190934D01*
X298488Y190895D01*
X298406Y190859D01*
X298323Y190826D01*
X298238Y190798D01*
X298153Y190773D01*
X298066Y190751D01*
X297978Y190734D01*
X297890Y190721D01*
X297801Y190711D01*
X297712Y190705D01*
X297623Y190703D01*
X295577Y190703D01*
X265775Y220195D02*
X264548Y220195D01*
X265775Y220195D02*
X265775Y216103D01*
X263320Y216103D01*
X263242Y216105D01*
X263164Y216110D01*
X263087Y216120D01*
X263010Y216133D01*
X262934Y216149D01*
X262859Y216169D01*
X262785Y216193D01*
X262712Y216220D01*
X262640Y216251D01*
X262570Y216285D01*
X262502Y216322D01*
X262435Y216363D01*
X262370Y216407D01*
X262308Y216453D01*
X262248Y216503D01*
X262190Y216555D01*
X262135Y216610D01*
X262083Y216668D01*
X262033Y216728D01*
X261987Y216790D01*
X261943Y216855D01*
X261902Y216922D01*
X261865Y216990D01*
X261831Y217060D01*
X261800Y217132D01*
X261773Y217205D01*
X261749Y217279D01*
X261729Y217354D01*
X261713Y217430D01*
X261700Y217507D01*
X261690Y217584D01*
X261685Y217662D01*
X261683Y217740D01*
X261683Y221832D01*
X261685Y221912D01*
X261691Y221992D01*
X261701Y222072D01*
X261714Y222151D01*
X261732Y222230D01*
X261753Y222307D01*
X261779Y222383D01*
X261808Y222458D01*
X261840Y222532D01*
X261876Y222604D01*
X261916Y222674D01*
X261959Y222741D01*
X262005Y222807D01*
X262055Y222870D01*
X262107Y222931D01*
X262162Y222990D01*
X262221Y223045D01*
X262281Y223097D01*
X262345Y223147D01*
X262411Y223193D01*
X262478Y223236D01*
X262548Y223276D01*
X262620Y223312D01*
X262694Y223344D01*
X262768Y223373D01*
X262845Y223399D01*
X262922Y223420D01*
X263001Y223438D01*
X263080Y223451D01*
X263160Y223461D01*
X263240Y223467D01*
X263320Y223469D01*
X265775Y223469D01*
X269604Y223469D02*
X269604Y216103D01*
X269604Y223469D02*
X271650Y223469D01*
X271739Y223467D01*
X271828Y223461D01*
X271917Y223451D01*
X272005Y223438D01*
X272093Y223421D01*
X272180Y223399D01*
X272265Y223374D01*
X272350Y223346D01*
X272433Y223313D01*
X272515Y223277D01*
X272595Y223238D01*
X272673Y223195D01*
X272749Y223149D01*
X272824Y223099D01*
X272896Y223046D01*
X272965Y222990D01*
X273032Y222931D01*
X273097Y222870D01*
X273158Y222805D01*
X273217Y222738D01*
X273273Y222669D01*
X273326Y222597D01*
X273376Y222522D01*
X273422Y222446D01*
X273465Y222368D01*
X273504Y222288D01*
X273540Y222206D01*
X273573Y222123D01*
X273601Y222038D01*
X273626Y221953D01*
X273648Y221866D01*
X273665Y221778D01*
X273678Y221690D01*
X273688Y221601D01*
X273694Y221512D01*
X273696Y221423D01*
X273694Y221334D01*
X273688Y221245D01*
X273678Y221156D01*
X273665Y221068D01*
X273648Y220980D01*
X273626Y220893D01*
X273601Y220808D01*
X273573Y220723D01*
X273540Y220640D01*
X273504Y220558D01*
X273465Y220478D01*
X273422Y220400D01*
X273376Y220324D01*
X273326Y220249D01*
X273273Y220177D01*
X273217Y220108D01*
X273158Y220041D01*
X273097Y219976D01*
X273032Y219915D01*
X272965Y219856D01*
X272896Y219800D01*
X272824Y219747D01*
X272749Y219697D01*
X272673Y219651D01*
X272595Y219608D01*
X272515Y219569D01*
X272433Y219533D01*
X272350Y219500D01*
X272265Y219472D01*
X272180Y219447D01*
X272093Y219425D01*
X272005Y219408D01*
X271917Y219395D01*
X271828Y219385D01*
X271739Y219379D01*
X271650Y219377D01*
X269604Y219377D01*
X277140Y216103D02*
X277140Y223469D01*
X276322Y216103D02*
X277959Y216103D01*
X277959Y223469D02*
X276322Y223469D01*
X280946Y221423D02*
X280946Y218149D01*
X280946Y221423D02*
X280948Y221512D01*
X280954Y221601D01*
X280964Y221690D01*
X280977Y221778D01*
X280994Y221866D01*
X281016Y221953D01*
X281041Y222038D01*
X281069Y222123D01*
X281102Y222206D01*
X281138Y222288D01*
X281177Y222368D01*
X281220Y222446D01*
X281266Y222522D01*
X281316Y222597D01*
X281369Y222669D01*
X281425Y222738D01*
X281484Y222805D01*
X281545Y222870D01*
X281610Y222931D01*
X281677Y222990D01*
X281746Y223046D01*
X281818Y223099D01*
X281893Y223149D01*
X281969Y223195D01*
X282047Y223238D01*
X282127Y223277D01*
X282209Y223313D01*
X282292Y223346D01*
X282377Y223374D01*
X282462Y223399D01*
X282549Y223421D01*
X282637Y223438D01*
X282725Y223451D01*
X282814Y223461D01*
X282903Y223467D01*
X282992Y223469D01*
X283081Y223467D01*
X283170Y223461D01*
X283259Y223451D01*
X283347Y223438D01*
X283435Y223421D01*
X283522Y223399D01*
X283607Y223374D01*
X283692Y223346D01*
X283775Y223313D01*
X283857Y223277D01*
X283937Y223238D01*
X284015Y223195D01*
X284091Y223149D01*
X284166Y223099D01*
X284238Y223046D01*
X284307Y222990D01*
X284374Y222931D01*
X284439Y222870D01*
X284500Y222805D01*
X284559Y222738D01*
X284615Y222669D01*
X284668Y222597D01*
X284718Y222522D01*
X284764Y222446D01*
X284807Y222368D01*
X284846Y222288D01*
X284882Y222206D01*
X284915Y222123D01*
X284943Y222038D01*
X284968Y221953D01*
X284990Y221866D01*
X285007Y221778D01*
X285020Y221690D01*
X285030Y221601D01*
X285036Y221512D01*
X285038Y221423D01*
X285039Y221423D02*
X285039Y218149D01*
X285038Y218149D02*
X285036Y218060D01*
X285030Y217971D01*
X285020Y217882D01*
X285007Y217794D01*
X284990Y217706D01*
X284968Y217619D01*
X284943Y217534D01*
X284915Y217449D01*
X284882Y217366D01*
X284846Y217284D01*
X284807Y217204D01*
X284764Y217126D01*
X284718Y217050D01*
X284668Y216975D01*
X284615Y216903D01*
X284559Y216834D01*
X284500Y216767D01*
X284439Y216702D01*
X284374Y216641D01*
X284307Y216582D01*
X284238Y216526D01*
X284166Y216473D01*
X284091Y216423D01*
X284015Y216377D01*
X283937Y216334D01*
X283857Y216295D01*
X283775Y216259D01*
X283692Y216226D01*
X283607Y216198D01*
X283522Y216173D01*
X283435Y216151D01*
X283347Y216134D01*
X283259Y216121D01*
X283170Y216111D01*
X283081Y216105D01*
X282992Y216103D01*
X282903Y216105D01*
X282814Y216111D01*
X282725Y216121D01*
X282637Y216134D01*
X282549Y216151D01*
X282462Y216173D01*
X282377Y216198D01*
X282292Y216226D01*
X282209Y216259D01*
X282127Y216295D01*
X282047Y216334D01*
X281969Y216377D01*
X281893Y216423D01*
X281818Y216473D01*
X281746Y216526D01*
X281677Y216582D01*
X281610Y216641D01*
X281545Y216702D01*
X281484Y216767D01*
X281425Y216834D01*
X281369Y216903D01*
X281316Y216975D01*
X281266Y217050D01*
X281220Y217126D01*
X281177Y217204D01*
X281138Y217284D01*
X281102Y217366D01*
X281069Y217449D01*
X281041Y217534D01*
X281016Y217619D01*
X280994Y217706D01*
X280977Y217794D01*
X280964Y217882D01*
X280954Y217971D01*
X280948Y218060D01*
X280946Y218149D01*
X288262Y221832D02*
X290308Y223469D01*
X290308Y216103D01*
X288262Y216103D02*
X292354Y216103D01*
X295577Y220195D02*
X298032Y220195D01*
X298110Y220193D01*
X298188Y220188D01*
X298265Y220178D01*
X298342Y220165D01*
X298418Y220149D01*
X298493Y220129D01*
X298567Y220105D01*
X298640Y220078D01*
X298712Y220047D01*
X298782Y220013D01*
X298851Y219976D01*
X298917Y219935D01*
X298982Y219891D01*
X299044Y219845D01*
X299104Y219795D01*
X299162Y219743D01*
X299217Y219688D01*
X299269Y219630D01*
X299319Y219570D01*
X299365Y219508D01*
X299409Y219443D01*
X299450Y219377D01*
X299487Y219308D01*
X299521Y219238D01*
X299552Y219166D01*
X299579Y219093D01*
X299603Y219019D01*
X299623Y218944D01*
X299639Y218868D01*
X299652Y218791D01*
X299662Y218714D01*
X299667Y218636D01*
X299669Y218558D01*
X299669Y218149D01*
X299667Y218060D01*
X299661Y217971D01*
X299651Y217882D01*
X299638Y217794D01*
X299621Y217706D01*
X299599Y217619D01*
X299574Y217534D01*
X299546Y217449D01*
X299513Y217366D01*
X299477Y217284D01*
X299438Y217204D01*
X299395Y217126D01*
X299349Y217050D01*
X299299Y216975D01*
X299246Y216903D01*
X299190Y216834D01*
X299131Y216767D01*
X299070Y216702D01*
X299005Y216641D01*
X298938Y216582D01*
X298869Y216526D01*
X298797Y216473D01*
X298722Y216423D01*
X298646Y216377D01*
X298568Y216334D01*
X298488Y216295D01*
X298406Y216259D01*
X298323Y216226D01*
X298238Y216198D01*
X298153Y216173D01*
X298066Y216151D01*
X297978Y216134D01*
X297890Y216121D01*
X297801Y216111D01*
X297712Y216105D01*
X297623Y216103D01*
X297534Y216105D01*
X297445Y216111D01*
X297356Y216121D01*
X297268Y216134D01*
X297180Y216151D01*
X297093Y216173D01*
X297008Y216198D01*
X296923Y216226D01*
X296840Y216259D01*
X296758Y216295D01*
X296678Y216334D01*
X296600Y216377D01*
X296524Y216423D01*
X296449Y216473D01*
X296377Y216526D01*
X296308Y216582D01*
X296241Y216641D01*
X296176Y216702D01*
X296115Y216767D01*
X296056Y216834D01*
X296000Y216903D01*
X295947Y216975D01*
X295897Y217050D01*
X295851Y217126D01*
X295808Y217204D01*
X295769Y217284D01*
X295733Y217366D01*
X295700Y217449D01*
X295672Y217534D01*
X295647Y217619D01*
X295625Y217706D01*
X295608Y217794D01*
X295595Y217882D01*
X295585Y217971D01*
X295579Y218060D01*
X295577Y218149D01*
X295577Y220195D01*
X295579Y220309D01*
X295585Y220423D01*
X295595Y220537D01*
X295609Y220651D01*
X295627Y220764D01*
X295649Y220876D01*
X295674Y220987D01*
X295704Y221097D01*
X295737Y221207D01*
X295774Y221315D01*
X295815Y221421D01*
X295860Y221527D01*
X295908Y221630D01*
X295960Y221732D01*
X296016Y221832D01*
X296074Y221930D01*
X296137Y222026D01*
X296202Y222119D01*
X296271Y222211D01*
X296343Y222299D01*
X296418Y222386D01*
X296496Y222469D01*
X296577Y222550D01*
X296660Y222628D01*
X296747Y222703D01*
X296835Y222775D01*
X296927Y222844D01*
X297020Y222909D01*
X297116Y222971D01*
X297214Y223030D01*
X297314Y223086D01*
X297416Y223138D01*
X297519Y223186D01*
X297625Y223231D01*
X297731Y223272D01*
X297839Y223309D01*
X297949Y223342D01*
X298059Y223372D01*
X298170Y223397D01*
X298282Y223419D01*
X298395Y223437D01*
X298509Y223451D01*
X298623Y223461D01*
X298737Y223467D01*
X298851Y223469D01*
X265775Y245595D02*
X264548Y245595D01*
X265775Y245595D02*
X265775Y241503D01*
X263320Y241503D01*
X263242Y241505D01*
X263164Y241510D01*
X263087Y241520D01*
X263010Y241533D01*
X262934Y241549D01*
X262859Y241569D01*
X262785Y241593D01*
X262712Y241620D01*
X262640Y241651D01*
X262570Y241685D01*
X262502Y241722D01*
X262435Y241763D01*
X262370Y241807D01*
X262308Y241853D01*
X262248Y241903D01*
X262190Y241955D01*
X262135Y242010D01*
X262083Y242068D01*
X262033Y242128D01*
X261987Y242190D01*
X261943Y242255D01*
X261902Y242322D01*
X261865Y242390D01*
X261831Y242460D01*
X261800Y242532D01*
X261773Y242605D01*
X261749Y242679D01*
X261729Y242754D01*
X261713Y242830D01*
X261700Y242907D01*
X261690Y242984D01*
X261685Y243062D01*
X261683Y243140D01*
X261683Y247232D01*
X261685Y247312D01*
X261691Y247392D01*
X261701Y247472D01*
X261714Y247551D01*
X261732Y247630D01*
X261753Y247707D01*
X261779Y247783D01*
X261808Y247858D01*
X261840Y247932D01*
X261876Y248004D01*
X261916Y248074D01*
X261959Y248141D01*
X262005Y248207D01*
X262055Y248270D01*
X262107Y248331D01*
X262162Y248390D01*
X262221Y248445D01*
X262281Y248497D01*
X262345Y248547D01*
X262411Y248593D01*
X262478Y248636D01*
X262548Y248676D01*
X262620Y248712D01*
X262694Y248744D01*
X262768Y248773D01*
X262845Y248799D01*
X262922Y248820D01*
X263001Y248838D01*
X263080Y248851D01*
X263160Y248861D01*
X263240Y248867D01*
X263320Y248869D01*
X265775Y248869D01*
X269604Y248869D02*
X269604Y241503D01*
X269604Y248869D02*
X271650Y248869D01*
X271739Y248867D01*
X271828Y248861D01*
X271917Y248851D01*
X272005Y248838D01*
X272093Y248821D01*
X272180Y248799D01*
X272265Y248774D01*
X272350Y248746D01*
X272433Y248713D01*
X272515Y248677D01*
X272595Y248638D01*
X272673Y248595D01*
X272749Y248549D01*
X272824Y248499D01*
X272896Y248446D01*
X272965Y248390D01*
X273032Y248331D01*
X273097Y248270D01*
X273158Y248205D01*
X273217Y248138D01*
X273273Y248069D01*
X273326Y247997D01*
X273376Y247922D01*
X273422Y247846D01*
X273465Y247768D01*
X273504Y247688D01*
X273540Y247606D01*
X273573Y247523D01*
X273601Y247438D01*
X273626Y247353D01*
X273648Y247266D01*
X273665Y247178D01*
X273678Y247090D01*
X273688Y247001D01*
X273694Y246912D01*
X273696Y246823D01*
X273694Y246734D01*
X273688Y246645D01*
X273678Y246556D01*
X273665Y246468D01*
X273648Y246380D01*
X273626Y246293D01*
X273601Y246208D01*
X273573Y246123D01*
X273540Y246040D01*
X273504Y245958D01*
X273465Y245878D01*
X273422Y245800D01*
X273376Y245724D01*
X273326Y245649D01*
X273273Y245577D01*
X273217Y245508D01*
X273158Y245441D01*
X273097Y245376D01*
X273032Y245315D01*
X272965Y245256D01*
X272896Y245200D01*
X272824Y245147D01*
X272749Y245097D01*
X272673Y245051D01*
X272595Y245008D01*
X272515Y244969D01*
X272433Y244933D01*
X272350Y244900D01*
X272265Y244872D01*
X272180Y244847D01*
X272093Y244825D01*
X272005Y244808D01*
X271917Y244795D01*
X271828Y244785D01*
X271739Y244779D01*
X271650Y244777D01*
X269604Y244777D01*
X277140Y241503D02*
X277140Y248869D01*
X276322Y241503D02*
X277959Y241503D01*
X277959Y248869D02*
X276322Y248869D01*
X280946Y246823D02*
X280946Y243549D01*
X280946Y246823D02*
X280948Y246912D01*
X280954Y247001D01*
X280964Y247090D01*
X280977Y247178D01*
X280994Y247266D01*
X281016Y247353D01*
X281041Y247438D01*
X281069Y247523D01*
X281102Y247606D01*
X281138Y247688D01*
X281177Y247768D01*
X281220Y247846D01*
X281266Y247922D01*
X281316Y247997D01*
X281369Y248069D01*
X281425Y248138D01*
X281484Y248205D01*
X281545Y248270D01*
X281610Y248331D01*
X281677Y248390D01*
X281746Y248446D01*
X281818Y248499D01*
X281893Y248549D01*
X281969Y248595D01*
X282047Y248638D01*
X282127Y248677D01*
X282209Y248713D01*
X282292Y248746D01*
X282377Y248774D01*
X282462Y248799D01*
X282549Y248821D01*
X282637Y248838D01*
X282725Y248851D01*
X282814Y248861D01*
X282903Y248867D01*
X282992Y248869D01*
X283081Y248867D01*
X283170Y248861D01*
X283259Y248851D01*
X283347Y248838D01*
X283435Y248821D01*
X283522Y248799D01*
X283607Y248774D01*
X283692Y248746D01*
X283775Y248713D01*
X283857Y248677D01*
X283937Y248638D01*
X284015Y248595D01*
X284091Y248549D01*
X284166Y248499D01*
X284238Y248446D01*
X284307Y248390D01*
X284374Y248331D01*
X284439Y248270D01*
X284500Y248205D01*
X284559Y248138D01*
X284615Y248069D01*
X284668Y247997D01*
X284718Y247922D01*
X284764Y247846D01*
X284807Y247768D01*
X284846Y247688D01*
X284882Y247606D01*
X284915Y247523D01*
X284943Y247438D01*
X284968Y247353D01*
X284990Y247266D01*
X285007Y247178D01*
X285020Y247090D01*
X285030Y247001D01*
X285036Y246912D01*
X285038Y246823D01*
X285039Y246823D02*
X285039Y243549D01*
X285038Y243549D02*
X285036Y243460D01*
X285030Y243371D01*
X285020Y243282D01*
X285007Y243194D01*
X284990Y243106D01*
X284968Y243019D01*
X284943Y242934D01*
X284915Y242849D01*
X284882Y242766D01*
X284846Y242684D01*
X284807Y242604D01*
X284764Y242526D01*
X284718Y242450D01*
X284668Y242375D01*
X284615Y242303D01*
X284559Y242234D01*
X284500Y242167D01*
X284439Y242102D01*
X284374Y242041D01*
X284307Y241982D01*
X284238Y241926D01*
X284166Y241873D01*
X284091Y241823D01*
X284015Y241777D01*
X283937Y241734D01*
X283857Y241695D01*
X283775Y241659D01*
X283692Y241626D01*
X283607Y241598D01*
X283522Y241573D01*
X283435Y241551D01*
X283347Y241534D01*
X283259Y241521D01*
X283170Y241511D01*
X283081Y241505D01*
X282992Y241503D01*
X282903Y241505D01*
X282814Y241511D01*
X282725Y241521D01*
X282637Y241534D01*
X282549Y241551D01*
X282462Y241573D01*
X282377Y241598D01*
X282292Y241626D01*
X282209Y241659D01*
X282127Y241695D01*
X282047Y241734D01*
X281969Y241777D01*
X281893Y241823D01*
X281818Y241873D01*
X281746Y241926D01*
X281677Y241982D01*
X281610Y242041D01*
X281545Y242102D01*
X281484Y242167D01*
X281425Y242234D01*
X281369Y242303D01*
X281316Y242375D01*
X281266Y242450D01*
X281220Y242526D01*
X281177Y242604D01*
X281138Y242684D01*
X281102Y242766D01*
X281069Y242849D01*
X281041Y242934D01*
X281016Y243019D01*
X280994Y243106D01*
X280977Y243194D01*
X280964Y243282D01*
X280954Y243371D01*
X280948Y243460D01*
X280946Y243549D01*
X288262Y247232D02*
X290308Y248869D01*
X290308Y241503D01*
X288262Y241503D02*
X292354Y241503D01*
X295577Y243140D02*
X297214Y248869D01*
X295577Y243140D02*
X299669Y243140D01*
X298441Y244777D02*
X298441Y241503D01*
X265775Y270995D02*
X264548Y270995D01*
X265775Y270995D02*
X265775Y266903D01*
X263320Y266903D01*
X263242Y266905D01*
X263164Y266910D01*
X263087Y266920D01*
X263010Y266933D01*
X262934Y266949D01*
X262859Y266969D01*
X262785Y266993D01*
X262712Y267020D01*
X262640Y267051D01*
X262570Y267085D01*
X262502Y267122D01*
X262435Y267163D01*
X262370Y267207D01*
X262308Y267253D01*
X262248Y267303D01*
X262190Y267355D01*
X262135Y267410D01*
X262083Y267468D01*
X262033Y267528D01*
X261987Y267590D01*
X261943Y267655D01*
X261902Y267722D01*
X261865Y267790D01*
X261831Y267860D01*
X261800Y267932D01*
X261773Y268005D01*
X261749Y268079D01*
X261729Y268154D01*
X261713Y268230D01*
X261700Y268307D01*
X261690Y268384D01*
X261685Y268462D01*
X261683Y268540D01*
X261683Y272632D01*
X261685Y272712D01*
X261691Y272792D01*
X261701Y272872D01*
X261714Y272951D01*
X261732Y273030D01*
X261753Y273107D01*
X261779Y273183D01*
X261808Y273258D01*
X261840Y273332D01*
X261876Y273404D01*
X261916Y273474D01*
X261959Y273541D01*
X262005Y273607D01*
X262055Y273670D01*
X262107Y273731D01*
X262162Y273790D01*
X262221Y273845D01*
X262281Y273897D01*
X262345Y273947D01*
X262411Y273993D01*
X262478Y274036D01*
X262548Y274076D01*
X262620Y274112D01*
X262694Y274144D01*
X262768Y274173D01*
X262845Y274199D01*
X262922Y274220D01*
X263001Y274238D01*
X263080Y274251D01*
X263160Y274261D01*
X263240Y274267D01*
X263320Y274269D01*
X265775Y274269D01*
X269604Y274269D02*
X269604Y266903D01*
X269604Y274269D02*
X271650Y274269D01*
X271739Y274267D01*
X271828Y274261D01*
X271917Y274251D01*
X272005Y274238D01*
X272093Y274221D01*
X272180Y274199D01*
X272265Y274174D01*
X272350Y274146D01*
X272433Y274113D01*
X272515Y274077D01*
X272595Y274038D01*
X272673Y273995D01*
X272749Y273949D01*
X272824Y273899D01*
X272896Y273846D01*
X272965Y273790D01*
X273032Y273731D01*
X273097Y273670D01*
X273158Y273605D01*
X273217Y273538D01*
X273273Y273469D01*
X273326Y273397D01*
X273376Y273322D01*
X273422Y273246D01*
X273465Y273168D01*
X273504Y273088D01*
X273540Y273006D01*
X273573Y272923D01*
X273601Y272838D01*
X273626Y272753D01*
X273648Y272666D01*
X273665Y272578D01*
X273678Y272490D01*
X273688Y272401D01*
X273694Y272312D01*
X273696Y272223D01*
X273694Y272134D01*
X273688Y272045D01*
X273678Y271956D01*
X273665Y271868D01*
X273648Y271780D01*
X273626Y271693D01*
X273601Y271608D01*
X273573Y271523D01*
X273540Y271440D01*
X273504Y271358D01*
X273465Y271278D01*
X273422Y271200D01*
X273376Y271124D01*
X273326Y271049D01*
X273273Y270977D01*
X273217Y270908D01*
X273158Y270841D01*
X273097Y270776D01*
X273032Y270715D01*
X272965Y270656D01*
X272896Y270600D01*
X272824Y270547D01*
X272749Y270497D01*
X272673Y270451D01*
X272595Y270408D01*
X272515Y270369D01*
X272433Y270333D01*
X272350Y270300D01*
X272265Y270272D01*
X272180Y270247D01*
X272093Y270225D01*
X272005Y270208D01*
X271917Y270195D01*
X271828Y270185D01*
X271739Y270179D01*
X271650Y270177D01*
X269604Y270177D01*
X277140Y266903D02*
X277140Y274269D01*
X276322Y266903D02*
X277959Y266903D01*
X277959Y274269D02*
X276322Y274269D01*
X280946Y272223D02*
X280946Y268949D01*
X280946Y272223D02*
X280948Y272312D01*
X280954Y272401D01*
X280964Y272490D01*
X280977Y272578D01*
X280994Y272666D01*
X281016Y272753D01*
X281041Y272838D01*
X281069Y272923D01*
X281102Y273006D01*
X281138Y273088D01*
X281177Y273168D01*
X281220Y273246D01*
X281266Y273322D01*
X281316Y273397D01*
X281369Y273469D01*
X281425Y273538D01*
X281484Y273605D01*
X281545Y273670D01*
X281610Y273731D01*
X281677Y273790D01*
X281746Y273846D01*
X281818Y273899D01*
X281893Y273949D01*
X281969Y273995D01*
X282047Y274038D01*
X282127Y274077D01*
X282209Y274113D01*
X282292Y274146D01*
X282377Y274174D01*
X282462Y274199D01*
X282549Y274221D01*
X282637Y274238D01*
X282725Y274251D01*
X282814Y274261D01*
X282903Y274267D01*
X282992Y274269D01*
X283081Y274267D01*
X283170Y274261D01*
X283259Y274251D01*
X283347Y274238D01*
X283435Y274221D01*
X283522Y274199D01*
X283607Y274174D01*
X283692Y274146D01*
X283775Y274113D01*
X283857Y274077D01*
X283937Y274038D01*
X284015Y273995D01*
X284091Y273949D01*
X284166Y273899D01*
X284238Y273846D01*
X284307Y273790D01*
X284374Y273731D01*
X284439Y273670D01*
X284500Y273605D01*
X284559Y273538D01*
X284615Y273469D01*
X284668Y273397D01*
X284718Y273322D01*
X284764Y273246D01*
X284807Y273168D01*
X284846Y273088D01*
X284882Y273006D01*
X284915Y272923D01*
X284943Y272838D01*
X284968Y272753D01*
X284990Y272666D01*
X285007Y272578D01*
X285020Y272490D01*
X285030Y272401D01*
X285036Y272312D01*
X285038Y272223D01*
X285039Y272223D02*
X285039Y268949D01*
X285038Y268949D02*
X285036Y268860D01*
X285030Y268771D01*
X285020Y268682D01*
X285007Y268594D01*
X284990Y268506D01*
X284968Y268419D01*
X284943Y268334D01*
X284915Y268249D01*
X284882Y268166D01*
X284846Y268084D01*
X284807Y268004D01*
X284764Y267926D01*
X284718Y267850D01*
X284668Y267775D01*
X284615Y267703D01*
X284559Y267634D01*
X284500Y267567D01*
X284439Y267502D01*
X284374Y267441D01*
X284307Y267382D01*
X284238Y267326D01*
X284166Y267273D01*
X284091Y267223D01*
X284015Y267177D01*
X283937Y267134D01*
X283857Y267095D01*
X283775Y267059D01*
X283692Y267026D01*
X283607Y266998D01*
X283522Y266973D01*
X283435Y266951D01*
X283347Y266934D01*
X283259Y266921D01*
X283170Y266911D01*
X283081Y266905D01*
X282992Y266903D01*
X282903Y266905D01*
X282814Y266911D01*
X282725Y266921D01*
X282637Y266934D01*
X282549Y266951D01*
X282462Y266973D01*
X282377Y266998D01*
X282292Y267026D01*
X282209Y267059D01*
X282127Y267095D01*
X282047Y267134D01*
X281969Y267177D01*
X281893Y267223D01*
X281818Y267273D01*
X281746Y267326D01*
X281677Y267382D01*
X281610Y267441D01*
X281545Y267502D01*
X281484Y267567D01*
X281425Y267634D01*
X281369Y267703D01*
X281316Y267775D01*
X281266Y267850D01*
X281220Y267926D01*
X281177Y268004D01*
X281138Y268084D01*
X281102Y268166D01*
X281069Y268249D01*
X281041Y268334D01*
X281016Y268419D01*
X280994Y268506D01*
X280977Y268594D01*
X280964Y268682D01*
X280954Y268771D01*
X280948Y268860D01*
X280946Y268949D01*
X288262Y272632D02*
X290308Y274269D01*
X290308Y266903D01*
X288262Y266903D02*
X292354Y266903D01*
X299670Y272428D02*
X299668Y272513D01*
X299662Y272598D01*
X299652Y272682D01*
X299639Y272766D01*
X299621Y272850D01*
X299600Y272932D01*
X299575Y273013D01*
X299546Y273093D01*
X299513Y273172D01*
X299477Y273249D01*
X299437Y273324D01*
X299394Y273398D01*
X299348Y273469D01*
X299298Y273538D01*
X299245Y273605D01*
X299189Y273669D01*
X299130Y273730D01*
X299069Y273789D01*
X299005Y273845D01*
X298938Y273898D01*
X298869Y273948D01*
X298798Y273994D01*
X298724Y274037D01*
X298649Y274077D01*
X298572Y274113D01*
X298493Y274146D01*
X298413Y274175D01*
X298332Y274200D01*
X298250Y274221D01*
X298166Y274239D01*
X298082Y274252D01*
X297998Y274262D01*
X297913Y274268D01*
X297828Y274270D01*
X297828Y274269D02*
X297732Y274267D01*
X297636Y274261D01*
X297541Y274251D01*
X297446Y274238D01*
X297351Y274220D01*
X297258Y274199D01*
X297165Y274174D01*
X297074Y274145D01*
X296983Y274113D01*
X296894Y274077D01*
X296807Y274037D01*
X296721Y273994D01*
X296637Y273948D01*
X296555Y273898D01*
X296475Y273844D01*
X296398Y273788D01*
X296323Y273728D01*
X296250Y273666D01*
X296180Y273600D01*
X296112Y273532D01*
X296047Y273461D01*
X295986Y273388D01*
X295927Y273312D01*
X295871Y273233D01*
X295819Y273153D01*
X295770Y273070D01*
X295724Y272986D01*
X295682Y272900D01*
X295644Y272812D01*
X295609Y272723D01*
X295577Y272632D01*
X299055Y270996D02*
X299115Y271055D01*
X299172Y271117D01*
X299227Y271181D01*
X299278Y271248D01*
X299327Y271317D01*
X299373Y271387D01*
X299416Y271460D01*
X299456Y271534D01*
X299492Y271610D01*
X299525Y271688D01*
X299555Y271767D01*
X299582Y271847D01*
X299605Y271928D01*
X299624Y272010D01*
X299640Y272092D01*
X299653Y272176D01*
X299662Y272260D01*
X299667Y272344D01*
X299669Y272428D01*
X299055Y270995D02*
X295577Y266903D01*
X299669Y266903D01*
X265775Y296395D02*
X264548Y296395D01*
X265775Y296395D02*
X265775Y292303D01*
X263320Y292303D01*
X263242Y292305D01*
X263164Y292310D01*
X263087Y292320D01*
X263010Y292333D01*
X262934Y292349D01*
X262859Y292369D01*
X262785Y292393D01*
X262712Y292420D01*
X262640Y292451D01*
X262570Y292485D01*
X262502Y292522D01*
X262435Y292563D01*
X262370Y292607D01*
X262308Y292653D01*
X262248Y292703D01*
X262190Y292755D01*
X262135Y292810D01*
X262083Y292868D01*
X262033Y292928D01*
X261987Y292990D01*
X261943Y293055D01*
X261902Y293122D01*
X261865Y293190D01*
X261831Y293260D01*
X261800Y293332D01*
X261773Y293405D01*
X261749Y293479D01*
X261729Y293554D01*
X261713Y293630D01*
X261700Y293707D01*
X261690Y293784D01*
X261685Y293862D01*
X261683Y293940D01*
X261683Y298032D01*
X261685Y298112D01*
X261691Y298192D01*
X261701Y298272D01*
X261714Y298351D01*
X261732Y298430D01*
X261753Y298507D01*
X261779Y298583D01*
X261808Y298658D01*
X261840Y298732D01*
X261876Y298804D01*
X261916Y298874D01*
X261959Y298941D01*
X262005Y299007D01*
X262055Y299070D01*
X262107Y299131D01*
X262162Y299190D01*
X262221Y299245D01*
X262281Y299297D01*
X262345Y299347D01*
X262411Y299393D01*
X262478Y299436D01*
X262548Y299476D01*
X262620Y299512D01*
X262694Y299544D01*
X262768Y299573D01*
X262845Y299599D01*
X262922Y299620D01*
X263001Y299638D01*
X263080Y299651D01*
X263160Y299661D01*
X263240Y299667D01*
X263320Y299669D01*
X265775Y299669D01*
X269604Y299669D02*
X269604Y292303D01*
X269604Y299669D02*
X271650Y299669D01*
X271739Y299667D01*
X271828Y299661D01*
X271917Y299651D01*
X272005Y299638D01*
X272093Y299621D01*
X272180Y299599D01*
X272265Y299574D01*
X272350Y299546D01*
X272433Y299513D01*
X272515Y299477D01*
X272595Y299438D01*
X272673Y299395D01*
X272749Y299349D01*
X272824Y299299D01*
X272896Y299246D01*
X272965Y299190D01*
X273032Y299131D01*
X273097Y299070D01*
X273158Y299005D01*
X273217Y298938D01*
X273273Y298869D01*
X273326Y298797D01*
X273376Y298722D01*
X273422Y298646D01*
X273465Y298568D01*
X273504Y298488D01*
X273540Y298406D01*
X273573Y298323D01*
X273601Y298238D01*
X273626Y298153D01*
X273648Y298066D01*
X273665Y297978D01*
X273678Y297890D01*
X273688Y297801D01*
X273694Y297712D01*
X273696Y297623D01*
X273694Y297534D01*
X273688Y297445D01*
X273678Y297356D01*
X273665Y297268D01*
X273648Y297180D01*
X273626Y297093D01*
X273601Y297008D01*
X273573Y296923D01*
X273540Y296840D01*
X273504Y296758D01*
X273465Y296678D01*
X273422Y296600D01*
X273376Y296524D01*
X273326Y296449D01*
X273273Y296377D01*
X273217Y296308D01*
X273158Y296241D01*
X273097Y296176D01*
X273032Y296115D01*
X272965Y296056D01*
X272896Y296000D01*
X272824Y295947D01*
X272749Y295897D01*
X272673Y295851D01*
X272595Y295808D01*
X272515Y295769D01*
X272433Y295733D01*
X272350Y295700D01*
X272265Y295672D01*
X272180Y295647D01*
X272093Y295625D01*
X272005Y295608D01*
X271917Y295595D01*
X271828Y295585D01*
X271739Y295579D01*
X271650Y295577D01*
X269604Y295577D01*
X277140Y292303D02*
X277140Y299669D01*
X276322Y292303D02*
X277959Y292303D01*
X277959Y299669D02*
X276322Y299669D01*
X280946Y297623D02*
X280946Y294349D01*
X280946Y297623D02*
X280948Y297712D01*
X280954Y297801D01*
X280964Y297890D01*
X280977Y297978D01*
X280994Y298066D01*
X281016Y298153D01*
X281041Y298238D01*
X281069Y298323D01*
X281102Y298406D01*
X281138Y298488D01*
X281177Y298568D01*
X281220Y298646D01*
X281266Y298722D01*
X281316Y298797D01*
X281369Y298869D01*
X281425Y298938D01*
X281484Y299005D01*
X281545Y299070D01*
X281610Y299131D01*
X281677Y299190D01*
X281746Y299246D01*
X281818Y299299D01*
X281893Y299349D01*
X281969Y299395D01*
X282047Y299438D01*
X282127Y299477D01*
X282209Y299513D01*
X282292Y299546D01*
X282377Y299574D01*
X282462Y299599D01*
X282549Y299621D01*
X282637Y299638D01*
X282725Y299651D01*
X282814Y299661D01*
X282903Y299667D01*
X282992Y299669D01*
X283081Y299667D01*
X283170Y299661D01*
X283259Y299651D01*
X283347Y299638D01*
X283435Y299621D01*
X283522Y299599D01*
X283607Y299574D01*
X283692Y299546D01*
X283775Y299513D01*
X283857Y299477D01*
X283937Y299438D01*
X284015Y299395D01*
X284091Y299349D01*
X284166Y299299D01*
X284238Y299246D01*
X284307Y299190D01*
X284374Y299131D01*
X284439Y299070D01*
X284500Y299005D01*
X284559Y298938D01*
X284615Y298869D01*
X284668Y298797D01*
X284718Y298722D01*
X284764Y298646D01*
X284807Y298568D01*
X284846Y298488D01*
X284882Y298406D01*
X284915Y298323D01*
X284943Y298238D01*
X284968Y298153D01*
X284990Y298066D01*
X285007Y297978D01*
X285020Y297890D01*
X285030Y297801D01*
X285036Y297712D01*
X285038Y297623D01*
X285039Y297623D02*
X285039Y294349D01*
X285038Y294349D02*
X285036Y294260D01*
X285030Y294171D01*
X285020Y294082D01*
X285007Y293994D01*
X284990Y293906D01*
X284968Y293819D01*
X284943Y293734D01*
X284915Y293649D01*
X284882Y293566D01*
X284846Y293484D01*
X284807Y293404D01*
X284764Y293326D01*
X284718Y293250D01*
X284668Y293175D01*
X284615Y293103D01*
X284559Y293034D01*
X284500Y292967D01*
X284439Y292902D01*
X284374Y292841D01*
X284307Y292782D01*
X284238Y292726D01*
X284166Y292673D01*
X284091Y292623D01*
X284015Y292577D01*
X283937Y292534D01*
X283857Y292495D01*
X283775Y292459D01*
X283692Y292426D01*
X283607Y292398D01*
X283522Y292373D01*
X283435Y292351D01*
X283347Y292334D01*
X283259Y292321D01*
X283170Y292311D01*
X283081Y292305D01*
X282992Y292303D01*
X282903Y292305D01*
X282814Y292311D01*
X282725Y292321D01*
X282637Y292334D01*
X282549Y292351D01*
X282462Y292373D01*
X282377Y292398D01*
X282292Y292426D01*
X282209Y292459D01*
X282127Y292495D01*
X282047Y292534D01*
X281969Y292577D01*
X281893Y292623D01*
X281818Y292673D01*
X281746Y292726D01*
X281677Y292782D01*
X281610Y292841D01*
X281545Y292902D01*
X281484Y292967D01*
X281425Y293034D01*
X281369Y293103D01*
X281316Y293175D01*
X281266Y293250D01*
X281220Y293326D01*
X281177Y293404D01*
X281138Y293484D01*
X281102Y293566D01*
X281069Y293649D01*
X281041Y293734D01*
X281016Y293819D01*
X280994Y293906D01*
X280977Y293994D01*
X280964Y294082D01*
X280954Y294171D01*
X280948Y294260D01*
X280946Y294349D01*
X288262Y298032D02*
X290308Y299669D01*
X290308Y292303D01*
X288262Y292303D02*
X292354Y292303D01*
X295577Y292303D02*
X297623Y292303D01*
X297712Y292305D01*
X297801Y292311D01*
X297890Y292321D01*
X297978Y292334D01*
X298066Y292351D01*
X298153Y292373D01*
X298238Y292398D01*
X298323Y292426D01*
X298406Y292459D01*
X298488Y292495D01*
X298568Y292534D01*
X298646Y292577D01*
X298722Y292623D01*
X298797Y292673D01*
X298869Y292726D01*
X298938Y292782D01*
X299005Y292841D01*
X299070Y292902D01*
X299131Y292967D01*
X299190Y293034D01*
X299246Y293103D01*
X299299Y293175D01*
X299349Y293250D01*
X299395Y293326D01*
X299438Y293404D01*
X299477Y293484D01*
X299513Y293566D01*
X299546Y293649D01*
X299574Y293734D01*
X299599Y293819D01*
X299621Y293906D01*
X299638Y293994D01*
X299651Y294082D01*
X299661Y294171D01*
X299667Y294260D01*
X299669Y294349D01*
X299667Y294438D01*
X299661Y294527D01*
X299651Y294616D01*
X299638Y294704D01*
X299621Y294792D01*
X299599Y294879D01*
X299574Y294964D01*
X299546Y295049D01*
X299513Y295132D01*
X299477Y295214D01*
X299438Y295294D01*
X299395Y295372D01*
X299349Y295448D01*
X299299Y295523D01*
X299246Y295595D01*
X299190Y295664D01*
X299131Y295731D01*
X299070Y295796D01*
X299005Y295857D01*
X298938Y295916D01*
X298869Y295972D01*
X298797Y296025D01*
X298722Y296075D01*
X298646Y296121D01*
X298568Y296164D01*
X298488Y296203D01*
X298406Y296239D01*
X298323Y296272D01*
X298238Y296300D01*
X298153Y296325D01*
X298066Y296347D01*
X297978Y296364D01*
X297890Y296377D01*
X297801Y296387D01*
X297712Y296393D01*
X297623Y296395D01*
X298032Y299669D02*
X295577Y299669D01*
X298032Y299669D02*
X298111Y299667D01*
X298190Y299661D01*
X298269Y299652D01*
X298347Y299639D01*
X298424Y299621D01*
X298500Y299601D01*
X298575Y299576D01*
X298649Y299548D01*
X298722Y299517D01*
X298793Y299481D01*
X298862Y299443D01*
X298929Y299401D01*
X298994Y299356D01*
X299057Y299308D01*
X299118Y299257D01*
X299175Y299203D01*
X299231Y299147D01*
X299283Y299088D01*
X299333Y299026D01*
X299379Y298962D01*
X299423Y298896D01*
X299463Y298828D01*
X299499Y298758D01*
X299533Y298686D01*
X299563Y298612D01*
X299589Y298538D01*
X299612Y298462D01*
X299630Y298385D01*
X299646Y298308D01*
X299657Y298229D01*
X299665Y298151D01*
X299669Y298072D01*
X299669Y297992D01*
X299665Y297913D01*
X299657Y297835D01*
X299646Y297756D01*
X299630Y297679D01*
X299612Y297602D01*
X299589Y297526D01*
X299563Y297452D01*
X299533Y297378D01*
X299499Y297306D01*
X299463Y297236D01*
X299423Y297168D01*
X299379Y297102D01*
X299333Y297038D01*
X299283Y296976D01*
X299231Y296917D01*
X299175Y296861D01*
X299118Y296807D01*
X299057Y296756D01*
X298994Y296708D01*
X298929Y296663D01*
X298862Y296621D01*
X298793Y296583D01*
X298722Y296547D01*
X298649Y296516D01*
X298575Y296488D01*
X298500Y296463D01*
X298424Y296443D01*
X298347Y296425D01*
X298269Y296412D01*
X298190Y296403D01*
X298111Y296397D01*
X298032Y296395D01*
X296395Y296395D01*
X285053Y317703D02*
X282598Y325069D01*
X287509Y325069D02*
X285053Y317703D01*
X291936Y317703D02*
X293573Y317703D01*
X291936Y317703D02*
X291858Y317705D01*
X291780Y317710D01*
X291703Y317720D01*
X291626Y317733D01*
X291550Y317749D01*
X291475Y317769D01*
X291401Y317793D01*
X291328Y317820D01*
X291256Y317851D01*
X291186Y317885D01*
X291118Y317922D01*
X291051Y317963D01*
X290986Y318007D01*
X290924Y318053D01*
X290864Y318103D01*
X290806Y318155D01*
X290751Y318210D01*
X290699Y318268D01*
X290649Y318328D01*
X290603Y318390D01*
X290559Y318455D01*
X290518Y318522D01*
X290481Y318590D01*
X290447Y318660D01*
X290416Y318732D01*
X290389Y318805D01*
X290365Y318879D01*
X290345Y318954D01*
X290329Y319030D01*
X290316Y319107D01*
X290306Y319184D01*
X290301Y319262D01*
X290299Y319340D01*
X290299Y323432D01*
X290301Y323512D01*
X290307Y323592D01*
X290317Y323672D01*
X290330Y323751D01*
X290348Y323830D01*
X290369Y323907D01*
X290395Y323983D01*
X290424Y324058D01*
X290456Y324132D01*
X290492Y324204D01*
X290532Y324274D01*
X290575Y324341D01*
X290621Y324407D01*
X290671Y324470D01*
X290723Y324531D01*
X290778Y324590D01*
X290837Y324645D01*
X290897Y324697D01*
X290961Y324747D01*
X291027Y324793D01*
X291094Y324836D01*
X291164Y324876D01*
X291236Y324912D01*
X291310Y324944D01*
X291384Y324973D01*
X291461Y324999D01*
X291538Y325020D01*
X291617Y325038D01*
X291696Y325051D01*
X291776Y325061D01*
X291856Y325067D01*
X291936Y325069D01*
X293573Y325069D01*
X298032Y317703D02*
X299669Y317703D01*
X298032Y317703D02*
X297954Y317705D01*
X297876Y317710D01*
X297799Y317720D01*
X297722Y317733D01*
X297646Y317749D01*
X297571Y317769D01*
X297497Y317793D01*
X297424Y317820D01*
X297352Y317851D01*
X297282Y317885D01*
X297214Y317922D01*
X297147Y317963D01*
X297082Y318007D01*
X297020Y318053D01*
X296960Y318103D01*
X296902Y318155D01*
X296847Y318210D01*
X296795Y318268D01*
X296745Y318328D01*
X296699Y318390D01*
X296655Y318455D01*
X296614Y318522D01*
X296577Y318590D01*
X296543Y318660D01*
X296512Y318732D01*
X296485Y318805D01*
X296461Y318879D01*
X296441Y318954D01*
X296425Y319030D01*
X296412Y319107D01*
X296402Y319184D01*
X296397Y319262D01*
X296395Y319340D01*
X296395Y323432D01*
X296397Y323512D01*
X296403Y323592D01*
X296413Y323672D01*
X296426Y323751D01*
X296444Y323830D01*
X296465Y323907D01*
X296491Y323983D01*
X296520Y324058D01*
X296552Y324132D01*
X296588Y324204D01*
X296628Y324274D01*
X296671Y324341D01*
X296717Y324407D01*
X296767Y324470D01*
X296819Y324531D01*
X296874Y324590D01*
X296933Y324645D01*
X296993Y324697D01*
X297057Y324747D01*
X297123Y324793D01*
X297190Y324836D01*
X297260Y324876D01*
X297332Y324912D01*
X297406Y324944D01*
X297480Y324973D01*
X297557Y324999D01*
X297634Y325020D01*
X297713Y325038D01*
X297792Y325051D01*
X297872Y325061D01*
X297952Y325067D01*
X298032Y325069D01*
X299669Y325069D01*
X68163Y321795D02*
X66936Y321795D01*
X68163Y321795D02*
X68163Y317703D01*
X65708Y317703D01*
X65630Y317705D01*
X65552Y317710D01*
X65475Y317720D01*
X65398Y317733D01*
X65322Y317749D01*
X65247Y317769D01*
X65173Y317793D01*
X65100Y317820D01*
X65028Y317851D01*
X64958Y317885D01*
X64890Y317922D01*
X64823Y317963D01*
X64758Y318007D01*
X64696Y318053D01*
X64636Y318103D01*
X64578Y318155D01*
X64523Y318210D01*
X64471Y318268D01*
X64421Y318328D01*
X64375Y318390D01*
X64331Y318455D01*
X64290Y318522D01*
X64253Y318590D01*
X64219Y318660D01*
X64188Y318732D01*
X64161Y318805D01*
X64137Y318879D01*
X64117Y318954D01*
X64101Y319030D01*
X64088Y319107D01*
X64078Y319184D01*
X64073Y319262D01*
X64071Y319340D01*
X64071Y323432D01*
X64073Y323510D01*
X64078Y323588D01*
X64088Y323665D01*
X64101Y323742D01*
X64117Y323818D01*
X64137Y323893D01*
X64161Y323967D01*
X64188Y324040D01*
X64219Y324112D01*
X64253Y324182D01*
X64290Y324251D01*
X64331Y324317D01*
X64375Y324382D01*
X64421Y324444D01*
X64471Y324504D01*
X64523Y324562D01*
X64578Y324617D01*
X64636Y324669D01*
X64696Y324719D01*
X64758Y324765D01*
X64823Y324809D01*
X64890Y324850D01*
X64958Y324887D01*
X65028Y324921D01*
X65100Y324952D01*
X65173Y324979D01*
X65247Y325003D01*
X65322Y325023D01*
X65398Y325039D01*
X65475Y325052D01*
X65552Y325062D01*
X65630Y325067D01*
X65708Y325069D01*
X68163Y325069D01*
X71874Y325069D02*
X71874Y317703D01*
X75966Y317703D02*
X71874Y325069D01*
X75966Y325069D02*
X75966Y317703D01*
X79677Y317703D02*
X79677Y325069D01*
X81723Y325069D01*
X81812Y325067D01*
X81901Y325061D01*
X81990Y325051D01*
X82078Y325038D01*
X82166Y325021D01*
X82253Y324999D01*
X82338Y324974D01*
X82423Y324946D01*
X82506Y324913D01*
X82588Y324877D01*
X82668Y324838D01*
X82746Y324795D01*
X82822Y324749D01*
X82897Y324699D01*
X82969Y324646D01*
X83038Y324590D01*
X83105Y324531D01*
X83170Y324470D01*
X83231Y324405D01*
X83290Y324338D01*
X83346Y324269D01*
X83399Y324197D01*
X83449Y324122D01*
X83495Y324046D01*
X83538Y323968D01*
X83577Y323888D01*
X83613Y323806D01*
X83646Y323723D01*
X83674Y323638D01*
X83699Y323553D01*
X83721Y323466D01*
X83738Y323378D01*
X83751Y323290D01*
X83761Y323201D01*
X83767Y323112D01*
X83769Y323023D01*
X83769Y319749D01*
X83767Y319660D01*
X83761Y319571D01*
X83751Y319482D01*
X83738Y319394D01*
X83721Y319306D01*
X83699Y319219D01*
X83674Y319134D01*
X83646Y319049D01*
X83613Y318966D01*
X83577Y318884D01*
X83538Y318804D01*
X83495Y318726D01*
X83449Y318650D01*
X83399Y318575D01*
X83346Y318503D01*
X83290Y318434D01*
X83231Y318367D01*
X83170Y318302D01*
X83105Y318241D01*
X83038Y318182D01*
X82969Y318126D01*
X82897Y318073D01*
X82822Y318023D01*
X82746Y317977D01*
X82668Y317934D01*
X82588Y317895D01*
X82506Y317859D01*
X82423Y317826D01*
X82338Y317798D01*
X82253Y317773D01*
X82166Y317751D01*
X82078Y317734D01*
X81990Y317721D01*
X81901Y317711D01*
X81812Y317705D01*
X81723Y317703D01*
X79677Y317703D01*
X49875Y296395D02*
X48648Y296395D01*
X49875Y296395D02*
X49875Y292303D01*
X47420Y292303D01*
X47342Y292305D01*
X47264Y292310D01*
X47187Y292320D01*
X47110Y292333D01*
X47034Y292349D01*
X46959Y292369D01*
X46885Y292393D01*
X46812Y292420D01*
X46740Y292451D01*
X46670Y292485D01*
X46602Y292522D01*
X46535Y292563D01*
X46470Y292607D01*
X46408Y292653D01*
X46348Y292703D01*
X46290Y292755D01*
X46235Y292810D01*
X46183Y292868D01*
X46133Y292928D01*
X46087Y292990D01*
X46043Y293055D01*
X46002Y293122D01*
X45965Y293190D01*
X45931Y293260D01*
X45900Y293332D01*
X45873Y293405D01*
X45849Y293479D01*
X45829Y293554D01*
X45813Y293630D01*
X45800Y293707D01*
X45790Y293784D01*
X45785Y293862D01*
X45783Y293940D01*
X45783Y298032D01*
X45785Y298112D01*
X45791Y298192D01*
X45801Y298272D01*
X45814Y298351D01*
X45832Y298430D01*
X45853Y298507D01*
X45879Y298583D01*
X45908Y298658D01*
X45940Y298732D01*
X45976Y298804D01*
X46016Y298874D01*
X46059Y298941D01*
X46105Y299007D01*
X46155Y299070D01*
X46207Y299131D01*
X46262Y299190D01*
X46321Y299245D01*
X46381Y299297D01*
X46445Y299347D01*
X46511Y299393D01*
X46578Y299436D01*
X46648Y299476D01*
X46720Y299512D01*
X46794Y299544D01*
X46868Y299573D01*
X46945Y299599D01*
X47022Y299620D01*
X47101Y299638D01*
X47180Y299651D01*
X47260Y299661D01*
X47340Y299667D01*
X47420Y299669D01*
X49875Y299669D01*
X53704Y299669D02*
X53704Y292303D01*
X53704Y299669D02*
X55750Y299669D01*
X55839Y299667D01*
X55928Y299661D01*
X56017Y299651D01*
X56105Y299638D01*
X56193Y299621D01*
X56280Y299599D01*
X56365Y299574D01*
X56450Y299546D01*
X56533Y299513D01*
X56615Y299477D01*
X56695Y299438D01*
X56773Y299395D01*
X56849Y299349D01*
X56924Y299299D01*
X56996Y299246D01*
X57065Y299190D01*
X57132Y299131D01*
X57197Y299070D01*
X57258Y299005D01*
X57317Y298938D01*
X57373Y298869D01*
X57426Y298797D01*
X57476Y298722D01*
X57522Y298646D01*
X57565Y298568D01*
X57604Y298488D01*
X57640Y298406D01*
X57673Y298323D01*
X57701Y298238D01*
X57726Y298153D01*
X57748Y298066D01*
X57765Y297978D01*
X57778Y297890D01*
X57788Y297801D01*
X57794Y297712D01*
X57796Y297623D01*
X57794Y297534D01*
X57788Y297445D01*
X57778Y297356D01*
X57765Y297268D01*
X57748Y297180D01*
X57726Y297093D01*
X57701Y297008D01*
X57673Y296923D01*
X57640Y296840D01*
X57604Y296758D01*
X57565Y296678D01*
X57522Y296600D01*
X57476Y296524D01*
X57426Y296449D01*
X57373Y296377D01*
X57317Y296308D01*
X57258Y296241D01*
X57197Y296176D01*
X57132Y296115D01*
X57065Y296056D01*
X56996Y296000D01*
X56924Y295947D01*
X56849Y295897D01*
X56773Y295851D01*
X56695Y295808D01*
X56615Y295769D01*
X56533Y295733D01*
X56450Y295700D01*
X56365Y295672D01*
X56280Y295647D01*
X56193Y295625D01*
X56105Y295608D01*
X56017Y295595D01*
X55928Y295585D01*
X55839Y295579D01*
X55750Y295577D01*
X53704Y295577D01*
X61240Y292303D02*
X61240Y299669D01*
X60422Y292303D02*
X62059Y292303D01*
X62059Y299669D02*
X60422Y299669D01*
X65046Y297623D02*
X65046Y294349D01*
X65046Y297623D02*
X65048Y297712D01*
X65054Y297801D01*
X65064Y297890D01*
X65077Y297978D01*
X65094Y298066D01*
X65116Y298153D01*
X65141Y298238D01*
X65169Y298323D01*
X65202Y298406D01*
X65238Y298488D01*
X65277Y298568D01*
X65320Y298646D01*
X65366Y298722D01*
X65416Y298797D01*
X65469Y298869D01*
X65525Y298938D01*
X65584Y299005D01*
X65645Y299070D01*
X65710Y299131D01*
X65777Y299190D01*
X65846Y299246D01*
X65918Y299299D01*
X65993Y299349D01*
X66069Y299395D01*
X66147Y299438D01*
X66227Y299477D01*
X66309Y299513D01*
X66392Y299546D01*
X66477Y299574D01*
X66562Y299599D01*
X66649Y299621D01*
X66737Y299638D01*
X66825Y299651D01*
X66914Y299661D01*
X67003Y299667D01*
X67092Y299669D01*
X67181Y299667D01*
X67270Y299661D01*
X67359Y299651D01*
X67447Y299638D01*
X67535Y299621D01*
X67622Y299599D01*
X67707Y299574D01*
X67792Y299546D01*
X67875Y299513D01*
X67957Y299477D01*
X68037Y299438D01*
X68115Y299395D01*
X68191Y299349D01*
X68266Y299299D01*
X68338Y299246D01*
X68407Y299190D01*
X68474Y299131D01*
X68539Y299070D01*
X68600Y299005D01*
X68659Y298938D01*
X68715Y298869D01*
X68768Y298797D01*
X68818Y298722D01*
X68864Y298646D01*
X68907Y298568D01*
X68946Y298488D01*
X68982Y298406D01*
X69015Y298323D01*
X69043Y298238D01*
X69068Y298153D01*
X69090Y298066D01*
X69107Y297978D01*
X69120Y297890D01*
X69130Y297801D01*
X69136Y297712D01*
X69138Y297623D01*
X69139Y297623D02*
X69139Y294349D01*
X69138Y294349D02*
X69136Y294260D01*
X69130Y294171D01*
X69120Y294082D01*
X69107Y293994D01*
X69090Y293906D01*
X69068Y293819D01*
X69043Y293734D01*
X69015Y293649D01*
X68982Y293566D01*
X68946Y293484D01*
X68907Y293404D01*
X68864Y293326D01*
X68818Y293250D01*
X68768Y293175D01*
X68715Y293103D01*
X68659Y293034D01*
X68600Y292967D01*
X68539Y292902D01*
X68474Y292841D01*
X68407Y292782D01*
X68338Y292726D01*
X68266Y292673D01*
X68191Y292623D01*
X68115Y292577D01*
X68037Y292534D01*
X67957Y292495D01*
X67875Y292459D01*
X67792Y292426D01*
X67707Y292398D01*
X67622Y292373D01*
X67535Y292351D01*
X67447Y292334D01*
X67359Y292321D01*
X67270Y292311D01*
X67181Y292305D01*
X67092Y292303D01*
X67003Y292305D01*
X66914Y292311D01*
X66825Y292321D01*
X66737Y292334D01*
X66649Y292351D01*
X66562Y292373D01*
X66477Y292398D01*
X66392Y292426D01*
X66309Y292459D01*
X66227Y292495D01*
X66147Y292534D01*
X66069Y292577D01*
X65993Y292623D01*
X65918Y292673D01*
X65846Y292726D01*
X65777Y292782D01*
X65710Y292841D01*
X65645Y292902D01*
X65584Y292967D01*
X65525Y293034D01*
X65469Y293103D01*
X65416Y293175D01*
X65366Y293250D01*
X65320Y293326D01*
X65277Y293404D01*
X65238Y293484D01*
X65202Y293566D01*
X65169Y293649D01*
X65141Y293734D01*
X65116Y293819D01*
X65094Y293906D01*
X65077Y293994D01*
X65064Y294082D01*
X65054Y294171D01*
X65048Y294260D01*
X65046Y294349D01*
X72362Y298032D02*
X74408Y299669D01*
X74408Y292303D01*
X72362Y292303D02*
X76454Y292303D01*
X79677Y292303D02*
X82132Y292303D01*
X82210Y292305D01*
X82288Y292310D01*
X82365Y292320D01*
X82442Y292333D01*
X82518Y292349D01*
X82593Y292369D01*
X82667Y292393D01*
X82740Y292420D01*
X82812Y292451D01*
X82882Y292485D01*
X82951Y292522D01*
X83017Y292563D01*
X83082Y292607D01*
X83144Y292653D01*
X83204Y292703D01*
X83262Y292755D01*
X83317Y292810D01*
X83369Y292868D01*
X83419Y292928D01*
X83465Y292990D01*
X83509Y293055D01*
X83550Y293122D01*
X83587Y293190D01*
X83621Y293260D01*
X83652Y293332D01*
X83679Y293405D01*
X83703Y293479D01*
X83723Y293554D01*
X83739Y293630D01*
X83752Y293707D01*
X83762Y293784D01*
X83767Y293862D01*
X83769Y293940D01*
X83769Y294758D01*
X83767Y294836D01*
X83762Y294914D01*
X83752Y294991D01*
X83739Y295068D01*
X83723Y295144D01*
X83703Y295219D01*
X83679Y295293D01*
X83652Y295366D01*
X83621Y295438D01*
X83587Y295508D01*
X83550Y295577D01*
X83509Y295643D01*
X83465Y295708D01*
X83419Y295770D01*
X83369Y295830D01*
X83317Y295888D01*
X83262Y295943D01*
X83204Y295995D01*
X83144Y296045D01*
X83082Y296091D01*
X83017Y296135D01*
X82951Y296176D01*
X82882Y296213D01*
X82812Y296247D01*
X82740Y296278D01*
X82667Y296305D01*
X82593Y296329D01*
X82518Y296349D01*
X82442Y296365D01*
X82365Y296378D01*
X82288Y296388D01*
X82210Y296393D01*
X82132Y296395D01*
X79677Y296395D01*
X79677Y299669D01*
X83769Y299669D01*
X57190Y270995D02*
X55963Y270995D01*
X57190Y270995D02*
X57190Y266903D01*
X54735Y266903D01*
X54657Y266905D01*
X54579Y266910D01*
X54502Y266920D01*
X54425Y266933D01*
X54349Y266949D01*
X54274Y266969D01*
X54200Y266993D01*
X54127Y267020D01*
X54055Y267051D01*
X53985Y267085D01*
X53917Y267122D01*
X53850Y267163D01*
X53785Y267207D01*
X53723Y267253D01*
X53663Y267303D01*
X53605Y267355D01*
X53550Y267410D01*
X53498Y267468D01*
X53448Y267528D01*
X53402Y267590D01*
X53358Y267655D01*
X53317Y267722D01*
X53280Y267790D01*
X53246Y267860D01*
X53215Y267932D01*
X53188Y268005D01*
X53164Y268079D01*
X53144Y268154D01*
X53128Y268230D01*
X53115Y268307D01*
X53105Y268384D01*
X53100Y268462D01*
X53098Y268540D01*
X53098Y272632D01*
X53100Y272712D01*
X53106Y272792D01*
X53116Y272872D01*
X53129Y272951D01*
X53147Y273030D01*
X53168Y273107D01*
X53194Y273183D01*
X53223Y273258D01*
X53255Y273332D01*
X53291Y273404D01*
X53331Y273474D01*
X53374Y273541D01*
X53420Y273607D01*
X53470Y273670D01*
X53522Y273731D01*
X53577Y273790D01*
X53636Y273845D01*
X53696Y273897D01*
X53760Y273947D01*
X53826Y273993D01*
X53893Y274036D01*
X53963Y274076D01*
X54035Y274112D01*
X54109Y274144D01*
X54183Y274173D01*
X54260Y274199D01*
X54337Y274220D01*
X54416Y274238D01*
X54495Y274251D01*
X54575Y274261D01*
X54655Y274267D01*
X54735Y274269D01*
X57190Y274269D01*
X61019Y274269D02*
X61019Y266903D01*
X61019Y274269D02*
X63065Y274269D01*
X63154Y274267D01*
X63243Y274261D01*
X63332Y274251D01*
X63420Y274238D01*
X63508Y274221D01*
X63595Y274199D01*
X63680Y274174D01*
X63765Y274146D01*
X63848Y274113D01*
X63930Y274077D01*
X64010Y274038D01*
X64088Y273995D01*
X64164Y273949D01*
X64239Y273899D01*
X64311Y273846D01*
X64380Y273790D01*
X64447Y273731D01*
X64512Y273670D01*
X64573Y273605D01*
X64632Y273538D01*
X64688Y273469D01*
X64741Y273397D01*
X64791Y273322D01*
X64837Y273246D01*
X64880Y273168D01*
X64919Y273088D01*
X64955Y273006D01*
X64988Y272923D01*
X65016Y272838D01*
X65041Y272753D01*
X65063Y272666D01*
X65080Y272578D01*
X65093Y272490D01*
X65103Y272401D01*
X65109Y272312D01*
X65111Y272223D01*
X65109Y272134D01*
X65103Y272045D01*
X65093Y271956D01*
X65080Y271868D01*
X65063Y271780D01*
X65041Y271693D01*
X65016Y271608D01*
X64988Y271523D01*
X64955Y271440D01*
X64919Y271358D01*
X64880Y271278D01*
X64837Y271200D01*
X64791Y271124D01*
X64741Y271049D01*
X64688Y270977D01*
X64632Y270908D01*
X64573Y270841D01*
X64512Y270776D01*
X64447Y270715D01*
X64380Y270656D01*
X64311Y270600D01*
X64239Y270547D01*
X64164Y270497D01*
X64088Y270451D01*
X64010Y270408D01*
X63930Y270369D01*
X63848Y270333D01*
X63765Y270300D01*
X63680Y270272D01*
X63595Y270247D01*
X63508Y270225D01*
X63420Y270208D01*
X63332Y270195D01*
X63243Y270185D01*
X63154Y270179D01*
X63065Y270177D01*
X61019Y270177D01*
X68556Y266903D02*
X68556Y274269D01*
X67737Y266903D02*
X69374Y266903D01*
X69374Y274269D02*
X67737Y274269D01*
X72362Y272223D02*
X72362Y268949D01*
X72362Y272223D02*
X72364Y272312D01*
X72370Y272401D01*
X72380Y272490D01*
X72393Y272578D01*
X72410Y272666D01*
X72432Y272753D01*
X72457Y272838D01*
X72485Y272923D01*
X72518Y273006D01*
X72554Y273088D01*
X72593Y273168D01*
X72636Y273246D01*
X72682Y273322D01*
X72732Y273397D01*
X72785Y273469D01*
X72841Y273538D01*
X72900Y273605D01*
X72961Y273670D01*
X73026Y273731D01*
X73093Y273790D01*
X73162Y273846D01*
X73234Y273899D01*
X73309Y273949D01*
X73385Y273995D01*
X73463Y274038D01*
X73543Y274077D01*
X73625Y274113D01*
X73708Y274146D01*
X73793Y274174D01*
X73878Y274199D01*
X73965Y274221D01*
X74053Y274238D01*
X74141Y274251D01*
X74230Y274261D01*
X74319Y274267D01*
X74408Y274269D01*
X74497Y274267D01*
X74586Y274261D01*
X74675Y274251D01*
X74763Y274238D01*
X74851Y274221D01*
X74938Y274199D01*
X75023Y274174D01*
X75108Y274146D01*
X75191Y274113D01*
X75273Y274077D01*
X75353Y274038D01*
X75431Y273995D01*
X75507Y273949D01*
X75582Y273899D01*
X75654Y273846D01*
X75723Y273790D01*
X75790Y273731D01*
X75855Y273670D01*
X75916Y273605D01*
X75975Y273538D01*
X76031Y273469D01*
X76084Y273397D01*
X76134Y273322D01*
X76180Y273246D01*
X76223Y273168D01*
X76262Y273088D01*
X76298Y273006D01*
X76331Y272923D01*
X76359Y272838D01*
X76384Y272753D01*
X76406Y272666D01*
X76423Y272578D01*
X76436Y272490D01*
X76446Y272401D01*
X76452Y272312D01*
X76454Y272223D01*
X76454Y268949D01*
X76452Y268860D01*
X76446Y268771D01*
X76436Y268682D01*
X76423Y268594D01*
X76406Y268506D01*
X76384Y268419D01*
X76359Y268334D01*
X76331Y268249D01*
X76298Y268166D01*
X76262Y268084D01*
X76223Y268004D01*
X76180Y267926D01*
X76134Y267850D01*
X76084Y267775D01*
X76031Y267703D01*
X75975Y267634D01*
X75916Y267567D01*
X75855Y267502D01*
X75790Y267441D01*
X75723Y267382D01*
X75654Y267326D01*
X75582Y267273D01*
X75507Y267223D01*
X75431Y267177D01*
X75353Y267134D01*
X75273Y267095D01*
X75191Y267059D01*
X75108Y267026D01*
X75023Y266998D01*
X74938Y266973D01*
X74851Y266951D01*
X74763Y266934D01*
X74675Y266921D01*
X74586Y266911D01*
X74497Y266905D01*
X74408Y266903D01*
X74319Y266905D01*
X74230Y266911D01*
X74141Y266921D01*
X74053Y266934D01*
X73965Y266951D01*
X73878Y266973D01*
X73793Y266998D01*
X73708Y267026D01*
X73625Y267059D01*
X73543Y267095D01*
X73463Y267134D01*
X73385Y267177D01*
X73309Y267223D01*
X73234Y267273D01*
X73162Y267326D01*
X73093Y267382D01*
X73026Y267441D01*
X72961Y267502D01*
X72900Y267567D01*
X72841Y267634D01*
X72785Y267703D01*
X72732Y267775D01*
X72682Y267850D01*
X72636Y267926D01*
X72593Y268004D01*
X72554Y268084D01*
X72518Y268166D01*
X72485Y268249D01*
X72457Y268334D01*
X72432Y268419D01*
X72410Y268506D01*
X72393Y268594D01*
X72380Y268682D01*
X72370Y268771D01*
X72364Y268860D01*
X72362Y268949D01*
X81928Y274270D02*
X82013Y274268D01*
X82098Y274262D01*
X82182Y274252D01*
X82266Y274239D01*
X82350Y274221D01*
X82432Y274200D01*
X82513Y274175D01*
X82593Y274146D01*
X82672Y274113D01*
X82749Y274077D01*
X82824Y274037D01*
X82898Y273994D01*
X82969Y273948D01*
X83038Y273898D01*
X83105Y273845D01*
X83169Y273789D01*
X83230Y273730D01*
X83289Y273669D01*
X83345Y273605D01*
X83398Y273538D01*
X83448Y273469D01*
X83494Y273398D01*
X83537Y273324D01*
X83577Y273249D01*
X83613Y273172D01*
X83646Y273093D01*
X83675Y273013D01*
X83700Y272932D01*
X83721Y272850D01*
X83739Y272766D01*
X83752Y272682D01*
X83762Y272598D01*
X83768Y272513D01*
X83770Y272428D01*
X81928Y274269D02*
X81832Y274267D01*
X81736Y274261D01*
X81641Y274251D01*
X81546Y274238D01*
X81451Y274220D01*
X81358Y274199D01*
X81265Y274174D01*
X81174Y274145D01*
X81083Y274113D01*
X80994Y274077D01*
X80907Y274037D01*
X80821Y273994D01*
X80737Y273948D01*
X80655Y273898D01*
X80575Y273844D01*
X80498Y273788D01*
X80423Y273728D01*
X80350Y273666D01*
X80280Y273600D01*
X80212Y273532D01*
X80147Y273461D01*
X80086Y273388D01*
X80027Y273312D01*
X79971Y273233D01*
X79919Y273153D01*
X79870Y273070D01*
X79824Y272986D01*
X79782Y272900D01*
X79744Y272812D01*
X79709Y272723D01*
X79677Y272632D01*
X83155Y270996D02*
X83215Y271055D01*
X83272Y271117D01*
X83327Y271181D01*
X83378Y271248D01*
X83427Y271317D01*
X83473Y271387D01*
X83516Y271460D01*
X83556Y271534D01*
X83592Y271610D01*
X83625Y271688D01*
X83655Y271767D01*
X83682Y271847D01*
X83705Y271928D01*
X83724Y272010D01*
X83740Y272092D01*
X83753Y272176D01*
X83762Y272260D01*
X83767Y272344D01*
X83769Y272428D01*
X83155Y270995D02*
X79677Y266903D01*
X83769Y266903D01*
X57190Y245595D02*
X55963Y245595D01*
X57190Y245595D02*
X57190Y241503D01*
X54735Y241503D01*
X54657Y241505D01*
X54579Y241510D01*
X54502Y241520D01*
X54425Y241533D01*
X54349Y241549D01*
X54274Y241569D01*
X54200Y241593D01*
X54127Y241620D01*
X54055Y241651D01*
X53985Y241685D01*
X53917Y241722D01*
X53850Y241763D01*
X53785Y241807D01*
X53723Y241853D01*
X53663Y241903D01*
X53605Y241955D01*
X53550Y242010D01*
X53498Y242068D01*
X53448Y242128D01*
X53402Y242190D01*
X53358Y242255D01*
X53317Y242322D01*
X53280Y242390D01*
X53246Y242460D01*
X53215Y242532D01*
X53188Y242605D01*
X53164Y242679D01*
X53144Y242754D01*
X53128Y242830D01*
X53115Y242907D01*
X53105Y242984D01*
X53100Y243062D01*
X53098Y243140D01*
X53098Y247232D01*
X53100Y247312D01*
X53106Y247392D01*
X53116Y247472D01*
X53129Y247551D01*
X53147Y247630D01*
X53168Y247707D01*
X53194Y247783D01*
X53223Y247858D01*
X53255Y247932D01*
X53291Y248004D01*
X53331Y248074D01*
X53374Y248141D01*
X53420Y248207D01*
X53470Y248270D01*
X53522Y248331D01*
X53577Y248390D01*
X53636Y248445D01*
X53696Y248497D01*
X53760Y248547D01*
X53826Y248593D01*
X53893Y248636D01*
X53963Y248676D01*
X54035Y248712D01*
X54109Y248744D01*
X54183Y248773D01*
X54260Y248799D01*
X54337Y248820D01*
X54416Y248838D01*
X54495Y248851D01*
X54575Y248861D01*
X54655Y248867D01*
X54735Y248869D01*
X57190Y248869D01*
X61019Y248869D02*
X61019Y241503D01*
X61019Y248869D02*
X63065Y248869D01*
X63154Y248867D01*
X63243Y248861D01*
X63332Y248851D01*
X63420Y248838D01*
X63508Y248821D01*
X63595Y248799D01*
X63680Y248774D01*
X63765Y248746D01*
X63848Y248713D01*
X63930Y248677D01*
X64010Y248638D01*
X64088Y248595D01*
X64164Y248549D01*
X64239Y248499D01*
X64311Y248446D01*
X64380Y248390D01*
X64447Y248331D01*
X64512Y248270D01*
X64573Y248205D01*
X64632Y248138D01*
X64688Y248069D01*
X64741Y247997D01*
X64791Y247922D01*
X64837Y247846D01*
X64880Y247768D01*
X64919Y247688D01*
X64955Y247606D01*
X64988Y247523D01*
X65016Y247438D01*
X65041Y247353D01*
X65063Y247266D01*
X65080Y247178D01*
X65093Y247090D01*
X65103Y247001D01*
X65109Y246912D01*
X65111Y246823D01*
X65109Y246734D01*
X65103Y246645D01*
X65093Y246556D01*
X65080Y246468D01*
X65063Y246380D01*
X65041Y246293D01*
X65016Y246208D01*
X64988Y246123D01*
X64955Y246040D01*
X64919Y245958D01*
X64880Y245878D01*
X64837Y245800D01*
X64791Y245724D01*
X64741Y245649D01*
X64688Y245577D01*
X64632Y245508D01*
X64573Y245441D01*
X64512Y245376D01*
X64447Y245315D01*
X64380Y245256D01*
X64311Y245200D01*
X64239Y245147D01*
X64164Y245097D01*
X64088Y245051D01*
X64010Y245008D01*
X63930Y244969D01*
X63848Y244933D01*
X63765Y244900D01*
X63680Y244872D01*
X63595Y244847D01*
X63508Y244825D01*
X63420Y244808D01*
X63332Y244795D01*
X63243Y244785D01*
X63154Y244779D01*
X63065Y244777D01*
X61019Y244777D01*
X68556Y241503D02*
X68556Y248869D01*
X67737Y241503D02*
X69374Y241503D01*
X69374Y248869D02*
X67737Y248869D01*
X72362Y246823D02*
X72362Y243549D01*
X72362Y246823D02*
X72364Y246912D01*
X72370Y247001D01*
X72380Y247090D01*
X72393Y247178D01*
X72410Y247266D01*
X72432Y247353D01*
X72457Y247438D01*
X72485Y247523D01*
X72518Y247606D01*
X72554Y247688D01*
X72593Y247768D01*
X72636Y247846D01*
X72682Y247922D01*
X72732Y247997D01*
X72785Y248069D01*
X72841Y248138D01*
X72900Y248205D01*
X72961Y248270D01*
X73026Y248331D01*
X73093Y248390D01*
X73162Y248446D01*
X73234Y248499D01*
X73309Y248549D01*
X73385Y248595D01*
X73463Y248638D01*
X73543Y248677D01*
X73625Y248713D01*
X73708Y248746D01*
X73793Y248774D01*
X73878Y248799D01*
X73965Y248821D01*
X74053Y248838D01*
X74141Y248851D01*
X74230Y248861D01*
X74319Y248867D01*
X74408Y248869D01*
X74497Y248867D01*
X74586Y248861D01*
X74675Y248851D01*
X74763Y248838D01*
X74851Y248821D01*
X74938Y248799D01*
X75023Y248774D01*
X75108Y248746D01*
X75191Y248713D01*
X75273Y248677D01*
X75353Y248638D01*
X75431Y248595D01*
X75507Y248549D01*
X75582Y248499D01*
X75654Y248446D01*
X75723Y248390D01*
X75790Y248331D01*
X75855Y248270D01*
X75916Y248205D01*
X75975Y248138D01*
X76031Y248069D01*
X76084Y247997D01*
X76134Y247922D01*
X76180Y247846D01*
X76223Y247768D01*
X76262Y247688D01*
X76298Y247606D01*
X76331Y247523D01*
X76359Y247438D01*
X76384Y247353D01*
X76406Y247266D01*
X76423Y247178D01*
X76436Y247090D01*
X76446Y247001D01*
X76452Y246912D01*
X76454Y246823D01*
X76454Y243549D01*
X76452Y243460D01*
X76446Y243371D01*
X76436Y243282D01*
X76423Y243194D01*
X76406Y243106D01*
X76384Y243019D01*
X76359Y242934D01*
X76331Y242849D01*
X76298Y242766D01*
X76262Y242684D01*
X76223Y242604D01*
X76180Y242526D01*
X76134Y242450D01*
X76084Y242375D01*
X76031Y242303D01*
X75975Y242234D01*
X75916Y242167D01*
X75855Y242102D01*
X75790Y242041D01*
X75723Y241982D01*
X75654Y241926D01*
X75582Y241873D01*
X75507Y241823D01*
X75431Y241777D01*
X75353Y241734D01*
X75273Y241695D01*
X75191Y241659D01*
X75108Y241626D01*
X75023Y241598D01*
X74938Y241573D01*
X74851Y241551D01*
X74763Y241534D01*
X74675Y241521D01*
X74586Y241511D01*
X74497Y241505D01*
X74408Y241503D01*
X74319Y241505D01*
X74230Y241511D01*
X74141Y241521D01*
X74053Y241534D01*
X73965Y241551D01*
X73878Y241573D01*
X73793Y241598D01*
X73708Y241626D01*
X73625Y241659D01*
X73543Y241695D01*
X73463Y241734D01*
X73385Y241777D01*
X73309Y241823D01*
X73234Y241873D01*
X73162Y241926D01*
X73093Y241982D01*
X73026Y242041D01*
X72961Y242102D01*
X72900Y242167D01*
X72841Y242234D01*
X72785Y242303D01*
X72732Y242375D01*
X72682Y242450D01*
X72636Y242526D01*
X72593Y242604D01*
X72554Y242684D01*
X72518Y242766D01*
X72485Y242849D01*
X72457Y242934D01*
X72432Y243019D01*
X72410Y243106D01*
X72393Y243194D01*
X72380Y243282D01*
X72370Y243371D01*
X72364Y243460D01*
X72362Y243549D01*
X79677Y245186D02*
X79679Y245339D01*
X79685Y245492D01*
X79694Y245644D01*
X79708Y245797D01*
X79725Y245949D01*
X79746Y246100D01*
X79771Y246251D01*
X79800Y246401D01*
X79832Y246551D01*
X79869Y246699D01*
X79909Y246847D01*
X79952Y246994D01*
X80000Y247139D01*
X80051Y247283D01*
X80105Y247426D01*
X80164Y247568D01*
X80225Y247707D01*
X80291Y247846D01*
X80317Y247916D01*
X80347Y247986D01*
X80380Y248053D01*
X80416Y248119D01*
X80455Y248183D01*
X80498Y248245D01*
X80544Y248304D01*
X80592Y248362D01*
X80643Y248416D01*
X80697Y248469D01*
X80754Y248518D01*
X80813Y248565D01*
X80874Y248608D01*
X80937Y248649D01*
X81002Y248686D01*
X81069Y248721D01*
X81138Y248751D01*
X81208Y248779D01*
X81279Y248802D01*
X81351Y248823D01*
X81424Y248839D01*
X81498Y248852D01*
X81573Y248862D01*
X81648Y248867D01*
X81723Y248869D01*
X81798Y248867D01*
X81873Y248862D01*
X81948Y248852D01*
X82022Y248839D01*
X82095Y248823D01*
X82167Y248802D01*
X82238Y248779D01*
X82308Y248751D01*
X82377Y248721D01*
X82444Y248686D01*
X82509Y248649D01*
X82572Y248608D01*
X82633Y248565D01*
X82692Y248518D01*
X82749Y248469D01*
X82803Y248416D01*
X82854Y248362D01*
X82903Y248304D01*
X82948Y248245D01*
X82991Y248183D01*
X83030Y248119D01*
X83067Y248053D01*
X83099Y247985D01*
X83129Y247916D01*
X83155Y247846D01*
X83220Y247708D01*
X83282Y247568D01*
X83340Y247426D01*
X83395Y247283D01*
X83446Y247139D01*
X83494Y246994D01*
X83537Y246847D01*
X83577Y246700D01*
X83614Y246551D01*
X83646Y246401D01*
X83675Y246251D01*
X83700Y246100D01*
X83721Y245949D01*
X83738Y245797D01*
X83752Y245644D01*
X83761Y245492D01*
X83767Y245339D01*
X83769Y245186D01*
X79676Y245186D02*
X79678Y245033D01*
X79684Y244880D01*
X79693Y244727D01*
X79707Y244575D01*
X79724Y244423D01*
X79745Y244272D01*
X79770Y244121D01*
X79799Y243970D01*
X79831Y243821D01*
X79868Y243672D01*
X79908Y243525D01*
X79951Y243378D01*
X79999Y243233D01*
X80050Y243088D01*
X80105Y242946D01*
X80163Y242804D01*
X80225Y242664D01*
X80290Y242526D01*
X80291Y242526D02*
X80317Y242455D01*
X80347Y242386D01*
X80380Y242319D01*
X80416Y242253D01*
X80455Y242189D01*
X80498Y242127D01*
X80544Y242068D01*
X80592Y242010D01*
X80643Y241956D01*
X80697Y241903D01*
X80754Y241854D01*
X80813Y241807D01*
X80874Y241764D01*
X80937Y241723D01*
X81002Y241686D01*
X81069Y241651D01*
X81138Y241621D01*
X81208Y241593D01*
X81279Y241570D01*
X81351Y241549D01*
X81424Y241533D01*
X81498Y241520D01*
X81573Y241510D01*
X81648Y241505D01*
X81723Y241503D01*
X83155Y242526D02*
X83220Y242664D01*
X83282Y242804D01*
X83340Y242946D01*
X83395Y243089D01*
X83446Y243233D01*
X83494Y243378D01*
X83537Y243525D01*
X83577Y243673D01*
X83614Y243821D01*
X83646Y243971D01*
X83675Y244121D01*
X83700Y244272D01*
X83721Y244423D01*
X83738Y244575D01*
X83752Y244728D01*
X83761Y244880D01*
X83767Y245033D01*
X83769Y245186D01*
X83155Y242526D02*
X83129Y242456D01*
X83099Y242386D01*
X83067Y242319D01*
X83030Y242253D01*
X82991Y242189D01*
X82948Y242127D01*
X82902Y242068D01*
X82854Y242010D01*
X82803Y241956D01*
X82749Y241903D01*
X82692Y241854D01*
X82633Y241807D01*
X82572Y241764D01*
X82509Y241723D01*
X82444Y241686D01*
X82377Y241651D01*
X82308Y241621D01*
X82238Y241593D01*
X82167Y241570D01*
X82095Y241549D01*
X82022Y241533D01*
X81948Y241520D01*
X81873Y241510D01*
X81798Y241505D01*
X81723Y241503D01*
X80086Y243140D02*
X83360Y247232D01*
X57190Y220195D02*
X55963Y220195D01*
X57190Y220195D02*
X57190Y216103D01*
X54735Y216103D01*
X54657Y216105D01*
X54579Y216110D01*
X54502Y216120D01*
X54425Y216133D01*
X54349Y216149D01*
X54274Y216169D01*
X54200Y216193D01*
X54127Y216220D01*
X54055Y216251D01*
X53985Y216285D01*
X53917Y216322D01*
X53850Y216363D01*
X53785Y216407D01*
X53723Y216453D01*
X53663Y216503D01*
X53605Y216555D01*
X53550Y216610D01*
X53498Y216668D01*
X53448Y216728D01*
X53402Y216790D01*
X53358Y216855D01*
X53317Y216922D01*
X53280Y216990D01*
X53246Y217060D01*
X53215Y217132D01*
X53188Y217205D01*
X53164Y217279D01*
X53144Y217354D01*
X53128Y217430D01*
X53115Y217507D01*
X53105Y217584D01*
X53100Y217662D01*
X53098Y217740D01*
X53098Y221832D01*
X53100Y221912D01*
X53106Y221992D01*
X53116Y222072D01*
X53129Y222151D01*
X53147Y222230D01*
X53168Y222307D01*
X53194Y222383D01*
X53223Y222458D01*
X53255Y222532D01*
X53291Y222604D01*
X53331Y222674D01*
X53374Y222741D01*
X53420Y222807D01*
X53470Y222870D01*
X53522Y222931D01*
X53577Y222990D01*
X53636Y223045D01*
X53696Y223097D01*
X53760Y223147D01*
X53826Y223193D01*
X53893Y223236D01*
X53963Y223276D01*
X54035Y223312D01*
X54109Y223344D01*
X54183Y223373D01*
X54260Y223399D01*
X54337Y223420D01*
X54416Y223438D01*
X54495Y223451D01*
X54575Y223461D01*
X54655Y223467D01*
X54735Y223469D01*
X57190Y223469D01*
X61019Y223469D02*
X61019Y216103D01*
X61019Y223469D02*
X63065Y223469D01*
X63154Y223467D01*
X63243Y223461D01*
X63332Y223451D01*
X63420Y223438D01*
X63508Y223421D01*
X63595Y223399D01*
X63680Y223374D01*
X63765Y223346D01*
X63848Y223313D01*
X63930Y223277D01*
X64010Y223238D01*
X64088Y223195D01*
X64164Y223149D01*
X64239Y223099D01*
X64311Y223046D01*
X64380Y222990D01*
X64447Y222931D01*
X64512Y222870D01*
X64573Y222805D01*
X64632Y222738D01*
X64688Y222669D01*
X64741Y222597D01*
X64791Y222522D01*
X64837Y222446D01*
X64880Y222368D01*
X64919Y222288D01*
X64955Y222206D01*
X64988Y222123D01*
X65016Y222038D01*
X65041Y221953D01*
X65063Y221866D01*
X65080Y221778D01*
X65093Y221690D01*
X65103Y221601D01*
X65109Y221512D01*
X65111Y221423D01*
X65109Y221334D01*
X65103Y221245D01*
X65093Y221156D01*
X65080Y221068D01*
X65063Y220980D01*
X65041Y220893D01*
X65016Y220808D01*
X64988Y220723D01*
X64955Y220640D01*
X64919Y220558D01*
X64880Y220478D01*
X64837Y220400D01*
X64791Y220324D01*
X64741Y220249D01*
X64688Y220177D01*
X64632Y220108D01*
X64573Y220041D01*
X64512Y219976D01*
X64447Y219915D01*
X64380Y219856D01*
X64311Y219800D01*
X64239Y219747D01*
X64164Y219697D01*
X64088Y219651D01*
X64010Y219608D01*
X63930Y219569D01*
X63848Y219533D01*
X63765Y219500D01*
X63680Y219472D01*
X63595Y219447D01*
X63508Y219425D01*
X63420Y219408D01*
X63332Y219395D01*
X63243Y219385D01*
X63154Y219379D01*
X63065Y219377D01*
X61019Y219377D01*
X68556Y216103D02*
X68556Y223469D01*
X67737Y216103D02*
X69374Y216103D01*
X69374Y223469D02*
X67737Y223469D01*
X72362Y221423D02*
X72362Y218149D01*
X72362Y221423D02*
X72364Y221512D01*
X72370Y221601D01*
X72380Y221690D01*
X72393Y221778D01*
X72410Y221866D01*
X72432Y221953D01*
X72457Y222038D01*
X72485Y222123D01*
X72518Y222206D01*
X72554Y222288D01*
X72593Y222368D01*
X72636Y222446D01*
X72682Y222522D01*
X72732Y222597D01*
X72785Y222669D01*
X72841Y222738D01*
X72900Y222805D01*
X72961Y222870D01*
X73026Y222931D01*
X73093Y222990D01*
X73162Y223046D01*
X73234Y223099D01*
X73309Y223149D01*
X73385Y223195D01*
X73463Y223238D01*
X73543Y223277D01*
X73625Y223313D01*
X73708Y223346D01*
X73793Y223374D01*
X73878Y223399D01*
X73965Y223421D01*
X74053Y223438D01*
X74141Y223451D01*
X74230Y223461D01*
X74319Y223467D01*
X74408Y223469D01*
X74497Y223467D01*
X74586Y223461D01*
X74675Y223451D01*
X74763Y223438D01*
X74851Y223421D01*
X74938Y223399D01*
X75023Y223374D01*
X75108Y223346D01*
X75191Y223313D01*
X75273Y223277D01*
X75353Y223238D01*
X75431Y223195D01*
X75507Y223149D01*
X75582Y223099D01*
X75654Y223046D01*
X75723Y222990D01*
X75790Y222931D01*
X75855Y222870D01*
X75916Y222805D01*
X75975Y222738D01*
X76031Y222669D01*
X76084Y222597D01*
X76134Y222522D01*
X76180Y222446D01*
X76223Y222368D01*
X76262Y222288D01*
X76298Y222206D01*
X76331Y222123D01*
X76359Y222038D01*
X76384Y221953D01*
X76406Y221866D01*
X76423Y221778D01*
X76436Y221690D01*
X76446Y221601D01*
X76452Y221512D01*
X76454Y221423D01*
X76454Y218149D01*
X76452Y218060D01*
X76446Y217971D01*
X76436Y217882D01*
X76423Y217794D01*
X76406Y217706D01*
X76384Y217619D01*
X76359Y217534D01*
X76331Y217449D01*
X76298Y217366D01*
X76262Y217284D01*
X76223Y217204D01*
X76180Y217126D01*
X76134Y217050D01*
X76084Y216975D01*
X76031Y216903D01*
X75975Y216834D01*
X75916Y216767D01*
X75855Y216702D01*
X75790Y216641D01*
X75723Y216582D01*
X75654Y216526D01*
X75582Y216473D01*
X75507Y216423D01*
X75431Y216377D01*
X75353Y216334D01*
X75273Y216295D01*
X75191Y216259D01*
X75108Y216226D01*
X75023Y216198D01*
X74938Y216173D01*
X74851Y216151D01*
X74763Y216134D01*
X74675Y216121D01*
X74586Y216111D01*
X74497Y216105D01*
X74408Y216103D01*
X74319Y216105D01*
X74230Y216111D01*
X74141Y216121D01*
X74053Y216134D01*
X73965Y216151D01*
X73878Y216173D01*
X73793Y216198D01*
X73708Y216226D01*
X73625Y216259D01*
X73543Y216295D01*
X73463Y216334D01*
X73385Y216377D01*
X73309Y216423D01*
X73234Y216473D01*
X73162Y216526D01*
X73093Y216582D01*
X73026Y216641D01*
X72961Y216702D01*
X72900Y216767D01*
X72841Y216834D01*
X72785Y216903D01*
X72732Y216975D01*
X72682Y217050D01*
X72636Y217126D01*
X72593Y217204D01*
X72554Y217284D01*
X72518Y217366D01*
X72485Y217449D01*
X72457Y217534D01*
X72432Y217619D01*
X72410Y217706D01*
X72393Y217794D01*
X72380Y217882D01*
X72370Y217971D01*
X72364Y218060D01*
X72362Y218149D01*
X79677Y217740D02*
X81314Y223469D01*
X79677Y217740D02*
X83769Y217740D01*
X82541Y219377D02*
X82541Y216103D01*
X57190Y194795D02*
X55963Y194795D01*
X57190Y194795D02*
X57190Y190703D01*
X54735Y190703D01*
X54657Y190705D01*
X54579Y190710D01*
X54502Y190720D01*
X54425Y190733D01*
X54349Y190749D01*
X54274Y190769D01*
X54200Y190793D01*
X54127Y190820D01*
X54055Y190851D01*
X53985Y190885D01*
X53917Y190922D01*
X53850Y190963D01*
X53785Y191007D01*
X53723Y191053D01*
X53663Y191103D01*
X53605Y191155D01*
X53550Y191210D01*
X53498Y191268D01*
X53448Y191328D01*
X53402Y191390D01*
X53358Y191455D01*
X53317Y191522D01*
X53280Y191590D01*
X53246Y191660D01*
X53215Y191732D01*
X53188Y191805D01*
X53164Y191879D01*
X53144Y191954D01*
X53128Y192030D01*
X53115Y192107D01*
X53105Y192184D01*
X53100Y192262D01*
X53098Y192340D01*
X53098Y196432D01*
X53100Y196512D01*
X53106Y196592D01*
X53116Y196672D01*
X53129Y196751D01*
X53147Y196830D01*
X53168Y196907D01*
X53194Y196983D01*
X53223Y197058D01*
X53255Y197132D01*
X53291Y197204D01*
X53331Y197274D01*
X53374Y197341D01*
X53420Y197407D01*
X53470Y197470D01*
X53522Y197531D01*
X53577Y197590D01*
X53636Y197645D01*
X53696Y197697D01*
X53760Y197747D01*
X53826Y197793D01*
X53893Y197836D01*
X53963Y197876D01*
X54035Y197912D01*
X54109Y197944D01*
X54183Y197973D01*
X54260Y197999D01*
X54337Y198020D01*
X54416Y198038D01*
X54495Y198051D01*
X54575Y198061D01*
X54655Y198067D01*
X54735Y198069D01*
X57190Y198069D01*
X61019Y198069D02*
X61019Y190703D01*
X61019Y198069D02*
X63065Y198069D01*
X63154Y198067D01*
X63243Y198061D01*
X63332Y198051D01*
X63420Y198038D01*
X63508Y198021D01*
X63595Y197999D01*
X63680Y197974D01*
X63765Y197946D01*
X63848Y197913D01*
X63930Y197877D01*
X64010Y197838D01*
X64088Y197795D01*
X64164Y197749D01*
X64239Y197699D01*
X64311Y197646D01*
X64380Y197590D01*
X64447Y197531D01*
X64512Y197470D01*
X64573Y197405D01*
X64632Y197338D01*
X64688Y197269D01*
X64741Y197197D01*
X64791Y197122D01*
X64837Y197046D01*
X64880Y196968D01*
X64919Y196888D01*
X64955Y196806D01*
X64988Y196723D01*
X65016Y196638D01*
X65041Y196553D01*
X65063Y196466D01*
X65080Y196378D01*
X65093Y196290D01*
X65103Y196201D01*
X65109Y196112D01*
X65111Y196023D01*
X65109Y195934D01*
X65103Y195845D01*
X65093Y195756D01*
X65080Y195668D01*
X65063Y195580D01*
X65041Y195493D01*
X65016Y195408D01*
X64988Y195323D01*
X64955Y195240D01*
X64919Y195158D01*
X64880Y195078D01*
X64837Y195000D01*
X64791Y194924D01*
X64741Y194849D01*
X64688Y194777D01*
X64632Y194708D01*
X64573Y194641D01*
X64512Y194576D01*
X64447Y194515D01*
X64380Y194456D01*
X64311Y194400D01*
X64239Y194347D01*
X64164Y194297D01*
X64088Y194251D01*
X64010Y194208D01*
X63930Y194169D01*
X63848Y194133D01*
X63765Y194100D01*
X63680Y194072D01*
X63595Y194047D01*
X63508Y194025D01*
X63420Y194008D01*
X63332Y193995D01*
X63243Y193985D01*
X63154Y193979D01*
X63065Y193977D01*
X61019Y193977D01*
X68556Y190703D02*
X68556Y198069D01*
X67737Y190703D02*
X69374Y190703D01*
X69374Y198069D02*
X67737Y198069D01*
X72362Y196023D02*
X72362Y192749D01*
X72362Y196023D02*
X72364Y196112D01*
X72370Y196201D01*
X72380Y196290D01*
X72393Y196378D01*
X72410Y196466D01*
X72432Y196553D01*
X72457Y196638D01*
X72485Y196723D01*
X72518Y196806D01*
X72554Y196888D01*
X72593Y196968D01*
X72636Y197046D01*
X72682Y197122D01*
X72732Y197197D01*
X72785Y197269D01*
X72841Y197338D01*
X72900Y197405D01*
X72961Y197470D01*
X73026Y197531D01*
X73093Y197590D01*
X73162Y197646D01*
X73234Y197699D01*
X73309Y197749D01*
X73385Y197795D01*
X73463Y197838D01*
X73543Y197877D01*
X73625Y197913D01*
X73708Y197946D01*
X73793Y197974D01*
X73878Y197999D01*
X73965Y198021D01*
X74053Y198038D01*
X74141Y198051D01*
X74230Y198061D01*
X74319Y198067D01*
X74408Y198069D01*
X74497Y198067D01*
X74586Y198061D01*
X74675Y198051D01*
X74763Y198038D01*
X74851Y198021D01*
X74938Y197999D01*
X75023Y197974D01*
X75108Y197946D01*
X75191Y197913D01*
X75273Y197877D01*
X75353Y197838D01*
X75431Y197795D01*
X75507Y197749D01*
X75582Y197699D01*
X75654Y197646D01*
X75723Y197590D01*
X75790Y197531D01*
X75855Y197470D01*
X75916Y197405D01*
X75975Y197338D01*
X76031Y197269D01*
X76084Y197197D01*
X76134Y197122D01*
X76180Y197046D01*
X76223Y196968D01*
X76262Y196888D01*
X76298Y196806D01*
X76331Y196723D01*
X76359Y196638D01*
X76384Y196553D01*
X76406Y196466D01*
X76423Y196378D01*
X76436Y196290D01*
X76446Y196201D01*
X76452Y196112D01*
X76454Y196023D01*
X76454Y192749D01*
X76452Y192660D01*
X76446Y192571D01*
X76436Y192482D01*
X76423Y192394D01*
X76406Y192306D01*
X76384Y192219D01*
X76359Y192134D01*
X76331Y192049D01*
X76298Y191966D01*
X76262Y191884D01*
X76223Y191804D01*
X76180Y191726D01*
X76134Y191650D01*
X76084Y191575D01*
X76031Y191503D01*
X75975Y191434D01*
X75916Y191367D01*
X75855Y191302D01*
X75790Y191241D01*
X75723Y191182D01*
X75654Y191126D01*
X75582Y191073D01*
X75507Y191023D01*
X75431Y190977D01*
X75353Y190934D01*
X75273Y190895D01*
X75191Y190859D01*
X75108Y190826D01*
X75023Y190798D01*
X74938Y190773D01*
X74851Y190751D01*
X74763Y190734D01*
X74675Y190721D01*
X74586Y190711D01*
X74497Y190705D01*
X74408Y190703D01*
X74319Y190705D01*
X74230Y190711D01*
X74141Y190721D01*
X74053Y190734D01*
X73965Y190751D01*
X73878Y190773D01*
X73793Y190798D01*
X73708Y190826D01*
X73625Y190859D01*
X73543Y190895D01*
X73463Y190934D01*
X73385Y190977D01*
X73309Y191023D01*
X73234Y191073D01*
X73162Y191126D01*
X73093Y191182D01*
X73026Y191241D01*
X72961Y191302D01*
X72900Y191367D01*
X72841Y191434D01*
X72785Y191503D01*
X72732Y191575D01*
X72682Y191650D01*
X72636Y191726D01*
X72593Y191804D01*
X72554Y191884D01*
X72518Y191966D01*
X72485Y192049D01*
X72457Y192134D01*
X72432Y192219D01*
X72410Y192306D01*
X72393Y192394D01*
X72380Y192482D01*
X72370Y192571D01*
X72364Y192660D01*
X72362Y192749D01*
X79677Y190703D02*
X82132Y190703D01*
X82210Y190705D01*
X82288Y190710D01*
X82365Y190720D01*
X82442Y190733D01*
X82518Y190749D01*
X82593Y190769D01*
X82667Y190793D01*
X82740Y190820D01*
X82812Y190851D01*
X82882Y190885D01*
X82951Y190922D01*
X83017Y190963D01*
X83082Y191007D01*
X83144Y191053D01*
X83204Y191103D01*
X83262Y191155D01*
X83317Y191210D01*
X83369Y191268D01*
X83419Y191328D01*
X83465Y191390D01*
X83509Y191455D01*
X83550Y191522D01*
X83587Y191590D01*
X83621Y191660D01*
X83652Y191732D01*
X83679Y191805D01*
X83703Y191879D01*
X83723Y191954D01*
X83739Y192030D01*
X83752Y192107D01*
X83762Y192184D01*
X83767Y192262D01*
X83769Y192340D01*
X83769Y193158D01*
X83767Y193236D01*
X83762Y193314D01*
X83752Y193391D01*
X83739Y193468D01*
X83723Y193544D01*
X83703Y193619D01*
X83679Y193693D01*
X83652Y193766D01*
X83621Y193838D01*
X83587Y193908D01*
X83550Y193977D01*
X83509Y194043D01*
X83465Y194108D01*
X83419Y194170D01*
X83369Y194230D01*
X83317Y194288D01*
X83262Y194343D01*
X83204Y194395D01*
X83144Y194445D01*
X83082Y194491D01*
X83017Y194535D01*
X82951Y194576D01*
X82882Y194613D01*
X82812Y194647D01*
X82740Y194678D01*
X82667Y194705D01*
X82593Y194729D01*
X82518Y194749D01*
X82442Y194765D01*
X82365Y194778D01*
X82288Y194788D01*
X82210Y194793D01*
X82132Y194795D01*
X79677Y194795D01*
X79677Y198069D01*
X83769Y198069D01*
X64854Y172669D02*
X64854Y165303D01*
X64854Y172669D02*
X66900Y172669D01*
X66989Y172667D01*
X67078Y172661D01*
X67167Y172651D01*
X67255Y172638D01*
X67343Y172621D01*
X67430Y172599D01*
X67515Y172574D01*
X67600Y172546D01*
X67683Y172513D01*
X67765Y172477D01*
X67845Y172438D01*
X67923Y172395D01*
X67999Y172349D01*
X68074Y172299D01*
X68146Y172246D01*
X68215Y172190D01*
X68282Y172131D01*
X68347Y172070D01*
X68408Y172005D01*
X68467Y171938D01*
X68523Y171869D01*
X68576Y171797D01*
X68626Y171722D01*
X68672Y171646D01*
X68715Y171568D01*
X68754Y171488D01*
X68790Y171406D01*
X68823Y171323D01*
X68851Y171238D01*
X68876Y171153D01*
X68898Y171066D01*
X68915Y170978D01*
X68928Y170890D01*
X68938Y170801D01*
X68944Y170712D01*
X68946Y170623D01*
X68944Y170534D01*
X68938Y170445D01*
X68928Y170356D01*
X68915Y170268D01*
X68898Y170180D01*
X68876Y170093D01*
X68851Y170008D01*
X68823Y169923D01*
X68790Y169840D01*
X68754Y169758D01*
X68715Y169678D01*
X68672Y169600D01*
X68626Y169524D01*
X68576Y169449D01*
X68523Y169377D01*
X68467Y169308D01*
X68408Y169241D01*
X68347Y169176D01*
X68282Y169115D01*
X68215Y169056D01*
X68146Y169000D01*
X68074Y168947D01*
X67999Y168897D01*
X67923Y168851D01*
X67845Y168808D01*
X67765Y168769D01*
X67683Y168733D01*
X67600Y168700D01*
X67515Y168672D01*
X67430Y168647D01*
X67343Y168625D01*
X67255Y168608D01*
X67167Y168595D01*
X67078Y168585D01*
X66989Y168579D01*
X66900Y168577D01*
X64854Y168577D01*
X67309Y168577D02*
X68946Y165303D01*
X71709Y165303D02*
X76619Y172669D01*
X71709Y172669D02*
X76619Y165303D01*
X79677Y165303D02*
X79677Y172669D01*
X81723Y172669D01*
X81812Y172667D01*
X81901Y172661D01*
X81990Y172651D01*
X82078Y172638D01*
X82166Y172621D01*
X82253Y172599D01*
X82338Y172574D01*
X82423Y172546D01*
X82506Y172513D01*
X82588Y172477D01*
X82668Y172438D01*
X82746Y172395D01*
X82822Y172349D01*
X82897Y172299D01*
X82969Y172246D01*
X83038Y172190D01*
X83105Y172131D01*
X83170Y172070D01*
X83231Y172005D01*
X83290Y171938D01*
X83346Y171869D01*
X83399Y171797D01*
X83449Y171722D01*
X83495Y171646D01*
X83538Y171568D01*
X83577Y171488D01*
X83613Y171406D01*
X83646Y171323D01*
X83674Y171238D01*
X83699Y171153D01*
X83721Y171066D01*
X83738Y170978D01*
X83751Y170890D01*
X83761Y170801D01*
X83767Y170712D01*
X83769Y170623D01*
X83769Y167349D01*
X83767Y167260D01*
X83761Y167171D01*
X83751Y167082D01*
X83738Y166994D01*
X83721Y166906D01*
X83699Y166819D01*
X83674Y166734D01*
X83646Y166649D01*
X83613Y166566D01*
X83577Y166484D01*
X83538Y166404D01*
X83495Y166326D01*
X83449Y166250D01*
X83399Y166175D01*
X83346Y166103D01*
X83290Y166034D01*
X83231Y165967D01*
X83170Y165902D01*
X83105Y165841D01*
X83038Y165782D01*
X82969Y165726D01*
X82897Y165673D01*
X82822Y165623D01*
X82746Y165577D01*
X82668Y165534D01*
X82588Y165495D01*
X82506Y165459D01*
X82423Y165426D01*
X82338Y165398D01*
X82253Y165373D01*
X82166Y165351D01*
X82078Y165334D01*
X81990Y165321D01*
X81901Y165311D01*
X81812Y165305D01*
X81723Y165303D01*
X79677Y165303D01*
X67336Y147269D02*
X67336Y139903D01*
X65290Y147269D02*
X69383Y147269D01*
X76619Y147269D02*
X71709Y139903D01*
X76619Y139903D02*
X71709Y147269D01*
X79677Y147269D02*
X79677Y139903D01*
X79677Y147269D02*
X81723Y147269D01*
X81812Y147267D01*
X81901Y147261D01*
X81990Y147251D01*
X82078Y147238D01*
X82166Y147221D01*
X82253Y147199D01*
X82338Y147174D01*
X82423Y147146D01*
X82506Y147113D01*
X82588Y147077D01*
X82668Y147038D01*
X82746Y146995D01*
X82822Y146949D01*
X82897Y146899D01*
X82969Y146846D01*
X83038Y146790D01*
X83105Y146731D01*
X83170Y146670D01*
X83231Y146605D01*
X83290Y146538D01*
X83346Y146469D01*
X83399Y146397D01*
X83449Y146322D01*
X83495Y146246D01*
X83538Y146168D01*
X83577Y146088D01*
X83613Y146006D01*
X83646Y145923D01*
X83674Y145838D01*
X83699Y145753D01*
X83721Y145666D01*
X83738Y145578D01*
X83751Y145490D01*
X83761Y145401D01*
X83767Y145312D01*
X83769Y145223D01*
X83769Y141949D01*
X83767Y141860D01*
X83761Y141771D01*
X83751Y141682D01*
X83738Y141594D01*
X83721Y141506D01*
X83699Y141419D01*
X83674Y141334D01*
X83646Y141249D01*
X83613Y141166D01*
X83577Y141084D01*
X83538Y141004D01*
X83495Y140926D01*
X83449Y140850D01*
X83399Y140775D01*
X83346Y140703D01*
X83290Y140634D01*
X83231Y140567D01*
X83170Y140502D01*
X83105Y140441D01*
X83038Y140382D01*
X82969Y140326D01*
X82897Y140273D01*
X82822Y140223D01*
X82746Y140177D01*
X82668Y140134D01*
X82588Y140095D01*
X82506Y140059D01*
X82423Y140026D01*
X82338Y139998D01*
X82253Y139973D01*
X82166Y139951D01*
X82078Y139934D01*
X81990Y139921D01*
X81901Y139911D01*
X81812Y139905D01*
X81723Y139903D01*
X79677Y139903D01*
D10*
X123947Y92532D02*
X131172Y92532D01*
X123947Y92532D02*
X123947Y108788D01*
X131172Y108788D01*
X129365Y101563D02*
X123947Y101563D01*
X141840Y92532D02*
X141958Y92534D01*
X142076Y92540D01*
X142194Y92549D01*
X142311Y92563D01*
X142428Y92580D01*
X142545Y92601D01*
X142660Y92626D01*
X142775Y92655D01*
X142889Y92688D01*
X143001Y92724D01*
X143112Y92764D01*
X143222Y92807D01*
X143331Y92854D01*
X143438Y92904D01*
X143543Y92959D01*
X143646Y93016D01*
X143747Y93077D01*
X143847Y93141D01*
X143944Y93208D01*
X144039Y93278D01*
X144131Y93352D01*
X144222Y93428D01*
X144309Y93508D01*
X144394Y93590D01*
X144476Y93675D01*
X144556Y93762D01*
X144632Y93853D01*
X144706Y93945D01*
X144776Y94040D01*
X144843Y94137D01*
X144907Y94237D01*
X144968Y94338D01*
X145025Y94441D01*
X145080Y94546D01*
X145130Y94653D01*
X145177Y94762D01*
X145220Y94872D01*
X145260Y94983D01*
X145296Y95095D01*
X145329Y95209D01*
X145358Y95324D01*
X145383Y95439D01*
X145404Y95556D01*
X145421Y95673D01*
X145435Y95790D01*
X145444Y95908D01*
X145450Y96026D01*
X145452Y96144D01*
X141840Y92532D02*
X141657Y92534D01*
X141475Y92541D01*
X141293Y92552D01*
X141111Y92567D01*
X140929Y92587D01*
X140748Y92610D01*
X140568Y92639D01*
X140388Y92671D01*
X140209Y92708D01*
X140032Y92749D01*
X139855Y92795D01*
X139679Y92844D01*
X139505Y92898D01*
X139331Y92956D01*
X139160Y93018D01*
X138990Y93084D01*
X138821Y93155D01*
X138654Y93229D01*
X138489Y93307D01*
X138326Y93389D01*
X138165Y93475D01*
X138006Y93565D01*
X137849Y93659D01*
X137695Y93756D01*
X137543Y93857D01*
X137393Y93962D01*
X137246Y94070D01*
X137102Y94181D01*
X136960Y94296D01*
X136821Y94415D01*
X136685Y94537D01*
X136552Y94662D01*
X136422Y94790D01*
X136874Y105176D02*
X136876Y105294D01*
X136882Y105412D01*
X136891Y105530D01*
X136905Y105647D01*
X136922Y105764D01*
X136943Y105881D01*
X136968Y105996D01*
X136997Y106111D01*
X137030Y106225D01*
X137066Y106337D01*
X137106Y106448D01*
X137149Y106558D01*
X137196Y106667D01*
X137246Y106774D01*
X137301Y106879D01*
X137358Y106982D01*
X137419Y107083D01*
X137483Y107183D01*
X137550Y107280D01*
X137620Y107375D01*
X137694Y107467D01*
X137770Y107558D01*
X137850Y107645D01*
X137932Y107730D01*
X138017Y107812D01*
X138104Y107892D01*
X138195Y107968D01*
X138287Y108042D01*
X138382Y108112D01*
X138479Y108179D01*
X138579Y108243D01*
X138680Y108304D01*
X138783Y108362D01*
X138888Y108416D01*
X138995Y108466D01*
X139104Y108513D01*
X139214Y108557D01*
X139325Y108596D01*
X139438Y108632D01*
X139551Y108665D01*
X139666Y108694D01*
X139781Y108719D01*
X139898Y108740D01*
X140015Y108757D01*
X140132Y108771D01*
X140250Y108780D01*
X140368Y108786D01*
X140486Y108788D01*
X140647Y108786D01*
X140809Y108780D01*
X140970Y108771D01*
X141131Y108757D01*
X141291Y108740D01*
X141451Y108719D01*
X141611Y108694D01*
X141770Y108665D01*
X141928Y108633D01*
X142085Y108597D01*
X142241Y108557D01*
X142397Y108513D01*
X142551Y108465D01*
X142704Y108414D01*
X142856Y108360D01*
X143007Y108301D01*
X143156Y108240D01*
X143303Y108174D01*
X143449Y108105D01*
X143594Y108033D01*
X143736Y107957D01*
X143877Y107878D01*
X144016Y107796D01*
X144152Y107710D01*
X144287Y107621D01*
X144420Y107529D01*
X144550Y107433D01*
X138679Y102015D02*
X138578Y102077D01*
X138478Y102142D01*
X138381Y102211D01*
X138286Y102283D01*
X138193Y102357D01*
X138103Y102435D01*
X138015Y102516D01*
X137930Y102599D01*
X137848Y102685D01*
X137769Y102774D01*
X137692Y102865D01*
X137619Y102959D01*
X137548Y103055D01*
X137481Y103153D01*
X137417Y103253D01*
X137356Y103356D01*
X137299Y103460D01*
X137245Y103566D01*
X137195Y103674D01*
X137148Y103783D01*
X137104Y103894D01*
X137064Y104006D01*
X137028Y104120D01*
X136996Y104234D01*
X136967Y104350D01*
X136942Y104466D01*
X136921Y104583D01*
X136904Y104701D01*
X136890Y104819D01*
X136881Y104938D01*
X136875Y105057D01*
X136873Y105176D01*
X143647Y99305D02*
X143748Y99243D01*
X143848Y99178D01*
X143945Y99109D01*
X144040Y99037D01*
X144133Y98963D01*
X144223Y98885D01*
X144311Y98804D01*
X144396Y98721D01*
X144478Y98635D01*
X144557Y98546D01*
X144634Y98455D01*
X144707Y98361D01*
X144778Y98265D01*
X144845Y98167D01*
X144909Y98067D01*
X144970Y97964D01*
X145027Y97860D01*
X145081Y97754D01*
X145131Y97646D01*
X145178Y97537D01*
X145222Y97426D01*
X145262Y97314D01*
X145298Y97200D01*
X145330Y97086D01*
X145359Y96970D01*
X145384Y96854D01*
X145405Y96737D01*
X145422Y96619D01*
X145436Y96501D01*
X145445Y96382D01*
X145451Y96263D01*
X145453Y96144D01*
X143647Y99305D02*
X138680Y102015D01*
X152264Y108788D02*
X152264Y92532D01*
X152264Y108788D02*
X156780Y108788D01*
X156913Y108786D01*
X157045Y108780D01*
X157177Y108770D01*
X157309Y108757D01*
X157441Y108739D01*
X157571Y108718D01*
X157702Y108693D01*
X157831Y108664D01*
X157959Y108631D01*
X158087Y108595D01*
X158213Y108555D01*
X158338Y108511D01*
X158462Y108463D01*
X158584Y108412D01*
X158705Y108357D01*
X158824Y108299D01*
X158942Y108237D01*
X159057Y108172D01*
X159171Y108103D01*
X159282Y108032D01*
X159391Y107956D01*
X159498Y107878D01*
X159603Y107797D01*
X159705Y107712D01*
X159805Y107625D01*
X159902Y107535D01*
X159997Y107442D01*
X160088Y107346D01*
X160177Y107248D01*
X160263Y107147D01*
X160346Y107043D01*
X160426Y106937D01*
X160502Y106829D01*
X160576Y106719D01*
X160646Y106606D01*
X160713Y106492D01*
X160776Y106375D01*
X160836Y106257D01*
X160893Y106137D01*
X160946Y106015D01*
X160995Y105892D01*
X161041Y105768D01*
X161083Y105642D01*
X161121Y105515D01*
X161156Y105387D01*
X161187Y105258D01*
X161214Y105129D01*
X161237Y104998D01*
X161257Y104867D01*
X161272Y104735D01*
X161284Y104603D01*
X161292Y104471D01*
X161296Y104338D01*
X161296Y104206D01*
X161292Y104073D01*
X161284Y103941D01*
X161272Y103809D01*
X161257Y103677D01*
X161237Y103546D01*
X161214Y103415D01*
X161187Y103286D01*
X161156Y103157D01*
X161121Y103029D01*
X161083Y102902D01*
X161041Y102776D01*
X160995Y102652D01*
X160946Y102529D01*
X160893Y102407D01*
X160836Y102287D01*
X160776Y102169D01*
X160713Y102052D01*
X160646Y101938D01*
X160576Y101825D01*
X160502Y101715D01*
X160426Y101607D01*
X160346Y101501D01*
X160263Y101397D01*
X160177Y101296D01*
X160088Y101198D01*
X159997Y101102D01*
X159902Y101009D01*
X159805Y100919D01*
X159705Y100832D01*
X159603Y100747D01*
X159498Y100666D01*
X159391Y100588D01*
X159282Y100512D01*
X159171Y100441D01*
X159057Y100372D01*
X158942Y100307D01*
X158824Y100245D01*
X158705Y100187D01*
X158584Y100132D01*
X158462Y100081D01*
X158338Y100033D01*
X158213Y99989D01*
X158087Y99949D01*
X157959Y99913D01*
X157831Y99880D01*
X157702Y99851D01*
X157571Y99826D01*
X157441Y99805D01*
X157309Y99787D01*
X157177Y99774D01*
X157045Y99764D01*
X156913Y99758D01*
X156780Y99756D01*
X156780Y99757D02*
X152264Y99757D01*
X167163Y97048D02*
X167165Y97181D01*
X167171Y97313D01*
X167181Y97445D01*
X167194Y97577D01*
X167212Y97709D01*
X167233Y97839D01*
X167258Y97970D01*
X167287Y98099D01*
X167320Y98227D01*
X167356Y98355D01*
X167396Y98481D01*
X167440Y98606D01*
X167488Y98730D01*
X167539Y98852D01*
X167594Y98973D01*
X167652Y99092D01*
X167714Y99210D01*
X167779Y99325D01*
X167848Y99439D01*
X167919Y99550D01*
X167995Y99659D01*
X168073Y99766D01*
X168154Y99871D01*
X168239Y99973D01*
X168326Y100073D01*
X168416Y100170D01*
X168509Y100265D01*
X168605Y100356D01*
X168703Y100445D01*
X168804Y100531D01*
X168908Y100614D01*
X169014Y100694D01*
X169122Y100770D01*
X169232Y100844D01*
X169345Y100914D01*
X169459Y100981D01*
X169576Y101044D01*
X169694Y101104D01*
X169814Y101161D01*
X169936Y101214D01*
X170059Y101263D01*
X170183Y101309D01*
X170309Y101351D01*
X170436Y101389D01*
X170564Y101424D01*
X170693Y101455D01*
X170822Y101482D01*
X170953Y101505D01*
X171084Y101525D01*
X171216Y101540D01*
X171348Y101552D01*
X171480Y101560D01*
X171613Y101564D01*
X171745Y101564D01*
X171878Y101560D01*
X172010Y101552D01*
X172142Y101540D01*
X172274Y101525D01*
X172405Y101505D01*
X172536Y101482D01*
X172665Y101455D01*
X172794Y101424D01*
X172922Y101389D01*
X173049Y101351D01*
X173175Y101309D01*
X173299Y101263D01*
X173422Y101214D01*
X173544Y101161D01*
X173664Y101104D01*
X173782Y101044D01*
X173899Y100981D01*
X174013Y100914D01*
X174126Y100844D01*
X174236Y100770D01*
X174344Y100694D01*
X174450Y100614D01*
X174554Y100531D01*
X174655Y100445D01*
X174753Y100356D01*
X174849Y100265D01*
X174942Y100170D01*
X175032Y100073D01*
X175119Y99973D01*
X175204Y99871D01*
X175285Y99766D01*
X175363Y99659D01*
X175439Y99550D01*
X175510Y99439D01*
X175579Y99325D01*
X175644Y99210D01*
X175706Y99092D01*
X175764Y98973D01*
X175819Y98852D01*
X175870Y98730D01*
X175918Y98606D01*
X175962Y98481D01*
X176002Y98355D01*
X176038Y98227D01*
X176071Y98099D01*
X176100Y97970D01*
X176125Y97839D01*
X176146Y97709D01*
X176164Y97577D01*
X176177Y97445D01*
X176187Y97313D01*
X176193Y97181D01*
X176195Y97048D01*
X176193Y96915D01*
X176187Y96783D01*
X176177Y96651D01*
X176164Y96519D01*
X176146Y96387D01*
X176125Y96257D01*
X176100Y96126D01*
X176071Y95997D01*
X176038Y95869D01*
X176002Y95741D01*
X175962Y95615D01*
X175918Y95490D01*
X175870Y95366D01*
X175819Y95244D01*
X175764Y95123D01*
X175706Y95004D01*
X175644Y94886D01*
X175579Y94771D01*
X175510Y94657D01*
X175439Y94546D01*
X175363Y94437D01*
X175285Y94330D01*
X175204Y94225D01*
X175119Y94123D01*
X175032Y94023D01*
X174942Y93926D01*
X174849Y93831D01*
X174753Y93740D01*
X174655Y93651D01*
X174554Y93565D01*
X174450Y93482D01*
X174344Y93402D01*
X174236Y93326D01*
X174126Y93252D01*
X174013Y93182D01*
X173899Y93115D01*
X173782Y93052D01*
X173664Y92992D01*
X173544Y92935D01*
X173422Y92882D01*
X173299Y92833D01*
X173175Y92787D01*
X173049Y92745D01*
X172922Y92707D01*
X172794Y92672D01*
X172665Y92641D01*
X172536Y92614D01*
X172405Y92591D01*
X172274Y92571D01*
X172142Y92556D01*
X172010Y92544D01*
X171878Y92536D01*
X171745Y92532D01*
X171613Y92532D01*
X171480Y92536D01*
X171348Y92544D01*
X171216Y92556D01*
X171084Y92571D01*
X170953Y92591D01*
X170822Y92614D01*
X170693Y92641D01*
X170564Y92672D01*
X170436Y92707D01*
X170309Y92745D01*
X170183Y92787D01*
X170059Y92833D01*
X169936Y92882D01*
X169814Y92935D01*
X169694Y92992D01*
X169576Y93052D01*
X169459Y93115D01*
X169345Y93182D01*
X169232Y93252D01*
X169122Y93326D01*
X169014Y93402D01*
X168908Y93482D01*
X168804Y93565D01*
X168703Y93651D01*
X168605Y93740D01*
X168509Y93831D01*
X168416Y93926D01*
X168326Y94023D01*
X168239Y94123D01*
X168154Y94225D01*
X168073Y94330D01*
X167995Y94437D01*
X167919Y94546D01*
X167848Y94657D01*
X167779Y94771D01*
X167714Y94886D01*
X167652Y95004D01*
X167594Y95123D01*
X167539Y95244D01*
X167488Y95366D01*
X167440Y95490D01*
X167396Y95615D01*
X167356Y95741D01*
X167320Y95869D01*
X167287Y95997D01*
X167258Y96126D01*
X167233Y96257D01*
X167212Y96387D01*
X167194Y96519D01*
X167181Y96651D01*
X167171Y96783D01*
X167165Y96915D01*
X167163Y97048D01*
X168067Y105176D02*
X168069Y105295D01*
X168075Y105415D01*
X168085Y105534D01*
X168099Y105652D01*
X168116Y105771D01*
X168138Y105888D01*
X168163Y106005D01*
X168193Y106120D01*
X168226Y106235D01*
X168263Y106349D01*
X168303Y106461D01*
X168348Y106572D01*
X168396Y106681D01*
X168447Y106789D01*
X168502Y106895D01*
X168561Y106999D01*
X168623Y107101D01*
X168688Y107201D01*
X168757Y107299D01*
X168829Y107395D01*
X168904Y107488D01*
X168981Y107578D01*
X169062Y107666D01*
X169146Y107751D01*
X169233Y107833D01*
X169322Y107913D01*
X169414Y107989D01*
X169508Y108063D01*
X169605Y108133D01*
X169703Y108200D01*
X169804Y108264D01*
X169908Y108324D01*
X170013Y108381D01*
X170120Y108434D01*
X170228Y108484D01*
X170338Y108530D01*
X170450Y108572D01*
X170563Y108611D01*
X170677Y108646D01*
X170792Y108677D01*
X170909Y108705D01*
X171026Y108728D01*
X171143Y108748D01*
X171262Y108764D01*
X171381Y108776D01*
X171500Y108784D01*
X171619Y108788D01*
X171739Y108788D01*
X171858Y108784D01*
X171977Y108776D01*
X172096Y108764D01*
X172215Y108748D01*
X172332Y108728D01*
X172449Y108705D01*
X172566Y108677D01*
X172681Y108646D01*
X172795Y108611D01*
X172908Y108572D01*
X173020Y108530D01*
X173130Y108484D01*
X173238Y108434D01*
X173345Y108381D01*
X173450Y108324D01*
X173554Y108264D01*
X173655Y108200D01*
X173753Y108133D01*
X173850Y108063D01*
X173944Y107989D01*
X174036Y107913D01*
X174125Y107833D01*
X174212Y107751D01*
X174296Y107666D01*
X174377Y107578D01*
X174454Y107488D01*
X174529Y107395D01*
X174601Y107299D01*
X174670Y107201D01*
X174735Y107101D01*
X174797Y106999D01*
X174856Y106895D01*
X174911Y106789D01*
X174962Y106681D01*
X175010Y106572D01*
X175055Y106461D01*
X175095Y106349D01*
X175132Y106235D01*
X175165Y106120D01*
X175195Y106005D01*
X175220Y105888D01*
X175242Y105771D01*
X175259Y105652D01*
X175273Y105534D01*
X175283Y105415D01*
X175289Y105295D01*
X175291Y105176D01*
X175289Y105057D01*
X175283Y104937D01*
X175273Y104818D01*
X175259Y104700D01*
X175242Y104581D01*
X175220Y104464D01*
X175195Y104347D01*
X175165Y104232D01*
X175132Y104117D01*
X175095Y104003D01*
X175055Y103891D01*
X175010Y103780D01*
X174962Y103671D01*
X174911Y103563D01*
X174856Y103457D01*
X174797Y103353D01*
X174735Y103251D01*
X174670Y103151D01*
X174601Y103053D01*
X174529Y102957D01*
X174454Y102864D01*
X174377Y102774D01*
X174296Y102686D01*
X174212Y102601D01*
X174125Y102519D01*
X174036Y102439D01*
X173944Y102363D01*
X173850Y102289D01*
X173753Y102219D01*
X173655Y102152D01*
X173554Y102088D01*
X173450Y102028D01*
X173345Y101971D01*
X173238Y101918D01*
X173130Y101868D01*
X173020Y101822D01*
X172908Y101780D01*
X172795Y101741D01*
X172681Y101706D01*
X172566Y101675D01*
X172449Y101647D01*
X172332Y101624D01*
X172215Y101604D01*
X172096Y101588D01*
X171977Y101576D01*
X171858Y101568D01*
X171739Y101564D01*
X171619Y101564D01*
X171500Y101568D01*
X171381Y101576D01*
X171262Y101588D01*
X171143Y101604D01*
X171026Y101624D01*
X170909Y101647D01*
X170792Y101675D01*
X170677Y101706D01*
X170563Y101741D01*
X170450Y101780D01*
X170338Y101822D01*
X170228Y101868D01*
X170120Y101918D01*
X170013Y101971D01*
X169908Y102028D01*
X169804Y102088D01*
X169703Y102152D01*
X169605Y102219D01*
X169508Y102289D01*
X169414Y102363D01*
X169322Y102439D01*
X169233Y102519D01*
X169146Y102601D01*
X169062Y102686D01*
X168981Y102774D01*
X168904Y102864D01*
X168829Y102957D01*
X168757Y103053D01*
X168688Y103151D01*
X168623Y103251D01*
X168561Y103353D01*
X168502Y103457D01*
X168447Y103563D01*
X168396Y103671D01*
X168348Y103780D01*
X168303Y103891D01*
X168263Y104003D01*
X168226Y104117D01*
X168193Y104232D01*
X168163Y104347D01*
X168138Y104464D01*
X168116Y104581D01*
X168099Y104700D01*
X168085Y104818D01*
X168075Y104937D01*
X168069Y105057D01*
X168067Y105176D01*
X187762Y108788D02*
X187887Y108786D01*
X188012Y108780D01*
X188137Y108771D01*
X188261Y108757D01*
X188385Y108740D01*
X188509Y108719D01*
X188631Y108694D01*
X188753Y108665D01*
X188874Y108633D01*
X188994Y108597D01*
X189113Y108557D01*
X189230Y108514D01*
X189346Y108467D01*
X189461Y108416D01*
X189573Y108362D01*
X189685Y108304D01*
X189794Y108244D01*
X189901Y108179D01*
X190007Y108112D01*
X190110Y108041D01*
X190211Y107967D01*
X190310Y107890D01*
X190406Y107810D01*
X190500Y107727D01*
X190591Y107642D01*
X190680Y107553D01*
X190765Y107462D01*
X190848Y107368D01*
X190928Y107272D01*
X191005Y107173D01*
X191079Y107072D01*
X191150Y106969D01*
X191217Y106863D01*
X191282Y106756D01*
X191342Y106647D01*
X191400Y106535D01*
X191454Y106423D01*
X191505Y106308D01*
X191552Y106192D01*
X191595Y106075D01*
X191635Y105956D01*
X191671Y105836D01*
X191703Y105715D01*
X191732Y105593D01*
X191757Y105471D01*
X191778Y105347D01*
X191795Y105223D01*
X191809Y105099D01*
X191818Y104974D01*
X191824Y104849D01*
X191826Y104724D01*
X187762Y108788D02*
X187619Y108786D01*
X187477Y108780D01*
X187334Y108770D01*
X187192Y108757D01*
X187051Y108739D01*
X186909Y108718D01*
X186769Y108693D01*
X186629Y108664D01*
X186490Y108631D01*
X186352Y108594D01*
X186215Y108554D01*
X186080Y108510D01*
X185945Y108462D01*
X185812Y108410D01*
X185680Y108355D01*
X185550Y108296D01*
X185422Y108234D01*
X185295Y108168D01*
X185170Y108099D01*
X185047Y108027D01*
X184927Y107951D01*
X184808Y107872D01*
X184691Y107789D01*
X184577Y107704D01*
X184465Y107615D01*
X184356Y107524D01*
X184249Y107429D01*
X184144Y107332D01*
X184043Y107231D01*
X183944Y107128D01*
X183848Y107023D01*
X183755Y106914D01*
X183665Y106803D01*
X183578Y106690D01*
X183494Y106575D01*
X183414Y106457D01*
X183336Y106337D01*
X183262Y106215D01*
X183192Y106091D01*
X183124Y105965D01*
X183061Y105837D01*
X183000Y105708D01*
X182943Y105577D01*
X182890Y105445D01*
X182841Y105311D01*
X182795Y105176D01*
X190470Y101563D02*
X190564Y101655D01*
X190654Y101749D01*
X190742Y101846D01*
X190827Y101946D01*
X190909Y102048D01*
X190988Y102153D01*
X191063Y102260D01*
X191135Y102369D01*
X191204Y102480D01*
X191270Y102594D01*
X191332Y102709D01*
X191391Y102826D01*
X191446Y102945D01*
X191497Y103065D01*
X191545Y103187D01*
X191590Y103310D01*
X191630Y103434D01*
X191667Y103560D01*
X191700Y103687D01*
X191729Y103814D01*
X191755Y103943D01*
X191776Y104072D01*
X191794Y104202D01*
X191807Y104332D01*
X191817Y104462D01*
X191823Y104593D01*
X191825Y104724D01*
X190471Y101563D02*
X182794Y92532D01*
X191826Y92532D01*
X198426Y101563D02*
X203844Y101563D01*
X203962Y101561D01*
X204080Y101555D01*
X204198Y101546D01*
X204315Y101532D01*
X204432Y101515D01*
X204549Y101494D01*
X204664Y101469D01*
X204779Y101440D01*
X204893Y101407D01*
X205005Y101371D01*
X205116Y101331D01*
X205226Y101288D01*
X205335Y101241D01*
X205442Y101191D01*
X205547Y101136D01*
X205650Y101079D01*
X205751Y101018D01*
X205851Y100954D01*
X205948Y100887D01*
X206043Y100817D01*
X206135Y100743D01*
X206226Y100667D01*
X206313Y100587D01*
X206398Y100505D01*
X206480Y100420D01*
X206560Y100333D01*
X206636Y100242D01*
X206710Y100150D01*
X206780Y100055D01*
X206847Y99958D01*
X206911Y99858D01*
X206972Y99757D01*
X207029Y99654D01*
X207084Y99549D01*
X207134Y99442D01*
X207181Y99333D01*
X207224Y99223D01*
X207264Y99112D01*
X207300Y99000D01*
X207333Y98886D01*
X207362Y98771D01*
X207387Y98656D01*
X207408Y98539D01*
X207425Y98422D01*
X207439Y98305D01*
X207448Y98187D01*
X207454Y98069D01*
X207456Y97951D01*
X207457Y97951D02*
X207457Y97048D01*
X207455Y96915D01*
X207449Y96783D01*
X207439Y96651D01*
X207426Y96519D01*
X207408Y96387D01*
X207387Y96257D01*
X207362Y96126D01*
X207333Y95997D01*
X207300Y95869D01*
X207264Y95741D01*
X207224Y95615D01*
X207180Y95490D01*
X207132Y95366D01*
X207081Y95244D01*
X207026Y95123D01*
X206968Y95004D01*
X206906Y94886D01*
X206841Y94771D01*
X206772Y94657D01*
X206701Y94546D01*
X206625Y94437D01*
X206547Y94330D01*
X206466Y94225D01*
X206381Y94123D01*
X206294Y94023D01*
X206204Y93926D01*
X206111Y93831D01*
X206015Y93740D01*
X205917Y93651D01*
X205816Y93565D01*
X205712Y93482D01*
X205606Y93402D01*
X205498Y93326D01*
X205388Y93252D01*
X205275Y93182D01*
X205161Y93115D01*
X205044Y93052D01*
X204926Y92992D01*
X204806Y92935D01*
X204684Y92882D01*
X204561Y92833D01*
X204437Y92787D01*
X204311Y92745D01*
X204184Y92707D01*
X204056Y92672D01*
X203927Y92641D01*
X203798Y92614D01*
X203667Y92591D01*
X203536Y92571D01*
X203404Y92556D01*
X203272Y92544D01*
X203140Y92536D01*
X203007Y92532D01*
X202875Y92532D01*
X202742Y92536D01*
X202610Y92544D01*
X202478Y92556D01*
X202346Y92571D01*
X202215Y92591D01*
X202084Y92614D01*
X201955Y92641D01*
X201826Y92672D01*
X201698Y92707D01*
X201571Y92745D01*
X201445Y92787D01*
X201321Y92833D01*
X201198Y92882D01*
X201076Y92935D01*
X200956Y92992D01*
X200838Y93052D01*
X200721Y93115D01*
X200607Y93182D01*
X200494Y93252D01*
X200384Y93326D01*
X200276Y93402D01*
X200170Y93482D01*
X200066Y93565D01*
X199965Y93651D01*
X199867Y93740D01*
X199771Y93831D01*
X199678Y93926D01*
X199588Y94023D01*
X199501Y94123D01*
X199416Y94225D01*
X199335Y94330D01*
X199257Y94437D01*
X199181Y94546D01*
X199110Y94657D01*
X199041Y94771D01*
X198976Y94886D01*
X198914Y95004D01*
X198856Y95123D01*
X198801Y95244D01*
X198750Y95366D01*
X198702Y95490D01*
X198658Y95615D01*
X198618Y95741D01*
X198582Y95869D01*
X198549Y95997D01*
X198520Y96126D01*
X198495Y96257D01*
X198474Y96387D01*
X198456Y96519D01*
X198443Y96651D01*
X198433Y96783D01*
X198427Y96915D01*
X198425Y97048D01*
X198426Y97048D02*
X198426Y101563D01*
X198428Y101740D01*
X198435Y101918D01*
X198446Y102095D01*
X198461Y102271D01*
X198480Y102447D01*
X198504Y102623D01*
X198532Y102798D01*
X198565Y102973D01*
X198602Y103146D01*
X198643Y103319D01*
X198688Y103490D01*
X198737Y103660D01*
X198791Y103829D01*
X198848Y103997D01*
X198910Y104163D01*
X198976Y104328D01*
X199046Y104491D01*
X199120Y104652D01*
X199197Y104811D01*
X199279Y104969D01*
X199365Y105124D01*
X199454Y105277D01*
X199547Y105428D01*
X199644Y105577D01*
X199744Y105723D01*
X199848Y105867D01*
X199955Y106008D01*
X200066Y106146D01*
X200180Y106282D01*
X200298Y106415D01*
X200418Y106545D01*
X200542Y106672D01*
X200669Y106796D01*
X200799Y106916D01*
X200932Y107034D01*
X201067Y107148D01*
X201206Y107259D01*
X201347Y107366D01*
X201491Y107470D01*
X201637Y107570D01*
X201786Y107667D01*
X201937Y107760D01*
X202090Y107849D01*
X202245Y107935D01*
X202403Y108017D01*
X202562Y108094D01*
X202723Y108168D01*
X202886Y108238D01*
X203051Y108304D01*
X203217Y108366D01*
X203385Y108423D01*
X203554Y108477D01*
X203724Y108526D01*
X203895Y108571D01*
X204068Y108612D01*
X204241Y108649D01*
X204416Y108682D01*
X204591Y108710D01*
X204767Y108734D01*
X204943Y108753D01*
X205119Y108768D01*
X205296Y108779D01*
X205474Y108786D01*
X205651Y108788D01*
X214057Y101563D02*
X219476Y101563D01*
X219594Y101561D01*
X219712Y101555D01*
X219830Y101546D01*
X219947Y101532D01*
X220064Y101515D01*
X220181Y101494D01*
X220296Y101469D01*
X220411Y101440D01*
X220525Y101407D01*
X220637Y101371D01*
X220748Y101331D01*
X220858Y101288D01*
X220967Y101241D01*
X221074Y101191D01*
X221179Y101136D01*
X221282Y101079D01*
X221383Y101018D01*
X221483Y100954D01*
X221580Y100887D01*
X221675Y100817D01*
X221767Y100743D01*
X221858Y100667D01*
X221945Y100587D01*
X222030Y100505D01*
X222112Y100420D01*
X222192Y100333D01*
X222268Y100242D01*
X222342Y100150D01*
X222412Y100055D01*
X222479Y99958D01*
X222543Y99858D01*
X222604Y99757D01*
X222661Y99654D01*
X222716Y99549D01*
X222766Y99442D01*
X222813Y99333D01*
X222856Y99223D01*
X222896Y99112D01*
X222932Y99000D01*
X222965Y98886D01*
X222994Y98771D01*
X223019Y98656D01*
X223040Y98539D01*
X223057Y98422D01*
X223071Y98305D01*
X223080Y98187D01*
X223086Y98069D01*
X223088Y97951D01*
X223088Y97048D01*
X223086Y96915D01*
X223080Y96783D01*
X223070Y96651D01*
X223057Y96519D01*
X223039Y96387D01*
X223018Y96257D01*
X222993Y96126D01*
X222964Y95997D01*
X222931Y95869D01*
X222895Y95741D01*
X222855Y95615D01*
X222811Y95490D01*
X222763Y95366D01*
X222712Y95244D01*
X222657Y95123D01*
X222599Y95004D01*
X222537Y94886D01*
X222472Y94771D01*
X222403Y94657D01*
X222332Y94546D01*
X222256Y94437D01*
X222178Y94330D01*
X222097Y94225D01*
X222012Y94123D01*
X221925Y94023D01*
X221835Y93926D01*
X221742Y93831D01*
X221646Y93740D01*
X221548Y93651D01*
X221447Y93565D01*
X221343Y93482D01*
X221237Y93402D01*
X221129Y93326D01*
X221019Y93252D01*
X220906Y93182D01*
X220792Y93115D01*
X220675Y93052D01*
X220557Y92992D01*
X220437Y92935D01*
X220315Y92882D01*
X220192Y92833D01*
X220068Y92787D01*
X219942Y92745D01*
X219815Y92707D01*
X219687Y92672D01*
X219558Y92641D01*
X219429Y92614D01*
X219298Y92591D01*
X219167Y92571D01*
X219035Y92556D01*
X218903Y92544D01*
X218771Y92536D01*
X218638Y92532D01*
X218506Y92532D01*
X218373Y92536D01*
X218241Y92544D01*
X218109Y92556D01*
X217977Y92571D01*
X217846Y92591D01*
X217715Y92614D01*
X217586Y92641D01*
X217457Y92672D01*
X217329Y92707D01*
X217202Y92745D01*
X217076Y92787D01*
X216952Y92833D01*
X216829Y92882D01*
X216707Y92935D01*
X216587Y92992D01*
X216469Y93052D01*
X216352Y93115D01*
X216238Y93182D01*
X216125Y93252D01*
X216015Y93326D01*
X215907Y93402D01*
X215801Y93482D01*
X215697Y93565D01*
X215596Y93651D01*
X215498Y93740D01*
X215402Y93831D01*
X215309Y93926D01*
X215219Y94023D01*
X215132Y94123D01*
X215047Y94225D01*
X214966Y94330D01*
X214888Y94437D01*
X214812Y94546D01*
X214741Y94657D01*
X214672Y94771D01*
X214607Y94886D01*
X214545Y95004D01*
X214487Y95123D01*
X214432Y95244D01*
X214381Y95366D01*
X214333Y95490D01*
X214289Y95615D01*
X214249Y95741D01*
X214213Y95869D01*
X214180Y95997D01*
X214151Y96126D01*
X214126Y96257D01*
X214105Y96387D01*
X214087Y96519D01*
X214074Y96651D01*
X214064Y96783D01*
X214058Y96915D01*
X214056Y97048D01*
X214057Y97048D02*
X214057Y101563D01*
X214059Y101740D01*
X214066Y101918D01*
X214077Y102095D01*
X214092Y102271D01*
X214111Y102447D01*
X214135Y102623D01*
X214163Y102798D01*
X214196Y102973D01*
X214233Y103146D01*
X214274Y103319D01*
X214319Y103490D01*
X214368Y103660D01*
X214422Y103829D01*
X214479Y103997D01*
X214541Y104163D01*
X214607Y104328D01*
X214677Y104491D01*
X214751Y104652D01*
X214828Y104811D01*
X214910Y104969D01*
X214996Y105124D01*
X215085Y105277D01*
X215178Y105428D01*
X215275Y105577D01*
X215375Y105723D01*
X215479Y105867D01*
X215586Y106008D01*
X215697Y106146D01*
X215811Y106282D01*
X215929Y106415D01*
X216049Y106545D01*
X216173Y106672D01*
X216300Y106796D01*
X216430Y106916D01*
X216563Y107034D01*
X216698Y107148D01*
X216837Y107259D01*
X216978Y107366D01*
X217122Y107470D01*
X217268Y107570D01*
X217417Y107667D01*
X217568Y107760D01*
X217721Y107849D01*
X217876Y107935D01*
X218034Y108017D01*
X218193Y108094D01*
X218354Y108168D01*
X218517Y108238D01*
X218682Y108304D01*
X218848Y108366D01*
X219016Y108423D01*
X219185Y108477D01*
X219355Y108526D01*
X219526Y108571D01*
X219699Y108612D01*
X219872Y108649D01*
X220047Y108682D01*
X220222Y108710D01*
X220398Y108734D01*
X220574Y108753D01*
X220750Y108768D01*
X220927Y108779D01*
X221105Y108786D01*
X221282Y108788D01*
D14*
X312750Y325450D02*
X312750Y383050D01*
X33350Y383050D02*
X33350Y325450D01*
X34000Y363550D02*
X312100Y363550D01*
X286750Y360358D01*
X286750Y366742D01*
X312100Y363550D01*
X286750Y362250D01*
X286750Y364850D02*
X312100Y363550D01*
X286750Y360950D01*
X286750Y366150D02*
X312100Y363550D01*
X59350Y360358D02*
X34000Y363550D01*
X59350Y360358D02*
X59350Y366742D01*
X34000Y363550D01*
X59350Y362250D01*
X59350Y364850D02*
X34000Y363550D01*
X59350Y360950D01*
X59350Y366150D02*
X34000Y363550D01*
D15*
X153520Y358567D02*
X153627Y358565D01*
X153733Y358559D01*
X153839Y358549D01*
X153945Y358536D01*
X154051Y358518D01*
X154155Y358497D01*
X154259Y358472D01*
X154362Y358443D01*
X154463Y358411D01*
X154563Y358374D01*
X154662Y358334D01*
X154760Y358291D01*
X154856Y358244D01*
X154950Y358193D01*
X155042Y358139D01*
X155132Y358082D01*
X155220Y358022D01*
X155305Y357958D01*
X155388Y357891D01*
X155469Y357821D01*
X155547Y357749D01*
X155623Y357673D01*
X155695Y357595D01*
X155765Y357514D01*
X155832Y357431D01*
X155896Y357346D01*
X155956Y357258D01*
X156013Y357168D01*
X156067Y357076D01*
X156118Y356982D01*
X156165Y356886D01*
X156208Y356788D01*
X156248Y356689D01*
X156285Y356589D01*
X156317Y356488D01*
X156346Y356385D01*
X156371Y356281D01*
X156392Y356177D01*
X156410Y356071D01*
X156423Y355965D01*
X156433Y355859D01*
X156439Y355753D01*
X156441Y355646D01*
X153520Y358567D02*
X153399Y358565D01*
X153278Y358559D01*
X153158Y358549D01*
X153037Y358536D01*
X152918Y358518D01*
X152798Y358497D01*
X152680Y358472D01*
X152563Y358443D01*
X152446Y358410D01*
X152331Y358374D01*
X152217Y358333D01*
X152104Y358290D01*
X151992Y358242D01*
X151883Y358191D01*
X151775Y358136D01*
X151668Y358078D01*
X151564Y358017D01*
X151462Y357952D01*
X151362Y357884D01*
X151264Y357813D01*
X151168Y357739D01*
X151075Y357662D01*
X150985Y357581D01*
X150897Y357498D01*
X150812Y357412D01*
X150729Y357323D01*
X150650Y357232D01*
X150573Y357138D01*
X150500Y357042D01*
X150430Y356944D01*
X150363Y356843D01*
X150299Y356740D01*
X150239Y356635D01*
X150182Y356528D01*
X150128Y356420D01*
X150078Y356310D01*
X150032Y356198D01*
X149989Y356085D01*
X149950Y355970D01*
X155468Y353374D02*
X155547Y353451D01*
X155623Y353532D01*
X155696Y353615D01*
X155766Y353700D01*
X155833Y353788D01*
X155897Y353878D01*
X155957Y353970D01*
X156014Y354065D01*
X156068Y354161D01*
X156119Y354259D01*
X156166Y354359D01*
X156210Y354461D01*
X156250Y354564D01*
X156286Y354668D01*
X156318Y354774D01*
X156347Y354880D01*
X156372Y354988D01*
X156394Y355096D01*
X156411Y355206D01*
X156425Y355315D01*
X156434Y355425D01*
X156440Y355536D01*
X156442Y355646D01*
X155467Y353374D02*
X149950Y346883D01*
X156441Y346883D01*
X161380Y357269D02*
X161380Y358567D01*
X167871Y358567D01*
X164626Y346883D01*
X172302Y346883D02*
X172302Y347532D01*
X172951Y347532D01*
X172951Y346883D01*
X172302Y346883D01*
X179978Y352076D02*
X183873Y352076D01*
X179978Y352076D02*
X179879Y352078D01*
X179779Y352084D01*
X179680Y352093D01*
X179582Y352106D01*
X179484Y352123D01*
X179386Y352144D01*
X179290Y352169D01*
X179195Y352197D01*
X179101Y352229D01*
X179008Y352264D01*
X178916Y352303D01*
X178826Y352346D01*
X178738Y352391D01*
X178651Y352441D01*
X178567Y352493D01*
X178484Y352549D01*
X178404Y352607D01*
X178326Y352669D01*
X178251Y352734D01*
X178178Y352802D01*
X178108Y352872D01*
X178040Y352945D01*
X177975Y353020D01*
X177913Y353098D01*
X177855Y353178D01*
X177799Y353261D01*
X177747Y353345D01*
X177697Y353432D01*
X177652Y353520D01*
X177609Y353610D01*
X177570Y353702D01*
X177535Y353795D01*
X177503Y353889D01*
X177475Y353984D01*
X177450Y354080D01*
X177429Y354178D01*
X177412Y354276D01*
X177399Y354374D01*
X177390Y354473D01*
X177384Y354573D01*
X177382Y354672D01*
X177382Y355321D01*
X177381Y355321D02*
X177383Y355434D01*
X177389Y355547D01*
X177399Y355660D01*
X177413Y355773D01*
X177430Y355885D01*
X177452Y355996D01*
X177477Y356106D01*
X177507Y356216D01*
X177540Y356324D01*
X177577Y356431D01*
X177617Y356537D01*
X177662Y356641D01*
X177710Y356744D01*
X177761Y356845D01*
X177816Y356944D01*
X177874Y357041D01*
X177936Y357136D01*
X178001Y357229D01*
X178069Y357319D01*
X178140Y357407D01*
X178215Y357493D01*
X178292Y357576D01*
X178372Y357656D01*
X178455Y357733D01*
X178541Y357808D01*
X178629Y357879D01*
X178719Y357947D01*
X178812Y358012D01*
X178907Y358074D01*
X179004Y358132D01*
X179103Y358187D01*
X179204Y358238D01*
X179307Y358286D01*
X179411Y358331D01*
X179517Y358371D01*
X179624Y358408D01*
X179732Y358441D01*
X179842Y358471D01*
X179952Y358496D01*
X180063Y358518D01*
X180175Y358535D01*
X180288Y358549D01*
X180401Y358559D01*
X180514Y358565D01*
X180627Y358567D01*
X180740Y358565D01*
X180853Y358559D01*
X180966Y358549D01*
X181079Y358535D01*
X181191Y358518D01*
X181302Y358496D01*
X181412Y358471D01*
X181522Y358441D01*
X181630Y358408D01*
X181737Y358371D01*
X181843Y358331D01*
X181947Y358286D01*
X182050Y358238D01*
X182151Y358187D01*
X182250Y358132D01*
X182347Y358074D01*
X182442Y358012D01*
X182535Y357947D01*
X182625Y357879D01*
X182713Y357808D01*
X182799Y357733D01*
X182882Y357656D01*
X182962Y357576D01*
X183039Y357493D01*
X183114Y357407D01*
X183185Y357319D01*
X183253Y357229D01*
X183318Y357136D01*
X183380Y357041D01*
X183438Y356944D01*
X183493Y356845D01*
X183544Y356744D01*
X183592Y356641D01*
X183637Y356537D01*
X183677Y356431D01*
X183714Y356324D01*
X183747Y356216D01*
X183777Y356106D01*
X183802Y355996D01*
X183824Y355885D01*
X183841Y355773D01*
X183855Y355660D01*
X183865Y355547D01*
X183871Y355434D01*
X183873Y355321D01*
X183873Y352076D01*
X183871Y351933D01*
X183865Y351790D01*
X183855Y351647D01*
X183841Y351505D01*
X183824Y351363D01*
X183802Y351221D01*
X183777Y351080D01*
X183747Y350940D01*
X183714Y350801D01*
X183677Y350663D01*
X183636Y350526D01*
X183592Y350390D01*
X183543Y350255D01*
X183491Y350122D01*
X183436Y349990D01*
X183376Y349860D01*
X183313Y349731D01*
X183247Y349604D01*
X183177Y349479D01*
X183104Y349357D01*
X183027Y349236D01*
X182947Y349117D01*
X182864Y349001D01*
X182778Y348886D01*
X182689Y348775D01*
X182596Y348665D01*
X182501Y348559D01*
X182402Y348455D01*
X182301Y348354D01*
X182197Y348255D01*
X182091Y348160D01*
X181981Y348067D01*
X181870Y347978D01*
X181755Y347892D01*
X181639Y347809D01*
X181520Y347729D01*
X181399Y347652D01*
X181276Y347579D01*
X181152Y347509D01*
X181025Y347443D01*
X180896Y347380D01*
X180766Y347320D01*
X180634Y347265D01*
X180501Y347213D01*
X180366Y347164D01*
X180230Y347120D01*
X180093Y347079D01*
X179955Y347042D01*
X179816Y347009D01*
X179676Y346979D01*
X179535Y346954D01*
X179393Y346932D01*
X179251Y346915D01*
X179109Y346901D01*
X178966Y346891D01*
X178823Y346885D01*
X178680Y346883D01*
X188812Y349479D02*
X191408Y358567D01*
X188812Y349479D02*
X195303Y349479D01*
X193356Y352076D02*
X193356Y346883D01*
M02*
