G04 EAGLE Gerber X2 export*
%TF.Part,Single*%
%TF.FileFunction,Copper,L2,Bot,Mixed*%
%TF.FilePolarity,Positive*%
%TF.GenerationSoftware,Autodesk,EAGLE,8.6.0*%
%TF.CreationDate,2018-02-28T16:01:23Z*%
G75*
%MOMM*%
%FSLAX34Y34*%
%LPD*%
%AMOC8*
5,1,8,0,0,1.08239X$1,22.5*%
G01*
%ADD10C,1.320800*%
%ADD11C,1.879600*%
%ADD12C,2.184400*%
%ADD13C,1.016000*%
%ADD14C,1.270000*%

G36*
X320983Y4450D02*
X320983Y4450D01*
X321015Y4448D01*
X321122Y4470D01*
X321231Y4486D01*
X321260Y4499D01*
X321292Y4505D01*
X321388Y4557D01*
X321488Y4602D01*
X321512Y4623D01*
X321541Y4638D01*
X321619Y4714D01*
X321702Y4785D01*
X321720Y4812D01*
X321743Y4835D01*
X321796Y4930D01*
X321856Y5021D01*
X321866Y5052D01*
X321882Y5080D01*
X321907Y5187D01*
X321939Y5291D01*
X321939Y5323D01*
X321947Y5354D01*
X321941Y5464D01*
X321942Y5573D01*
X321934Y5604D01*
X321932Y5636D01*
X321896Y5739D01*
X321867Y5845D01*
X321850Y5872D01*
X321840Y5903D01*
X321786Y5976D01*
X321719Y6085D01*
X321683Y6117D01*
X321658Y6152D01*
X317347Y10462D01*
X315039Y16034D01*
X315039Y22066D01*
X317347Y27638D01*
X321612Y31903D01*
X327184Y34211D01*
X333216Y34211D01*
X338788Y31903D01*
X343048Y27642D01*
X343074Y27623D01*
X343095Y27598D01*
X343187Y27538D01*
X343274Y27473D01*
X343304Y27461D01*
X343331Y27444D01*
X343436Y27412D01*
X343538Y27373D01*
X343570Y27371D01*
X343601Y27361D01*
X343710Y27360D01*
X343819Y27351D01*
X343851Y27358D01*
X343883Y27358D01*
X343988Y27387D01*
X344095Y27409D01*
X344124Y27424D01*
X344155Y27433D01*
X344248Y27490D01*
X344344Y27541D01*
X344367Y27564D01*
X344395Y27581D01*
X344468Y27662D01*
X344546Y27738D01*
X344562Y27766D01*
X344584Y27790D01*
X344631Y27889D01*
X344685Y27984D01*
X344693Y28015D01*
X344707Y28044D01*
X344721Y28133D01*
X344750Y28258D01*
X344748Y28307D01*
X344754Y28349D01*
X344754Y371047D01*
X344738Y371161D01*
X344728Y371276D01*
X344718Y371301D01*
X344714Y371327D01*
X344667Y371432D01*
X344625Y371539D01*
X344609Y371560D01*
X344598Y371584D01*
X344523Y371671D01*
X344453Y371762D01*
X344433Y371777D01*
X344415Y371798D01*
X344270Y371893D01*
X344202Y371941D01*
X336997Y375544D01*
X336924Y375568D01*
X336855Y375602D01*
X336796Y375611D01*
X336729Y375633D01*
X336629Y375637D01*
X336550Y375649D01*
X-905Y375649D01*
X-969Y375640D01*
X-1033Y375641D01*
X-1108Y375620D01*
X-1184Y375609D01*
X-1243Y375583D01*
X-1305Y375566D01*
X-1371Y375525D01*
X-1441Y375493D01*
X-1490Y375451D01*
X-1545Y375418D01*
X-1597Y375360D01*
X-1655Y375310D01*
X-1691Y375256D01*
X-1734Y375208D01*
X-1767Y375139D01*
X-1810Y375074D01*
X-1829Y375012D01*
X-1857Y374955D01*
X-1868Y374885D01*
X-1892Y374804D01*
X-1893Y374719D01*
X-1904Y374650D01*
X-1904Y28299D01*
X-1900Y28267D01*
X-1902Y28235D01*
X-1880Y28128D01*
X-1864Y28019D01*
X-1851Y27990D01*
X-1845Y27958D01*
X-1793Y27862D01*
X-1748Y27762D01*
X-1727Y27738D01*
X-1712Y27709D01*
X-1636Y27631D01*
X-1565Y27548D01*
X-1538Y27530D01*
X-1515Y27507D01*
X-1420Y27454D01*
X-1329Y27394D01*
X-1298Y27384D01*
X-1270Y27368D01*
X-1164Y27343D01*
X-1059Y27311D01*
X-1027Y27311D01*
X-996Y27303D01*
X-886Y27309D01*
X-777Y27308D01*
X-746Y27316D01*
X-714Y27318D01*
X-611Y27354D01*
X-505Y27383D01*
X-478Y27400D01*
X-447Y27410D01*
X-374Y27464D01*
X-265Y27531D01*
X-233Y27567D01*
X-198Y27592D01*
X4112Y31903D01*
X9684Y34211D01*
X15716Y34211D01*
X21288Y31903D01*
X25553Y27638D01*
X27861Y22066D01*
X27861Y16034D01*
X25553Y10462D01*
X21242Y6152D01*
X21223Y6126D01*
X21198Y6105D01*
X21138Y6013D01*
X21073Y5926D01*
X21061Y5896D01*
X21044Y5869D01*
X21012Y5764D01*
X20973Y5662D01*
X20971Y5630D01*
X20961Y5599D01*
X20960Y5490D01*
X20951Y5381D01*
X20958Y5349D01*
X20958Y5317D01*
X20987Y5212D01*
X21009Y5105D01*
X21024Y5076D01*
X21033Y5045D01*
X21090Y4952D01*
X21141Y4856D01*
X21164Y4833D01*
X21181Y4805D01*
X21262Y4732D01*
X21338Y4654D01*
X21366Y4638D01*
X21390Y4616D01*
X21489Y4569D01*
X21584Y4515D01*
X21615Y4507D01*
X21644Y4493D01*
X21733Y4479D01*
X21858Y4450D01*
X21907Y4452D01*
X21949Y4446D01*
X320951Y4446D01*
X320983Y4450D01*
G37*
%LPC*%
G36*
X99427Y27177D02*
X99427Y27177D01*
X95413Y28840D01*
X92340Y31913D01*
X90677Y35927D01*
X90677Y40273D01*
X92340Y44287D01*
X95413Y47360D01*
X99427Y49023D01*
X102768Y49023D01*
X102863Y49036D01*
X102959Y49041D01*
X103003Y49056D01*
X103048Y49063D01*
X103135Y49102D01*
X103226Y49134D01*
X103260Y49159D01*
X103304Y49179D01*
X103402Y49262D01*
X103475Y49315D01*
X152615Y98455D01*
X152672Y98532D01*
X152737Y98603D01*
X152757Y98644D01*
X152784Y98681D01*
X152818Y98771D01*
X152860Y98857D01*
X152866Y98899D01*
X152883Y98945D01*
X152893Y99072D01*
X152907Y99162D01*
X152907Y132395D01*
X152903Y132427D01*
X152905Y132459D01*
X152883Y132566D01*
X152867Y132674D01*
X152854Y132704D01*
X152848Y132735D01*
X152796Y132832D01*
X152751Y132931D01*
X152730Y132956D01*
X152715Y132984D01*
X152639Y133063D01*
X152568Y133146D01*
X152541Y133163D01*
X152518Y133186D01*
X152423Y133240D01*
X152332Y133300D01*
X152301Y133309D01*
X152273Y133325D01*
X152167Y133350D01*
X152062Y133382D01*
X152030Y133383D01*
X151998Y133390D01*
X151889Y133385D01*
X151780Y133386D01*
X151749Y133378D01*
X151717Y133376D01*
X151614Y133340D01*
X151508Y133311D01*
X151481Y133294D01*
X151450Y133283D01*
X151377Y133230D01*
X151268Y133163D01*
X151236Y133127D01*
X151201Y133102D01*
X150909Y132809D01*
X147921Y131571D01*
X131479Y131571D01*
X128491Y132809D01*
X126205Y135095D01*
X124967Y138083D01*
X124967Y141317D01*
X126205Y144305D01*
X128491Y146591D01*
X131479Y147829D01*
X147921Y147829D01*
X150909Y146591D01*
X151201Y146298D01*
X151227Y146279D01*
X151248Y146254D01*
X151340Y146195D01*
X151427Y146129D01*
X151457Y146118D01*
X151484Y146100D01*
X151589Y146068D01*
X151691Y146030D01*
X151723Y146027D01*
X151754Y146018D01*
X151863Y146016D01*
X151972Y146008D01*
X152004Y146014D01*
X152036Y146014D01*
X152141Y146043D01*
X152248Y146065D01*
X152277Y146080D01*
X152308Y146089D01*
X152401Y146147D01*
X152497Y146198D01*
X152520Y146220D01*
X152548Y146237D01*
X152621Y146318D01*
X152699Y146395D01*
X152715Y146423D01*
X152737Y146447D01*
X152784Y146545D01*
X152838Y146640D01*
X152846Y146671D01*
X152860Y146700D01*
X152874Y146790D01*
X152903Y146914D01*
X152901Y146963D01*
X152907Y147005D01*
X152907Y157795D01*
X152903Y157827D01*
X152905Y157859D01*
X152883Y157966D01*
X152867Y158074D01*
X152854Y158104D01*
X152848Y158135D01*
X152796Y158232D01*
X152751Y158331D01*
X152730Y158356D01*
X152715Y158384D01*
X152639Y158463D01*
X152568Y158546D01*
X152541Y158563D01*
X152518Y158586D01*
X152423Y158640D01*
X152332Y158700D01*
X152301Y158709D01*
X152273Y158725D01*
X152167Y158750D01*
X152062Y158782D01*
X152030Y158783D01*
X151998Y158790D01*
X151889Y158785D01*
X151780Y158786D01*
X151749Y158778D01*
X151717Y158776D01*
X151614Y158740D01*
X151508Y158711D01*
X151481Y158694D01*
X151450Y158683D01*
X151377Y158630D01*
X151268Y158563D01*
X151236Y158527D01*
X151201Y158502D01*
X150909Y158209D01*
X147921Y156971D01*
X131479Y156971D01*
X128491Y158209D01*
X126205Y160495D01*
X124967Y163483D01*
X124967Y166717D01*
X125818Y168770D01*
X125820Y168779D01*
X125825Y168787D01*
X125855Y168916D01*
X125888Y169043D01*
X125887Y169052D01*
X125890Y169061D01*
X125883Y169194D01*
X125879Y169325D01*
X125876Y169334D01*
X125875Y169343D01*
X125832Y169468D01*
X125791Y169593D01*
X125786Y169601D01*
X125783Y169610D01*
X125737Y169672D01*
X125632Y169826D01*
X125614Y169841D01*
X125601Y169859D01*
X103907Y191553D01*
X103830Y191610D01*
X103759Y191675D01*
X103718Y191695D01*
X103681Y191722D01*
X103591Y191756D01*
X103505Y191798D01*
X103463Y191804D01*
X103417Y191821D01*
X103290Y191831D01*
X103200Y191845D01*
X26654Y191845D01*
X26644Y191844D01*
X26634Y191845D01*
X26504Y191824D01*
X26375Y191805D01*
X26366Y191801D01*
X26356Y191800D01*
X26237Y191743D01*
X26118Y191689D01*
X26110Y191683D01*
X26101Y191678D01*
X26003Y191591D01*
X25951Y191546D01*
X25942Y191540D01*
X25935Y191533D01*
X25904Y191506D01*
X25898Y191497D01*
X25891Y191491D01*
X25887Y191485D01*
X22301Y187898D01*
X19343Y186673D01*
X19315Y186657D01*
X19285Y186647D01*
X19194Y186585D01*
X19100Y186530D01*
X19078Y186506D01*
X19052Y186488D01*
X18982Y186404D01*
X18907Y186324D01*
X18893Y186295D01*
X18872Y186270D01*
X18829Y186170D01*
X18780Y186072D01*
X18774Y186041D01*
X18761Y186011D01*
X18748Y185903D01*
X18727Y185795D01*
X18730Y185763D01*
X18726Y185731D01*
X18744Y185623D01*
X18754Y185515D01*
X18766Y185485D01*
X18771Y185453D01*
X18818Y185354D01*
X18859Y185253D01*
X18879Y185227D01*
X18893Y185198D01*
X18965Y185116D01*
X19032Y185030D01*
X19059Y185011D01*
X19080Y184987D01*
X19157Y184940D01*
X19261Y184865D01*
X19307Y184849D01*
X19343Y184827D01*
X22301Y183602D01*
X25802Y180101D01*
X27697Y175526D01*
X27697Y170574D01*
X25802Y165999D01*
X22301Y162498D01*
X19343Y161273D01*
X19315Y161257D01*
X19285Y161247D01*
X19194Y161185D01*
X19100Y161130D01*
X19078Y161106D01*
X19052Y161088D01*
X18982Y161004D01*
X18907Y160924D01*
X18893Y160895D01*
X18872Y160870D01*
X18829Y160770D01*
X18780Y160672D01*
X18774Y160641D01*
X18761Y160611D01*
X18748Y160503D01*
X18727Y160395D01*
X18730Y160363D01*
X18726Y160331D01*
X18744Y160223D01*
X18754Y160115D01*
X18766Y160085D01*
X18771Y160053D01*
X18818Y159954D01*
X18859Y159853D01*
X18879Y159827D01*
X18893Y159798D01*
X18965Y159716D01*
X19032Y159630D01*
X19059Y159611D01*
X19080Y159587D01*
X19157Y159540D01*
X19261Y159465D01*
X19307Y159449D01*
X19343Y159427D01*
X22301Y158202D01*
X25802Y154701D01*
X27697Y150126D01*
X27697Y145174D01*
X25802Y140599D01*
X22301Y137098D01*
X17726Y135203D01*
X12774Y135203D01*
X8199Y137098D01*
X4698Y140599D01*
X2803Y145174D01*
X2803Y150126D01*
X4698Y154701D01*
X8199Y158202D01*
X11157Y159427D01*
X11185Y159443D01*
X11215Y159453D01*
X11306Y159515D01*
X11400Y159570D01*
X11422Y159594D01*
X11448Y159612D01*
X11518Y159697D01*
X11593Y159776D01*
X11607Y159805D01*
X11628Y159830D01*
X11671Y159930D01*
X11720Y160028D01*
X11726Y160059D01*
X11739Y160089D01*
X11752Y160197D01*
X11773Y160305D01*
X11770Y160337D01*
X11774Y160369D01*
X11756Y160477D01*
X11746Y160585D01*
X11734Y160615D01*
X11729Y160647D01*
X11682Y160746D01*
X11641Y160847D01*
X11621Y160873D01*
X11607Y160902D01*
X11535Y160984D01*
X11468Y161070D01*
X11441Y161089D01*
X11420Y161113D01*
X11343Y161160D01*
X11239Y161235D01*
X11193Y161251D01*
X11157Y161273D01*
X8199Y162498D01*
X4698Y165999D01*
X2803Y170574D01*
X2803Y175526D01*
X4698Y180101D01*
X8199Y183602D01*
X11157Y184827D01*
X11185Y184843D01*
X11215Y184853D01*
X11306Y184915D01*
X11400Y184970D01*
X11422Y184994D01*
X11448Y185012D01*
X11518Y185097D01*
X11593Y185176D01*
X11607Y185205D01*
X11628Y185230D01*
X11671Y185330D01*
X11720Y185428D01*
X11726Y185459D01*
X11739Y185489D01*
X11752Y185597D01*
X11773Y185705D01*
X11770Y185737D01*
X11774Y185769D01*
X11756Y185877D01*
X11746Y185985D01*
X11734Y186015D01*
X11729Y186047D01*
X11682Y186146D01*
X11641Y186247D01*
X11621Y186273D01*
X11607Y186302D01*
X11535Y186384D01*
X11468Y186470D01*
X11441Y186489D01*
X11420Y186513D01*
X11343Y186560D01*
X11239Y186635D01*
X11193Y186651D01*
X11157Y186673D01*
X8199Y187898D01*
X4698Y191399D01*
X2803Y195974D01*
X2803Y200926D01*
X4698Y205501D01*
X8199Y209002D01*
X11157Y210227D01*
X11185Y210243D01*
X11215Y210253D01*
X11306Y210315D01*
X11400Y210370D01*
X11422Y210394D01*
X11448Y210412D01*
X11518Y210497D01*
X11593Y210576D01*
X11607Y210605D01*
X11628Y210630D01*
X11671Y210730D01*
X11720Y210828D01*
X11726Y210859D01*
X11739Y210889D01*
X11752Y210997D01*
X11773Y211105D01*
X11770Y211137D01*
X11774Y211169D01*
X11756Y211277D01*
X11746Y211385D01*
X11734Y211415D01*
X11729Y211447D01*
X11682Y211546D01*
X11641Y211647D01*
X11621Y211673D01*
X11607Y211702D01*
X11535Y211784D01*
X11468Y211870D01*
X11441Y211889D01*
X11420Y211913D01*
X11343Y211960D01*
X11239Y212035D01*
X11193Y212051D01*
X11157Y212073D01*
X8199Y213298D01*
X4698Y216799D01*
X2803Y221374D01*
X2803Y226326D01*
X4698Y230901D01*
X8199Y234402D01*
X11157Y235627D01*
X11185Y235643D01*
X11215Y235653D01*
X11306Y235715D01*
X11400Y235770D01*
X11422Y235794D01*
X11448Y235812D01*
X11518Y235897D01*
X11593Y235976D01*
X11607Y236005D01*
X11628Y236030D01*
X11671Y236130D01*
X11720Y236228D01*
X11726Y236259D01*
X11739Y236289D01*
X11752Y236397D01*
X11773Y236505D01*
X11770Y236537D01*
X11774Y236569D01*
X11756Y236677D01*
X11746Y236785D01*
X11734Y236815D01*
X11729Y236847D01*
X11682Y236946D01*
X11641Y237047D01*
X11621Y237073D01*
X11607Y237102D01*
X11535Y237184D01*
X11468Y237270D01*
X11441Y237289D01*
X11420Y237313D01*
X11343Y237360D01*
X11239Y237435D01*
X11193Y237451D01*
X11157Y237473D01*
X8199Y238698D01*
X4698Y242199D01*
X2803Y246774D01*
X2803Y251726D01*
X4698Y256301D01*
X8199Y259802D01*
X11157Y261027D01*
X11185Y261043D01*
X11215Y261053D01*
X11306Y261115D01*
X11400Y261170D01*
X11422Y261194D01*
X11448Y261212D01*
X11518Y261297D01*
X11593Y261376D01*
X11607Y261405D01*
X11628Y261430D01*
X11671Y261530D01*
X11720Y261628D01*
X11726Y261659D01*
X11739Y261689D01*
X11752Y261797D01*
X11773Y261905D01*
X11770Y261937D01*
X11774Y261969D01*
X11756Y262077D01*
X11746Y262185D01*
X11734Y262215D01*
X11729Y262247D01*
X11682Y262346D01*
X11641Y262447D01*
X11621Y262473D01*
X11607Y262502D01*
X11535Y262584D01*
X11468Y262670D01*
X11441Y262689D01*
X11420Y262713D01*
X11343Y262760D01*
X11239Y262835D01*
X11193Y262851D01*
X11157Y262873D01*
X8199Y264098D01*
X4698Y267599D01*
X2803Y272174D01*
X2803Y277126D01*
X4698Y281701D01*
X8199Y285202D01*
X11157Y286427D01*
X11185Y286443D01*
X11215Y286453D01*
X11306Y286515D01*
X11400Y286570D01*
X11422Y286594D01*
X11448Y286612D01*
X11518Y286697D01*
X11593Y286776D01*
X11607Y286805D01*
X11628Y286830D01*
X11671Y286930D01*
X11720Y287028D01*
X11726Y287059D01*
X11739Y287089D01*
X11752Y287197D01*
X11773Y287305D01*
X11770Y287337D01*
X11774Y287369D01*
X11756Y287477D01*
X11746Y287585D01*
X11734Y287615D01*
X11729Y287647D01*
X11682Y287746D01*
X11641Y287847D01*
X11621Y287873D01*
X11607Y287902D01*
X11535Y287984D01*
X11468Y288070D01*
X11441Y288089D01*
X11420Y288113D01*
X11343Y288160D01*
X11239Y288235D01*
X11193Y288251D01*
X11157Y288273D01*
X8199Y289498D01*
X4698Y292999D01*
X2803Y297574D01*
X2803Y302526D01*
X4698Y307101D01*
X8199Y310602D01*
X9803Y311266D01*
X9918Y311334D01*
X10034Y311401D01*
X10039Y311406D01*
X10046Y311410D01*
X10137Y311507D01*
X10230Y311604D01*
X10234Y311610D01*
X10239Y311615D01*
X10299Y311734D01*
X10362Y311853D01*
X10363Y311860D01*
X10366Y311867D01*
X10391Y311999D01*
X10418Y312130D01*
X10417Y312137D01*
X10419Y312144D01*
X10406Y312277D01*
X10395Y312411D01*
X10392Y312417D01*
X10392Y312425D01*
X10342Y312549D01*
X10294Y312674D01*
X10290Y312680D01*
X10287Y312687D01*
X10205Y312792D01*
X10124Y312899D01*
X10118Y312903D01*
X10114Y312909D01*
X9934Y313038D01*
X9929Y313043D01*
X9924Y313046D01*
X9885Y313074D01*
X9879Y313076D01*
X9874Y313080D01*
X8194Y313936D01*
X6480Y315181D01*
X4981Y316680D01*
X3736Y318394D01*
X2774Y320282D01*
X2119Y322298D01*
X1936Y323451D01*
X14250Y323451D01*
X14313Y323460D01*
X14378Y323459D01*
X14452Y323480D01*
X14529Y323491D01*
X14588Y323517D01*
X14650Y323534D01*
X14716Y323575D01*
X14786Y323607D01*
X14835Y323649D01*
X14890Y323682D01*
X14941Y323740D01*
X15000Y323790D01*
X15036Y323844D01*
X15079Y323892D01*
X15112Y323961D01*
X15155Y324026D01*
X15174Y324088D01*
X15202Y324145D01*
X15212Y324215D01*
X15237Y324296D01*
X15238Y324381D01*
X15249Y324450D01*
X15249Y325451D01*
X15251Y325451D01*
X15251Y324450D01*
X15260Y324386D01*
X15259Y324322D01*
X15280Y324247D01*
X15291Y324171D01*
X15317Y324112D01*
X15334Y324050D01*
X15375Y323984D01*
X15407Y323914D01*
X15449Y323865D01*
X15482Y323810D01*
X15540Y323758D01*
X15590Y323700D01*
X15644Y323664D01*
X15692Y323621D01*
X15761Y323588D01*
X15826Y323545D01*
X15888Y323526D01*
X15946Y323498D01*
X16015Y323487D01*
X16096Y323463D01*
X16181Y323462D01*
X16250Y323451D01*
X28564Y323451D01*
X28391Y322361D01*
X28381Y322298D01*
X27726Y320282D01*
X26764Y318394D01*
X25519Y316680D01*
X24020Y315181D01*
X22306Y313936D01*
X20626Y313080D01*
X20598Y313060D01*
X20593Y313058D01*
X20586Y313051D01*
X20516Y313002D01*
X20406Y312927D01*
X20401Y312921D01*
X20395Y312917D01*
X20312Y312813D01*
X20226Y312709D01*
X20223Y312703D01*
X20219Y312697D01*
X20168Y312573D01*
X20115Y312450D01*
X20114Y312443D01*
X20111Y312436D01*
X20097Y312303D01*
X20080Y312170D01*
X20082Y312163D01*
X20081Y312156D01*
X20104Y312024D01*
X20125Y311892D01*
X20129Y311885D01*
X20130Y311878D01*
X20189Y311759D01*
X20246Y311637D01*
X20251Y311632D01*
X20254Y311625D01*
X20345Y311527D01*
X20434Y311426D01*
X20440Y311423D01*
X20445Y311417D01*
X20686Y311271D01*
X20692Y311269D01*
X20697Y311266D01*
X22301Y310602D01*
X25802Y307101D01*
X27646Y302648D01*
X27701Y302556D01*
X27749Y302460D01*
X27772Y302435D01*
X27790Y302405D01*
X27868Y302332D01*
X27941Y302254D01*
X27969Y302237D01*
X27995Y302212D01*
X28128Y302145D01*
X28207Y302099D01*
X36764Y298773D01*
X36794Y298766D01*
X36821Y298752D01*
X36911Y298738D01*
X37039Y298709D01*
X37085Y298711D01*
X37126Y298705D01*
X127791Y298705D01*
X127886Y298718D01*
X127982Y298723D01*
X128025Y298738D01*
X128070Y298745D01*
X128158Y298784D01*
X128249Y298816D01*
X128283Y298841D01*
X128327Y298861D01*
X128424Y298944D01*
X128486Y298989D01*
X131479Y300229D01*
X147921Y300229D01*
X150909Y298991D01*
X153195Y296705D01*
X154433Y293717D01*
X154433Y290483D01*
X153195Y287495D01*
X150909Y285209D01*
X147921Y283971D01*
X131479Y283971D01*
X128487Y285211D01*
X128421Y285260D01*
X128349Y285325D01*
X128309Y285345D01*
X128272Y285372D01*
X128182Y285406D01*
X128096Y285448D01*
X128054Y285454D01*
X128008Y285471D01*
X127881Y285481D01*
X127791Y285495D01*
X35783Y285495D01*
X35772Y285494D01*
X35761Y285495D01*
X34468Y285467D01*
X34440Y285473D01*
X33249Y285966D01*
X33238Y285969D01*
X33229Y285974D01*
X23433Y289783D01*
X23430Y289784D01*
X23300Y289814D01*
X23158Y289848D01*
X23157Y289847D01*
X23155Y289848D01*
X23020Y289841D01*
X22877Y289833D01*
X22875Y289833D01*
X22874Y289833D01*
X22740Y289786D01*
X22610Y289741D01*
X22609Y289740D01*
X22608Y289739D01*
X22378Y289575D01*
X22370Y289566D01*
X22361Y289559D01*
X22300Y289498D01*
X19343Y288273D01*
X19315Y288257D01*
X19285Y288247D01*
X19194Y288185D01*
X19100Y288130D01*
X19078Y288106D01*
X19052Y288088D01*
X18982Y288004D01*
X18907Y287924D01*
X18893Y287895D01*
X18872Y287870D01*
X18829Y287770D01*
X18780Y287672D01*
X18774Y287641D01*
X18761Y287611D01*
X18748Y287503D01*
X18727Y287395D01*
X18730Y287363D01*
X18726Y287331D01*
X18744Y287223D01*
X18754Y287115D01*
X18766Y287085D01*
X18771Y287053D01*
X18818Y286954D01*
X18859Y286853D01*
X18879Y286827D01*
X18893Y286798D01*
X18965Y286716D01*
X19032Y286630D01*
X19059Y286611D01*
X19080Y286587D01*
X19157Y286540D01*
X19261Y286465D01*
X19307Y286449D01*
X19343Y286427D01*
X22301Y285202D01*
X25802Y281701D01*
X27697Y277126D01*
X27697Y272174D01*
X25802Y267599D01*
X22301Y264098D01*
X19343Y262873D01*
X19315Y262857D01*
X19285Y262847D01*
X19194Y262785D01*
X19100Y262730D01*
X19078Y262706D01*
X19052Y262688D01*
X18982Y262604D01*
X18907Y262524D01*
X18893Y262495D01*
X18872Y262470D01*
X18829Y262370D01*
X18780Y262272D01*
X18774Y262241D01*
X18761Y262211D01*
X18748Y262103D01*
X18727Y261995D01*
X18730Y261963D01*
X18726Y261931D01*
X18744Y261823D01*
X18754Y261715D01*
X18766Y261685D01*
X18771Y261653D01*
X18818Y261554D01*
X18859Y261453D01*
X18879Y261427D01*
X18893Y261398D01*
X18965Y261316D01*
X19032Y261230D01*
X19059Y261211D01*
X19080Y261187D01*
X19157Y261140D01*
X19261Y261065D01*
X19307Y261049D01*
X19343Y261027D01*
X22301Y259802D01*
X25802Y256301D01*
X27697Y251726D01*
X27697Y246774D01*
X25802Y242199D01*
X22301Y238698D01*
X19343Y237473D01*
X19315Y237457D01*
X19285Y237447D01*
X19194Y237385D01*
X19100Y237330D01*
X19078Y237306D01*
X19052Y237288D01*
X18982Y237204D01*
X18907Y237124D01*
X18893Y237095D01*
X18872Y237070D01*
X18829Y236970D01*
X18780Y236872D01*
X18774Y236841D01*
X18761Y236811D01*
X18748Y236703D01*
X18727Y236595D01*
X18730Y236563D01*
X18726Y236531D01*
X18744Y236423D01*
X18754Y236315D01*
X18766Y236285D01*
X18771Y236253D01*
X18818Y236154D01*
X18859Y236053D01*
X18879Y236027D01*
X18893Y235998D01*
X18965Y235916D01*
X19032Y235830D01*
X19059Y235811D01*
X19080Y235787D01*
X19157Y235740D01*
X19261Y235665D01*
X19307Y235649D01*
X19343Y235627D01*
X22301Y234402D01*
X25802Y230901D01*
X27697Y226326D01*
X27697Y221374D01*
X25802Y216799D01*
X22301Y213298D01*
X19343Y212073D01*
X19315Y212057D01*
X19285Y212047D01*
X19194Y211985D01*
X19100Y211930D01*
X19078Y211906D01*
X19052Y211888D01*
X18982Y211804D01*
X18907Y211724D01*
X18893Y211695D01*
X18872Y211670D01*
X18829Y211570D01*
X18780Y211472D01*
X18774Y211441D01*
X18761Y211411D01*
X18748Y211303D01*
X18727Y211195D01*
X18730Y211163D01*
X18726Y211131D01*
X18744Y211023D01*
X18754Y210915D01*
X18766Y210885D01*
X18771Y210853D01*
X18818Y210754D01*
X18859Y210653D01*
X18879Y210627D01*
X18893Y210598D01*
X18965Y210516D01*
X19032Y210430D01*
X19059Y210411D01*
X19080Y210387D01*
X19157Y210340D01*
X19261Y210265D01*
X19307Y210249D01*
X19343Y210227D01*
X22301Y209002D01*
X25884Y205418D01*
X25886Y205414D01*
X25903Y205399D01*
X25942Y205360D01*
X25967Y205341D01*
X25984Y205326D01*
X26079Y205237D01*
X26088Y205232D01*
X26096Y205225D01*
X26214Y205168D01*
X26331Y205109D01*
X26341Y205107D01*
X26350Y205102D01*
X26427Y205090D01*
X26608Y205056D01*
X26632Y205058D01*
X26654Y205055D01*
X107664Y205055D01*
X110091Y204049D01*
X123261Y190879D01*
X123287Y190860D01*
X123308Y190835D01*
X123400Y190775D01*
X123487Y190710D01*
X123517Y190698D01*
X123544Y190681D01*
X123649Y190649D01*
X123751Y190610D01*
X123783Y190608D01*
X123814Y190598D01*
X123923Y190597D01*
X124032Y190588D01*
X124064Y190595D01*
X124096Y190595D01*
X124201Y190624D01*
X124308Y190646D01*
X124337Y190661D01*
X124368Y190670D01*
X124461Y190727D01*
X124557Y190779D01*
X124580Y190801D01*
X124608Y190818D01*
X124681Y190899D01*
X124759Y190975D01*
X124775Y191003D01*
X124797Y191027D01*
X124844Y191126D01*
X124898Y191221D01*
X124906Y191252D01*
X124920Y191281D01*
X124934Y191370D01*
X124963Y191495D01*
X124961Y191544D01*
X124967Y191586D01*
X124967Y192117D01*
X126205Y195105D01*
X128491Y197391D01*
X131479Y198629D01*
X147921Y198629D01*
X150909Y197391D01*
X153195Y195105D01*
X154433Y192117D01*
X154433Y188883D01*
X153548Y186748D01*
X153546Y186738D01*
X153541Y186730D01*
X153511Y186601D01*
X153478Y186474D01*
X153478Y186465D01*
X153476Y186456D01*
X153483Y186323D01*
X153487Y186193D01*
X153490Y186184D01*
X153491Y186174D01*
X153534Y186049D01*
X153575Y185924D01*
X153580Y185917D01*
X153583Y185908D01*
X153628Y185846D01*
X153733Y185691D01*
X153752Y185676D01*
X153765Y185659D01*
X162885Y176538D01*
X162911Y176519D01*
X162932Y176494D01*
X163024Y176434D01*
X163111Y176369D01*
X163141Y176357D01*
X163168Y176340D01*
X163273Y176308D01*
X163375Y176269D01*
X163407Y176267D01*
X163438Y176257D01*
X163547Y176256D01*
X163656Y176247D01*
X163688Y176254D01*
X163720Y176254D01*
X163825Y176283D01*
X163932Y176305D01*
X163961Y176320D01*
X163992Y176329D01*
X164085Y176386D01*
X164181Y176437D01*
X164204Y176460D01*
X164232Y176477D01*
X164305Y176558D01*
X164383Y176634D01*
X164399Y176662D01*
X164421Y176686D01*
X164468Y176784D01*
X164522Y176880D01*
X164530Y176911D01*
X164544Y176940D01*
X164558Y177029D01*
X164587Y177154D01*
X164585Y177203D01*
X164591Y177245D01*
X164591Y231937D01*
X164578Y232032D01*
X164573Y232128D01*
X164558Y232171D01*
X164551Y232216D01*
X164512Y232304D01*
X164480Y232395D01*
X164455Y232429D01*
X164435Y232473D01*
X164352Y232571D01*
X164299Y232644D01*
X156952Y239990D01*
X156892Y240035D01*
X156838Y240088D01*
X156780Y240120D01*
X156727Y240160D01*
X156656Y240186D01*
X156589Y240222D01*
X156525Y240236D01*
X156463Y240259D01*
X156387Y240265D01*
X156314Y240281D01*
X156248Y240276D01*
X156182Y240281D01*
X156108Y240265D01*
X156032Y240260D01*
X155970Y240237D01*
X155905Y240223D01*
X155839Y240188D01*
X155768Y240161D01*
X155715Y240122D01*
X155657Y240091D01*
X155602Y240038D01*
X155542Y239993D01*
X155502Y239940D01*
X155454Y239894D01*
X155417Y239828D01*
X155372Y239768D01*
X155352Y239716D01*
X155338Y239693D01*
X155335Y239682D01*
X155315Y239649D01*
X155293Y239553D01*
X155266Y239479D01*
X155097Y238633D01*
X154408Y236968D01*
X153407Y235470D01*
X152134Y234197D01*
X150636Y233196D01*
X148971Y232507D01*
X147205Y232155D01*
X141699Y232155D01*
X141699Y240300D01*
X141691Y240361D01*
X141691Y240397D01*
X141691Y240398D01*
X141691Y240428D01*
X141670Y240502D01*
X141659Y240579D01*
X141633Y240638D01*
X141616Y240700D01*
X141575Y240766D01*
X141543Y240836D01*
X141501Y240885D01*
X141468Y240940D01*
X141410Y240991D01*
X141360Y241050D01*
X141306Y241086D01*
X141258Y241129D01*
X141189Y241162D01*
X141124Y241205D01*
X141062Y241224D01*
X141005Y241252D01*
X140935Y241262D01*
X140854Y241287D01*
X140769Y241288D01*
X140700Y241299D01*
X139699Y241299D01*
X139699Y241301D01*
X140700Y241301D01*
X140764Y241310D01*
X140828Y241309D01*
X140903Y241330D01*
X140979Y241341D01*
X141038Y241367D01*
X141100Y241384D01*
X141166Y241425D01*
X141236Y241457D01*
X141285Y241499D01*
X141340Y241532D01*
X141392Y241590D01*
X141450Y241640D01*
X141486Y241694D01*
X141529Y241742D01*
X141562Y241811D01*
X141605Y241876D01*
X141624Y241938D01*
X141652Y241996D01*
X141662Y242065D01*
X141687Y242146D01*
X141688Y242231D01*
X141699Y242300D01*
X141699Y250445D01*
X144202Y250445D01*
X144234Y250449D01*
X144266Y250447D01*
X144373Y250469D01*
X144482Y250485D01*
X144511Y250498D01*
X144543Y250504D01*
X144639Y250556D01*
X144739Y250601D01*
X144763Y250622D01*
X144791Y250637D01*
X144870Y250713D01*
X144953Y250784D01*
X144970Y250811D01*
X144994Y250834D01*
X145047Y250929D01*
X145107Y251020D01*
X145117Y251051D01*
X145133Y251079D01*
X145158Y251186D01*
X145190Y251290D01*
X145190Y251322D01*
X145198Y251353D01*
X145192Y251463D01*
X145193Y251572D01*
X145185Y251603D01*
X145183Y251635D01*
X145147Y251738D01*
X145118Y251844D01*
X145101Y251871D01*
X145091Y251902D01*
X145037Y251975D01*
X144970Y252084D01*
X144934Y252116D01*
X144909Y252151D01*
X138781Y258279D01*
X138704Y258336D01*
X138633Y258401D01*
X138592Y258421D01*
X138555Y258448D01*
X138465Y258482D01*
X138379Y258524D01*
X138337Y258530D01*
X138291Y258547D01*
X138164Y258557D01*
X138074Y258571D01*
X131479Y258571D01*
X128491Y259809D01*
X126205Y262095D01*
X124967Y265083D01*
X124967Y268317D01*
X126205Y271305D01*
X128491Y273591D01*
X131479Y274829D01*
X147921Y274829D01*
X150909Y273591D01*
X153195Y271305D01*
X154433Y268317D01*
X154433Y265083D01*
X153582Y263030D01*
X153580Y263021D01*
X153575Y263013D01*
X153545Y262884D01*
X153512Y262757D01*
X153513Y262748D01*
X153510Y262739D01*
X153517Y262606D01*
X153521Y262475D01*
X153524Y262466D01*
X153525Y262457D01*
X153568Y262332D01*
X153609Y262207D01*
X153614Y262199D01*
X153617Y262190D01*
X153663Y262128D01*
X153768Y261974D01*
X153786Y261959D01*
X153799Y261941D01*
X157999Y257741D01*
X158006Y257725D01*
X158027Y257689D01*
X158041Y257650D01*
X158092Y257580D01*
X158149Y257482D01*
X158193Y257442D01*
X158223Y257401D01*
X175839Y239784D01*
X175865Y239765D01*
X175886Y239740D01*
X175978Y239680D01*
X176065Y239615D01*
X176095Y239603D01*
X176122Y239586D01*
X176227Y239554D01*
X176329Y239515D01*
X176361Y239513D01*
X176392Y239503D01*
X176501Y239502D01*
X176610Y239493D01*
X176642Y239500D01*
X176674Y239500D01*
X176779Y239529D01*
X176886Y239551D01*
X176915Y239566D01*
X176946Y239575D01*
X177039Y239632D01*
X177135Y239683D01*
X177158Y239706D01*
X177186Y239723D01*
X177259Y239804D01*
X177337Y239880D01*
X177353Y239908D01*
X177375Y239932D01*
X177422Y240030D01*
X177476Y240126D01*
X177484Y240157D01*
X177498Y240186D01*
X177512Y240275D01*
X177541Y240400D01*
X177539Y240449D01*
X177545Y240491D01*
X177545Y248964D01*
X178551Y251391D01*
X199459Y272299D01*
X201886Y273305D01*
X203991Y273305D01*
X204086Y273318D01*
X204182Y273323D01*
X204225Y273338D01*
X204270Y273345D01*
X204358Y273384D01*
X204449Y273416D01*
X204483Y273441D01*
X204527Y273461D01*
X204625Y273544D01*
X204686Y273589D01*
X207679Y274829D01*
X224121Y274829D01*
X227109Y273591D01*
X229395Y271305D01*
X230633Y268317D01*
X230633Y265083D01*
X229395Y262095D01*
X227109Y259809D01*
X224121Y258571D01*
X207679Y258571D01*
X205986Y259273D01*
X205976Y259275D01*
X205968Y259280D01*
X205839Y259310D01*
X205712Y259343D01*
X205703Y259342D01*
X205694Y259345D01*
X205561Y259338D01*
X205431Y259334D01*
X205422Y259331D01*
X205412Y259330D01*
X205288Y259287D01*
X205162Y259246D01*
X205154Y259241D01*
X205146Y259238D01*
X205084Y259193D01*
X204929Y259087D01*
X204914Y259069D01*
X204897Y259056D01*
X191047Y245207D01*
X190990Y245130D01*
X190925Y245059D01*
X190905Y245018D01*
X190878Y244981D01*
X190844Y244891D01*
X190802Y244805D01*
X190796Y244763D01*
X190779Y244717D01*
X190769Y244590D01*
X190755Y244500D01*
X190755Y176991D01*
X190759Y176958D01*
X190757Y176926D01*
X190779Y176819D01*
X190795Y176711D01*
X190808Y176682D01*
X190815Y176650D01*
X190866Y176554D01*
X190911Y176454D01*
X190932Y176430D01*
X190947Y176401D01*
X191023Y176323D01*
X191094Y176240D01*
X191121Y176222D01*
X191144Y176199D01*
X191239Y176145D01*
X191330Y176086D01*
X191361Y176076D01*
X191390Y176060D01*
X191496Y176035D01*
X191600Y176003D01*
X191632Y176003D01*
X191664Y175995D01*
X191773Y176001D01*
X191882Y176000D01*
X191913Y176008D01*
X191946Y176010D01*
X192049Y176046D01*
X192154Y176075D01*
X192181Y176092D01*
X192212Y176103D01*
X192285Y176156D01*
X192394Y176223D01*
X192426Y176259D01*
X192461Y176284D01*
X192488Y176311D01*
X201835Y185659D01*
X201841Y185666D01*
X201848Y185672D01*
X201926Y185779D01*
X202005Y185884D01*
X202008Y185893D01*
X202013Y185901D01*
X202057Y186024D01*
X202104Y186148D01*
X202105Y186158D01*
X202108Y186167D01*
X202116Y186298D01*
X202126Y186429D01*
X202124Y186439D01*
X202124Y186448D01*
X202106Y186523D01*
X202068Y186705D01*
X202057Y186727D01*
X202052Y186748D01*
X201167Y188883D01*
X201167Y192117D01*
X202405Y195105D01*
X204691Y197391D01*
X207679Y198629D01*
X224121Y198629D01*
X227109Y197391D01*
X229395Y195105D01*
X230633Y192117D01*
X230633Y191586D01*
X230637Y191554D01*
X230635Y191522D01*
X230657Y191415D01*
X230673Y191306D01*
X230686Y191277D01*
X230692Y191245D01*
X230744Y191149D01*
X230789Y191049D01*
X230810Y191025D01*
X230825Y190997D01*
X230901Y190918D01*
X230972Y190835D01*
X230999Y190818D01*
X231022Y190794D01*
X231117Y190741D01*
X231208Y190681D01*
X231239Y190671D01*
X231267Y190655D01*
X231374Y190630D01*
X231478Y190598D01*
X231510Y190598D01*
X231541Y190590D01*
X231651Y190596D01*
X231760Y190595D01*
X231791Y190603D01*
X231823Y190605D01*
X231926Y190641D01*
X232032Y190670D01*
X232059Y190687D01*
X232090Y190697D01*
X232163Y190751D01*
X232272Y190818D01*
X232304Y190854D01*
X232339Y190879D01*
X270909Y229449D01*
X273336Y230455D01*
X301346Y230455D01*
X301356Y230456D01*
X301366Y230455D01*
X301496Y230476D01*
X301625Y230495D01*
X301634Y230499D01*
X301644Y230500D01*
X301763Y230557D01*
X301882Y230611D01*
X301890Y230617D01*
X301899Y230622D01*
X301997Y230709D01*
X302049Y230754D01*
X302058Y230760D01*
X302065Y230767D01*
X302096Y230794D01*
X302102Y230803D01*
X302109Y230809D01*
X302113Y230815D01*
X305699Y234402D01*
X308657Y235627D01*
X308685Y235643D01*
X308715Y235653D01*
X308806Y235715D01*
X308900Y235770D01*
X308922Y235794D01*
X308948Y235812D01*
X309018Y235896D01*
X309093Y235976D01*
X309107Y236005D01*
X309128Y236030D01*
X309171Y236130D01*
X309220Y236228D01*
X309226Y236259D01*
X309239Y236289D01*
X309252Y236397D01*
X309273Y236505D01*
X309270Y236537D01*
X309274Y236569D01*
X309256Y236677D01*
X309246Y236785D01*
X309234Y236815D01*
X309229Y236847D01*
X309182Y236946D01*
X309141Y237047D01*
X309121Y237073D01*
X309107Y237102D01*
X309035Y237184D01*
X308968Y237270D01*
X308941Y237289D01*
X308920Y237313D01*
X308843Y237360D01*
X308739Y237435D01*
X308693Y237451D01*
X308657Y237473D01*
X305699Y238698D01*
X302198Y242199D01*
X300303Y246774D01*
X300303Y251726D01*
X302198Y256301D01*
X305699Y259802D01*
X308657Y261027D01*
X308685Y261043D01*
X308715Y261053D01*
X308806Y261115D01*
X308900Y261170D01*
X308922Y261194D01*
X308948Y261212D01*
X309018Y261296D01*
X309093Y261376D01*
X309107Y261405D01*
X309128Y261430D01*
X309171Y261530D01*
X309220Y261628D01*
X309226Y261659D01*
X309239Y261689D01*
X309252Y261797D01*
X309273Y261905D01*
X309270Y261937D01*
X309274Y261969D01*
X309256Y262077D01*
X309246Y262185D01*
X309234Y262215D01*
X309229Y262247D01*
X309182Y262346D01*
X309141Y262447D01*
X309121Y262473D01*
X309107Y262502D01*
X309035Y262584D01*
X308968Y262670D01*
X308941Y262689D01*
X308920Y262713D01*
X308843Y262760D01*
X308739Y262835D01*
X308693Y262851D01*
X308657Y262873D01*
X305699Y264098D01*
X302198Y267599D01*
X300303Y272174D01*
X300303Y277126D01*
X302198Y281701D01*
X305699Y285202D01*
X308657Y286427D01*
X308685Y286443D01*
X308715Y286453D01*
X308806Y286515D01*
X308900Y286570D01*
X308922Y286594D01*
X308948Y286612D01*
X309018Y286696D01*
X309093Y286776D01*
X309107Y286805D01*
X309128Y286830D01*
X309171Y286930D01*
X309220Y287028D01*
X309226Y287059D01*
X309239Y287089D01*
X309252Y287197D01*
X309273Y287305D01*
X309270Y287337D01*
X309274Y287369D01*
X309256Y287477D01*
X309246Y287585D01*
X309234Y287615D01*
X309229Y287647D01*
X309182Y287746D01*
X309141Y287847D01*
X309121Y287873D01*
X309107Y287902D01*
X309035Y287984D01*
X308968Y288070D01*
X308941Y288089D01*
X308920Y288113D01*
X308843Y288160D01*
X308739Y288235D01*
X308693Y288251D01*
X308657Y288273D01*
X305699Y289498D01*
X302116Y293082D01*
X302114Y293086D01*
X302097Y293101D01*
X302058Y293140D01*
X302033Y293159D01*
X302016Y293174D01*
X301921Y293263D01*
X301912Y293268D01*
X301904Y293275D01*
X301786Y293332D01*
X301669Y293391D01*
X301659Y293393D01*
X301650Y293398D01*
X301573Y293410D01*
X301392Y293444D01*
X301368Y293442D01*
X301346Y293445D01*
X231632Y293445D01*
X231568Y293436D01*
X231504Y293437D01*
X231429Y293416D01*
X231353Y293405D01*
X231294Y293379D01*
X231232Y293362D01*
X231166Y293321D01*
X231096Y293289D01*
X231047Y293247D01*
X230992Y293214D01*
X230940Y293156D01*
X230882Y293106D01*
X230846Y293052D01*
X230803Y293004D01*
X230770Y292935D01*
X230727Y292870D01*
X230708Y292808D01*
X230680Y292751D01*
X230669Y292681D01*
X230645Y292600D01*
X230644Y292515D01*
X230633Y292446D01*
X230633Y290483D01*
X229395Y287495D01*
X227109Y285209D01*
X224121Y283971D01*
X207679Y283971D01*
X204691Y285209D01*
X202405Y287495D01*
X201167Y290483D01*
X201167Y293717D01*
X202405Y296705D01*
X204691Y298991D01*
X207679Y300229D01*
X214274Y300229D01*
X214369Y300242D01*
X214465Y300247D01*
X214509Y300262D01*
X214554Y300269D01*
X214641Y300308D01*
X214732Y300340D01*
X214766Y300365D01*
X214810Y300385D01*
X214908Y300468D01*
X214981Y300521D01*
X220109Y305649D01*
X222536Y306655D01*
X301346Y306655D01*
X301356Y306656D01*
X301366Y306655D01*
X301496Y306676D01*
X301625Y306695D01*
X301634Y306699D01*
X301644Y306700D01*
X301763Y306757D01*
X301882Y306811D01*
X301890Y306817D01*
X301899Y306822D01*
X301997Y306909D01*
X302049Y306954D01*
X302058Y306960D01*
X302065Y306968D01*
X302096Y306994D01*
X302102Y307003D01*
X302109Y307009D01*
X302113Y307015D01*
X304287Y309189D01*
X304306Y309215D01*
X304331Y309236D01*
X304391Y309328D01*
X304456Y309415D01*
X304468Y309445D01*
X304485Y309472D01*
X304517Y309577D01*
X304556Y309679D01*
X304558Y309711D01*
X304568Y309742D01*
X304569Y309851D01*
X304578Y309960D01*
X304571Y309992D01*
X304572Y310024D01*
X304542Y310129D01*
X304520Y310236D01*
X304505Y310265D01*
X304496Y310296D01*
X304439Y310389D01*
X304388Y310485D01*
X304365Y310508D01*
X304348Y310536D01*
X304267Y310609D01*
X304191Y310687D01*
X304163Y310703D01*
X304139Y310725D01*
X304041Y310772D01*
X303946Y310826D01*
X303914Y310834D01*
X303885Y310848D01*
X303796Y310862D01*
X303671Y310891D01*
X303623Y310889D01*
X303581Y310895D01*
X227809Y310895D01*
X227714Y310882D01*
X227618Y310877D01*
X227575Y310862D01*
X227530Y310855D01*
X227442Y310816D01*
X227351Y310784D01*
X227317Y310759D01*
X227273Y310739D01*
X227176Y310656D01*
X227114Y310611D01*
X224121Y309371D01*
X207679Y309371D01*
X204687Y310611D01*
X204621Y310660D01*
X204549Y310725D01*
X204508Y310745D01*
X204472Y310772D01*
X204382Y310806D01*
X204296Y310848D01*
X204254Y310854D01*
X204208Y310871D01*
X204081Y310881D01*
X203991Y310895D01*
X151609Y310895D01*
X151514Y310882D01*
X151418Y310877D01*
X151375Y310862D01*
X151330Y310855D01*
X151242Y310816D01*
X151151Y310784D01*
X151117Y310759D01*
X151073Y310739D01*
X150975Y310656D01*
X150914Y310611D01*
X147921Y309371D01*
X131479Y309371D01*
X128491Y310609D01*
X126205Y312895D01*
X124967Y315883D01*
X124967Y319117D01*
X126205Y322105D01*
X128491Y324391D01*
X131479Y325629D01*
X147921Y325629D01*
X150913Y324389D01*
X150979Y324340D01*
X151051Y324275D01*
X151092Y324255D01*
X151128Y324228D01*
X151218Y324194D01*
X151304Y324152D01*
X151346Y324146D01*
X151392Y324129D01*
X151519Y324119D01*
X151609Y324105D01*
X203991Y324105D01*
X204086Y324118D01*
X204182Y324123D01*
X204225Y324138D01*
X204270Y324145D01*
X204358Y324184D01*
X204449Y324216D01*
X204483Y324241D01*
X204527Y324261D01*
X204625Y324344D01*
X204686Y324389D01*
X207679Y325629D01*
X224121Y325629D01*
X227113Y324389D01*
X227179Y324340D01*
X227251Y324275D01*
X227291Y324255D01*
X227328Y324228D01*
X227418Y324194D01*
X227504Y324152D01*
X227546Y324146D01*
X227592Y324129D01*
X227719Y324119D01*
X227809Y324105D01*
X299304Y324105D01*
X299368Y324114D01*
X299432Y324113D01*
X299507Y324134D01*
X299583Y324145D01*
X299642Y324171D01*
X299704Y324188D01*
X299770Y324229D01*
X299840Y324261D01*
X299889Y324303D01*
X299944Y324336D01*
X299996Y324394D01*
X300054Y324444D01*
X300090Y324498D01*
X300133Y324546D01*
X300166Y324615D01*
X300209Y324680D01*
X300228Y324742D01*
X300256Y324799D01*
X300267Y324869D01*
X300291Y324950D01*
X300292Y325035D01*
X300303Y325104D01*
X300303Y327926D01*
X302198Y332501D01*
X305699Y336002D01*
X310274Y337897D01*
X315226Y337897D01*
X319801Y336002D01*
X323302Y332501D01*
X325197Y327926D01*
X325197Y325735D01*
X325210Y325640D01*
X325215Y325544D01*
X325230Y325501D01*
X325237Y325456D01*
X325276Y325368D01*
X325308Y325278D01*
X325333Y325243D01*
X325353Y325199D01*
X325436Y325102D01*
X325489Y325029D01*
X327352Y323166D01*
X335866Y314652D01*
X338222Y312296D01*
X339421Y309402D01*
X339421Y138298D01*
X338222Y135404D01*
X335866Y133048D01*
X327352Y124534D01*
X324996Y122178D01*
X322102Y120979D01*
X303398Y120979D01*
X300504Y122178D01*
X291149Y131533D01*
X291073Y131590D01*
X291001Y131655D01*
X290960Y131675D01*
X290924Y131702D01*
X290834Y131736D01*
X290747Y131778D01*
X290705Y131784D01*
X290660Y131801D01*
X290532Y131811D01*
X290443Y131825D01*
X224933Y131825D01*
X224892Y131819D01*
X224850Y131822D01*
X224766Y131802D01*
X224654Y131785D01*
X224600Y131761D01*
X224551Y131749D01*
X224392Y131683D01*
X224383Y131679D01*
X224374Y131676D01*
X224262Y131607D01*
X224149Y131540D01*
X224142Y131533D01*
X224134Y131528D01*
X224046Y131430D01*
X223956Y131334D01*
X223952Y131326D01*
X223945Y131319D01*
X223888Y131200D01*
X223828Y131083D01*
X223826Y131073D01*
X223822Y131065D01*
X223810Y130988D01*
X223776Y130806D01*
X223778Y130782D01*
X223775Y130760D01*
X223775Y79876D01*
X223788Y79781D01*
X223793Y79685D01*
X223808Y79641D01*
X223815Y79597D01*
X223854Y79509D01*
X223886Y79418D01*
X223911Y79384D01*
X223931Y79340D01*
X224014Y79242D01*
X224067Y79169D01*
X253921Y49315D01*
X253998Y49258D01*
X254069Y49193D01*
X254110Y49173D01*
X254147Y49146D01*
X254237Y49112D01*
X254323Y49070D01*
X254365Y49064D01*
X254411Y49047D01*
X254538Y49037D01*
X254628Y49023D01*
X256173Y49023D01*
X260187Y47360D01*
X263260Y44287D01*
X264923Y40273D01*
X264923Y35927D01*
X263260Y31913D01*
X260187Y28840D01*
X256173Y27177D01*
X251827Y27177D01*
X247813Y28840D01*
X244740Y31913D01*
X243077Y35927D01*
X243077Y37472D01*
X243069Y37531D01*
X243069Y37549D01*
X243064Y37568D01*
X243059Y37663D01*
X243044Y37707D01*
X243037Y37751D01*
X242998Y37839D01*
X242966Y37930D01*
X242941Y37964D01*
X242921Y38008D01*
X242838Y38106D01*
X242785Y38179D01*
X241157Y39807D01*
X241080Y39864D01*
X241009Y39929D01*
X240968Y39948D01*
X240931Y39976D01*
X240841Y40010D01*
X240755Y40052D01*
X240713Y40058D01*
X240667Y40075D01*
X240540Y40085D01*
X240450Y40099D01*
X230599Y40099D01*
X230599Y49950D01*
X230586Y50045D01*
X230581Y50141D01*
X230566Y50185D01*
X230559Y50230D01*
X230520Y50317D01*
X230488Y50408D01*
X230463Y50442D01*
X230443Y50486D01*
X230360Y50584D01*
X230307Y50657D01*
X209224Y71739D01*
X208025Y74634D01*
X208025Y130760D01*
X208024Y130770D01*
X208025Y130779D01*
X208004Y130909D01*
X207985Y131039D01*
X207982Y131048D01*
X207980Y131057D01*
X207923Y131177D01*
X207869Y131296D01*
X207863Y131304D01*
X207859Y131312D01*
X207771Y131411D01*
X207686Y131511D01*
X207678Y131516D01*
X207672Y131523D01*
X207606Y131563D01*
X207450Y131665D01*
X207427Y131672D01*
X207408Y131683D01*
X204691Y132809D01*
X204399Y133102D01*
X204373Y133121D01*
X204352Y133146D01*
X204260Y133205D01*
X204173Y133271D01*
X204143Y133282D01*
X204116Y133300D01*
X204011Y133332D01*
X203909Y133370D01*
X203877Y133373D01*
X203846Y133382D01*
X203737Y133384D01*
X203628Y133392D01*
X203596Y133386D01*
X203564Y133386D01*
X203459Y133357D01*
X203352Y133335D01*
X203323Y133320D01*
X203292Y133311D01*
X203199Y133253D01*
X203103Y133202D01*
X203080Y133180D01*
X203052Y133163D01*
X202979Y133082D01*
X202901Y133005D01*
X202885Y132977D01*
X202863Y132953D01*
X202816Y132855D01*
X202762Y132760D01*
X202754Y132729D01*
X202740Y132700D01*
X202726Y132610D01*
X202697Y132486D01*
X202699Y132437D01*
X202693Y132395D01*
X202693Y55074D01*
X201687Y52647D01*
X200655Y51615D01*
X200589Y51526D01*
X200517Y51442D01*
X200505Y51414D01*
X200486Y51389D01*
X200447Y51286D01*
X200402Y51185D01*
X200397Y51154D01*
X200386Y51125D01*
X200378Y51015D01*
X200363Y50906D01*
X200367Y50875D01*
X200365Y50844D01*
X200387Y50736D01*
X200403Y50627D01*
X200416Y50598D01*
X200422Y50568D01*
X200474Y50470D01*
X200520Y50370D01*
X200540Y50347D01*
X200555Y50319D01*
X200632Y50240D01*
X200704Y50156D01*
X200730Y50139D01*
X200751Y50117D01*
X200848Y50062D01*
X200940Y50002D01*
X200970Y49993D01*
X200997Y49978D01*
X201104Y49952D01*
X201201Y49923D01*
X201201Y40099D01*
X191374Y40099D01*
X191354Y40170D01*
X191331Y40278D01*
X191317Y40306D01*
X191309Y40336D01*
X191251Y40430D01*
X191199Y40527D01*
X191177Y40550D01*
X191161Y40576D01*
X191079Y40650D01*
X191002Y40729D01*
X190975Y40745D01*
X190952Y40766D01*
X190853Y40814D01*
X190757Y40868D01*
X190727Y40876D01*
X190699Y40889D01*
X190590Y40908D01*
X190482Y40933D01*
X190451Y40932D01*
X190421Y40937D01*
X190311Y40925D01*
X190201Y40919D01*
X190171Y40909D01*
X190140Y40905D01*
X190038Y40863D01*
X189934Y40827D01*
X189911Y40809D01*
X189880Y40797D01*
X189758Y40698D01*
X189685Y40645D01*
X189015Y39975D01*
X188958Y39898D01*
X188893Y39827D01*
X188873Y39786D01*
X188846Y39749D01*
X188812Y39659D01*
X188770Y39573D01*
X188764Y39531D01*
X188747Y39485D01*
X188737Y39358D01*
X188723Y39268D01*
X188723Y35927D01*
X187060Y31913D01*
X183987Y28840D01*
X179973Y27177D01*
X175627Y27177D01*
X171613Y28840D01*
X168540Y31913D01*
X166877Y35927D01*
X166877Y40273D01*
X167051Y40692D01*
X167072Y40776D01*
X167103Y40857D01*
X167107Y40912D01*
X167121Y40965D01*
X167118Y41051D01*
X167125Y41138D01*
X167114Y41192D01*
X167112Y41247D01*
X167085Y41329D01*
X167067Y41414D01*
X167041Y41462D01*
X167024Y41515D01*
X166975Y41587D01*
X166935Y41663D01*
X166896Y41702D01*
X166865Y41748D01*
X166798Y41803D01*
X166738Y41865D01*
X166690Y41892D01*
X166648Y41927D01*
X166568Y41961D01*
X166493Y42004D01*
X166439Y42017D01*
X166389Y42038D01*
X166303Y42049D01*
X166218Y42069D01*
X166163Y42066D01*
X166109Y42073D01*
X166023Y42059D01*
X165936Y42055D01*
X165885Y42037D01*
X165830Y42028D01*
X165752Y41991D01*
X165670Y41962D01*
X165629Y41932D01*
X165576Y41907D01*
X165491Y41831D01*
X165421Y41780D01*
X163615Y39975D01*
X163558Y39898D01*
X163493Y39827D01*
X163473Y39786D01*
X163446Y39749D01*
X163412Y39659D01*
X163370Y39573D01*
X163364Y39531D01*
X163347Y39485D01*
X163337Y39358D01*
X163323Y39268D01*
X163323Y35927D01*
X161660Y31913D01*
X158587Y28840D01*
X154573Y27177D01*
X150227Y27177D01*
X146213Y28840D01*
X143140Y31913D01*
X141477Y35927D01*
X141477Y40273D01*
X141651Y40692D01*
X141672Y40776D01*
X141703Y40857D01*
X141707Y40912D01*
X141721Y40965D01*
X141718Y41051D01*
X141725Y41138D01*
X141714Y41192D01*
X141712Y41247D01*
X141685Y41329D01*
X141667Y41414D01*
X141641Y41462D01*
X141624Y41515D01*
X141575Y41587D01*
X141535Y41663D01*
X141496Y41702D01*
X141465Y41748D01*
X141398Y41803D01*
X141338Y41865D01*
X141290Y41892D01*
X141248Y41927D01*
X141168Y41961D01*
X141093Y42004D01*
X141039Y42017D01*
X140989Y42038D01*
X140903Y42049D01*
X140818Y42069D01*
X140763Y42066D01*
X140709Y42073D01*
X140623Y42059D01*
X140536Y42055D01*
X140485Y42037D01*
X140430Y42028D01*
X140352Y41991D01*
X140270Y41962D01*
X140229Y41932D01*
X140176Y41907D01*
X140091Y41831D01*
X140021Y41780D01*
X138215Y39975D01*
X138158Y39898D01*
X138093Y39827D01*
X138073Y39786D01*
X138046Y39749D01*
X138012Y39659D01*
X137970Y39573D01*
X137964Y39531D01*
X137947Y39485D01*
X137937Y39358D01*
X137923Y39268D01*
X137923Y35927D01*
X136260Y31913D01*
X133187Y28840D01*
X129173Y27177D01*
X124827Y27177D01*
X120813Y28840D01*
X117740Y31913D01*
X116077Y35927D01*
X116077Y40273D01*
X116251Y40692D01*
X116272Y40776D01*
X116303Y40857D01*
X116307Y40912D01*
X116321Y40965D01*
X116318Y41051D01*
X116325Y41138D01*
X116314Y41192D01*
X116312Y41247D01*
X116285Y41329D01*
X116267Y41414D01*
X116241Y41462D01*
X116224Y41515D01*
X116175Y41587D01*
X116135Y41663D01*
X116096Y41702D01*
X116065Y41748D01*
X115998Y41803D01*
X115938Y41865D01*
X115890Y41892D01*
X115848Y41927D01*
X115768Y41961D01*
X115693Y42004D01*
X115639Y42017D01*
X115589Y42038D01*
X115503Y42049D01*
X115418Y42069D01*
X115363Y42066D01*
X115309Y42073D01*
X115223Y42059D01*
X115136Y42055D01*
X115085Y42037D01*
X115030Y42028D01*
X114952Y41991D01*
X114870Y41962D01*
X114829Y41932D01*
X114776Y41907D01*
X114691Y41831D01*
X114621Y41780D01*
X112815Y39975D01*
X112758Y39898D01*
X112693Y39827D01*
X112673Y39786D01*
X112646Y39749D01*
X112612Y39659D01*
X112570Y39573D01*
X112564Y39531D01*
X112547Y39485D01*
X112537Y39358D01*
X112523Y39268D01*
X112523Y35927D01*
X110860Y31913D01*
X107787Y28840D01*
X103773Y27177D01*
X99427Y27177D01*
G37*
%LPD*%
%LPC*%
G36*
X17249Y327449D02*
X17249Y327449D01*
X17249Y338764D01*
X18402Y338581D01*
X20418Y337926D01*
X22306Y336964D01*
X24020Y335719D01*
X25519Y334220D01*
X26764Y332506D01*
X27726Y330618D01*
X28381Y328602D01*
X28564Y327449D01*
X17249Y327449D01*
G37*
%LPD*%
%LPC*%
G36*
X1936Y327449D02*
X1936Y327449D01*
X2119Y328602D01*
X2774Y330618D01*
X3736Y332506D01*
X4981Y334220D01*
X6480Y335719D01*
X8194Y336964D01*
X10082Y337926D01*
X12098Y338581D01*
X13251Y338764D01*
X13251Y327449D01*
X1936Y327449D01*
G37*
%LPD*%
%LPC*%
G36*
X217899Y243299D02*
X217899Y243299D01*
X217899Y250445D01*
X223405Y250445D01*
X225171Y250093D01*
X226836Y249404D01*
X228334Y248403D01*
X229607Y247130D01*
X230608Y245632D01*
X231297Y243967D01*
X231430Y243299D01*
X217899Y243299D01*
G37*
%LPD*%
%LPC*%
G36*
X141699Y217899D02*
X141699Y217899D01*
X141699Y225045D01*
X147205Y225045D01*
X148971Y224693D01*
X150636Y224004D01*
X152134Y223003D01*
X153407Y221730D01*
X154408Y220232D01*
X155097Y218567D01*
X155230Y217899D01*
X141699Y217899D01*
G37*
%LPD*%
%LPC*%
G36*
X217899Y217899D02*
X217899Y217899D01*
X217899Y225045D01*
X223405Y225045D01*
X225171Y224693D01*
X226836Y224004D01*
X228334Y223003D01*
X229607Y221730D01*
X230608Y220232D01*
X231297Y218567D01*
X231430Y217899D01*
X217899Y217899D01*
G37*
%LPD*%
%LPC*%
G36*
X200370Y217899D02*
X200370Y217899D01*
X200503Y218567D01*
X201192Y220232D01*
X202193Y221730D01*
X203466Y223003D01*
X204964Y224004D01*
X206629Y224693D01*
X208395Y225045D01*
X213901Y225045D01*
X213901Y217899D01*
X200370Y217899D01*
G37*
%LPD*%
%LPC*%
G36*
X124170Y217899D02*
X124170Y217899D01*
X124303Y218567D01*
X124992Y220232D01*
X125993Y221730D01*
X127266Y223003D01*
X128764Y224004D01*
X130429Y224693D01*
X132195Y225045D01*
X137701Y225045D01*
X137701Y217899D01*
X124170Y217899D01*
G37*
%LPD*%
%LPC*%
G36*
X124170Y243299D02*
X124170Y243299D01*
X124303Y243967D01*
X124992Y245632D01*
X125993Y247130D01*
X127266Y248403D01*
X128764Y249404D01*
X130429Y250093D01*
X132195Y250445D01*
X137701Y250445D01*
X137701Y243299D01*
X124170Y243299D01*
G37*
%LPD*%
%LPC*%
G36*
X200370Y243299D02*
X200370Y243299D01*
X200503Y243967D01*
X201192Y245632D01*
X202193Y247130D01*
X203466Y248403D01*
X204964Y249404D01*
X206629Y250093D01*
X208395Y250445D01*
X213901Y250445D01*
X213901Y243299D01*
X200370Y243299D01*
G37*
%LPD*%
%LPC*%
G36*
X141699Y206755D02*
X141699Y206755D01*
X141699Y213901D01*
X155230Y213901D01*
X155097Y213233D01*
X154408Y211568D01*
X153407Y210070D01*
X152134Y208797D01*
X150636Y207796D01*
X148971Y207107D01*
X147205Y206755D01*
X141699Y206755D01*
G37*
%LPD*%
%LPC*%
G36*
X217899Y232155D02*
X217899Y232155D01*
X217899Y239301D01*
X231430Y239301D01*
X231297Y238633D01*
X230608Y236968D01*
X229607Y235470D01*
X228334Y234197D01*
X226836Y233196D01*
X225171Y232507D01*
X223405Y232155D01*
X217899Y232155D01*
G37*
%LPD*%
%LPC*%
G36*
X217899Y206755D02*
X217899Y206755D01*
X217899Y213901D01*
X231430Y213901D01*
X231297Y213233D01*
X230608Y211568D01*
X229607Y210070D01*
X228334Y208797D01*
X226836Y207796D01*
X225171Y207107D01*
X223405Y206755D01*
X217899Y206755D01*
G37*
%LPD*%
%LPC*%
G36*
X132195Y232155D02*
X132195Y232155D01*
X130429Y232507D01*
X128764Y233196D01*
X127266Y234197D01*
X125993Y235470D01*
X124992Y236968D01*
X124303Y238633D01*
X124170Y239301D01*
X137701Y239301D01*
X137701Y232155D01*
X132195Y232155D01*
G37*
%LPD*%
%LPC*%
G36*
X208395Y206755D02*
X208395Y206755D01*
X206629Y207107D01*
X204964Y207796D01*
X203466Y208797D01*
X202193Y210070D01*
X201192Y211568D01*
X200503Y213233D01*
X200370Y213901D01*
X213901Y213901D01*
X213901Y206755D01*
X208395Y206755D01*
G37*
%LPD*%
%LPC*%
G36*
X132195Y206755D02*
X132195Y206755D01*
X130429Y207107D01*
X128764Y207796D01*
X127266Y208797D01*
X125993Y210070D01*
X124992Y211568D01*
X124303Y213233D01*
X124170Y213901D01*
X137701Y213901D01*
X137701Y206755D01*
X132195Y206755D01*
G37*
%LPD*%
%LPC*%
G36*
X208395Y232155D02*
X208395Y232155D01*
X206629Y232507D01*
X204964Y233196D01*
X203466Y234197D01*
X202193Y235470D01*
X201192Y236968D01*
X200503Y238633D01*
X200370Y239301D01*
X213901Y239301D01*
X213901Y232155D01*
X208395Y232155D01*
G37*
%LPD*%
%LPC*%
G36*
X205199Y40099D02*
X205199Y40099D01*
X205199Y49871D01*
X205996Y49745D01*
X207783Y49164D01*
X209457Y48311D01*
X210978Y47206D01*
X212306Y45878D01*
X213411Y44357D01*
X214264Y42683D01*
X214845Y40896D01*
X214913Y40465D01*
X214950Y40344D01*
X214983Y40223D01*
X214991Y40210D01*
X214996Y40195D01*
X215059Y40099D01*
X205199Y40099D01*
G37*
%LPD*%
%LPC*%
G36*
X216742Y40099D02*
X216742Y40099D01*
X216792Y40171D01*
X216797Y40185D01*
X216806Y40199D01*
X216877Y40433D01*
X216887Y40464D01*
X216955Y40896D01*
X217536Y42683D01*
X218389Y44357D01*
X219494Y45878D01*
X220822Y47206D01*
X222343Y48311D01*
X224017Y49164D01*
X225804Y49745D01*
X226601Y49871D01*
X226601Y40099D01*
X216742Y40099D01*
G37*
%LPD*%
%LPC*%
G36*
X205199Y36101D02*
X205199Y36101D01*
X215058Y36101D01*
X215008Y36029D01*
X215003Y36015D01*
X214994Y36001D01*
X214924Y35768D01*
X214913Y35735D01*
X214845Y35304D01*
X214264Y33517D01*
X213411Y31843D01*
X212306Y30322D01*
X210978Y28994D01*
X209457Y27889D01*
X207783Y27036D01*
X205996Y26455D01*
X205199Y26329D01*
X205199Y36101D01*
G37*
%LPD*%
%LPC*%
G36*
X225804Y26455D02*
X225804Y26455D01*
X224017Y27036D01*
X222343Y27889D01*
X220822Y28994D01*
X219494Y30322D01*
X218389Y31843D01*
X217536Y33517D01*
X216955Y35304D01*
X216887Y35736D01*
X216850Y35855D01*
X216817Y35977D01*
X216809Y35990D01*
X216804Y36005D01*
X216741Y36101D01*
X226601Y36101D01*
X226601Y26329D01*
X225804Y26455D01*
G37*
%LPD*%
%LPC*%
G36*
X230599Y36101D02*
X230599Y36101D01*
X240371Y36101D01*
X240288Y35577D01*
X240288Y35576D01*
X240245Y35304D01*
X239664Y33517D01*
X238811Y31843D01*
X237706Y30322D01*
X236378Y28994D01*
X234857Y27889D01*
X233183Y27036D01*
X231396Y26455D01*
X230599Y26329D01*
X230599Y36101D01*
G37*
%LPD*%
%LPC*%
G36*
X200404Y26455D02*
X200404Y26455D01*
X198617Y27036D01*
X196943Y27889D01*
X195422Y28994D01*
X194094Y30322D01*
X192989Y31843D01*
X192136Y33517D01*
X191555Y35304D01*
X191429Y36101D01*
X201201Y36101D01*
X201201Y26329D01*
X200404Y26455D01*
G37*
%LPD*%
%LPC*%
G36*
X215899Y215899D02*
X215899Y215899D01*
X215899Y215901D01*
X215901Y215901D01*
X215901Y215899D01*
X215899Y215899D01*
G37*
%LPD*%
%LPC*%
G36*
X139699Y215899D02*
X139699Y215899D01*
X139699Y215901D01*
X139701Y215901D01*
X139701Y215899D01*
X139699Y215899D01*
G37*
%LPD*%
%LPC*%
G36*
X215899Y241299D02*
X215899Y241299D01*
X215899Y241301D01*
X215901Y241301D01*
X215901Y241299D01*
X215899Y241299D01*
G37*
%LPD*%
%LPC*%
G36*
X228599Y38099D02*
X228599Y38099D01*
X228599Y38101D01*
X228601Y38101D01*
X228601Y38099D01*
X228599Y38099D01*
G37*
%LPD*%
%LPC*%
G36*
X203199Y38099D02*
X203199Y38099D01*
X203199Y38101D01*
X203201Y38101D01*
X203201Y38099D01*
X203199Y38099D01*
G37*
%LPD*%
D10*
X133096Y317500D02*
X146304Y317500D01*
X146304Y292100D02*
X133096Y292100D01*
X133096Y165100D02*
X146304Y165100D01*
X146304Y139700D02*
X133096Y139700D01*
X133096Y266700D02*
X146304Y266700D01*
X146304Y241300D02*
X133096Y241300D01*
X133096Y190500D02*
X146304Y190500D01*
X146304Y215900D02*
X133096Y215900D01*
X209296Y139700D02*
X222504Y139700D01*
X222504Y165100D02*
X209296Y165100D01*
X209296Y190500D02*
X222504Y190500D01*
X222504Y215900D02*
X209296Y215900D01*
X209296Y241300D02*
X222504Y241300D01*
X222504Y266700D02*
X209296Y266700D01*
X209296Y292100D02*
X222504Y292100D01*
X222504Y317500D02*
X209296Y317500D01*
D11*
X101600Y38100D03*
X127000Y38100D03*
X152400Y38100D03*
X177800Y38100D03*
X203200Y38100D03*
X228600Y38100D03*
X254000Y38100D03*
D12*
X312750Y147650D03*
X312750Y173050D03*
X312750Y198450D03*
X312750Y223850D03*
X312750Y249250D03*
X312750Y274650D03*
X312750Y300050D03*
X312750Y325450D03*
X15250Y325450D03*
X15250Y300050D03*
X15250Y274650D03*
X15250Y249250D03*
X15250Y223850D03*
X15250Y198450D03*
X15250Y173050D03*
X15250Y147650D03*
D13*
X139700Y317500D02*
X215900Y317500D01*
X304800Y317500D01*
X312750Y325450D01*
D14*
X320536Y318846D02*
X331546Y307836D01*
X331546Y139864D02*
X320536Y128854D01*
X304964Y128854D01*
X319354Y318846D02*
X312750Y325450D01*
X319354Y318846D02*
X320536Y318846D01*
X331546Y307836D02*
X331546Y139864D01*
X304964Y128854D02*
X294118Y139700D01*
X215900Y139700D01*
X215900Y76200D01*
X254000Y38100D01*
D13*
X152400Y253883D02*
X152400Y254000D01*
X171196Y82296D02*
X127000Y38100D01*
X171196Y82296D02*
X171196Y235087D01*
X152400Y253883D01*
X152400Y254000D02*
X139700Y266700D01*
X146050Y184150D02*
X146050Y184033D01*
X159512Y170571D01*
X159512Y96012D02*
X101600Y38100D01*
X159512Y96012D02*
X159512Y170571D01*
X146050Y184150D02*
X139700Y190500D01*
X215900Y190383D02*
X215900Y190500D01*
X215900Y190383D02*
X196088Y170571D01*
X196088Y56388D02*
X177800Y38100D01*
X196088Y56388D02*
X196088Y170571D01*
X184150Y69850D02*
X152400Y38100D01*
X184150Y69850D02*
X184150Y247650D01*
X203200Y266700D01*
X215900Y266700D01*
X35700Y292100D02*
X15250Y300050D01*
X35700Y292100D02*
X139700Y292100D01*
X215900Y292100D02*
X223850Y300050D01*
X312750Y300050D01*
X274650Y223850D02*
X215900Y165100D01*
X274650Y223850D02*
X312750Y223850D01*
X106350Y198450D02*
X15250Y198450D01*
X106350Y198450D02*
X139700Y165100D01*
M02*
