M48
;GenerationSoftware,Autodesk,EAGLE,8.6.0*%
;CreationDate,2018-02-28T16:01:23Z*%
FMAT,2
ICI,OFF
METRIC,TZ,000.000
T4C0.813
T3C1.000
T2C1.016
%
G90
M71
T2
X22860Y3810
X20320Y3810
X17780Y3810
X15240Y3810
X12700Y3810
X10160Y3810
X25400Y3810
T3
X31275Y24925
X31275Y14765
X31275Y17305
X31275Y19845
X31275Y22385
X1525Y14765
X31275Y27465
X31275Y30005
X31275Y32545
X1525Y32545
X1525Y30005
X1525Y27465
X1525Y24925
X1525Y22385
X1525Y19845
X1525Y17305
X33020Y1905
X1270Y1905
T4
X13970Y21590
X13970Y31750
X13970Y29210
X13970Y16510
X13970Y13970
X13970Y26670
X13970Y24130
X13970Y19050
X21590Y31750
X21590Y13970
X21590Y16510
X21590Y19050
X21590Y21590
X21590Y24130
X21590Y26670
X21590Y29210
M30