G04 EAGLE Gerber X2 export*
%TF.Part,Single*%
%TF.FileFunction,Profile,NP*%
%TF.FilePolarity,Positive*%
%TF.GenerationSoftware,Autodesk,EAGLE,8.6.0*%
%TF.CreationDate,2018-02-28T16:01:23Z*%
G75*
%MOMM*%
%FSLAX34Y34*%
%LPD*%
%AMOC8*
5,1,8,0,0,1.08239X$1,22.5*%
G01*
%ADD10C,0.254000*%


D10*
X-12700Y-6350D02*
X355550Y-6350D01*
X355550Y387300D01*
X-12700Y387300D01*
X-12700Y-6350D01*
X335200Y18769D02*
X335137Y18211D01*
X335012Y17664D01*
X334827Y17134D01*
X334583Y16628D01*
X334284Y16152D01*
X333934Y15713D01*
X333537Y15316D01*
X333098Y14966D01*
X332622Y14667D01*
X332116Y14423D01*
X331586Y14238D01*
X331039Y14113D01*
X330481Y14050D01*
X329919Y14050D01*
X329361Y14113D01*
X328814Y14238D01*
X328284Y14423D01*
X327778Y14667D01*
X327302Y14966D01*
X326863Y15316D01*
X326466Y15713D01*
X326116Y16152D01*
X325817Y16628D01*
X325573Y17134D01*
X325388Y17664D01*
X325263Y18211D01*
X325200Y18769D01*
X325200Y19331D01*
X325263Y19889D01*
X325388Y20436D01*
X325573Y20966D01*
X325817Y21472D01*
X326116Y21948D01*
X326466Y22387D01*
X326863Y22784D01*
X327302Y23134D01*
X327778Y23433D01*
X328284Y23677D01*
X328814Y23862D01*
X329361Y23987D01*
X329919Y24050D01*
X330481Y24050D01*
X331039Y23987D01*
X331586Y23862D01*
X332116Y23677D01*
X332622Y23433D01*
X333098Y23134D01*
X333537Y22784D01*
X333934Y22387D01*
X334284Y21948D01*
X334583Y21472D01*
X334827Y20966D01*
X335012Y20436D01*
X335137Y19889D01*
X335200Y19331D01*
X335200Y18769D01*
X17700Y18769D02*
X17637Y18211D01*
X17512Y17664D01*
X17327Y17134D01*
X17083Y16628D01*
X16784Y16152D01*
X16434Y15713D01*
X16037Y15316D01*
X15598Y14966D01*
X15122Y14667D01*
X14616Y14423D01*
X14086Y14238D01*
X13539Y14113D01*
X12981Y14050D01*
X12419Y14050D01*
X11861Y14113D01*
X11314Y14238D01*
X10784Y14423D01*
X10278Y14667D01*
X9802Y14966D01*
X9363Y15316D01*
X8966Y15713D01*
X8616Y16152D01*
X8317Y16628D01*
X8073Y17134D01*
X7888Y17664D01*
X7763Y18211D01*
X7700Y18769D01*
X7700Y19331D01*
X7763Y19889D01*
X7888Y20436D01*
X8073Y20966D01*
X8317Y21472D01*
X8616Y21948D01*
X8966Y22387D01*
X9363Y22784D01*
X9802Y23134D01*
X10278Y23433D01*
X10784Y23677D01*
X11314Y23862D01*
X11861Y23987D01*
X12419Y24050D01*
X12981Y24050D01*
X13539Y23987D01*
X14086Y23862D01*
X14616Y23677D01*
X15122Y23433D01*
X15598Y23134D01*
X16037Y22784D01*
X16434Y22387D01*
X16784Y21948D01*
X17083Y21472D01*
X17327Y20966D01*
X17512Y20436D01*
X17637Y19889D01*
X17700Y19331D01*
X17700Y18769D01*
X335200Y18769D02*
X335137Y18211D01*
X335012Y17664D01*
X334827Y17134D01*
X334583Y16628D01*
X334284Y16152D01*
X333934Y15713D01*
X333537Y15316D01*
X333098Y14966D01*
X332622Y14667D01*
X332116Y14423D01*
X331586Y14238D01*
X331039Y14113D01*
X330481Y14050D01*
X329919Y14050D01*
X329361Y14113D01*
X328814Y14238D01*
X328284Y14423D01*
X327778Y14667D01*
X327302Y14966D01*
X326863Y15316D01*
X326466Y15713D01*
X326116Y16152D01*
X325817Y16628D01*
X325573Y17134D01*
X325388Y17664D01*
X325263Y18211D01*
X325200Y18769D01*
X325200Y19331D01*
X325263Y19889D01*
X325388Y20436D01*
X325573Y20966D01*
X325817Y21472D01*
X326116Y21948D01*
X326466Y22387D01*
X326863Y22784D01*
X327302Y23134D01*
X327778Y23433D01*
X328284Y23677D01*
X328814Y23862D01*
X329361Y23987D01*
X329919Y24050D01*
X330481Y24050D01*
X331039Y23987D01*
X331586Y23862D01*
X332116Y23677D01*
X332622Y23433D01*
X333098Y23134D01*
X333537Y22784D01*
X333934Y22387D01*
X334284Y21948D01*
X334583Y21472D01*
X334827Y20966D01*
X335012Y20436D01*
X335137Y19889D01*
X335200Y19331D01*
X335200Y18769D01*
X17700Y18769D02*
X17637Y18211D01*
X17512Y17664D01*
X17327Y17134D01*
X17083Y16628D01*
X16784Y16152D01*
X16434Y15713D01*
X16037Y15316D01*
X15598Y14966D01*
X15122Y14667D01*
X14616Y14423D01*
X14086Y14238D01*
X13539Y14113D01*
X12981Y14050D01*
X12419Y14050D01*
X11861Y14113D01*
X11314Y14238D01*
X10784Y14423D01*
X10278Y14667D01*
X9802Y14966D01*
X9363Y15316D01*
X8966Y15713D01*
X8616Y16152D01*
X8317Y16628D01*
X8073Y17134D01*
X7888Y17664D01*
X7763Y18211D01*
X7700Y18769D01*
X7700Y19331D01*
X7763Y19889D01*
X7888Y20436D01*
X8073Y20966D01*
X8317Y21472D01*
X8616Y21948D01*
X8966Y22387D01*
X9363Y22784D01*
X9802Y23134D01*
X10278Y23433D01*
X10784Y23677D01*
X11314Y23862D01*
X11861Y23987D01*
X12419Y24050D01*
X12981Y24050D01*
X13539Y23987D01*
X14086Y23862D01*
X14616Y23677D01*
X15122Y23433D01*
X15598Y23134D01*
X16037Y22784D01*
X16434Y22387D01*
X16784Y21948D01*
X17083Y21472D01*
X17327Y20966D01*
X17512Y20436D01*
X17637Y19889D01*
X17700Y19331D01*
X17700Y18769D01*
M02*
