G04 EAGLE Gerber X2 export*
%TF.Part,Single*%
%TF.FileFunction,Legend,Top,1*%
%TF.FilePolarity,Positive*%
%TF.GenerationSoftware,Autodesk,EAGLE,8.6.0*%
%TF.CreationDate,2018-02-28T16:01:23Z*%
G75*
%MOMM*%
%FSLAX34Y34*%
%LPD*%
%AMOC8*
5,1,8,0,0,1.08239X$1,22.5*%
G01*
%ADD10C,0.152400*%
%ADD11C,0.127000*%
%ADD12C,0.203200*%
%ADD13C,0.076200*%


D10*
X207010Y127000D02*
X207010Y330200D01*
X148590Y330200D02*
X148590Y127000D01*
X207010Y127000D01*
X207010Y330200D02*
X187960Y330200D01*
X167640Y330200D02*
X148590Y330200D01*
X167640Y330200D02*
X167643Y329953D01*
X167652Y329705D01*
X167667Y329458D01*
X167688Y329212D01*
X167715Y328966D01*
X167748Y328721D01*
X167787Y328476D01*
X167832Y328233D01*
X167883Y327991D01*
X167940Y327750D01*
X168002Y327511D01*
X168071Y327273D01*
X168145Y327037D01*
X168225Y326803D01*
X168310Y326571D01*
X168402Y326341D01*
X168498Y326113D01*
X168601Y325888D01*
X168708Y325665D01*
X168822Y325445D01*
X168940Y325228D01*
X169064Y325013D01*
X169193Y324802D01*
X169327Y324594D01*
X169466Y324389D01*
X169610Y324188D01*
X169758Y323990D01*
X169912Y323796D01*
X170070Y323606D01*
X170233Y323420D01*
X170400Y323238D01*
X170572Y323060D01*
X170748Y322886D01*
X170928Y322716D01*
X171113Y322551D01*
X171301Y322391D01*
X171493Y322235D01*
X171689Y322083D01*
X171888Y321937D01*
X172091Y321795D01*
X172298Y321659D01*
X172507Y321527D01*
X172720Y321401D01*
X172936Y321280D01*
X173154Y321164D01*
X173376Y321054D01*
X173600Y320949D01*
X173826Y320849D01*
X174055Y320755D01*
X174286Y320667D01*
X174520Y320584D01*
X174755Y320507D01*
X174992Y320436D01*
X175230Y320370D01*
X175470Y320311D01*
X175712Y320257D01*
X175955Y320209D01*
X176198Y320167D01*
X176443Y320131D01*
X176689Y320101D01*
X176935Y320077D01*
X177182Y320059D01*
X177429Y320047D01*
X177676Y320041D01*
X177924Y320041D01*
X178171Y320047D01*
X178418Y320059D01*
X178665Y320077D01*
X178911Y320101D01*
X179157Y320131D01*
X179402Y320167D01*
X179645Y320209D01*
X179888Y320257D01*
X180130Y320311D01*
X180370Y320370D01*
X180608Y320436D01*
X180845Y320507D01*
X181080Y320584D01*
X181314Y320667D01*
X181545Y320755D01*
X181774Y320849D01*
X182000Y320949D01*
X182224Y321054D01*
X182446Y321164D01*
X182664Y321280D01*
X182880Y321401D01*
X183093Y321527D01*
X183302Y321659D01*
X183509Y321795D01*
X183712Y321937D01*
X183911Y322083D01*
X184107Y322235D01*
X184299Y322391D01*
X184487Y322551D01*
X184672Y322716D01*
X184852Y322886D01*
X185028Y323060D01*
X185200Y323238D01*
X185367Y323420D01*
X185530Y323606D01*
X185688Y323796D01*
X185842Y323990D01*
X185990Y324188D01*
X186134Y324389D01*
X186273Y324594D01*
X186407Y324802D01*
X186536Y325013D01*
X186660Y325228D01*
X186778Y325445D01*
X186892Y325665D01*
X186999Y325888D01*
X187102Y326113D01*
X187198Y326341D01*
X187290Y326571D01*
X187375Y326803D01*
X187455Y327037D01*
X187529Y327273D01*
X187598Y327511D01*
X187660Y327750D01*
X187717Y327991D01*
X187768Y328233D01*
X187813Y328476D01*
X187852Y328721D01*
X187885Y328966D01*
X187912Y329212D01*
X187933Y329458D01*
X187948Y329705D01*
X187957Y329953D01*
X187960Y330200D01*
D11*
X150495Y334645D02*
X150495Y346075D01*
X149225Y334645D02*
X151765Y334645D01*
X151765Y346075D02*
X149225Y346075D01*
X158967Y334645D02*
X161507Y334645D01*
X158967Y334645D02*
X158867Y334647D01*
X158768Y334653D01*
X158668Y334663D01*
X158570Y334676D01*
X158471Y334694D01*
X158374Y334715D01*
X158278Y334740D01*
X158182Y334769D01*
X158088Y334802D01*
X157995Y334838D01*
X157904Y334878D01*
X157814Y334922D01*
X157726Y334969D01*
X157640Y335019D01*
X157556Y335073D01*
X157474Y335130D01*
X157395Y335190D01*
X157317Y335254D01*
X157243Y335320D01*
X157171Y335389D01*
X157102Y335461D01*
X157036Y335535D01*
X156972Y335613D01*
X156912Y335692D01*
X156855Y335774D01*
X156801Y335858D01*
X156751Y335944D01*
X156704Y336032D01*
X156660Y336122D01*
X156620Y336213D01*
X156584Y336306D01*
X156551Y336400D01*
X156522Y336496D01*
X156497Y336592D01*
X156476Y336689D01*
X156458Y336788D01*
X156445Y336886D01*
X156435Y336986D01*
X156429Y337085D01*
X156427Y337185D01*
X156427Y343535D01*
X156429Y343635D01*
X156435Y343734D01*
X156445Y343834D01*
X156458Y343932D01*
X156476Y344031D01*
X156497Y344128D01*
X156522Y344224D01*
X156551Y344320D01*
X156584Y344414D01*
X156620Y344507D01*
X156660Y344598D01*
X156704Y344688D01*
X156751Y344776D01*
X156801Y344862D01*
X156855Y344946D01*
X156912Y345028D01*
X156972Y345107D01*
X157036Y345185D01*
X157102Y345259D01*
X157171Y345331D01*
X157243Y345400D01*
X157317Y345466D01*
X157395Y345530D01*
X157474Y345590D01*
X157556Y345647D01*
X157640Y345701D01*
X157726Y345751D01*
X157814Y345798D01*
X157904Y345842D01*
X157995Y345882D01*
X158088Y345918D01*
X158182Y345951D01*
X158278Y345980D01*
X158374Y346005D01*
X158471Y346026D01*
X158570Y346044D01*
X158668Y346057D01*
X158768Y346067D01*
X158867Y346073D01*
X158967Y346075D01*
X161507Y346075D01*
X165989Y343535D02*
X169164Y346075D01*
X169164Y334645D01*
X165989Y334645D02*
X172339Y334645D01*
D12*
X247650Y50800D02*
X260350Y50800D01*
X266700Y44450D01*
X266700Y31750D02*
X260350Y25400D01*
X222250Y50800D02*
X215900Y44450D01*
X222250Y50800D02*
X234950Y50800D01*
X241300Y44450D01*
X241300Y31750D02*
X234950Y25400D01*
X222250Y25400D01*
X215900Y31750D01*
X241300Y44450D02*
X247650Y50800D01*
X241300Y31750D02*
X247650Y25400D01*
X260350Y25400D01*
X184150Y50800D02*
X171450Y50800D01*
X184150Y50800D02*
X190500Y44450D01*
X190500Y31750D02*
X184150Y25400D01*
X190500Y44450D02*
X196850Y50800D01*
X209550Y50800D01*
X215900Y44450D01*
X215900Y31750D02*
X209550Y25400D01*
X196850Y25400D01*
X190500Y31750D01*
X146050Y50800D02*
X139700Y44450D01*
X146050Y50800D02*
X158750Y50800D01*
X165100Y44450D01*
X165100Y31750D02*
X158750Y25400D01*
X146050Y25400D01*
X139700Y31750D01*
X165100Y44450D02*
X171450Y50800D01*
X165100Y31750D02*
X171450Y25400D01*
X184150Y25400D01*
X107950Y50800D02*
X95250Y50800D01*
X107950Y50800D02*
X114300Y44450D01*
X114300Y31750D02*
X107950Y25400D01*
X114300Y44450D02*
X120650Y50800D01*
X133350Y50800D01*
X139700Y44450D01*
X139700Y31750D02*
X133350Y25400D01*
X120650Y25400D01*
X114300Y31750D01*
X88900Y31750D02*
X88900Y44450D01*
X95250Y50800D01*
X88900Y31750D02*
X95250Y25400D01*
X107950Y25400D01*
X266700Y31750D02*
X266700Y44450D01*
D11*
X91144Y53777D02*
X91144Y57531D01*
X91143Y53777D02*
X91141Y53712D01*
X91135Y53648D01*
X91125Y53584D01*
X91112Y53520D01*
X91094Y53458D01*
X91073Y53397D01*
X91049Y53337D01*
X91020Y53279D01*
X90988Y53222D01*
X90953Y53168D01*
X90915Y53116D01*
X90873Y53066D01*
X90829Y53019D01*
X90782Y52975D01*
X90732Y52933D01*
X90680Y52895D01*
X90626Y52860D01*
X90569Y52828D01*
X90511Y52799D01*
X90451Y52775D01*
X90390Y52754D01*
X90328Y52736D01*
X90264Y52723D01*
X90200Y52713D01*
X90136Y52707D01*
X90071Y52705D01*
X89535Y52705D01*
X94092Y56459D02*
X95432Y57531D01*
X95432Y52705D01*
X94092Y52705D02*
X96773Y52705D01*
X338150Y57650D02*
X338150Y368450D01*
X338150Y57650D02*
X7950Y57650D01*
X7950Y368450D02*
X338150Y368450D01*
D13*
X269293Y147269D02*
X269293Y139903D01*
X269293Y147269D02*
X271339Y147269D01*
X271428Y147267D01*
X271517Y147261D01*
X271606Y147251D01*
X271694Y147238D01*
X271782Y147221D01*
X271869Y147199D01*
X271954Y147174D01*
X272039Y147146D01*
X272122Y147113D01*
X272204Y147077D01*
X272284Y147038D01*
X272362Y146995D01*
X272438Y146949D01*
X272513Y146899D01*
X272585Y146846D01*
X272654Y146790D01*
X272721Y146731D01*
X272786Y146670D01*
X272847Y146605D01*
X272906Y146538D01*
X272962Y146469D01*
X273015Y146397D01*
X273065Y146322D01*
X273111Y146246D01*
X273154Y146168D01*
X273193Y146088D01*
X273229Y146006D01*
X273262Y145923D01*
X273290Y145838D01*
X273315Y145753D01*
X273337Y145666D01*
X273354Y145578D01*
X273367Y145490D01*
X273377Y145401D01*
X273383Y145312D01*
X273385Y145223D01*
X273383Y145134D01*
X273377Y145045D01*
X273367Y144956D01*
X273354Y144868D01*
X273337Y144780D01*
X273315Y144693D01*
X273290Y144608D01*
X273262Y144523D01*
X273229Y144440D01*
X273193Y144358D01*
X273154Y144278D01*
X273111Y144200D01*
X273065Y144124D01*
X273015Y144049D01*
X272962Y143977D01*
X272906Y143908D01*
X272847Y143841D01*
X272786Y143776D01*
X272721Y143715D01*
X272654Y143656D01*
X272585Y143600D01*
X272513Y143547D01*
X272438Y143497D01*
X272362Y143451D01*
X272284Y143408D01*
X272204Y143369D01*
X272122Y143333D01*
X272039Y143300D01*
X271954Y143272D01*
X271869Y143247D01*
X271782Y143225D01*
X271694Y143208D01*
X271606Y143195D01*
X271517Y143185D01*
X271428Y143179D01*
X271339Y143177D01*
X269293Y143177D01*
X271749Y143177D02*
X273386Y139903D01*
X276817Y139903D02*
X280091Y139903D01*
X276817Y139903D02*
X276817Y147269D01*
X280091Y147269D01*
X279272Y143995D02*
X276817Y143995D01*
X285109Y139903D02*
X285187Y139905D01*
X285265Y139910D01*
X285342Y139920D01*
X285419Y139933D01*
X285495Y139949D01*
X285570Y139969D01*
X285644Y139993D01*
X285717Y140020D01*
X285789Y140051D01*
X285859Y140085D01*
X285928Y140122D01*
X285994Y140163D01*
X286059Y140207D01*
X286121Y140253D01*
X286181Y140303D01*
X286239Y140355D01*
X286294Y140410D01*
X286346Y140468D01*
X286396Y140528D01*
X286442Y140590D01*
X286486Y140655D01*
X286527Y140722D01*
X286564Y140790D01*
X286598Y140860D01*
X286629Y140932D01*
X286656Y141005D01*
X286680Y141079D01*
X286700Y141154D01*
X286716Y141230D01*
X286729Y141307D01*
X286739Y141384D01*
X286744Y141462D01*
X286746Y141540D01*
X285109Y139903D02*
X284995Y139905D01*
X284882Y139910D01*
X284768Y139920D01*
X284655Y139933D01*
X284543Y139950D01*
X284431Y139970D01*
X284320Y139994D01*
X284209Y140022D01*
X284100Y140053D01*
X283992Y140088D01*
X283885Y140127D01*
X283779Y140169D01*
X283675Y140214D01*
X283572Y140263D01*
X283471Y140316D01*
X283372Y140371D01*
X283274Y140430D01*
X283179Y140492D01*
X283086Y140557D01*
X282994Y140625D01*
X282906Y140696D01*
X282819Y140770D01*
X282735Y140847D01*
X282654Y140926D01*
X282858Y145632D02*
X282860Y145710D01*
X282865Y145788D01*
X282875Y145865D01*
X282888Y145942D01*
X282904Y146018D01*
X282924Y146093D01*
X282948Y146167D01*
X282975Y146240D01*
X283006Y146312D01*
X283040Y146382D01*
X283077Y146451D01*
X283118Y146517D01*
X283162Y146582D01*
X283208Y146644D01*
X283258Y146704D01*
X283310Y146762D01*
X283365Y146817D01*
X283423Y146869D01*
X283483Y146919D01*
X283545Y146965D01*
X283610Y147009D01*
X283677Y147050D01*
X283745Y147087D01*
X283815Y147121D01*
X283887Y147152D01*
X283960Y147179D01*
X284034Y147203D01*
X284109Y147223D01*
X284185Y147239D01*
X284262Y147252D01*
X284339Y147262D01*
X284417Y147267D01*
X284495Y147269D01*
X284605Y147267D01*
X284714Y147261D01*
X284824Y147251D01*
X284932Y147238D01*
X285041Y147220D01*
X285148Y147199D01*
X285255Y147173D01*
X285361Y147144D01*
X285466Y147112D01*
X285569Y147075D01*
X285671Y147035D01*
X285772Y146991D01*
X285871Y146943D01*
X285968Y146893D01*
X286063Y146838D01*
X286156Y146780D01*
X286247Y146719D01*
X286336Y146655D01*
X283676Y144199D02*
X283609Y144241D01*
X283544Y144285D01*
X283482Y144333D01*
X283422Y144383D01*
X283364Y144436D01*
X283309Y144492D01*
X283257Y144551D01*
X283207Y144611D01*
X283160Y144675D01*
X283117Y144740D01*
X283076Y144807D01*
X283039Y144876D01*
X283005Y144947D01*
X282974Y145019D01*
X282947Y145093D01*
X282923Y145167D01*
X282903Y145243D01*
X282887Y145320D01*
X282874Y145397D01*
X282864Y145475D01*
X282859Y145554D01*
X282857Y145632D01*
X285927Y142972D02*
X285993Y142930D01*
X286058Y142886D01*
X286120Y142839D01*
X286180Y142788D01*
X286238Y142735D01*
X286293Y142679D01*
X286346Y142621D01*
X286395Y142560D01*
X286442Y142497D01*
X286485Y142432D01*
X286526Y142365D01*
X286563Y142296D01*
X286597Y142225D01*
X286628Y142153D01*
X286655Y142079D01*
X286679Y142004D01*
X286699Y141929D01*
X286715Y141852D01*
X286728Y141775D01*
X286738Y141697D01*
X286743Y141618D01*
X286745Y141540D01*
X285927Y142972D02*
X283676Y144200D01*
X289984Y139903D02*
X293258Y139903D01*
X289984Y139903D02*
X289984Y147269D01*
X293258Y147269D01*
X292440Y143995D02*
X289984Y143995D01*
X297623Y147269D02*
X297623Y139903D01*
X295577Y147269D02*
X299669Y147269D01*
X280891Y165303D02*
X283346Y172669D01*
X285802Y165303D01*
X285188Y167145D02*
X281505Y167145D01*
X288859Y165303D02*
X288859Y172669D01*
X290905Y172669D01*
X290994Y172667D01*
X291083Y172661D01*
X291172Y172651D01*
X291260Y172638D01*
X291348Y172621D01*
X291435Y172599D01*
X291520Y172574D01*
X291605Y172546D01*
X291688Y172513D01*
X291770Y172477D01*
X291850Y172438D01*
X291928Y172395D01*
X292004Y172349D01*
X292079Y172299D01*
X292151Y172246D01*
X292220Y172190D01*
X292287Y172131D01*
X292352Y172070D01*
X292413Y172005D01*
X292472Y171938D01*
X292528Y171869D01*
X292581Y171797D01*
X292631Y171722D01*
X292677Y171646D01*
X292720Y171568D01*
X292759Y171488D01*
X292795Y171406D01*
X292828Y171323D01*
X292856Y171238D01*
X292881Y171153D01*
X292903Y171066D01*
X292920Y170978D01*
X292933Y170890D01*
X292943Y170801D01*
X292949Y170712D01*
X292951Y170623D01*
X292952Y170623D02*
X292952Y167349D01*
X292951Y167349D02*
X292949Y167260D01*
X292943Y167171D01*
X292933Y167082D01*
X292920Y166994D01*
X292903Y166906D01*
X292881Y166819D01*
X292856Y166734D01*
X292828Y166649D01*
X292795Y166566D01*
X292759Y166484D01*
X292720Y166404D01*
X292677Y166326D01*
X292631Y166250D01*
X292581Y166175D01*
X292528Y166103D01*
X292472Y166034D01*
X292413Y165967D01*
X292352Y165902D01*
X292287Y165841D01*
X292220Y165782D01*
X292151Y165726D01*
X292079Y165673D01*
X292004Y165623D01*
X291928Y165577D01*
X291850Y165534D01*
X291770Y165495D01*
X291688Y165459D01*
X291605Y165426D01*
X291520Y165398D01*
X291435Y165373D01*
X291348Y165351D01*
X291260Y165334D01*
X291172Y165321D01*
X291083Y165311D01*
X290994Y165305D01*
X290905Y165303D01*
X288859Y165303D01*
X298032Y165303D02*
X299669Y165303D01*
X298032Y165303D02*
X297954Y165305D01*
X297876Y165310D01*
X297799Y165320D01*
X297722Y165333D01*
X297646Y165349D01*
X297571Y165369D01*
X297497Y165393D01*
X297424Y165420D01*
X297352Y165451D01*
X297282Y165485D01*
X297214Y165522D01*
X297147Y165563D01*
X297082Y165607D01*
X297020Y165653D01*
X296960Y165703D01*
X296902Y165755D01*
X296847Y165810D01*
X296795Y165868D01*
X296745Y165928D01*
X296699Y165990D01*
X296655Y166055D01*
X296614Y166122D01*
X296577Y166190D01*
X296543Y166260D01*
X296512Y166332D01*
X296485Y166405D01*
X296461Y166479D01*
X296441Y166554D01*
X296425Y166630D01*
X296412Y166707D01*
X296402Y166784D01*
X296397Y166862D01*
X296395Y166940D01*
X296395Y171032D01*
X296397Y171112D01*
X296403Y171192D01*
X296413Y171272D01*
X296426Y171351D01*
X296444Y171430D01*
X296465Y171507D01*
X296491Y171583D01*
X296520Y171658D01*
X296552Y171732D01*
X296588Y171804D01*
X296628Y171874D01*
X296671Y171941D01*
X296717Y172007D01*
X296767Y172070D01*
X296819Y172131D01*
X296874Y172190D01*
X296933Y172245D01*
X296993Y172297D01*
X297057Y172347D01*
X297123Y172393D01*
X297190Y172436D01*
X297260Y172476D01*
X297332Y172512D01*
X297406Y172544D01*
X297480Y172573D01*
X297557Y172599D01*
X297634Y172620D01*
X297713Y172638D01*
X297792Y172651D01*
X297872Y172661D01*
X297952Y172667D01*
X298032Y172669D01*
X299669Y172669D01*
X271518Y190703D02*
X269881Y190703D01*
X269803Y190705D01*
X269725Y190710D01*
X269648Y190720D01*
X269571Y190733D01*
X269495Y190749D01*
X269420Y190769D01*
X269346Y190793D01*
X269273Y190820D01*
X269201Y190851D01*
X269131Y190885D01*
X269063Y190922D01*
X268996Y190963D01*
X268931Y191007D01*
X268869Y191053D01*
X268809Y191103D01*
X268751Y191155D01*
X268696Y191210D01*
X268644Y191268D01*
X268594Y191328D01*
X268548Y191390D01*
X268504Y191455D01*
X268463Y191522D01*
X268426Y191590D01*
X268392Y191660D01*
X268361Y191732D01*
X268334Y191805D01*
X268310Y191879D01*
X268290Y191954D01*
X268274Y192030D01*
X268261Y192107D01*
X268251Y192184D01*
X268246Y192262D01*
X268244Y192340D01*
X268244Y196432D01*
X268246Y196512D01*
X268252Y196592D01*
X268262Y196672D01*
X268275Y196751D01*
X268293Y196830D01*
X268314Y196907D01*
X268340Y196983D01*
X268369Y197058D01*
X268401Y197132D01*
X268437Y197204D01*
X268477Y197274D01*
X268520Y197341D01*
X268566Y197407D01*
X268616Y197470D01*
X268668Y197531D01*
X268723Y197590D01*
X268782Y197645D01*
X268842Y197697D01*
X268906Y197747D01*
X268972Y197793D01*
X269039Y197836D01*
X269109Y197876D01*
X269181Y197912D01*
X269255Y197944D01*
X269329Y197973D01*
X269406Y197999D01*
X269483Y198020D01*
X269562Y198038D01*
X269641Y198051D01*
X269721Y198061D01*
X269801Y198067D01*
X269881Y198069D01*
X271518Y198069D01*
X274607Y198069D02*
X274607Y190703D01*
X274607Y194795D02*
X278699Y194795D01*
X278699Y198069D02*
X278699Y190703D01*
X281843Y189885D02*
X285117Y189885D01*
X288379Y190703D02*
X288379Y198069D01*
X290425Y198069D01*
X290514Y198067D01*
X290603Y198061D01*
X290692Y198051D01*
X290780Y198038D01*
X290868Y198021D01*
X290955Y197999D01*
X291040Y197974D01*
X291125Y197946D01*
X291208Y197913D01*
X291290Y197877D01*
X291370Y197838D01*
X291448Y197795D01*
X291524Y197749D01*
X291599Y197699D01*
X291671Y197646D01*
X291740Y197590D01*
X291807Y197531D01*
X291872Y197470D01*
X291933Y197405D01*
X291992Y197338D01*
X292048Y197269D01*
X292101Y197197D01*
X292151Y197122D01*
X292197Y197046D01*
X292240Y196968D01*
X292279Y196888D01*
X292315Y196806D01*
X292348Y196723D01*
X292376Y196638D01*
X292401Y196553D01*
X292423Y196466D01*
X292440Y196378D01*
X292453Y196290D01*
X292463Y196201D01*
X292469Y196112D01*
X292471Y196023D01*
X292469Y195934D01*
X292463Y195845D01*
X292453Y195756D01*
X292440Y195668D01*
X292423Y195580D01*
X292401Y195493D01*
X292376Y195408D01*
X292348Y195323D01*
X292315Y195240D01*
X292279Y195158D01*
X292240Y195078D01*
X292197Y195000D01*
X292151Y194924D01*
X292101Y194849D01*
X292048Y194777D01*
X291992Y194708D01*
X291933Y194641D01*
X291872Y194576D01*
X291807Y194515D01*
X291740Y194456D01*
X291671Y194400D01*
X291599Y194347D01*
X291524Y194297D01*
X291448Y194251D01*
X291370Y194208D01*
X291290Y194169D01*
X291208Y194133D01*
X291125Y194100D01*
X291040Y194072D01*
X290955Y194047D01*
X290868Y194025D01*
X290780Y194008D01*
X290692Y193995D01*
X290603Y193985D01*
X290514Y193979D01*
X290425Y193977D01*
X288379Y193977D01*
X295577Y190703D02*
X295577Y198069D01*
X297623Y198069D01*
X297712Y198067D01*
X297801Y198061D01*
X297890Y198051D01*
X297978Y198038D01*
X298066Y198021D01*
X298153Y197999D01*
X298238Y197974D01*
X298323Y197946D01*
X298406Y197913D01*
X298488Y197877D01*
X298568Y197838D01*
X298646Y197795D01*
X298722Y197749D01*
X298797Y197699D01*
X298869Y197646D01*
X298938Y197590D01*
X299005Y197531D01*
X299070Y197470D01*
X299131Y197405D01*
X299190Y197338D01*
X299246Y197269D01*
X299299Y197197D01*
X299349Y197122D01*
X299395Y197046D01*
X299438Y196968D01*
X299477Y196888D01*
X299513Y196806D01*
X299546Y196723D01*
X299574Y196638D01*
X299599Y196553D01*
X299621Y196466D01*
X299638Y196378D01*
X299651Y196290D01*
X299661Y196201D01*
X299667Y196112D01*
X299669Y196023D01*
X299669Y192749D01*
X299667Y192660D01*
X299661Y192571D01*
X299651Y192482D01*
X299638Y192394D01*
X299621Y192306D01*
X299599Y192219D01*
X299574Y192134D01*
X299546Y192049D01*
X299513Y191966D01*
X299477Y191884D01*
X299438Y191804D01*
X299395Y191726D01*
X299349Y191650D01*
X299299Y191575D01*
X299246Y191503D01*
X299190Y191434D01*
X299131Y191367D01*
X299070Y191302D01*
X299005Y191241D01*
X298938Y191182D01*
X298869Y191126D01*
X298797Y191073D01*
X298722Y191023D01*
X298646Y190977D01*
X298568Y190934D01*
X298488Y190895D01*
X298406Y190859D01*
X298323Y190826D01*
X298238Y190798D01*
X298153Y190773D01*
X298066Y190751D01*
X297978Y190734D01*
X297890Y190721D01*
X297801Y190711D01*
X297712Y190705D01*
X297623Y190703D01*
X295577Y190703D01*
X265775Y220195D02*
X264548Y220195D01*
X265775Y220195D02*
X265775Y216103D01*
X263320Y216103D01*
X263242Y216105D01*
X263164Y216110D01*
X263087Y216120D01*
X263010Y216133D01*
X262934Y216149D01*
X262859Y216169D01*
X262785Y216193D01*
X262712Y216220D01*
X262640Y216251D01*
X262570Y216285D01*
X262502Y216322D01*
X262435Y216363D01*
X262370Y216407D01*
X262308Y216453D01*
X262248Y216503D01*
X262190Y216555D01*
X262135Y216610D01*
X262083Y216668D01*
X262033Y216728D01*
X261987Y216790D01*
X261943Y216855D01*
X261902Y216922D01*
X261865Y216990D01*
X261831Y217060D01*
X261800Y217132D01*
X261773Y217205D01*
X261749Y217279D01*
X261729Y217354D01*
X261713Y217430D01*
X261700Y217507D01*
X261690Y217584D01*
X261685Y217662D01*
X261683Y217740D01*
X261683Y221832D01*
X261685Y221912D01*
X261691Y221992D01*
X261701Y222072D01*
X261714Y222151D01*
X261732Y222230D01*
X261753Y222307D01*
X261779Y222383D01*
X261808Y222458D01*
X261840Y222532D01*
X261876Y222604D01*
X261916Y222674D01*
X261959Y222741D01*
X262005Y222807D01*
X262055Y222870D01*
X262107Y222931D01*
X262162Y222990D01*
X262221Y223045D01*
X262281Y223097D01*
X262345Y223147D01*
X262411Y223193D01*
X262478Y223236D01*
X262548Y223276D01*
X262620Y223312D01*
X262694Y223344D01*
X262768Y223373D01*
X262845Y223399D01*
X262922Y223420D01*
X263001Y223438D01*
X263080Y223451D01*
X263160Y223461D01*
X263240Y223467D01*
X263320Y223469D01*
X265775Y223469D01*
X269604Y223469D02*
X269604Y216103D01*
X269604Y223469D02*
X271650Y223469D01*
X271739Y223467D01*
X271828Y223461D01*
X271917Y223451D01*
X272005Y223438D01*
X272093Y223421D01*
X272180Y223399D01*
X272265Y223374D01*
X272350Y223346D01*
X272433Y223313D01*
X272515Y223277D01*
X272595Y223238D01*
X272673Y223195D01*
X272749Y223149D01*
X272824Y223099D01*
X272896Y223046D01*
X272965Y222990D01*
X273032Y222931D01*
X273097Y222870D01*
X273158Y222805D01*
X273217Y222738D01*
X273273Y222669D01*
X273326Y222597D01*
X273376Y222522D01*
X273422Y222446D01*
X273465Y222368D01*
X273504Y222288D01*
X273540Y222206D01*
X273573Y222123D01*
X273601Y222038D01*
X273626Y221953D01*
X273648Y221866D01*
X273665Y221778D01*
X273678Y221690D01*
X273688Y221601D01*
X273694Y221512D01*
X273696Y221423D01*
X273694Y221334D01*
X273688Y221245D01*
X273678Y221156D01*
X273665Y221068D01*
X273648Y220980D01*
X273626Y220893D01*
X273601Y220808D01*
X273573Y220723D01*
X273540Y220640D01*
X273504Y220558D01*
X273465Y220478D01*
X273422Y220400D01*
X273376Y220324D01*
X273326Y220249D01*
X273273Y220177D01*
X273217Y220108D01*
X273158Y220041D01*
X273097Y219976D01*
X273032Y219915D01*
X272965Y219856D01*
X272896Y219800D01*
X272824Y219747D01*
X272749Y219697D01*
X272673Y219651D01*
X272595Y219608D01*
X272515Y219569D01*
X272433Y219533D01*
X272350Y219500D01*
X272265Y219472D01*
X272180Y219447D01*
X272093Y219425D01*
X272005Y219408D01*
X271917Y219395D01*
X271828Y219385D01*
X271739Y219379D01*
X271650Y219377D01*
X269604Y219377D01*
X277140Y216103D02*
X277140Y223469D01*
X276322Y216103D02*
X277959Y216103D01*
X277959Y223469D02*
X276322Y223469D01*
X280946Y221423D02*
X280946Y218149D01*
X280946Y221423D02*
X280948Y221512D01*
X280954Y221601D01*
X280964Y221690D01*
X280977Y221778D01*
X280994Y221866D01*
X281016Y221953D01*
X281041Y222038D01*
X281069Y222123D01*
X281102Y222206D01*
X281138Y222288D01*
X281177Y222368D01*
X281220Y222446D01*
X281266Y222522D01*
X281316Y222597D01*
X281369Y222669D01*
X281425Y222738D01*
X281484Y222805D01*
X281545Y222870D01*
X281610Y222931D01*
X281677Y222990D01*
X281746Y223046D01*
X281818Y223099D01*
X281893Y223149D01*
X281969Y223195D01*
X282047Y223238D01*
X282127Y223277D01*
X282209Y223313D01*
X282292Y223346D01*
X282377Y223374D01*
X282462Y223399D01*
X282549Y223421D01*
X282637Y223438D01*
X282725Y223451D01*
X282814Y223461D01*
X282903Y223467D01*
X282992Y223469D01*
X283081Y223467D01*
X283170Y223461D01*
X283259Y223451D01*
X283347Y223438D01*
X283435Y223421D01*
X283522Y223399D01*
X283607Y223374D01*
X283692Y223346D01*
X283775Y223313D01*
X283857Y223277D01*
X283937Y223238D01*
X284015Y223195D01*
X284091Y223149D01*
X284166Y223099D01*
X284238Y223046D01*
X284307Y222990D01*
X284374Y222931D01*
X284439Y222870D01*
X284500Y222805D01*
X284559Y222738D01*
X284615Y222669D01*
X284668Y222597D01*
X284718Y222522D01*
X284764Y222446D01*
X284807Y222368D01*
X284846Y222288D01*
X284882Y222206D01*
X284915Y222123D01*
X284943Y222038D01*
X284968Y221953D01*
X284990Y221866D01*
X285007Y221778D01*
X285020Y221690D01*
X285030Y221601D01*
X285036Y221512D01*
X285038Y221423D01*
X285039Y221423D02*
X285039Y218149D01*
X285038Y218149D02*
X285036Y218060D01*
X285030Y217971D01*
X285020Y217882D01*
X285007Y217794D01*
X284990Y217706D01*
X284968Y217619D01*
X284943Y217534D01*
X284915Y217449D01*
X284882Y217366D01*
X284846Y217284D01*
X284807Y217204D01*
X284764Y217126D01*
X284718Y217050D01*
X284668Y216975D01*
X284615Y216903D01*
X284559Y216834D01*
X284500Y216767D01*
X284439Y216702D01*
X284374Y216641D01*
X284307Y216582D01*
X284238Y216526D01*
X284166Y216473D01*
X284091Y216423D01*
X284015Y216377D01*
X283937Y216334D01*
X283857Y216295D01*
X283775Y216259D01*
X283692Y216226D01*
X283607Y216198D01*
X283522Y216173D01*
X283435Y216151D01*
X283347Y216134D01*
X283259Y216121D01*
X283170Y216111D01*
X283081Y216105D01*
X282992Y216103D01*
X282903Y216105D01*
X282814Y216111D01*
X282725Y216121D01*
X282637Y216134D01*
X282549Y216151D01*
X282462Y216173D01*
X282377Y216198D01*
X282292Y216226D01*
X282209Y216259D01*
X282127Y216295D01*
X282047Y216334D01*
X281969Y216377D01*
X281893Y216423D01*
X281818Y216473D01*
X281746Y216526D01*
X281677Y216582D01*
X281610Y216641D01*
X281545Y216702D01*
X281484Y216767D01*
X281425Y216834D01*
X281369Y216903D01*
X281316Y216975D01*
X281266Y217050D01*
X281220Y217126D01*
X281177Y217204D01*
X281138Y217284D01*
X281102Y217366D01*
X281069Y217449D01*
X281041Y217534D01*
X281016Y217619D01*
X280994Y217706D01*
X280977Y217794D01*
X280964Y217882D01*
X280954Y217971D01*
X280948Y218060D01*
X280946Y218149D01*
X288262Y221832D02*
X290308Y223469D01*
X290308Y216103D01*
X288262Y216103D02*
X292354Y216103D01*
X295577Y220195D02*
X298032Y220195D01*
X298110Y220193D01*
X298188Y220188D01*
X298265Y220178D01*
X298342Y220165D01*
X298418Y220149D01*
X298493Y220129D01*
X298567Y220105D01*
X298640Y220078D01*
X298712Y220047D01*
X298782Y220013D01*
X298851Y219976D01*
X298917Y219935D01*
X298982Y219891D01*
X299044Y219845D01*
X299104Y219795D01*
X299162Y219743D01*
X299217Y219688D01*
X299269Y219630D01*
X299319Y219570D01*
X299365Y219508D01*
X299409Y219443D01*
X299450Y219377D01*
X299487Y219308D01*
X299521Y219238D01*
X299552Y219166D01*
X299579Y219093D01*
X299603Y219019D01*
X299623Y218944D01*
X299639Y218868D01*
X299652Y218791D01*
X299662Y218714D01*
X299667Y218636D01*
X299669Y218558D01*
X299669Y218149D01*
X299667Y218060D01*
X299661Y217971D01*
X299651Y217882D01*
X299638Y217794D01*
X299621Y217706D01*
X299599Y217619D01*
X299574Y217534D01*
X299546Y217449D01*
X299513Y217366D01*
X299477Y217284D01*
X299438Y217204D01*
X299395Y217126D01*
X299349Y217050D01*
X299299Y216975D01*
X299246Y216903D01*
X299190Y216834D01*
X299131Y216767D01*
X299070Y216702D01*
X299005Y216641D01*
X298938Y216582D01*
X298869Y216526D01*
X298797Y216473D01*
X298722Y216423D01*
X298646Y216377D01*
X298568Y216334D01*
X298488Y216295D01*
X298406Y216259D01*
X298323Y216226D01*
X298238Y216198D01*
X298153Y216173D01*
X298066Y216151D01*
X297978Y216134D01*
X297890Y216121D01*
X297801Y216111D01*
X297712Y216105D01*
X297623Y216103D01*
X297534Y216105D01*
X297445Y216111D01*
X297356Y216121D01*
X297268Y216134D01*
X297180Y216151D01*
X297093Y216173D01*
X297008Y216198D01*
X296923Y216226D01*
X296840Y216259D01*
X296758Y216295D01*
X296678Y216334D01*
X296600Y216377D01*
X296524Y216423D01*
X296449Y216473D01*
X296377Y216526D01*
X296308Y216582D01*
X296241Y216641D01*
X296176Y216702D01*
X296115Y216767D01*
X296056Y216834D01*
X296000Y216903D01*
X295947Y216975D01*
X295897Y217050D01*
X295851Y217126D01*
X295808Y217204D01*
X295769Y217284D01*
X295733Y217366D01*
X295700Y217449D01*
X295672Y217534D01*
X295647Y217619D01*
X295625Y217706D01*
X295608Y217794D01*
X295595Y217882D01*
X295585Y217971D01*
X295579Y218060D01*
X295577Y218149D01*
X295577Y220195D01*
X295579Y220309D01*
X295585Y220423D01*
X295595Y220537D01*
X295609Y220651D01*
X295627Y220764D01*
X295649Y220876D01*
X295674Y220987D01*
X295704Y221097D01*
X295737Y221207D01*
X295774Y221315D01*
X295815Y221421D01*
X295860Y221527D01*
X295908Y221630D01*
X295960Y221732D01*
X296016Y221832D01*
X296074Y221930D01*
X296137Y222026D01*
X296202Y222119D01*
X296271Y222211D01*
X296343Y222299D01*
X296418Y222386D01*
X296496Y222469D01*
X296577Y222550D01*
X296660Y222628D01*
X296747Y222703D01*
X296835Y222775D01*
X296927Y222844D01*
X297020Y222909D01*
X297116Y222971D01*
X297214Y223030D01*
X297314Y223086D01*
X297416Y223138D01*
X297519Y223186D01*
X297625Y223231D01*
X297731Y223272D01*
X297839Y223309D01*
X297949Y223342D01*
X298059Y223372D01*
X298170Y223397D01*
X298282Y223419D01*
X298395Y223437D01*
X298509Y223451D01*
X298623Y223461D01*
X298737Y223467D01*
X298851Y223469D01*
X265775Y245595D02*
X264548Y245595D01*
X265775Y245595D02*
X265775Y241503D01*
X263320Y241503D01*
X263242Y241505D01*
X263164Y241510D01*
X263087Y241520D01*
X263010Y241533D01*
X262934Y241549D01*
X262859Y241569D01*
X262785Y241593D01*
X262712Y241620D01*
X262640Y241651D01*
X262570Y241685D01*
X262502Y241722D01*
X262435Y241763D01*
X262370Y241807D01*
X262308Y241853D01*
X262248Y241903D01*
X262190Y241955D01*
X262135Y242010D01*
X262083Y242068D01*
X262033Y242128D01*
X261987Y242190D01*
X261943Y242255D01*
X261902Y242322D01*
X261865Y242390D01*
X261831Y242460D01*
X261800Y242532D01*
X261773Y242605D01*
X261749Y242679D01*
X261729Y242754D01*
X261713Y242830D01*
X261700Y242907D01*
X261690Y242984D01*
X261685Y243062D01*
X261683Y243140D01*
X261683Y247232D01*
X261685Y247312D01*
X261691Y247392D01*
X261701Y247472D01*
X261714Y247551D01*
X261732Y247630D01*
X261753Y247707D01*
X261779Y247783D01*
X261808Y247858D01*
X261840Y247932D01*
X261876Y248004D01*
X261916Y248074D01*
X261959Y248141D01*
X262005Y248207D01*
X262055Y248270D01*
X262107Y248331D01*
X262162Y248390D01*
X262221Y248445D01*
X262281Y248497D01*
X262345Y248547D01*
X262411Y248593D01*
X262478Y248636D01*
X262548Y248676D01*
X262620Y248712D01*
X262694Y248744D01*
X262768Y248773D01*
X262845Y248799D01*
X262922Y248820D01*
X263001Y248838D01*
X263080Y248851D01*
X263160Y248861D01*
X263240Y248867D01*
X263320Y248869D01*
X265775Y248869D01*
X269604Y248869D02*
X269604Y241503D01*
X269604Y248869D02*
X271650Y248869D01*
X271739Y248867D01*
X271828Y248861D01*
X271917Y248851D01*
X272005Y248838D01*
X272093Y248821D01*
X272180Y248799D01*
X272265Y248774D01*
X272350Y248746D01*
X272433Y248713D01*
X272515Y248677D01*
X272595Y248638D01*
X272673Y248595D01*
X272749Y248549D01*
X272824Y248499D01*
X272896Y248446D01*
X272965Y248390D01*
X273032Y248331D01*
X273097Y248270D01*
X273158Y248205D01*
X273217Y248138D01*
X273273Y248069D01*
X273326Y247997D01*
X273376Y247922D01*
X273422Y247846D01*
X273465Y247768D01*
X273504Y247688D01*
X273540Y247606D01*
X273573Y247523D01*
X273601Y247438D01*
X273626Y247353D01*
X273648Y247266D01*
X273665Y247178D01*
X273678Y247090D01*
X273688Y247001D01*
X273694Y246912D01*
X273696Y246823D01*
X273694Y246734D01*
X273688Y246645D01*
X273678Y246556D01*
X273665Y246468D01*
X273648Y246380D01*
X273626Y246293D01*
X273601Y246208D01*
X273573Y246123D01*
X273540Y246040D01*
X273504Y245958D01*
X273465Y245878D01*
X273422Y245800D01*
X273376Y245724D01*
X273326Y245649D01*
X273273Y245577D01*
X273217Y245508D01*
X273158Y245441D01*
X273097Y245376D01*
X273032Y245315D01*
X272965Y245256D01*
X272896Y245200D01*
X272824Y245147D01*
X272749Y245097D01*
X272673Y245051D01*
X272595Y245008D01*
X272515Y244969D01*
X272433Y244933D01*
X272350Y244900D01*
X272265Y244872D01*
X272180Y244847D01*
X272093Y244825D01*
X272005Y244808D01*
X271917Y244795D01*
X271828Y244785D01*
X271739Y244779D01*
X271650Y244777D01*
X269604Y244777D01*
X277140Y241503D02*
X277140Y248869D01*
X276322Y241503D02*
X277959Y241503D01*
X277959Y248869D02*
X276322Y248869D01*
X280946Y246823D02*
X280946Y243549D01*
X280946Y246823D02*
X280948Y246912D01*
X280954Y247001D01*
X280964Y247090D01*
X280977Y247178D01*
X280994Y247266D01*
X281016Y247353D01*
X281041Y247438D01*
X281069Y247523D01*
X281102Y247606D01*
X281138Y247688D01*
X281177Y247768D01*
X281220Y247846D01*
X281266Y247922D01*
X281316Y247997D01*
X281369Y248069D01*
X281425Y248138D01*
X281484Y248205D01*
X281545Y248270D01*
X281610Y248331D01*
X281677Y248390D01*
X281746Y248446D01*
X281818Y248499D01*
X281893Y248549D01*
X281969Y248595D01*
X282047Y248638D01*
X282127Y248677D01*
X282209Y248713D01*
X282292Y248746D01*
X282377Y248774D01*
X282462Y248799D01*
X282549Y248821D01*
X282637Y248838D01*
X282725Y248851D01*
X282814Y248861D01*
X282903Y248867D01*
X282992Y248869D01*
X283081Y248867D01*
X283170Y248861D01*
X283259Y248851D01*
X283347Y248838D01*
X283435Y248821D01*
X283522Y248799D01*
X283607Y248774D01*
X283692Y248746D01*
X283775Y248713D01*
X283857Y248677D01*
X283937Y248638D01*
X284015Y248595D01*
X284091Y248549D01*
X284166Y248499D01*
X284238Y248446D01*
X284307Y248390D01*
X284374Y248331D01*
X284439Y248270D01*
X284500Y248205D01*
X284559Y248138D01*
X284615Y248069D01*
X284668Y247997D01*
X284718Y247922D01*
X284764Y247846D01*
X284807Y247768D01*
X284846Y247688D01*
X284882Y247606D01*
X284915Y247523D01*
X284943Y247438D01*
X284968Y247353D01*
X284990Y247266D01*
X285007Y247178D01*
X285020Y247090D01*
X285030Y247001D01*
X285036Y246912D01*
X285038Y246823D01*
X285039Y246823D02*
X285039Y243549D01*
X285038Y243549D02*
X285036Y243460D01*
X285030Y243371D01*
X285020Y243282D01*
X285007Y243194D01*
X284990Y243106D01*
X284968Y243019D01*
X284943Y242934D01*
X284915Y242849D01*
X284882Y242766D01*
X284846Y242684D01*
X284807Y242604D01*
X284764Y242526D01*
X284718Y242450D01*
X284668Y242375D01*
X284615Y242303D01*
X284559Y242234D01*
X284500Y242167D01*
X284439Y242102D01*
X284374Y242041D01*
X284307Y241982D01*
X284238Y241926D01*
X284166Y241873D01*
X284091Y241823D01*
X284015Y241777D01*
X283937Y241734D01*
X283857Y241695D01*
X283775Y241659D01*
X283692Y241626D01*
X283607Y241598D01*
X283522Y241573D01*
X283435Y241551D01*
X283347Y241534D01*
X283259Y241521D01*
X283170Y241511D01*
X283081Y241505D01*
X282992Y241503D01*
X282903Y241505D01*
X282814Y241511D01*
X282725Y241521D01*
X282637Y241534D01*
X282549Y241551D01*
X282462Y241573D01*
X282377Y241598D01*
X282292Y241626D01*
X282209Y241659D01*
X282127Y241695D01*
X282047Y241734D01*
X281969Y241777D01*
X281893Y241823D01*
X281818Y241873D01*
X281746Y241926D01*
X281677Y241982D01*
X281610Y242041D01*
X281545Y242102D01*
X281484Y242167D01*
X281425Y242234D01*
X281369Y242303D01*
X281316Y242375D01*
X281266Y242450D01*
X281220Y242526D01*
X281177Y242604D01*
X281138Y242684D01*
X281102Y242766D01*
X281069Y242849D01*
X281041Y242934D01*
X281016Y243019D01*
X280994Y243106D01*
X280977Y243194D01*
X280964Y243282D01*
X280954Y243371D01*
X280948Y243460D01*
X280946Y243549D01*
X288262Y247232D02*
X290308Y248869D01*
X290308Y241503D01*
X288262Y241503D02*
X292354Y241503D01*
X295577Y243140D02*
X297214Y248869D01*
X295577Y243140D02*
X299669Y243140D01*
X298441Y244777D02*
X298441Y241503D01*
X265775Y270995D02*
X264548Y270995D01*
X265775Y270995D02*
X265775Y266903D01*
X263320Y266903D01*
X263242Y266905D01*
X263164Y266910D01*
X263087Y266920D01*
X263010Y266933D01*
X262934Y266949D01*
X262859Y266969D01*
X262785Y266993D01*
X262712Y267020D01*
X262640Y267051D01*
X262570Y267085D01*
X262502Y267122D01*
X262435Y267163D01*
X262370Y267207D01*
X262308Y267253D01*
X262248Y267303D01*
X262190Y267355D01*
X262135Y267410D01*
X262083Y267468D01*
X262033Y267528D01*
X261987Y267590D01*
X261943Y267655D01*
X261902Y267722D01*
X261865Y267790D01*
X261831Y267860D01*
X261800Y267932D01*
X261773Y268005D01*
X261749Y268079D01*
X261729Y268154D01*
X261713Y268230D01*
X261700Y268307D01*
X261690Y268384D01*
X261685Y268462D01*
X261683Y268540D01*
X261683Y272632D01*
X261685Y272712D01*
X261691Y272792D01*
X261701Y272872D01*
X261714Y272951D01*
X261732Y273030D01*
X261753Y273107D01*
X261779Y273183D01*
X261808Y273258D01*
X261840Y273332D01*
X261876Y273404D01*
X261916Y273474D01*
X261959Y273541D01*
X262005Y273607D01*
X262055Y273670D01*
X262107Y273731D01*
X262162Y273790D01*
X262221Y273845D01*
X262281Y273897D01*
X262345Y273947D01*
X262411Y273993D01*
X262478Y274036D01*
X262548Y274076D01*
X262620Y274112D01*
X262694Y274144D01*
X262768Y274173D01*
X262845Y274199D01*
X262922Y274220D01*
X263001Y274238D01*
X263080Y274251D01*
X263160Y274261D01*
X263240Y274267D01*
X263320Y274269D01*
X265775Y274269D01*
X269604Y274269D02*
X269604Y266903D01*
X269604Y274269D02*
X271650Y274269D01*
X271739Y274267D01*
X271828Y274261D01*
X271917Y274251D01*
X272005Y274238D01*
X272093Y274221D01*
X272180Y274199D01*
X272265Y274174D01*
X272350Y274146D01*
X272433Y274113D01*
X272515Y274077D01*
X272595Y274038D01*
X272673Y273995D01*
X272749Y273949D01*
X272824Y273899D01*
X272896Y273846D01*
X272965Y273790D01*
X273032Y273731D01*
X273097Y273670D01*
X273158Y273605D01*
X273217Y273538D01*
X273273Y273469D01*
X273326Y273397D01*
X273376Y273322D01*
X273422Y273246D01*
X273465Y273168D01*
X273504Y273088D01*
X273540Y273006D01*
X273573Y272923D01*
X273601Y272838D01*
X273626Y272753D01*
X273648Y272666D01*
X273665Y272578D01*
X273678Y272490D01*
X273688Y272401D01*
X273694Y272312D01*
X273696Y272223D01*
X273694Y272134D01*
X273688Y272045D01*
X273678Y271956D01*
X273665Y271868D01*
X273648Y271780D01*
X273626Y271693D01*
X273601Y271608D01*
X273573Y271523D01*
X273540Y271440D01*
X273504Y271358D01*
X273465Y271278D01*
X273422Y271200D01*
X273376Y271124D01*
X273326Y271049D01*
X273273Y270977D01*
X273217Y270908D01*
X273158Y270841D01*
X273097Y270776D01*
X273032Y270715D01*
X272965Y270656D01*
X272896Y270600D01*
X272824Y270547D01*
X272749Y270497D01*
X272673Y270451D01*
X272595Y270408D01*
X272515Y270369D01*
X272433Y270333D01*
X272350Y270300D01*
X272265Y270272D01*
X272180Y270247D01*
X272093Y270225D01*
X272005Y270208D01*
X271917Y270195D01*
X271828Y270185D01*
X271739Y270179D01*
X271650Y270177D01*
X269604Y270177D01*
X277140Y266903D02*
X277140Y274269D01*
X276322Y266903D02*
X277959Y266903D01*
X277959Y274269D02*
X276322Y274269D01*
X280946Y272223D02*
X280946Y268949D01*
X280946Y272223D02*
X280948Y272312D01*
X280954Y272401D01*
X280964Y272490D01*
X280977Y272578D01*
X280994Y272666D01*
X281016Y272753D01*
X281041Y272838D01*
X281069Y272923D01*
X281102Y273006D01*
X281138Y273088D01*
X281177Y273168D01*
X281220Y273246D01*
X281266Y273322D01*
X281316Y273397D01*
X281369Y273469D01*
X281425Y273538D01*
X281484Y273605D01*
X281545Y273670D01*
X281610Y273731D01*
X281677Y273790D01*
X281746Y273846D01*
X281818Y273899D01*
X281893Y273949D01*
X281969Y273995D01*
X282047Y274038D01*
X282127Y274077D01*
X282209Y274113D01*
X282292Y274146D01*
X282377Y274174D01*
X282462Y274199D01*
X282549Y274221D01*
X282637Y274238D01*
X282725Y274251D01*
X282814Y274261D01*
X282903Y274267D01*
X282992Y274269D01*
X283081Y274267D01*
X283170Y274261D01*
X283259Y274251D01*
X283347Y274238D01*
X283435Y274221D01*
X283522Y274199D01*
X283607Y274174D01*
X283692Y274146D01*
X283775Y274113D01*
X283857Y274077D01*
X283937Y274038D01*
X284015Y273995D01*
X284091Y273949D01*
X284166Y273899D01*
X284238Y273846D01*
X284307Y273790D01*
X284374Y273731D01*
X284439Y273670D01*
X284500Y273605D01*
X284559Y273538D01*
X284615Y273469D01*
X284668Y273397D01*
X284718Y273322D01*
X284764Y273246D01*
X284807Y273168D01*
X284846Y273088D01*
X284882Y273006D01*
X284915Y272923D01*
X284943Y272838D01*
X284968Y272753D01*
X284990Y272666D01*
X285007Y272578D01*
X285020Y272490D01*
X285030Y272401D01*
X285036Y272312D01*
X285038Y272223D01*
X285039Y272223D02*
X285039Y268949D01*
X285038Y268949D02*
X285036Y268860D01*
X285030Y268771D01*
X285020Y268682D01*
X285007Y268594D01*
X284990Y268506D01*
X284968Y268419D01*
X284943Y268334D01*
X284915Y268249D01*
X284882Y268166D01*
X284846Y268084D01*
X284807Y268004D01*
X284764Y267926D01*
X284718Y267850D01*
X284668Y267775D01*
X284615Y267703D01*
X284559Y267634D01*
X284500Y267567D01*
X284439Y267502D01*
X284374Y267441D01*
X284307Y267382D01*
X284238Y267326D01*
X284166Y267273D01*
X284091Y267223D01*
X284015Y267177D01*
X283937Y267134D01*
X283857Y267095D01*
X283775Y267059D01*
X283692Y267026D01*
X283607Y266998D01*
X283522Y266973D01*
X283435Y266951D01*
X283347Y266934D01*
X283259Y266921D01*
X283170Y266911D01*
X283081Y266905D01*
X282992Y266903D01*
X282903Y266905D01*
X282814Y266911D01*
X282725Y266921D01*
X282637Y266934D01*
X282549Y266951D01*
X282462Y266973D01*
X282377Y266998D01*
X282292Y267026D01*
X282209Y267059D01*
X282127Y267095D01*
X282047Y267134D01*
X281969Y267177D01*
X281893Y267223D01*
X281818Y267273D01*
X281746Y267326D01*
X281677Y267382D01*
X281610Y267441D01*
X281545Y267502D01*
X281484Y267567D01*
X281425Y267634D01*
X281369Y267703D01*
X281316Y267775D01*
X281266Y267850D01*
X281220Y267926D01*
X281177Y268004D01*
X281138Y268084D01*
X281102Y268166D01*
X281069Y268249D01*
X281041Y268334D01*
X281016Y268419D01*
X280994Y268506D01*
X280977Y268594D01*
X280964Y268682D01*
X280954Y268771D01*
X280948Y268860D01*
X280946Y268949D01*
X288262Y272632D02*
X290308Y274269D01*
X290308Y266903D01*
X288262Y266903D02*
X292354Y266903D01*
X299670Y272428D02*
X299668Y272513D01*
X299662Y272598D01*
X299652Y272682D01*
X299639Y272766D01*
X299621Y272850D01*
X299600Y272932D01*
X299575Y273013D01*
X299546Y273093D01*
X299513Y273172D01*
X299477Y273249D01*
X299437Y273324D01*
X299394Y273398D01*
X299348Y273469D01*
X299298Y273538D01*
X299245Y273605D01*
X299189Y273669D01*
X299130Y273730D01*
X299069Y273789D01*
X299005Y273845D01*
X298938Y273898D01*
X298869Y273948D01*
X298798Y273994D01*
X298724Y274037D01*
X298649Y274077D01*
X298572Y274113D01*
X298493Y274146D01*
X298413Y274175D01*
X298332Y274200D01*
X298250Y274221D01*
X298166Y274239D01*
X298082Y274252D01*
X297998Y274262D01*
X297913Y274268D01*
X297828Y274270D01*
X297828Y274269D02*
X297732Y274267D01*
X297636Y274261D01*
X297541Y274251D01*
X297446Y274238D01*
X297351Y274220D01*
X297258Y274199D01*
X297165Y274174D01*
X297074Y274145D01*
X296983Y274113D01*
X296894Y274077D01*
X296807Y274037D01*
X296721Y273994D01*
X296637Y273948D01*
X296555Y273898D01*
X296475Y273844D01*
X296398Y273788D01*
X296323Y273728D01*
X296250Y273666D01*
X296180Y273600D01*
X296112Y273532D01*
X296047Y273461D01*
X295986Y273388D01*
X295927Y273312D01*
X295871Y273233D01*
X295819Y273153D01*
X295770Y273070D01*
X295724Y272986D01*
X295682Y272900D01*
X295644Y272812D01*
X295609Y272723D01*
X295577Y272632D01*
X299055Y270996D02*
X299115Y271055D01*
X299172Y271117D01*
X299227Y271181D01*
X299278Y271248D01*
X299327Y271317D01*
X299373Y271387D01*
X299416Y271460D01*
X299456Y271534D01*
X299492Y271610D01*
X299525Y271688D01*
X299555Y271767D01*
X299582Y271847D01*
X299605Y271928D01*
X299624Y272010D01*
X299640Y272092D01*
X299653Y272176D01*
X299662Y272260D01*
X299667Y272344D01*
X299669Y272428D01*
X299055Y270995D02*
X295577Y266903D01*
X299669Y266903D01*
X265775Y296395D02*
X264548Y296395D01*
X265775Y296395D02*
X265775Y292303D01*
X263320Y292303D01*
X263242Y292305D01*
X263164Y292310D01*
X263087Y292320D01*
X263010Y292333D01*
X262934Y292349D01*
X262859Y292369D01*
X262785Y292393D01*
X262712Y292420D01*
X262640Y292451D01*
X262570Y292485D01*
X262502Y292522D01*
X262435Y292563D01*
X262370Y292607D01*
X262308Y292653D01*
X262248Y292703D01*
X262190Y292755D01*
X262135Y292810D01*
X262083Y292868D01*
X262033Y292928D01*
X261987Y292990D01*
X261943Y293055D01*
X261902Y293122D01*
X261865Y293190D01*
X261831Y293260D01*
X261800Y293332D01*
X261773Y293405D01*
X261749Y293479D01*
X261729Y293554D01*
X261713Y293630D01*
X261700Y293707D01*
X261690Y293784D01*
X261685Y293862D01*
X261683Y293940D01*
X261683Y298032D01*
X261685Y298112D01*
X261691Y298192D01*
X261701Y298272D01*
X261714Y298351D01*
X261732Y298430D01*
X261753Y298507D01*
X261779Y298583D01*
X261808Y298658D01*
X261840Y298732D01*
X261876Y298804D01*
X261916Y298874D01*
X261959Y298941D01*
X262005Y299007D01*
X262055Y299070D01*
X262107Y299131D01*
X262162Y299190D01*
X262221Y299245D01*
X262281Y299297D01*
X262345Y299347D01*
X262411Y299393D01*
X262478Y299436D01*
X262548Y299476D01*
X262620Y299512D01*
X262694Y299544D01*
X262768Y299573D01*
X262845Y299599D01*
X262922Y299620D01*
X263001Y299638D01*
X263080Y299651D01*
X263160Y299661D01*
X263240Y299667D01*
X263320Y299669D01*
X265775Y299669D01*
X269604Y299669D02*
X269604Y292303D01*
X269604Y299669D02*
X271650Y299669D01*
X271739Y299667D01*
X271828Y299661D01*
X271917Y299651D01*
X272005Y299638D01*
X272093Y299621D01*
X272180Y299599D01*
X272265Y299574D01*
X272350Y299546D01*
X272433Y299513D01*
X272515Y299477D01*
X272595Y299438D01*
X272673Y299395D01*
X272749Y299349D01*
X272824Y299299D01*
X272896Y299246D01*
X272965Y299190D01*
X273032Y299131D01*
X273097Y299070D01*
X273158Y299005D01*
X273217Y298938D01*
X273273Y298869D01*
X273326Y298797D01*
X273376Y298722D01*
X273422Y298646D01*
X273465Y298568D01*
X273504Y298488D01*
X273540Y298406D01*
X273573Y298323D01*
X273601Y298238D01*
X273626Y298153D01*
X273648Y298066D01*
X273665Y297978D01*
X273678Y297890D01*
X273688Y297801D01*
X273694Y297712D01*
X273696Y297623D01*
X273694Y297534D01*
X273688Y297445D01*
X273678Y297356D01*
X273665Y297268D01*
X273648Y297180D01*
X273626Y297093D01*
X273601Y297008D01*
X273573Y296923D01*
X273540Y296840D01*
X273504Y296758D01*
X273465Y296678D01*
X273422Y296600D01*
X273376Y296524D01*
X273326Y296449D01*
X273273Y296377D01*
X273217Y296308D01*
X273158Y296241D01*
X273097Y296176D01*
X273032Y296115D01*
X272965Y296056D01*
X272896Y296000D01*
X272824Y295947D01*
X272749Y295897D01*
X272673Y295851D01*
X272595Y295808D01*
X272515Y295769D01*
X272433Y295733D01*
X272350Y295700D01*
X272265Y295672D01*
X272180Y295647D01*
X272093Y295625D01*
X272005Y295608D01*
X271917Y295595D01*
X271828Y295585D01*
X271739Y295579D01*
X271650Y295577D01*
X269604Y295577D01*
X277140Y292303D02*
X277140Y299669D01*
X276322Y292303D02*
X277959Y292303D01*
X277959Y299669D02*
X276322Y299669D01*
X280946Y297623D02*
X280946Y294349D01*
X280946Y297623D02*
X280948Y297712D01*
X280954Y297801D01*
X280964Y297890D01*
X280977Y297978D01*
X280994Y298066D01*
X281016Y298153D01*
X281041Y298238D01*
X281069Y298323D01*
X281102Y298406D01*
X281138Y298488D01*
X281177Y298568D01*
X281220Y298646D01*
X281266Y298722D01*
X281316Y298797D01*
X281369Y298869D01*
X281425Y298938D01*
X281484Y299005D01*
X281545Y299070D01*
X281610Y299131D01*
X281677Y299190D01*
X281746Y299246D01*
X281818Y299299D01*
X281893Y299349D01*
X281969Y299395D01*
X282047Y299438D01*
X282127Y299477D01*
X282209Y299513D01*
X282292Y299546D01*
X282377Y299574D01*
X282462Y299599D01*
X282549Y299621D01*
X282637Y299638D01*
X282725Y299651D01*
X282814Y299661D01*
X282903Y299667D01*
X282992Y299669D01*
X283081Y299667D01*
X283170Y299661D01*
X283259Y299651D01*
X283347Y299638D01*
X283435Y299621D01*
X283522Y299599D01*
X283607Y299574D01*
X283692Y299546D01*
X283775Y299513D01*
X283857Y299477D01*
X283937Y299438D01*
X284015Y299395D01*
X284091Y299349D01*
X284166Y299299D01*
X284238Y299246D01*
X284307Y299190D01*
X284374Y299131D01*
X284439Y299070D01*
X284500Y299005D01*
X284559Y298938D01*
X284615Y298869D01*
X284668Y298797D01*
X284718Y298722D01*
X284764Y298646D01*
X284807Y298568D01*
X284846Y298488D01*
X284882Y298406D01*
X284915Y298323D01*
X284943Y298238D01*
X284968Y298153D01*
X284990Y298066D01*
X285007Y297978D01*
X285020Y297890D01*
X285030Y297801D01*
X285036Y297712D01*
X285038Y297623D01*
X285039Y297623D02*
X285039Y294349D01*
X285038Y294349D02*
X285036Y294260D01*
X285030Y294171D01*
X285020Y294082D01*
X285007Y293994D01*
X284990Y293906D01*
X284968Y293819D01*
X284943Y293734D01*
X284915Y293649D01*
X284882Y293566D01*
X284846Y293484D01*
X284807Y293404D01*
X284764Y293326D01*
X284718Y293250D01*
X284668Y293175D01*
X284615Y293103D01*
X284559Y293034D01*
X284500Y292967D01*
X284439Y292902D01*
X284374Y292841D01*
X284307Y292782D01*
X284238Y292726D01*
X284166Y292673D01*
X284091Y292623D01*
X284015Y292577D01*
X283937Y292534D01*
X283857Y292495D01*
X283775Y292459D01*
X283692Y292426D01*
X283607Y292398D01*
X283522Y292373D01*
X283435Y292351D01*
X283347Y292334D01*
X283259Y292321D01*
X283170Y292311D01*
X283081Y292305D01*
X282992Y292303D01*
X282903Y292305D01*
X282814Y292311D01*
X282725Y292321D01*
X282637Y292334D01*
X282549Y292351D01*
X282462Y292373D01*
X282377Y292398D01*
X282292Y292426D01*
X282209Y292459D01*
X282127Y292495D01*
X282047Y292534D01*
X281969Y292577D01*
X281893Y292623D01*
X281818Y292673D01*
X281746Y292726D01*
X281677Y292782D01*
X281610Y292841D01*
X281545Y292902D01*
X281484Y292967D01*
X281425Y293034D01*
X281369Y293103D01*
X281316Y293175D01*
X281266Y293250D01*
X281220Y293326D01*
X281177Y293404D01*
X281138Y293484D01*
X281102Y293566D01*
X281069Y293649D01*
X281041Y293734D01*
X281016Y293819D01*
X280994Y293906D01*
X280977Y293994D01*
X280964Y294082D01*
X280954Y294171D01*
X280948Y294260D01*
X280946Y294349D01*
X288262Y298032D02*
X290308Y299669D01*
X290308Y292303D01*
X288262Y292303D02*
X292354Y292303D01*
X295577Y292303D02*
X297623Y292303D01*
X297712Y292305D01*
X297801Y292311D01*
X297890Y292321D01*
X297978Y292334D01*
X298066Y292351D01*
X298153Y292373D01*
X298238Y292398D01*
X298323Y292426D01*
X298406Y292459D01*
X298488Y292495D01*
X298568Y292534D01*
X298646Y292577D01*
X298722Y292623D01*
X298797Y292673D01*
X298869Y292726D01*
X298938Y292782D01*
X299005Y292841D01*
X299070Y292902D01*
X299131Y292967D01*
X299190Y293034D01*
X299246Y293103D01*
X299299Y293175D01*
X299349Y293250D01*
X299395Y293326D01*
X299438Y293404D01*
X299477Y293484D01*
X299513Y293566D01*
X299546Y293649D01*
X299574Y293734D01*
X299599Y293819D01*
X299621Y293906D01*
X299638Y293994D01*
X299651Y294082D01*
X299661Y294171D01*
X299667Y294260D01*
X299669Y294349D01*
X299667Y294438D01*
X299661Y294527D01*
X299651Y294616D01*
X299638Y294704D01*
X299621Y294792D01*
X299599Y294879D01*
X299574Y294964D01*
X299546Y295049D01*
X299513Y295132D01*
X299477Y295214D01*
X299438Y295294D01*
X299395Y295372D01*
X299349Y295448D01*
X299299Y295523D01*
X299246Y295595D01*
X299190Y295664D01*
X299131Y295731D01*
X299070Y295796D01*
X299005Y295857D01*
X298938Y295916D01*
X298869Y295972D01*
X298797Y296025D01*
X298722Y296075D01*
X298646Y296121D01*
X298568Y296164D01*
X298488Y296203D01*
X298406Y296239D01*
X298323Y296272D01*
X298238Y296300D01*
X298153Y296325D01*
X298066Y296347D01*
X297978Y296364D01*
X297890Y296377D01*
X297801Y296387D01*
X297712Y296393D01*
X297623Y296395D01*
X298032Y299669D02*
X295577Y299669D01*
X298032Y299669D02*
X298111Y299667D01*
X298190Y299661D01*
X298269Y299652D01*
X298347Y299639D01*
X298424Y299621D01*
X298500Y299601D01*
X298575Y299576D01*
X298649Y299548D01*
X298722Y299517D01*
X298793Y299481D01*
X298862Y299443D01*
X298929Y299401D01*
X298994Y299356D01*
X299057Y299308D01*
X299118Y299257D01*
X299175Y299203D01*
X299231Y299147D01*
X299283Y299088D01*
X299333Y299026D01*
X299379Y298962D01*
X299423Y298896D01*
X299463Y298828D01*
X299499Y298758D01*
X299533Y298686D01*
X299563Y298612D01*
X299589Y298538D01*
X299612Y298462D01*
X299630Y298385D01*
X299646Y298308D01*
X299657Y298229D01*
X299665Y298151D01*
X299669Y298072D01*
X299669Y297992D01*
X299665Y297913D01*
X299657Y297835D01*
X299646Y297756D01*
X299630Y297679D01*
X299612Y297602D01*
X299589Y297526D01*
X299563Y297452D01*
X299533Y297378D01*
X299499Y297306D01*
X299463Y297236D01*
X299423Y297168D01*
X299379Y297102D01*
X299333Y297038D01*
X299283Y296976D01*
X299231Y296917D01*
X299175Y296861D01*
X299118Y296807D01*
X299057Y296756D01*
X298994Y296708D01*
X298929Y296663D01*
X298862Y296621D01*
X298793Y296583D01*
X298722Y296547D01*
X298649Y296516D01*
X298575Y296488D01*
X298500Y296463D01*
X298424Y296443D01*
X298347Y296425D01*
X298269Y296412D01*
X298190Y296403D01*
X298111Y296397D01*
X298032Y296395D01*
X296395Y296395D01*
X285053Y317703D02*
X282598Y325069D01*
X287509Y325069D02*
X285053Y317703D01*
X291936Y317703D02*
X293573Y317703D01*
X291936Y317703D02*
X291858Y317705D01*
X291780Y317710D01*
X291703Y317720D01*
X291626Y317733D01*
X291550Y317749D01*
X291475Y317769D01*
X291401Y317793D01*
X291328Y317820D01*
X291256Y317851D01*
X291186Y317885D01*
X291118Y317922D01*
X291051Y317963D01*
X290986Y318007D01*
X290924Y318053D01*
X290864Y318103D01*
X290806Y318155D01*
X290751Y318210D01*
X290699Y318268D01*
X290649Y318328D01*
X290603Y318390D01*
X290559Y318455D01*
X290518Y318522D01*
X290481Y318590D01*
X290447Y318660D01*
X290416Y318732D01*
X290389Y318805D01*
X290365Y318879D01*
X290345Y318954D01*
X290329Y319030D01*
X290316Y319107D01*
X290306Y319184D01*
X290301Y319262D01*
X290299Y319340D01*
X290299Y323432D01*
X290301Y323512D01*
X290307Y323592D01*
X290317Y323672D01*
X290330Y323751D01*
X290348Y323830D01*
X290369Y323907D01*
X290395Y323983D01*
X290424Y324058D01*
X290456Y324132D01*
X290492Y324204D01*
X290532Y324274D01*
X290575Y324341D01*
X290621Y324407D01*
X290671Y324470D01*
X290723Y324531D01*
X290778Y324590D01*
X290837Y324645D01*
X290897Y324697D01*
X290961Y324747D01*
X291027Y324793D01*
X291094Y324836D01*
X291164Y324876D01*
X291236Y324912D01*
X291310Y324944D01*
X291384Y324973D01*
X291461Y324999D01*
X291538Y325020D01*
X291617Y325038D01*
X291696Y325051D01*
X291776Y325061D01*
X291856Y325067D01*
X291936Y325069D01*
X293573Y325069D01*
X298032Y317703D02*
X299669Y317703D01*
X298032Y317703D02*
X297954Y317705D01*
X297876Y317710D01*
X297799Y317720D01*
X297722Y317733D01*
X297646Y317749D01*
X297571Y317769D01*
X297497Y317793D01*
X297424Y317820D01*
X297352Y317851D01*
X297282Y317885D01*
X297214Y317922D01*
X297147Y317963D01*
X297082Y318007D01*
X297020Y318053D01*
X296960Y318103D01*
X296902Y318155D01*
X296847Y318210D01*
X296795Y318268D01*
X296745Y318328D01*
X296699Y318390D01*
X296655Y318455D01*
X296614Y318522D01*
X296577Y318590D01*
X296543Y318660D01*
X296512Y318732D01*
X296485Y318805D01*
X296461Y318879D01*
X296441Y318954D01*
X296425Y319030D01*
X296412Y319107D01*
X296402Y319184D01*
X296397Y319262D01*
X296395Y319340D01*
X296395Y323432D01*
X296397Y323512D01*
X296403Y323592D01*
X296413Y323672D01*
X296426Y323751D01*
X296444Y323830D01*
X296465Y323907D01*
X296491Y323983D01*
X296520Y324058D01*
X296552Y324132D01*
X296588Y324204D01*
X296628Y324274D01*
X296671Y324341D01*
X296717Y324407D01*
X296767Y324470D01*
X296819Y324531D01*
X296874Y324590D01*
X296933Y324645D01*
X296993Y324697D01*
X297057Y324747D01*
X297123Y324793D01*
X297190Y324836D01*
X297260Y324876D01*
X297332Y324912D01*
X297406Y324944D01*
X297480Y324973D01*
X297557Y324999D01*
X297634Y325020D01*
X297713Y325038D01*
X297792Y325051D01*
X297872Y325061D01*
X297952Y325067D01*
X298032Y325069D01*
X299669Y325069D01*
X68163Y321795D02*
X66936Y321795D01*
X68163Y321795D02*
X68163Y317703D01*
X65708Y317703D01*
X65630Y317705D01*
X65552Y317710D01*
X65475Y317720D01*
X65398Y317733D01*
X65322Y317749D01*
X65247Y317769D01*
X65173Y317793D01*
X65100Y317820D01*
X65028Y317851D01*
X64958Y317885D01*
X64890Y317922D01*
X64823Y317963D01*
X64758Y318007D01*
X64696Y318053D01*
X64636Y318103D01*
X64578Y318155D01*
X64523Y318210D01*
X64471Y318268D01*
X64421Y318328D01*
X64375Y318390D01*
X64331Y318455D01*
X64290Y318522D01*
X64253Y318590D01*
X64219Y318660D01*
X64188Y318732D01*
X64161Y318805D01*
X64137Y318879D01*
X64117Y318954D01*
X64101Y319030D01*
X64088Y319107D01*
X64078Y319184D01*
X64073Y319262D01*
X64071Y319340D01*
X64071Y323432D01*
X64073Y323510D01*
X64078Y323588D01*
X64088Y323665D01*
X64101Y323742D01*
X64117Y323818D01*
X64137Y323893D01*
X64161Y323967D01*
X64188Y324040D01*
X64219Y324112D01*
X64253Y324182D01*
X64290Y324251D01*
X64331Y324317D01*
X64375Y324382D01*
X64421Y324444D01*
X64471Y324504D01*
X64523Y324562D01*
X64578Y324617D01*
X64636Y324669D01*
X64696Y324719D01*
X64758Y324765D01*
X64823Y324809D01*
X64890Y324850D01*
X64958Y324887D01*
X65028Y324921D01*
X65100Y324952D01*
X65173Y324979D01*
X65247Y325003D01*
X65322Y325023D01*
X65398Y325039D01*
X65475Y325052D01*
X65552Y325062D01*
X65630Y325067D01*
X65708Y325069D01*
X68163Y325069D01*
X71874Y325069D02*
X71874Y317703D01*
X75966Y317703D02*
X71874Y325069D01*
X75966Y325069D02*
X75966Y317703D01*
X79677Y317703D02*
X79677Y325069D01*
X81723Y325069D01*
X81812Y325067D01*
X81901Y325061D01*
X81990Y325051D01*
X82078Y325038D01*
X82166Y325021D01*
X82253Y324999D01*
X82338Y324974D01*
X82423Y324946D01*
X82506Y324913D01*
X82588Y324877D01*
X82668Y324838D01*
X82746Y324795D01*
X82822Y324749D01*
X82897Y324699D01*
X82969Y324646D01*
X83038Y324590D01*
X83105Y324531D01*
X83170Y324470D01*
X83231Y324405D01*
X83290Y324338D01*
X83346Y324269D01*
X83399Y324197D01*
X83449Y324122D01*
X83495Y324046D01*
X83538Y323968D01*
X83577Y323888D01*
X83613Y323806D01*
X83646Y323723D01*
X83674Y323638D01*
X83699Y323553D01*
X83721Y323466D01*
X83738Y323378D01*
X83751Y323290D01*
X83761Y323201D01*
X83767Y323112D01*
X83769Y323023D01*
X83769Y319749D01*
X83767Y319660D01*
X83761Y319571D01*
X83751Y319482D01*
X83738Y319394D01*
X83721Y319306D01*
X83699Y319219D01*
X83674Y319134D01*
X83646Y319049D01*
X83613Y318966D01*
X83577Y318884D01*
X83538Y318804D01*
X83495Y318726D01*
X83449Y318650D01*
X83399Y318575D01*
X83346Y318503D01*
X83290Y318434D01*
X83231Y318367D01*
X83170Y318302D01*
X83105Y318241D01*
X83038Y318182D01*
X82969Y318126D01*
X82897Y318073D01*
X82822Y318023D01*
X82746Y317977D01*
X82668Y317934D01*
X82588Y317895D01*
X82506Y317859D01*
X82423Y317826D01*
X82338Y317798D01*
X82253Y317773D01*
X82166Y317751D01*
X82078Y317734D01*
X81990Y317721D01*
X81901Y317711D01*
X81812Y317705D01*
X81723Y317703D01*
X79677Y317703D01*
X49875Y296395D02*
X48648Y296395D01*
X49875Y296395D02*
X49875Y292303D01*
X47420Y292303D01*
X47342Y292305D01*
X47264Y292310D01*
X47187Y292320D01*
X47110Y292333D01*
X47034Y292349D01*
X46959Y292369D01*
X46885Y292393D01*
X46812Y292420D01*
X46740Y292451D01*
X46670Y292485D01*
X46602Y292522D01*
X46535Y292563D01*
X46470Y292607D01*
X46408Y292653D01*
X46348Y292703D01*
X46290Y292755D01*
X46235Y292810D01*
X46183Y292868D01*
X46133Y292928D01*
X46087Y292990D01*
X46043Y293055D01*
X46002Y293122D01*
X45965Y293190D01*
X45931Y293260D01*
X45900Y293332D01*
X45873Y293405D01*
X45849Y293479D01*
X45829Y293554D01*
X45813Y293630D01*
X45800Y293707D01*
X45790Y293784D01*
X45785Y293862D01*
X45783Y293940D01*
X45783Y298032D01*
X45785Y298112D01*
X45791Y298192D01*
X45801Y298272D01*
X45814Y298351D01*
X45832Y298430D01*
X45853Y298507D01*
X45879Y298583D01*
X45908Y298658D01*
X45940Y298732D01*
X45976Y298804D01*
X46016Y298874D01*
X46059Y298941D01*
X46105Y299007D01*
X46155Y299070D01*
X46207Y299131D01*
X46262Y299190D01*
X46321Y299245D01*
X46381Y299297D01*
X46445Y299347D01*
X46511Y299393D01*
X46578Y299436D01*
X46648Y299476D01*
X46720Y299512D01*
X46794Y299544D01*
X46868Y299573D01*
X46945Y299599D01*
X47022Y299620D01*
X47101Y299638D01*
X47180Y299651D01*
X47260Y299661D01*
X47340Y299667D01*
X47420Y299669D01*
X49875Y299669D01*
X53704Y299669D02*
X53704Y292303D01*
X53704Y299669D02*
X55750Y299669D01*
X55839Y299667D01*
X55928Y299661D01*
X56017Y299651D01*
X56105Y299638D01*
X56193Y299621D01*
X56280Y299599D01*
X56365Y299574D01*
X56450Y299546D01*
X56533Y299513D01*
X56615Y299477D01*
X56695Y299438D01*
X56773Y299395D01*
X56849Y299349D01*
X56924Y299299D01*
X56996Y299246D01*
X57065Y299190D01*
X57132Y299131D01*
X57197Y299070D01*
X57258Y299005D01*
X57317Y298938D01*
X57373Y298869D01*
X57426Y298797D01*
X57476Y298722D01*
X57522Y298646D01*
X57565Y298568D01*
X57604Y298488D01*
X57640Y298406D01*
X57673Y298323D01*
X57701Y298238D01*
X57726Y298153D01*
X57748Y298066D01*
X57765Y297978D01*
X57778Y297890D01*
X57788Y297801D01*
X57794Y297712D01*
X57796Y297623D01*
X57794Y297534D01*
X57788Y297445D01*
X57778Y297356D01*
X57765Y297268D01*
X57748Y297180D01*
X57726Y297093D01*
X57701Y297008D01*
X57673Y296923D01*
X57640Y296840D01*
X57604Y296758D01*
X57565Y296678D01*
X57522Y296600D01*
X57476Y296524D01*
X57426Y296449D01*
X57373Y296377D01*
X57317Y296308D01*
X57258Y296241D01*
X57197Y296176D01*
X57132Y296115D01*
X57065Y296056D01*
X56996Y296000D01*
X56924Y295947D01*
X56849Y295897D01*
X56773Y295851D01*
X56695Y295808D01*
X56615Y295769D01*
X56533Y295733D01*
X56450Y295700D01*
X56365Y295672D01*
X56280Y295647D01*
X56193Y295625D01*
X56105Y295608D01*
X56017Y295595D01*
X55928Y295585D01*
X55839Y295579D01*
X55750Y295577D01*
X53704Y295577D01*
X61240Y292303D02*
X61240Y299669D01*
X60422Y292303D02*
X62059Y292303D01*
X62059Y299669D02*
X60422Y299669D01*
X65046Y297623D02*
X65046Y294349D01*
X65046Y297623D02*
X65048Y297712D01*
X65054Y297801D01*
X65064Y297890D01*
X65077Y297978D01*
X65094Y298066D01*
X65116Y298153D01*
X65141Y298238D01*
X65169Y298323D01*
X65202Y298406D01*
X65238Y298488D01*
X65277Y298568D01*
X65320Y298646D01*
X65366Y298722D01*
X65416Y298797D01*
X65469Y298869D01*
X65525Y298938D01*
X65584Y299005D01*
X65645Y299070D01*
X65710Y299131D01*
X65777Y299190D01*
X65846Y299246D01*
X65918Y299299D01*
X65993Y299349D01*
X66069Y299395D01*
X66147Y299438D01*
X66227Y299477D01*
X66309Y299513D01*
X66392Y299546D01*
X66477Y299574D01*
X66562Y299599D01*
X66649Y299621D01*
X66737Y299638D01*
X66825Y299651D01*
X66914Y299661D01*
X67003Y299667D01*
X67092Y299669D01*
X67181Y299667D01*
X67270Y299661D01*
X67359Y299651D01*
X67447Y299638D01*
X67535Y299621D01*
X67622Y299599D01*
X67707Y299574D01*
X67792Y299546D01*
X67875Y299513D01*
X67957Y299477D01*
X68037Y299438D01*
X68115Y299395D01*
X68191Y299349D01*
X68266Y299299D01*
X68338Y299246D01*
X68407Y299190D01*
X68474Y299131D01*
X68539Y299070D01*
X68600Y299005D01*
X68659Y298938D01*
X68715Y298869D01*
X68768Y298797D01*
X68818Y298722D01*
X68864Y298646D01*
X68907Y298568D01*
X68946Y298488D01*
X68982Y298406D01*
X69015Y298323D01*
X69043Y298238D01*
X69068Y298153D01*
X69090Y298066D01*
X69107Y297978D01*
X69120Y297890D01*
X69130Y297801D01*
X69136Y297712D01*
X69138Y297623D01*
X69139Y297623D02*
X69139Y294349D01*
X69138Y294349D02*
X69136Y294260D01*
X69130Y294171D01*
X69120Y294082D01*
X69107Y293994D01*
X69090Y293906D01*
X69068Y293819D01*
X69043Y293734D01*
X69015Y293649D01*
X68982Y293566D01*
X68946Y293484D01*
X68907Y293404D01*
X68864Y293326D01*
X68818Y293250D01*
X68768Y293175D01*
X68715Y293103D01*
X68659Y293034D01*
X68600Y292967D01*
X68539Y292902D01*
X68474Y292841D01*
X68407Y292782D01*
X68338Y292726D01*
X68266Y292673D01*
X68191Y292623D01*
X68115Y292577D01*
X68037Y292534D01*
X67957Y292495D01*
X67875Y292459D01*
X67792Y292426D01*
X67707Y292398D01*
X67622Y292373D01*
X67535Y292351D01*
X67447Y292334D01*
X67359Y292321D01*
X67270Y292311D01*
X67181Y292305D01*
X67092Y292303D01*
X67003Y292305D01*
X66914Y292311D01*
X66825Y292321D01*
X66737Y292334D01*
X66649Y292351D01*
X66562Y292373D01*
X66477Y292398D01*
X66392Y292426D01*
X66309Y292459D01*
X66227Y292495D01*
X66147Y292534D01*
X66069Y292577D01*
X65993Y292623D01*
X65918Y292673D01*
X65846Y292726D01*
X65777Y292782D01*
X65710Y292841D01*
X65645Y292902D01*
X65584Y292967D01*
X65525Y293034D01*
X65469Y293103D01*
X65416Y293175D01*
X65366Y293250D01*
X65320Y293326D01*
X65277Y293404D01*
X65238Y293484D01*
X65202Y293566D01*
X65169Y293649D01*
X65141Y293734D01*
X65116Y293819D01*
X65094Y293906D01*
X65077Y293994D01*
X65064Y294082D01*
X65054Y294171D01*
X65048Y294260D01*
X65046Y294349D01*
X72362Y298032D02*
X74408Y299669D01*
X74408Y292303D01*
X72362Y292303D02*
X76454Y292303D01*
X79677Y292303D02*
X82132Y292303D01*
X82210Y292305D01*
X82288Y292310D01*
X82365Y292320D01*
X82442Y292333D01*
X82518Y292349D01*
X82593Y292369D01*
X82667Y292393D01*
X82740Y292420D01*
X82812Y292451D01*
X82882Y292485D01*
X82951Y292522D01*
X83017Y292563D01*
X83082Y292607D01*
X83144Y292653D01*
X83204Y292703D01*
X83262Y292755D01*
X83317Y292810D01*
X83369Y292868D01*
X83419Y292928D01*
X83465Y292990D01*
X83509Y293055D01*
X83550Y293122D01*
X83587Y293190D01*
X83621Y293260D01*
X83652Y293332D01*
X83679Y293405D01*
X83703Y293479D01*
X83723Y293554D01*
X83739Y293630D01*
X83752Y293707D01*
X83762Y293784D01*
X83767Y293862D01*
X83769Y293940D01*
X83769Y294758D01*
X83767Y294836D01*
X83762Y294914D01*
X83752Y294991D01*
X83739Y295068D01*
X83723Y295144D01*
X83703Y295219D01*
X83679Y295293D01*
X83652Y295366D01*
X83621Y295438D01*
X83587Y295508D01*
X83550Y295577D01*
X83509Y295643D01*
X83465Y295708D01*
X83419Y295770D01*
X83369Y295830D01*
X83317Y295888D01*
X83262Y295943D01*
X83204Y295995D01*
X83144Y296045D01*
X83082Y296091D01*
X83017Y296135D01*
X82951Y296176D01*
X82882Y296213D01*
X82812Y296247D01*
X82740Y296278D01*
X82667Y296305D01*
X82593Y296329D01*
X82518Y296349D01*
X82442Y296365D01*
X82365Y296378D01*
X82288Y296388D01*
X82210Y296393D01*
X82132Y296395D01*
X79677Y296395D01*
X79677Y299669D01*
X83769Y299669D01*
X57190Y270995D02*
X55963Y270995D01*
X57190Y270995D02*
X57190Y266903D01*
X54735Y266903D01*
X54657Y266905D01*
X54579Y266910D01*
X54502Y266920D01*
X54425Y266933D01*
X54349Y266949D01*
X54274Y266969D01*
X54200Y266993D01*
X54127Y267020D01*
X54055Y267051D01*
X53985Y267085D01*
X53917Y267122D01*
X53850Y267163D01*
X53785Y267207D01*
X53723Y267253D01*
X53663Y267303D01*
X53605Y267355D01*
X53550Y267410D01*
X53498Y267468D01*
X53448Y267528D01*
X53402Y267590D01*
X53358Y267655D01*
X53317Y267722D01*
X53280Y267790D01*
X53246Y267860D01*
X53215Y267932D01*
X53188Y268005D01*
X53164Y268079D01*
X53144Y268154D01*
X53128Y268230D01*
X53115Y268307D01*
X53105Y268384D01*
X53100Y268462D01*
X53098Y268540D01*
X53098Y272632D01*
X53100Y272712D01*
X53106Y272792D01*
X53116Y272872D01*
X53129Y272951D01*
X53147Y273030D01*
X53168Y273107D01*
X53194Y273183D01*
X53223Y273258D01*
X53255Y273332D01*
X53291Y273404D01*
X53331Y273474D01*
X53374Y273541D01*
X53420Y273607D01*
X53470Y273670D01*
X53522Y273731D01*
X53577Y273790D01*
X53636Y273845D01*
X53696Y273897D01*
X53760Y273947D01*
X53826Y273993D01*
X53893Y274036D01*
X53963Y274076D01*
X54035Y274112D01*
X54109Y274144D01*
X54183Y274173D01*
X54260Y274199D01*
X54337Y274220D01*
X54416Y274238D01*
X54495Y274251D01*
X54575Y274261D01*
X54655Y274267D01*
X54735Y274269D01*
X57190Y274269D01*
X61019Y274269D02*
X61019Y266903D01*
X61019Y274269D02*
X63065Y274269D01*
X63154Y274267D01*
X63243Y274261D01*
X63332Y274251D01*
X63420Y274238D01*
X63508Y274221D01*
X63595Y274199D01*
X63680Y274174D01*
X63765Y274146D01*
X63848Y274113D01*
X63930Y274077D01*
X64010Y274038D01*
X64088Y273995D01*
X64164Y273949D01*
X64239Y273899D01*
X64311Y273846D01*
X64380Y273790D01*
X64447Y273731D01*
X64512Y273670D01*
X64573Y273605D01*
X64632Y273538D01*
X64688Y273469D01*
X64741Y273397D01*
X64791Y273322D01*
X64837Y273246D01*
X64880Y273168D01*
X64919Y273088D01*
X64955Y273006D01*
X64988Y272923D01*
X65016Y272838D01*
X65041Y272753D01*
X65063Y272666D01*
X65080Y272578D01*
X65093Y272490D01*
X65103Y272401D01*
X65109Y272312D01*
X65111Y272223D01*
X65109Y272134D01*
X65103Y272045D01*
X65093Y271956D01*
X65080Y271868D01*
X65063Y271780D01*
X65041Y271693D01*
X65016Y271608D01*
X64988Y271523D01*
X64955Y271440D01*
X64919Y271358D01*
X64880Y271278D01*
X64837Y271200D01*
X64791Y271124D01*
X64741Y271049D01*
X64688Y270977D01*
X64632Y270908D01*
X64573Y270841D01*
X64512Y270776D01*
X64447Y270715D01*
X64380Y270656D01*
X64311Y270600D01*
X64239Y270547D01*
X64164Y270497D01*
X64088Y270451D01*
X64010Y270408D01*
X63930Y270369D01*
X63848Y270333D01*
X63765Y270300D01*
X63680Y270272D01*
X63595Y270247D01*
X63508Y270225D01*
X63420Y270208D01*
X63332Y270195D01*
X63243Y270185D01*
X63154Y270179D01*
X63065Y270177D01*
X61019Y270177D01*
X68556Y266903D02*
X68556Y274269D01*
X67737Y266903D02*
X69374Y266903D01*
X69374Y274269D02*
X67737Y274269D01*
X72362Y272223D02*
X72362Y268949D01*
X72362Y272223D02*
X72364Y272312D01*
X72370Y272401D01*
X72380Y272490D01*
X72393Y272578D01*
X72410Y272666D01*
X72432Y272753D01*
X72457Y272838D01*
X72485Y272923D01*
X72518Y273006D01*
X72554Y273088D01*
X72593Y273168D01*
X72636Y273246D01*
X72682Y273322D01*
X72732Y273397D01*
X72785Y273469D01*
X72841Y273538D01*
X72900Y273605D01*
X72961Y273670D01*
X73026Y273731D01*
X73093Y273790D01*
X73162Y273846D01*
X73234Y273899D01*
X73309Y273949D01*
X73385Y273995D01*
X73463Y274038D01*
X73543Y274077D01*
X73625Y274113D01*
X73708Y274146D01*
X73793Y274174D01*
X73878Y274199D01*
X73965Y274221D01*
X74053Y274238D01*
X74141Y274251D01*
X74230Y274261D01*
X74319Y274267D01*
X74408Y274269D01*
X74497Y274267D01*
X74586Y274261D01*
X74675Y274251D01*
X74763Y274238D01*
X74851Y274221D01*
X74938Y274199D01*
X75023Y274174D01*
X75108Y274146D01*
X75191Y274113D01*
X75273Y274077D01*
X75353Y274038D01*
X75431Y273995D01*
X75507Y273949D01*
X75582Y273899D01*
X75654Y273846D01*
X75723Y273790D01*
X75790Y273731D01*
X75855Y273670D01*
X75916Y273605D01*
X75975Y273538D01*
X76031Y273469D01*
X76084Y273397D01*
X76134Y273322D01*
X76180Y273246D01*
X76223Y273168D01*
X76262Y273088D01*
X76298Y273006D01*
X76331Y272923D01*
X76359Y272838D01*
X76384Y272753D01*
X76406Y272666D01*
X76423Y272578D01*
X76436Y272490D01*
X76446Y272401D01*
X76452Y272312D01*
X76454Y272223D01*
X76454Y268949D01*
X76452Y268860D01*
X76446Y268771D01*
X76436Y268682D01*
X76423Y268594D01*
X76406Y268506D01*
X76384Y268419D01*
X76359Y268334D01*
X76331Y268249D01*
X76298Y268166D01*
X76262Y268084D01*
X76223Y268004D01*
X76180Y267926D01*
X76134Y267850D01*
X76084Y267775D01*
X76031Y267703D01*
X75975Y267634D01*
X75916Y267567D01*
X75855Y267502D01*
X75790Y267441D01*
X75723Y267382D01*
X75654Y267326D01*
X75582Y267273D01*
X75507Y267223D01*
X75431Y267177D01*
X75353Y267134D01*
X75273Y267095D01*
X75191Y267059D01*
X75108Y267026D01*
X75023Y266998D01*
X74938Y266973D01*
X74851Y266951D01*
X74763Y266934D01*
X74675Y266921D01*
X74586Y266911D01*
X74497Y266905D01*
X74408Y266903D01*
X74319Y266905D01*
X74230Y266911D01*
X74141Y266921D01*
X74053Y266934D01*
X73965Y266951D01*
X73878Y266973D01*
X73793Y266998D01*
X73708Y267026D01*
X73625Y267059D01*
X73543Y267095D01*
X73463Y267134D01*
X73385Y267177D01*
X73309Y267223D01*
X73234Y267273D01*
X73162Y267326D01*
X73093Y267382D01*
X73026Y267441D01*
X72961Y267502D01*
X72900Y267567D01*
X72841Y267634D01*
X72785Y267703D01*
X72732Y267775D01*
X72682Y267850D01*
X72636Y267926D01*
X72593Y268004D01*
X72554Y268084D01*
X72518Y268166D01*
X72485Y268249D01*
X72457Y268334D01*
X72432Y268419D01*
X72410Y268506D01*
X72393Y268594D01*
X72380Y268682D01*
X72370Y268771D01*
X72364Y268860D01*
X72362Y268949D01*
X81928Y274270D02*
X82013Y274268D01*
X82098Y274262D01*
X82182Y274252D01*
X82266Y274239D01*
X82350Y274221D01*
X82432Y274200D01*
X82513Y274175D01*
X82593Y274146D01*
X82672Y274113D01*
X82749Y274077D01*
X82824Y274037D01*
X82898Y273994D01*
X82969Y273948D01*
X83038Y273898D01*
X83105Y273845D01*
X83169Y273789D01*
X83230Y273730D01*
X83289Y273669D01*
X83345Y273605D01*
X83398Y273538D01*
X83448Y273469D01*
X83494Y273398D01*
X83537Y273324D01*
X83577Y273249D01*
X83613Y273172D01*
X83646Y273093D01*
X83675Y273013D01*
X83700Y272932D01*
X83721Y272850D01*
X83739Y272766D01*
X83752Y272682D01*
X83762Y272598D01*
X83768Y272513D01*
X83770Y272428D01*
X81928Y274269D02*
X81832Y274267D01*
X81736Y274261D01*
X81641Y274251D01*
X81546Y274238D01*
X81451Y274220D01*
X81358Y274199D01*
X81265Y274174D01*
X81174Y274145D01*
X81083Y274113D01*
X80994Y274077D01*
X80907Y274037D01*
X80821Y273994D01*
X80737Y273948D01*
X80655Y273898D01*
X80575Y273844D01*
X80498Y273788D01*
X80423Y273728D01*
X80350Y273666D01*
X80280Y273600D01*
X80212Y273532D01*
X80147Y273461D01*
X80086Y273388D01*
X80027Y273312D01*
X79971Y273233D01*
X79919Y273153D01*
X79870Y273070D01*
X79824Y272986D01*
X79782Y272900D01*
X79744Y272812D01*
X79709Y272723D01*
X79677Y272632D01*
X83155Y270996D02*
X83215Y271055D01*
X83272Y271117D01*
X83327Y271181D01*
X83378Y271248D01*
X83427Y271317D01*
X83473Y271387D01*
X83516Y271460D01*
X83556Y271534D01*
X83592Y271610D01*
X83625Y271688D01*
X83655Y271767D01*
X83682Y271847D01*
X83705Y271928D01*
X83724Y272010D01*
X83740Y272092D01*
X83753Y272176D01*
X83762Y272260D01*
X83767Y272344D01*
X83769Y272428D01*
X83155Y270995D02*
X79677Y266903D01*
X83769Y266903D01*
X57190Y245595D02*
X55963Y245595D01*
X57190Y245595D02*
X57190Y241503D01*
X54735Y241503D01*
X54657Y241505D01*
X54579Y241510D01*
X54502Y241520D01*
X54425Y241533D01*
X54349Y241549D01*
X54274Y241569D01*
X54200Y241593D01*
X54127Y241620D01*
X54055Y241651D01*
X53985Y241685D01*
X53917Y241722D01*
X53850Y241763D01*
X53785Y241807D01*
X53723Y241853D01*
X53663Y241903D01*
X53605Y241955D01*
X53550Y242010D01*
X53498Y242068D01*
X53448Y242128D01*
X53402Y242190D01*
X53358Y242255D01*
X53317Y242322D01*
X53280Y242390D01*
X53246Y242460D01*
X53215Y242532D01*
X53188Y242605D01*
X53164Y242679D01*
X53144Y242754D01*
X53128Y242830D01*
X53115Y242907D01*
X53105Y242984D01*
X53100Y243062D01*
X53098Y243140D01*
X53098Y247232D01*
X53100Y247312D01*
X53106Y247392D01*
X53116Y247472D01*
X53129Y247551D01*
X53147Y247630D01*
X53168Y247707D01*
X53194Y247783D01*
X53223Y247858D01*
X53255Y247932D01*
X53291Y248004D01*
X53331Y248074D01*
X53374Y248141D01*
X53420Y248207D01*
X53470Y248270D01*
X53522Y248331D01*
X53577Y248390D01*
X53636Y248445D01*
X53696Y248497D01*
X53760Y248547D01*
X53826Y248593D01*
X53893Y248636D01*
X53963Y248676D01*
X54035Y248712D01*
X54109Y248744D01*
X54183Y248773D01*
X54260Y248799D01*
X54337Y248820D01*
X54416Y248838D01*
X54495Y248851D01*
X54575Y248861D01*
X54655Y248867D01*
X54735Y248869D01*
X57190Y248869D01*
X61019Y248869D02*
X61019Y241503D01*
X61019Y248869D02*
X63065Y248869D01*
X63154Y248867D01*
X63243Y248861D01*
X63332Y248851D01*
X63420Y248838D01*
X63508Y248821D01*
X63595Y248799D01*
X63680Y248774D01*
X63765Y248746D01*
X63848Y248713D01*
X63930Y248677D01*
X64010Y248638D01*
X64088Y248595D01*
X64164Y248549D01*
X64239Y248499D01*
X64311Y248446D01*
X64380Y248390D01*
X64447Y248331D01*
X64512Y248270D01*
X64573Y248205D01*
X64632Y248138D01*
X64688Y248069D01*
X64741Y247997D01*
X64791Y247922D01*
X64837Y247846D01*
X64880Y247768D01*
X64919Y247688D01*
X64955Y247606D01*
X64988Y247523D01*
X65016Y247438D01*
X65041Y247353D01*
X65063Y247266D01*
X65080Y247178D01*
X65093Y247090D01*
X65103Y247001D01*
X65109Y246912D01*
X65111Y246823D01*
X65109Y246734D01*
X65103Y246645D01*
X65093Y246556D01*
X65080Y246468D01*
X65063Y246380D01*
X65041Y246293D01*
X65016Y246208D01*
X64988Y246123D01*
X64955Y246040D01*
X64919Y245958D01*
X64880Y245878D01*
X64837Y245800D01*
X64791Y245724D01*
X64741Y245649D01*
X64688Y245577D01*
X64632Y245508D01*
X64573Y245441D01*
X64512Y245376D01*
X64447Y245315D01*
X64380Y245256D01*
X64311Y245200D01*
X64239Y245147D01*
X64164Y245097D01*
X64088Y245051D01*
X64010Y245008D01*
X63930Y244969D01*
X63848Y244933D01*
X63765Y244900D01*
X63680Y244872D01*
X63595Y244847D01*
X63508Y244825D01*
X63420Y244808D01*
X63332Y244795D01*
X63243Y244785D01*
X63154Y244779D01*
X63065Y244777D01*
X61019Y244777D01*
X68556Y241503D02*
X68556Y248869D01*
X67737Y241503D02*
X69374Y241503D01*
X69374Y248869D02*
X67737Y248869D01*
X72362Y246823D02*
X72362Y243549D01*
X72362Y246823D02*
X72364Y246912D01*
X72370Y247001D01*
X72380Y247090D01*
X72393Y247178D01*
X72410Y247266D01*
X72432Y247353D01*
X72457Y247438D01*
X72485Y247523D01*
X72518Y247606D01*
X72554Y247688D01*
X72593Y247768D01*
X72636Y247846D01*
X72682Y247922D01*
X72732Y247997D01*
X72785Y248069D01*
X72841Y248138D01*
X72900Y248205D01*
X72961Y248270D01*
X73026Y248331D01*
X73093Y248390D01*
X73162Y248446D01*
X73234Y248499D01*
X73309Y248549D01*
X73385Y248595D01*
X73463Y248638D01*
X73543Y248677D01*
X73625Y248713D01*
X73708Y248746D01*
X73793Y248774D01*
X73878Y248799D01*
X73965Y248821D01*
X74053Y248838D01*
X74141Y248851D01*
X74230Y248861D01*
X74319Y248867D01*
X74408Y248869D01*
X74497Y248867D01*
X74586Y248861D01*
X74675Y248851D01*
X74763Y248838D01*
X74851Y248821D01*
X74938Y248799D01*
X75023Y248774D01*
X75108Y248746D01*
X75191Y248713D01*
X75273Y248677D01*
X75353Y248638D01*
X75431Y248595D01*
X75507Y248549D01*
X75582Y248499D01*
X75654Y248446D01*
X75723Y248390D01*
X75790Y248331D01*
X75855Y248270D01*
X75916Y248205D01*
X75975Y248138D01*
X76031Y248069D01*
X76084Y247997D01*
X76134Y247922D01*
X76180Y247846D01*
X76223Y247768D01*
X76262Y247688D01*
X76298Y247606D01*
X76331Y247523D01*
X76359Y247438D01*
X76384Y247353D01*
X76406Y247266D01*
X76423Y247178D01*
X76436Y247090D01*
X76446Y247001D01*
X76452Y246912D01*
X76454Y246823D01*
X76454Y243549D01*
X76452Y243460D01*
X76446Y243371D01*
X76436Y243282D01*
X76423Y243194D01*
X76406Y243106D01*
X76384Y243019D01*
X76359Y242934D01*
X76331Y242849D01*
X76298Y242766D01*
X76262Y242684D01*
X76223Y242604D01*
X76180Y242526D01*
X76134Y242450D01*
X76084Y242375D01*
X76031Y242303D01*
X75975Y242234D01*
X75916Y242167D01*
X75855Y242102D01*
X75790Y242041D01*
X75723Y241982D01*
X75654Y241926D01*
X75582Y241873D01*
X75507Y241823D01*
X75431Y241777D01*
X75353Y241734D01*
X75273Y241695D01*
X75191Y241659D01*
X75108Y241626D01*
X75023Y241598D01*
X74938Y241573D01*
X74851Y241551D01*
X74763Y241534D01*
X74675Y241521D01*
X74586Y241511D01*
X74497Y241505D01*
X74408Y241503D01*
X74319Y241505D01*
X74230Y241511D01*
X74141Y241521D01*
X74053Y241534D01*
X73965Y241551D01*
X73878Y241573D01*
X73793Y241598D01*
X73708Y241626D01*
X73625Y241659D01*
X73543Y241695D01*
X73463Y241734D01*
X73385Y241777D01*
X73309Y241823D01*
X73234Y241873D01*
X73162Y241926D01*
X73093Y241982D01*
X73026Y242041D01*
X72961Y242102D01*
X72900Y242167D01*
X72841Y242234D01*
X72785Y242303D01*
X72732Y242375D01*
X72682Y242450D01*
X72636Y242526D01*
X72593Y242604D01*
X72554Y242684D01*
X72518Y242766D01*
X72485Y242849D01*
X72457Y242934D01*
X72432Y243019D01*
X72410Y243106D01*
X72393Y243194D01*
X72380Y243282D01*
X72370Y243371D01*
X72364Y243460D01*
X72362Y243549D01*
X79677Y245186D02*
X79679Y245339D01*
X79685Y245492D01*
X79694Y245644D01*
X79708Y245797D01*
X79725Y245949D01*
X79746Y246100D01*
X79771Y246251D01*
X79800Y246401D01*
X79832Y246551D01*
X79869Y246699D01*
X79909Y246847D01*
X79952Y246994D01*
X80000Y247139D01*
X80051Y247283D01*
X80105Y247426D01*
X80164Y247568D01*
X80225Y247707D01*
X80291Y247846D01*
X80317Y247916D01*
X80347Y247986D01*
X80380Y248053D01*
X80416Y248119D01*
X80455Y248183D01*
X80498Y248245D01*
X80544Y248304D01*
X80592Y248362D01*
X80643Y248416D01*
X80697Y248469D01*
X80754Y248518D01*
X80813Y248565D01*
X80874Y248608D01*
X80937Y248649D01*
X81002Y248686D01*
X81069Y248721D01*
X81138Y248751D01*
X81208Y248779D01*
X81279Y248802D01*
X81351Y248823D01*
X81424Y248839D01*
X81498Y248852D01*
X81573Y248862D01*
X81648Y248867D01*
X81723Y248869D01*
X81798Y248867D01*
X81873Y248862D01*
X81948Y248852D01*
X82022Y248839D01*
X82095Y248823D01*
X82167Y248802D01*
X82238Y248779D01*
X82308Y248751D01*
X82377Y248721D01*
X82444Y248686D01*
X82509Y248649D01*
X82572Y248608D01*
X82633Y248565D01*
X82692Y248518D01*
X82749Y248469D01*
X82803Y248416D01*
X82854Y248362D01*
X82903Y248304D01*
X82948Y248245D01*
X82991Y248183D01*
X83030Y248119D01*
X83067Y248053D01*
X83099Y247985D01*
X83129Y247916D01*
X83155Y247846D01*
X83220Y247708D01*
X83282Y247568D01*
X83340Y247426D01*
X83395Y247283D01*
X83446Y247139D01*
X83494Y246994D01*
X83537Y246847D01*
X83577Y246700D01*
X83614Y246551D01*
X83646Y246401D01*
X83675Y246251D01*
X83700Y246100D01*
X83721Y245949D01*
X83738Y245797D01*
X83752Y245644D01*
X83761Y245492D01*
X83767Y245339D01*
X83769Y245186D01*
X79676Y245186D02*
X79678Y245033D01*
X79684Y244880D01*
X79693Y244727D01*
X79707Y244575D01*
X79724Y244423D01*
X79745Y244272D01*
X79770Y244121D01*
X79799Y243970D01*
X79831Y243821D01*
X79868Y243672D01*
X79908Y243525D01*
X79951Y243378D01*
X79999Y243233D01*
X80050Y243088D01*
X80105Y242946D01*
X80163Y242804D01*
X80225Y242664D01*
X80290Y242526D01*
X80291Y242526D02*
X80317Y242455D01*
X80347Y242386D01*
X80380Y242319D01*
X80416Y242253D01*
X80455Y242189D01*
X80498Y242127D01*
X80544Y242068D01*
X80592Y242010D01*
X80643Y241956D01*
X80697Y241903D01*
X80754Y241854D01*
X80813Y241807D01*
X80874Y241764D01*
X80937Y241723D01*
X81002Y241686D01*
X81069Y241651D01*
X81138Y241621D01*
X81208Y241593D01*
X81279Y241570D01*
X81351Y241549D01*
X81424Y241533D01*
X81498Y241520D01*
X81573Y241510D01*
X81648Y241505D01*
X81723Y241503D01*
X83155Y242526D02*
X83220Y242664D01*
X83282Y242804D01*
X83340Y242946D01*
X83395Y243089D01*
X83446Y243233D01*
X83494Y243378D01*
X83537Y243525D01*
X83577Y243673D01*
X83614Y243821D01*
X83646Y243971D01*
X83675Y244121D01*
X83700Y244272D01*
X83721Y244423D01*
X83738Y244575D01*
X83752Y244728D01*
X83761Y244880D01*
X83767Y245033D01*
X83769Y245186D01*
X83155Y242526D02*
X83129Y242456D01*
X83099Y242386D01*
X83067Y242319D01*
X83030Y242253D01*
X82991Y242189D01*
X82948Y242127D01*
X82902Y242068D01*
X82854Y242010D01*
X82803Y241956D01*
X82749Y241903D01*
X82692Y241854D01*
X82633Y241807D01*
X82572Y241764D01*
X82509Y241723D01*
X82444Y241686D01*
X82377Y241651D01*
X82308Y241621D01*
X82238Y241593D01*
X82167Y241570D01*
X82095Y241549D01*
X82022Y241533D01*
X81948Y241520D01*
X81873Y241510D01*
X81798Y241505D01*
X81723Y241503D01*
X80086Y243140D02*
X83360Y247232D01*
X57190Y220195D02*
X55963Y220195D01*
X57190Y220195D02*
X57190Y216103D01*
X54735Y216103D01*
X54657Y216105D01*
X54579Y216110D01*
X54502Y216120D01*
X54425Y216133D01*
X54349Y216149D01*
X54274Y216169D01*
X54200Y216193D01*
X54127Y216220D01*
X54055Y216251D01*
X53985Y216285D01*
X53917Y216322D01*
X53850Y216363D01*
X53785Y216407D01*
X53723Y216453D01*
X53663Y216503D01*
X53605Y216555D01*
X53550Y216610D01*
X53498Y216668D01*
X53448Y216728D01*
X53402Y216790D01*
X53358Y216855D01*
X53317Y216922D01*
X53280Y216990D01*
X53246Y217060D01*
X53215Y217132D01*
X53188Y217205D01*
X53164Y217279D01*
X53144Y217354D01*
X53128Y217430D01*
X53115Y217507D01*
X53105Y217584D01*
X53100Y217662D01*
X53098Y217740D01*
X53098Y221832D01*
X53100Y221912D01*
X53106Y221992D01*
X53116Y222072D01*
X53129Y222151D01*
X53147Y222230D01*
X53168Y222307D01*
X53194Y222383D01*
X53223Y222458D01*
X53255Y222532D01*
X53291Y222604D01*
X53331Y222674D01*
X53374Y222741D01*
X53420Y222807D01*
X53470Y222870D01*
X53522Y222931D01*
X53577Y222990D01*
X53636Y223045D01*
X53696Y223097D01*
X53760Y223147D01*
X53826Y223193D01*
X53893Y223236D01*
X53963Y223276D01*
X54035Y223312D01*
X54109Y223344D01*
X54183Y223373D01*
X54260Y223399D01*
X54337Y223420D01*
X54416Y223438D01*
X54495Y223451D01*
X54575Y223461D01*
X54655Y223467D01*
X54735Y223469D01*
X57190Y223469D01*
X61019Y223469D02*
X61019Y216103D01*
X61019Y223469D02*
X63065Y223469D01*
X63154Y223467D01*
X63243Y223461D01*
X63332Y223451D01*
X63420Y223438D01*
X63508Y223421D01*
X63595Y223399D01*
X63680Y223374D01*
X63765Y223346D01*
X63848Y223313D01*
X63930Y223277D01*
X64010Y223238D01*
X64088Y223195D01*
X64164Y223149D01*
X64239Y223099D01*
X64311Y223046D01*
X64380Y222990D01*
X64447Y222931D01*
X64512Y222870D01*
X64573Y222805D01*
X64632Y222738D01*
X64688Y222669D01*
X64741Y222597D01*
X64791Y222522D01*
X64837Y222446D01*
X64880Y222368D01*
X64919Y222288D01*
X64955Y222206D01*
X64988Y222123D01*
X65016Y222038D01*
X65041Y221953D01*
X65063Y221866D01*
X65080Y221778D01*
X65093Y221690D01*
X65103Y221601D01*
X65109Y221512D01*
X65111Y221423D01*
X65109Y221334D01*
X65103Y221245D01*
X65093Y221156D01*
X65080Y221068D01*
X65063Y220980D01*
X65041Y220893D01*
X65016Y220808D01*
X64988Y220723D01*
X64955Y220640D01*
X64919Y220558D01*
X64880Y220478D01*
X64837Y220400D01*
X64791Y220324D01*
X64741Y220249D01*
X64688Y220177D01*
X64632Y220108D01*
X64573Y220041D01*
X64512Y219976D01*
X64447Y219915D01*
X64380Y219856D01*
X64311Y219800D01*
X64239Y219747D01*
X64164Y219697D01*
X64088Y219651D01*
X64010Y219608D01*
X63930Y219569D01*
X63848Y219533D01*
X63765Y219500D01*
X63680Y219472D01*
X63595Y219447D01*
X63508Y219425D01*
X63420Y219408D01*
X63332Y219395D01*
X63243Y219385D01*
X63154Y219379D01*
X63065Y219377D01*
X61019Y219377D01*
X68556Y216103D02*
X68556Y223469D01*
X67737Y216103D02*
X69374Y216103D01*
X69374Y223469D02*
X67737Y223469D01*
X72362Y221423D02*
X72362Y218149D01*
X72362Y221423D02*
X72364Y221512D01*
X72370Y221601D01*
X72380Y221690D01*
X72393Y221778D01*
X72410Y221866D01*
X72432Y221953D01*
X72457Y222038D01*
X72485Y222123D01*
X72518Y222206D01*
X72554Y222288D01*
X72593Y222368D01*
X72636Y222446D01*
X72682Y222522D01*
X72732Y222597D01*
X72785Y222669D01*
X72841Y222738D01*
X72900Y222805D01*
X72961Y222870D01*
X73026Y222931D01*
X73093Y222990D01*
X73162Y223046D01*
X73234Y223099D01*
X73309Y223149D01*
X73385Y223195D01*
X73463Y223238D01*
X73543Y223277D01*
X73625Y223313D01*
X73708Y223346D01*
X73793Y223374D01*
X73878Y223399D01*
X73965Y223421D01*
X74053Y223438D01*
X74141Y223451D01*
X74230Y223461D01*
X74319Y223467D01*
X74408Y223469D01*
X74497Y223467D01*
X74586Y223461D01*
X74675Y223451D01*
X74763Y223438D01*
X74851Y223421D01*
X74938Y223399D01*
X75023Y223374D01*
X75108Y223346D01*
X75191Y223313D01*
X75273Y223277D01*
X75353Y223238D01*
X75431Y223195D01*
X75507Y223149D01*
X75582Y223099D01*
X75654Y223046D01*
X75723Y222990D01*
X75790Y222931D01*
X75855Y222870D01*
X75916Y222805D01*
X75975Y222738D01*
X76031Y222669D01*
X76084Y222597D01*
X76134Y222522D01*
X76180Y222446D01*
X76223Y222368D01*
X76262Y222288D01*
X76298Y222206D01*
X76331Y222123D01*
X76359Y222038D01*
X76384Y221953D01*
X76406Y221866D01*
X76423Y221778D01*
X76436Y221690D01*
X76446Y221601D01*
X76452Y221512D01*
X76454Y221423D01*
X76454Y218149D01*
X76452Y218060D01*
X76446Y217971D01*
X76436Y217882D01*
X76423Y217794D01*
X76406Y217706D01*
X76384Y217619D01*
X76359Y217534D01*
X76331Y217449D01*
X76298Y217366D01*
X76262Y217284D01*
X76223Y217204D01*
X76180Y217126D01*
X76134Y217050D01*
X76084Y216975D01*
X76031Y216903D01*
X75975Y216834D01*
X75916Y216767D01*
X75855Y216702D01*
X75790Y216641D01*
X75723Y216582D01*
X75654Y216526D01*
X75582Y216473D01*
X75507Y216423D01*
X75431Y216377D01*
X75353Y216334D01*
X75273Y216295D01*
X75191Y216259D01*
X75108Y216226D01*
X75023Y216198D01*
X74938Y216173D01*
X74851Y216151D01*
X74763Y216134D01*
X74675Y216121D01*
X74586Y216111D01*
X74497Y216105D01*
X74408Y216103D01*
X74319Y216105D01*
X74230Y216111D01*
X74141Y216121D01*
X74053Y216134D01*
X73965Y216151D01*
X73878Y216173D01*
X73793Y216198D01*
X73708Y216226D01*
X73625Y216259D01*
X73543Y216295D01*
X73463Y216334D01*
X73385Y216377D01*
X73309Y216423D01*
X73234Y216473D01*
X73162Y216526D01*
X73093Y216582D01*
X73026Y216641D01*
X72961Y216702D01*
X72900Y216767D01*
X72841Y216834D01*
X72785Y216903D01*
X72732Y216975D01*
X72682Y217050D01*
X72636Y217126D01*
X72593Y217204D01*
X72554Y217284D01*
X72518Y217366D01*
X72485Y217449D01*
X72457Y217534D01*
X72432Y217619D01*
X72410Y217706D01*
X72393Y217794D01*
X72380Y217882D01*
X72370Y217971D01*
X72364Y218060D01*
X72362Y218149D01*
X79677Y217740D02*
X81314Y223469D01*
X79677Y217740D02*
X83769Y217740D01*
X82541Y219377D02*
X82541Y216103D01*
X57190Y194795D02*
X55963Y194795D01*
X57190Y194795D02*
X57190Y190703D01*
X54735Y190703D01*
X54657Y190705D01*
X54579Y190710D01*
X54502Y190720D01*
X54425Y190733D01*
X54349Y190749D01*
X54274Y190769D01*
X54200Y190793D01*
X54127Y190820D01*
X54055Y190851D01*
X53985Y190885D01*
X53917Y190922D01*
X53850Y190963D01*
X53785Y191007D01*
X53723Y191053D01*
X53663Y191103D01*
X53605Y191155D01*
X53550Y191210D01*
X53498Y191268D01*
X53448Y191328D01*
X53402Y191390D01*
X53358Y191455D01*
X53317Y191522D01*
X53280Y191590D01*
X53246Y191660D01*
X53215Y191732D01*
X53188Y191805D01*
X53164Y191879D01*
X53144Y191954D01*
X53128Y192030D01*
X53115Y192107D01*
X53105Y192184D01*
X53100Y192262D01*
X53098Y192340D01*
X53098Y196432D01*
X53100Y196512D01*
X53106Y196592D01*
X53116Y196672D01*
X53129Y196751D01*
X53147Y196830D01*
X53168Y196907D01*
X53194Y196983D01*
X53223Y197058D01*
X53255Y197132D01*
X53291Y197204D01*
X53331Y197274D01*
X53374Y197341D01*
X53420Y197407D01*
X53470Y197470D01*
X53522Y197531D01*
X53577Y197590D01*
X53636Y197645D01*
X53696Y197697D01*
X53760Y197747D01*
X53826Y197793D01*
X53893Y197836D01*
X53963Y197876D01*
X54035Y197912D01*
X54109Y197944D01*
X54183Y197973D01*
X54260Y197999D01*
X54337Y198020D01*
X54416Y198038D01*
X54495Y198051D01*
X54575Y198061D01*
X54655Y198067D01*
X54735Y198069D01*
X57190Y198069D01*
X61019Y198069D02*
X61019Y190703D01*
X61019Y198069D02*
X63065Y198069D01*
X63154Y198067D01*
X63243Y198061D01*
X63332Y198051D01*
X63420Y198038D01*
X63508Y198021D01*
X63595Y197999D01*
X63680Y197974D01*
X63765Y197946D01*
X63848Y197913D01*
X63930Y197877D01*
X64010Y197838D01*
X64088Y197795D01*
X64164Y197749D01*
X64239Y197699D01*
X64311Y197646D01*
X64380Y197590D01*
X64447Y197531D01*
X64512Y197470D01*
X64573Y197405D01*
X64632Y197338D01*
X64688Y197269D01*
X64741Y197197D01*
X64791Y197122D01*
X64837Y197046D01*
X64880Y196968D01*
X64919Y196888D01*
X64955Y196806D01*
X64988Y196723D01*
X65016Y196638D01*
X65041Y196553D01*
X65063Y196466D01*
X65080Y196378D01*
X65093Y196290D01*
X65103Y196201D01*
X65109Y196112D01*
X65111Y196023D01*
X65109Y195934D01*
X65103Y195845D01*
X65093Y195756D01*
X65080Y195668D01*
X65063Y195580D01*
X65041Y195493D01*
X65016Y195408D01*
X64988Y195323D01*
X64955Y195240D01*
X64919Y195158D01*
X64880Y195078D01*
X64837Y195000D01*
X64791Y194924D01*
X64741Y194849D01*
X64688Y194777D01*
X64632Y194708D01*
X64573Y194641D01*
X64512Y194576D01*
X64447Y194515D01*
X64380Y194456D01*
X64311Y194400D01*
X64239Y194347D01*
X64164Y194297D01*
X64088Y194251D01*
X64010Y194208D01*
X63930Y194169D01*
X63848Y194133D01*
X63765Y194100D01*
X63680Y194072D01*
X63595Y194047D01*
X63508Y194025D01*
X63420Y194008D01*
X63332Y193995D01*
X63243Y193985D01*
X63154Y193979D01*
X63065Y193977D01*
X61019Y193977D01*
X68556Y190703D02*
X68556Y198069D01*
X67737Y190703D02*
X69374Y190703D01*
X69374Y198069D02*
X67737Y198069D01*
X72362Y196023D02*
X72362Y192749D01*
X72362Y196023D02*
X72364Y196112D01*
X72370Y196201D01*
X72380Y196290D01*
X72393Y196378D01*
X72410Y196466D01*
X72432Y196553D01*
X72457Y196638D01*
X72485Y196723D01*
X72518Y196806D01*
X72554Y196888D01*
X72593Y196968D01*
X72636Y197046D01*
X72682Y197122D01*
X72732Y197197D01*
X72785Y197269D01*
X72841Y197338D01*
X72900Y197405D01*
X72961Y197470D01*
X73026Y197531D01*
X73093Y197590D01*
X73162Y197646D01*
X73234Y197699D01*
X73309Y197749D01*
X73385Y197795D01*
X73463Y197838D01*
X73543Y197877D01*
X73625Y197913D01*
X73708Y197946D01*
X73793Y197974D01*
X73878Y197999D01*
X73965Y198021D01*
X74053Y198038D01*
X74141Y198051D01*
X74230Y198061D01*
X74319Y198067D01*
X74408Y198069D01*
X74497Y198067D01*
X74586Y198061D01*
X74675Y198051D01*
X74763Y198038D01*
X74851Y198021D01*
X74938Y197999D01*
X75023Y197974D01*
X75108Y197946D01*
X75191Y197913D01*
X75273Y197877D01*
X75353Y197838D01*
X75431Y197795D01*
X75507Y197749D01*
X75582Y197699D01*
X75654Y197646D01*
X75723Y197590D01*
X75790Y197531D01*
X75855Y197470D01*
X75916Y197405D01*
X75975Y197338D01*
X76031Y197269D01*
X76084Y197197D01*
X76134Y197122D01*
X76180Y197046D01*
X76223Y196968D01*
X76262Y196888D01*
X76298Y196806D01*
X76331Y196723D01*
X76359Y196638D01*
X76384Y196553D01*
X76406Y196466D01*
X76423Y196378D01*
X76436Y196290D01*
X76446Y196201D01*
X76452Y196112D01*
X76454Y196023D01*
X76454Y192749D01*
X76452Y192660D01*
X76446Y192571D01*
X76436Y192482D01*
X76423Y192394D01*
X76406Y192306D01*
X76384Y192219D01*
X76359Y192134D01*
X76331Y192049D01*
X76298Y191966D01*
X76262Y191884D01*
X76223Y191804D01*
X76180Y191726D01*
X76134Y191650D01*
X76084Y191575D01*
X76031Y191503D01*
X75975Y191434D01*
X75916Y191367D01*
X75855Y191302D01*
X75790Y191241D01*
X75723Y191182D01*
X75654Y191126D01*
X75582Y191073D01*
X75507Y191023D01*
X75431Y190977D01*
X75353Y190934D01*
X75273Y190895D01*
X75191Y190859D01*
X75108Y190826D01*
X75023Y190798D01*
X74938Y190773D01*
X74851Y190751D01*
X74763Y190734D01*
X74675Y190721D01*
X74586Y190711D01*
X74497Y190705D01*
X74408Y190703D01*
X74319Y190705D01*
X74230Y190711D01*
X74141Y190721D01*
X74053Y190734D01*
X73965Y190751D01*
X73878Y190773D01*
X73793Y190798D01*
X73708Y190826D01*
X73625Y190859D01*
X73543Y190895D01*
X73463Y190934D01*
X73385Y190977D01*
X73309Y191023D01*
X73234Y191073D01*
X73162Y191126D01*
X73093Y191182D01*
X73026Y191241D01*
X72961Y191302D01*
X72900Y191367D01*
X72841Y191434D01*
X72785Y191503D01*
X72732Y191575D01*
X72682Y191650D01*
X72636Y191726D01*
X72593Y191804D01*
X72554Y191884D01*
X72518Y191966D01*
X72485Y192049D01*
X72457Y192134D01*
X72432Y192219D01*
X72410Y192306D01*
X72393Y192394D01*
X72380Y192482D01*
X72370Y192571D01*
X72364Y192660D01*
X72362Y192749D01*
X79677Y190703D02*
X82132Y190703D01*
X82210Y190705D01*
X82288Y190710D01*
X82365Y190720D01*
X82442Y190733D01*
X82518Y190749D01*
X82593Y190769D01*
X82667Y190793D01*
X82740Y190820D01*
X82812Y190851D01*
X82882Y190885D01*
X82951Y190922D01*
X83017Y190963D01*
X83082Y191007D01*
X83144Y191053D01*
X83204Y191103D01*
X83262Y191155D01*
X83317Y191210D01*
X83369Y191268D01*
X83419Y191328D01*
X83465Y191390D01*
X83509Y191455D01*
X83550Y191522D01*
X83587Y191590D01*
X83621Y191660D01*
X83652Y191732D01*
X83679Y191805D01*
X83703Y191879D01*
X83723Y191954D01*
X83739Y192030D01*
X83752Y192107D01*
X83762Y192184D01*
X83767Y192262D01*
X83769Y192340D01*
X83769Y193158D01*
X83767Y193236D01*
X83762Y193314D01*
X83752Y193391D01*
X83739Y193468D01*
X83723Y193544D01*
X83703Y193619D01*
X83679Y193693D01*
X83652Y193766D01*
X83621Y193838D01*
X83587Y193908D01*
X83550Y193977D01*
X83509Y194043D01*
X83465Y194108D01*
X83419Y194170D01*
X83369Y194230D01*
X83317Y194288D01*
X83262Y194343D01*
X83204Y194395D01*
X83144Y194445D01*
X83082Y194491D01*
X83017Y194535D01*
X82951Y194576D01*
X82882Y194613D01*
X82812Y194647D01*
X82740Y194678D01*
X82667Y194705D01*
X82593Y194729D01*
X82518Y194749D01*
X82442Y194765D01*
X82365Y194778D01*
X82288Y194788D01*
X82210Y194793D01*
X82132Y194795D01*
X79677Y194795D01*
X79677Y198069D01*
X83769Y198069D01*
X64854Y172669D02*
X64854Y165303D01*
X64854Y172669D02*
X66900Y172669D01*
X66989Y172667D01*
X67078Y172661D01*
X67167Y172651D01*
X67255Y172638D01*
X67343Y172621D01*
X67430Y172599D01*
X67515Y172574D01*
X67600Y172546D01*
X67683Y172513D01*
X67765Y172477D01*
X67845Y172438D01*
X67923Y172395D01*
X67999Y172349D01*
X68074Y172299D01*
X68146Y172246D01*
X68215Y172190D01*
X68282Y172131D01*
X68347Y172070D01*
X68408Y172005D01*
X68467Y171938D01*
X68523Y171869D01*
X68576Y171797D01*
X68626Y171722D01*
X68672Y171646D01*
X68715Y171568D01*
X68754Y171488D01*
X68790Y171406D01*
X68823Y171323D01*
X68851Y171238D01*
X68876Y171153D01*
X68898Y171066D01*
X68915Y170978D01*
X68928Y170890D01*
X68938Y170801D01*
X68944Y170712D01*
X68946Y170623D01*
X68944Y170534D01*
X68938Y170445D01*
X68928Y170356D01*
X68915Y170268D01*
X68898Y170180D01*
X68876Y170093D01*
X68851Y170008D01*
X68823Y169923D01*
X68790Y169840D01*
X68754Y169758D01*
X68715Y169678D01*
X68672Y169600D01*
X68626Y169524D01*
X68576Y169449D01*
X68523Y169377D01*
X68467Y169308D01*
X68408Y169241D01*
X68347Y169176D01*
X68282Y169115D01*
X68215Y169056D01*
X68146Y169000D01*
X68074Y168947D01*
X67999Y168897D01*
X67923Y168851D01*
X67845Y168808D01*
X67765Y168769D01*
X67683Y168733D01*
X67600Y168700D01*
X67515Y168672D01*
X67430Y168647D01*
X67343Y168625D01*
X67255Y168608D01*
X67167Y168595D01*
X67078Y168585D01*
X66989Y168579D01*
X66900Y168577D01*
X64854Y168577D01*
X67309Y168577D02*
X68946Y165303D01*
X71709Y165303D02*
X76619Y172669D01*
X71709Y172669D02*
X76619Y165303D01*
X79677Y165303D02*
X79677Y172669D01*
X81723Y172669D01*
X81812Y172667D01*
X81901Y172661D01*
X81990Y172651D01*
X82078Y172638D01*
X82166Y172621D01*
X82253Y172599D01*
X82338Y172574D01*
X82423Y172546D01*
X82506Y172513D01*
X82588Y172477D01*
X82668Y172438D01*
X82746Y172395D01*
X82822Y172349D01*
X82897Y172299D01*
X82969Y172246D01*
X83038Y172190D01*
X83105Y172131D01*
X83170Y172070D01*
X83231Y172005D01*
X83290Y171938D01*
X83346Y171869D01*
X83399Y171797D01*
X83449Y171722D01*
X83495Y171646D01*
X83538Y171568D01*
X83577Y171488D01*
X83613Y171406D01*
X83646Y171323D01*
X83674Y171238D01*
X83699Y171153D01*
X83721Y171066D01*
X83738Y170978D01*
X83751Y170890D01*
X83761Y170801D01*
X83767Y170712D01*
X83769Y170623D01*
X83769Y167349D01*
X83767Y167260D01*
X83761Y167171D01*
X83751Y167082D01*
X83738Y166994D01*
X83721Y166906D01*
X83699Y166819D01*
X83674Y166734D01*
X83646Y166649D01*
X83613Y166566D01*
X83577Y166484D01*
X83538Y166404D01*
X83495Y166326D01*
X83449Y166250D01*
X83399Y166175D01*
X83346Y166103D01*
X83290Y166034D01*
X83231Y165967D01*
X83170Y165902D01*
X83105Y165841D01*
X83038Y165782D01*
X82969Y165726D01*
X82897Y165673D01*
X82822Y165623D01*
X82746Y165577D01*
X82668Y165534D01*
X82588Y165495D01*
X82506Y165459D01*
X82423Y165426D01*
X82338Y165398D01*
X82253Y165373D01*
X82166Y165351D01*
X82078Y165334D01*
X81990Y165321D01*
X81901Y165311D01*
X81812Y165305D01*
X81723Y165303D01*
X79677Y165303D01*
X67336Y147269D02*
X67336Y139903D01*
X65290Y147269D02*
X69383Y147269D01*
X76619Y147269D02*
X71709Y139903D01*
X76619Y139903D02*
X71709Y147269D01*
X79677Y147269D02*
X79677Y139903D01*
X79677Y147269D02*
X81723Y147269D01*
X81812Y147267D01*
X81901Y147261D01*
X81990Y147251D01*
X82078Y147238D01*
X82166Y147221D01*
X82253Y147199D01*
X82338Y147174D01*
X82423Y147146D01*
X82506Y147113D01*
X82588Y147077D01*
X82668Y147038D01*
X82746Y146995D01*
X82822Y146949D01*
X82897Y146899D01*
X82969Y146846D01*
X83038Y146790D01*
X83105Y146731D01*
X83170Y146670D01*
X83231Y146605D01*
X83290Y146538D01*
X83346Y146469D01*
X83399Y146397D01*
X83449Y146322D01*
X83495Y146246D01*
X83538Y146168D01*
X83577Y146088D01*
X83613Y146006D01*
X83646Y145923D01*
X83674Y145838D01*
X83699Y145753D01*
X83721Y145666D01*
X83738Y145578D01*
X83751Y145490D01*
X83761Y145401D01*
X83767Y145312D01*
X83769Y145223D01*
X83769Y141949D01*
X83767Y141860D01*
X83761Y141771D01*
X83751Y141682D01*
X83738Y141594D01*
X83721Y141506D01*
X83699Y141419D01*
X83674Y141334D01*
X83646Y141249D01*
X83613Y141166D01*
X83577Y141084D01*
X83538Y141004D01*
X83495Y140926D01*
X83449Y140850D01*
X83399Y140775D01*
X83346Y140703D01*
X83290Y140634D01*
X83231Y140567D01*
X83170Y140502D01*
X83105Y140441D01*
X83038Y140382D01*
X82969Y140326D01*
X82897Y140273D01*
X82822Y140223D01*
X82746Y140177D01*
X82668Y140134D01*
X82588Y140095D01*
X82506Y140059D01*
X82423Y140026D01*
X82338Y139998D01*
X82253Y139973D01*
X82166Y139951D01*
X82078Y139934D01*
X81990Y139921D01*
X81901Y139911D01*
X81812Y139905D01*
X81723Y139903D01*
X79677Y139903D01*
D10*
X87474Y92532D02*
X94699Y92532D01*
X87474Y92532D02*
X87474Y108788D01*
X94699Y108788D01*
X92893Y101563D02*
X87474Y101563D01*
X105368Y92532D02*
X105486Y92534D01*
X105604Y92540D01*
X105722Y92549D01*
X105839Y92563D01*
X105956Y92580D01*
X106073Y92601D01*
X106188Y92626D01*
X106303Y92655D01*
X106417Y92688D01*
X106529Y92724D01*
X106640Y92764D01*
X106750Y92807D01*
X106859Y92854D01*
X106966Y92904D01*
X107071Y92959D01*
X107174Y93016D01*
X107275Y93077D01*
X107375Y93141D01*
X107472Y93208D01*
X107567Y93278D01*
X107659Y93352D01*
X107750Y93428D01*
X107837Y93508D01*
X107922Y93590D01*
X108004Y93675D01*
X108084Y93762D01*
X108160Y93853D01*
X108234Y93945D01*
X108304Y94040D01*
X108371Y94137D01*
X108435Y94237D01*
X108496Y94338D01*
X108553Y94441D01*
X108608Y94546D01*
X108658Y94653D01*
X108705Y94762D01*
X108748Y94872D01*
X108788Y94983D01*
X108824Y95095D01*
X108857Y95209D01*
X108886Y95324D01*
X108911Y95439D01*
X108932Y95556D01*
X108949Y95673D01*
X108963Y95790D01*
X108972Y95908D01*
X108978Y96026D01*
X108980Y96144D01*
X105368Y92532D02*
X105185Y92534D01*
X105003Y92541D01*
X104821Y92552D01*
X104639Y92567D01*
X104457Y92587D01*
X104276Y92610D01*
X104096Y92639D01*
X103916Y92671D01*
X103737Y92708D01*
X103560Y92749D01*
X103383Y92795D01*
X103207Y92844D01*
X103033Y92898D01*
X102859Y92956D01*
X102688Y93018D01*
X102518Y93084D01*
X102349Y93155D01*
X102182Y93229D01*
X102017Y93307D01*
X101854Y93389D01*
X101693Y93475D01*
X101534Y93565D01*
X101377Y93659D01*
X101223Y93756D01*
X101071Y93857D01*
X100921Y93962D01*
X100774Y94070D01*
X100630Y94181D01*
X100488Y94296D01*
X100349Y94415D01*
X100213Y94537D01*
X100080Y94662D01*
X99950Y94790D01*
X100401Y105176D02*
X100403Y105294D01*
X100409Y105412D01*
X100418Y105530D01*
X100432Y105647D01*
X100449Y105764D01*
X100470Y105881D01*
X100495Y105996D01*
X100524Y106111D01*
X100557Y106225D01*
X100593Y106337D01*
X100633Y106448D01*
X100676Y106558D01*
X100723Y106667D01*
X100773Y106774D01*
X100828Y106879D01*
X100885Y106982D01*
X100946Y107083D01*
X101010Y107183D01*
X101077Y107280D01*
X101147Y107375D01*
X101221Y107467D01*
X101297Y107558D01*
X101377Y107645D01*
X101459Y107730D01*
X101544Y107812D01*
X101631Y107892D01*
X101722Y107968D01*
X101814Y108042D01*
X101909Y108112D01*
X102006Y108179D01*
X102106Y108243D01*
X102207Y108304D01*
X102310Y108362D01*
X102415Y108416D01*
X102522Y108466D01*
X102631Y108513D01*
X102741Y108557D01*
X102852Y108596D01*
X102965Y108632D01*
X103078Y108665D01*
X103193Y108694D01*
X103308Y108719D01*
X103425Y108740D01*
X103542Y108757D01*
X103659Y108771D01*
X103777Y108780D01*
X103895Y108786D01*
X104013Y108788D01*
X104174Y108786D01*
X104336Y108780D01*
X104497Y108771D01*
X104658Y108757D01*
X104818Y108740D01*
X104978Y108719D01*
X105138Y108694D01*
X105297Y108665D01*
X105455Y108633D01*
X105612Y108597D01*
X105768Y108557D01*
X105924Y108513D01*
X106078Y108465D01*
X106231Y108414D01*
X106383Y108360D01*
X106534Y108301D01*
X106683Y108240D01*
X106830Y108174D01*
X106976Y108105D01*
X107121Y108033D01*
X107263Y107957D01*
X107404Y107878D01*
X107543Y107796D01*
X107679Y107710D01*
X107814Y107621D01*
X107947Y107529D01*
X108077Y107433D01*
X102206Y102015D02*
X102105Y102077D01*
X102005Y102142D01*
X101908Y102211D01*
X101813Y102283D01*
X101720Y102357D01*
X101630Y102435D01*
X101542Y102516D01*
X101457Y102599D01*
X101375Y102685D01*
X101296Y102774D01*
X101219Y102865D01*
X101146Y102959D01*
X101075Y103055D01*
X101008Y103153D01*
X100944Y103253D01*
X100883Y103356D01*
X100826Y103460D01*
X100772Y103566D01*
X100722Y103674D01*
X100675Y103783D01*
X100631Y103894D01*
X100591Y104006D01*
X100555Y104120D01*
X100523Y104234D01*
X100494Y104350D01*
X100469Y104466D01*
X100448Y104583D01*
X100431Y104701D01*
X100417Y104819D01*
X100408Y104938D01*
X100402Y105057D01*
X100400Y105176D01*
X107174Y99305D02*
X107275Y99243D01*
X107375Y99178D01*
X107472Y99109D01*
X107567Y99037D01*
X107660Y98963D01*
X107750Y98885D01*
X107838Y98804D01*
X107923Y98721D01*
X108005Y98635D01*
X108084Y98546D01*
X108161Y98455D01*
X108234Y98361D01*
X108305Y98265D01*
X108372Y98167D01*
X108436Y98067D01*
X108497Y97964D01*
X108554Y97860D01*
X108608Y97754D01*
X108658Y97646D01*
X108705Y97537D01*
X108749Y97426D01*
X108789Y97314D01*
X108825Y97200D01*
X108857Y97086D01*
X108886Y96970D01*
X108911Y96854D01*
X108932Y96737D01*
X108949Y96619D01*
X108963Y96501D01*
X108972Y96382D01*
X108978Y96263D01*
X108980Y96144D01*
X107174Y99305D02*
X102207Y102015D01*
X115791Y108788D02*
X115791Y92532D01*
X115791Y108788D02*
X120307Y108788D01*
X120440Y108786D01*
X120572Y108780D01*
X120704Y108770D01*
X120836Y108757D01*
X120968Y108739D01*
X121098Y108718D01*
X121229Y108693D01*
X121358Y108664D01*
X121486Y108631D01*
X121614Y108595D01*
X121740Y108555D01*
X121865Y108511D01*
X121989Y108463D01*
X122111Y108412D01*
X122232Y108357D01*
X122351Y108299D01*
X122469Y108237D01*
X122584Y108172D01*
X122698Y108103D01*
X122809Y108032D01*
X122918Y107956D01*
X123025Y107878D01*
X123130Y107797D01*
X123232Y107712D01*
X123332Y107625D01*
X123429Y107535D01*
X123524Y107442D01*
X123615Y107346D01*
X123704Y107248D01*
X123790Y107147D01*
X123873Y107043D01*
X123953Y106937D01*
X124029Y106829D01*
X124103Y106719D01*
X124173Y106606D01*
X124240Y106492D01*
X124303Y106375D01*
X124363Y106257D01*
X124420Y106137D01*
X124473Y106015D01*
X124522Y105892D01*
X124568Y105768D01*
X124610Y105642D01*
X124648Y105515D01*
X124683Y105387D01*
X124714Y105258D01*
X124741Y105129D01*
X124764Y104998D01*
X124784Y104867D01*
X124799Y104735D01*
X124811Y104603D01*
X124819Y104471D01*
X124823Y104338D01*
X124823Y104206D01*
X124819Y104073D01*
X124811Y103941D01*
X124799Y103809D01*
X124784Y103677D01*
X124764Y103546D01*
X124741Y103415D01*
X124714Y103286D01*
X124683Y103157D01*
X124648Y103029D01*
X124610Y102902D01*
X124568Y102776D01*
X124522Y102652D01*
X124473Y102529D01*
X124420Y102407D01*
X124363Y102287D01*
X124303Y102169D01*
X124240Y102052D01*
X124173Y101938D01*
X124103Y101825D01*
X124029Y101715D01*
X123953Y101607D01*
X123873Y101501D01*
X123790Y101397D01*
X123704Y101296D01*
X123615Y101198D01*
X123524Y101102D01*
X123429Y101009D01*
X123332Y100919D01*
X123232Y100832D01*
X123130Y100747D01*
X123025Y100666D01*
X122918Y100588D01*
X122809Y100512D01*
X122698Y100441D01*
X122584Y100372D01*
X122469Y100307D01*
X122351Y100245D01*
X122232Y100187D01*
X122111Y100132D01*
X121989Y100081D01*
X121865Y100033D01*
X121740Y99989D01*
X121614Y99949D01*
X121486Y99913D01*
X121358Y99880D01*
X121229Y99851D01*
X121098Y99826D01*
X120968Y99805D01*
X120836Y99787D01*
X120704Y99774D01*
X120572Y99764D01*
X120440Y99758D01*
X120307Y99756D01*
X120307Y99757D02*
X115791Y99757D01*
X130690Y97048D02*
X130692Y97181D01*
X130698Y97313D01*
X130708Y97445D01*
X130721Y97577D01*
X130739Y97709D01*
X130760Y97839D01*
X130785Y97970D01*
X130814Y98099D01*
X130847Y98227D01*
X130883Y98355D01*
X130923Y98481D01*
X130967Y98606D01*
X131015Y98730D01*
X131066Y98852D01*
X131121Y98973D01*
X131179Y99092D01*
X131241Y99210D01*
X131306Y99325D01*
X131375Y99439D01*
X131446Y99550D01*
X131522Y99659D01*
X131600Y99766D01*
X131681Y99871D01*
X131766Y99973D01*
X131853Y100073D01*
X131943Y100170D01*
X132036Y100265D01*
X132132Y100356D01*
X132230Y100445D01*
X132331Y100531D01*
X132435Y100614D01*
X132541Y100694D01*
X132649Y100770D01*
X132759Y100844D01*
X132872Y100914D01*
X132986Y100981D01*
X133103Y101044D01*
X133221Y101104D01*
X133341Y101161D01*
X133463Y101214D01*
X133586Y101263D01*
X133710Y101309D01*
X133836Y101351D01*
X133963Y101389D01*
X134091Y101424D01*
X134220Y101455D01*
X134349Y101482D01*
X134480Y101505D01*
X134611Y101525D01*
X134743Y101540D01*
X134875Y101552D01*
X135007Y101560D01*
X135140Y101564D01*
X135272Y101564D01*
X135405Y101560D01*
X135537Y101552D01*
X135669Y101540D01*
X135801Y101525D01*
X135932Y101505D01*
X136063Y101482D01*
X136192Y101455D01*
X136321Y101424D01*
X136449Y101389D01*
X136576Y101351D01*
X136702Y101309D01*
X136826Y101263D01*
X136949Y101214D01*
X137071Y101161D01*
X137191Y101104D01*
X137309Y101044D01*
X137426Y100981D01*
X137540Y100914D01*
X137653Y100844D01*
X137763Y100770D01*
X137871Y100694D01*
X137977Y100614D01*
X138081Y100531D01*
X138182Y100445D01*
X138280Y100356D01*
X138376Y100265D01*
X138469Y100170D01*
X138559Y100073D01*
X138646Y99973D01*
X138731Y99871D01*
X138812Y99766D01*
X138890Y99659D01*
X138966Y99550D01*
X139037Y99439D01*
X139106Y99325D01*
X139171Y99210D01*
X139233Y99092D01*
X139291Y98973D01*
X139346Y98852D01*
X139397Y98730D01*
X139445Y98606D01*
X139489Y98481D01*
X139529Y98355D01*
X139565Y98227D01*
X139598Y98099D01*
X139627Y97970D01*
X139652Y97839D01*
X139673Y97709D01*
X139691Y97577D01*
X139704Y97445D01*
X139714Y97313D01*
X139720Y97181D01*
X139722Y97048D01*
X139720Y96915D01*
X139714Y96783D01*
X139704Y96651D01*
X139691Y96519D01*
X139673Y96387D01*
X139652Y96257D01*
X139627Y96126D01*
X139598Y95997D01*
X139565Y95869D01*
X139529Y95741D01*
X139489Y95615D01*
X139445Y95490D01*
X139397Y95366D01*
X139346Y95244D01*
X139291Y95123D01*
X139233Y95004D01*
X139171Y94886D01*
X139106Y94771D01*
X139037Y94657D01*
X138966Y94546D01*
X138890Y94437D01*
X138812Y94330D01*
X138731Y94225D01*
X138646Y94123D01*
X138559Y94023D01*
X138469Y93926D01*
X138376Y93831D01*
X138280Y93740D01*
X138182Y93651D01*
X138081Y93565D01*
X137977Y93482D01*
X137871Y93402D01*
X137763Y93326D01*
X137653Y93252D01*
X137540Y93182D01*
X137426Y93115D01*
X137309Y93052D01*
X137191Y92992D01*
X137071Y92935D01*
X136949Y92882D01*
X136826Y92833D01*
X136702Y92787D01*
X136576Y92745D01*
X136449Y92707D01*
X136321Y92672D01*
X136192Y92641D01*
X136063Y92614D01*
X135932Y92591D01*
X135801Y92571D01*
X135669Y92556D01*
X135537Y92544D01*
X135405Y92536D01*
X135272Y92532D01*
X135140Y92532D01*
X135007Y92536D01*
X134875Y92544D01*
X134743Y92556D01*
X134611Y92571D01*
X134480Y92591D01*
X134349Y92614D01*
X134220Y92641D01*
X134091Y92672D01*
X133963Y92707D01*
X133836Y92745D01*
X133710Y92787D01*
X133586Y92833D01*
X133463Y92882D01*
X133341Y92935D01*
X133221Y92992D01*
X133103Y93052D01*
X132986Y93115D01*
X132872Y93182D01*
X132759Y93252D01*
X132649Y93326D01*
X132541Y93402D01*
X132435Y93482D01*
X132331Y93565D01*
X132230Y93651D01*
X132132Y93740D01*
X132036Y93831D01*
X131943Y93926D01*
X131853Y94023D01*
X131766Y94123D01*
X131681Y94225D01*
X131600Y94330D01*
X131522Y94437D01*
X131446Y94546D01*
X131375Y94657D01*
X131306Y94771D01*
X131241Y94886D01*
X131179Y95004D01*
X131121Y95123D01*
X131066Y95244D01*
X131015Y95366D01*
X130967Y95490D01*
X130923Y95615D01*
X130883Y95741D01*
X130847Y95869D01*
X130814Y95997D01*
X130785Y96126D01*
X130760Y96257D01*
X130739Y96387D01*
X130721Y96519D01*
X130708Y96651D01*
X130698Y96783D01*
X130692Y96915D01*
X130690Y97048D01*
X131594Y105176D02*
X131596Y105295D01*
X131602Y105415D01*
X131612Y105534D01*
X131626Y105652D01*
X131643Y105771D01*
X131665Y105888D01*
X131690Y106005D01*
X131720Y106120D01*
X131753Y106235D01*
X131790Y106349D01*
X131830Y106461D01*
X131875Y106572D01*
X131923Y106681D01*
X131974Y106789D01*
X132029Y106895D01*
X132088Y106999D01*
X132150Y107101D01*
X132215Y107201D01*
X132284Y107299D01*
X132356Y107395D01*
X132431Y107488D01*
X132508Y107578D01*
X132589Y107666D01*
X132673Y107751D01*
X132760Y107833D01*
X132849Y107913D01*
X132941Y107989D01*
X133035Y108063D01*
X133132Y108133D01*
X133230Y108200D01*
X133331Y108264D01*
X133435Y108324D01*
X133540Y108381D01*
X133647Y108434D01*
X133755Y108484D01*
X133865Y108530D01*
X133977Y108572D01*
X134090Y108611D01*
X134204Y108646D01*
X134319Y108677D01*
X134436Y108705D01*
X134553Y108728D01*
X134670Y108748D01*
X134789Y108764D01*
X134908Y108776D01*
X135027Y108784D01*
X135146Y108788D01*
X135266Y108788D01*
X135385Y108784D01*
X135504Y108776D01*
X135623Y108764D01*
X135742Y108748D01*
X135859Y108728D01*
X135976Y108705D01*
X136093Y108677D01*
X136208Y108646D01*
X136322Y108611D01*
X136435Y108572D01*
X136547Y108530D01*
X136657Y108484D01*
X136765Y108434D01*
X136872Y108381D01*
X136977Y108324D01*
X137081Y108264D01*
X137182Y108200D01*
X137280Y108133D01*
X137377Y108063D01*
X137471Y107989D01*
X137563Y107913D01*
X137652Y107833D01*
X137739Y107751D01*
X137823Y107666D01*
X137904Y107578D01*
X137981Y107488D01*
X138056Y107395D01*
X138128Y107299D01*
X138197Y107201D01*
X138262Y107101D01*
X138324Y106999D01*
X138383Y106895D01*
X138438Y106789D01*
X138489Y106681D01*
X138537Y106572D01*
X138582Y106461D01*
X138622Y106349D01*
X138659Y106235D01*
X138692Y106120D01*
X138722Y106005D01*
X138747Y105888D01*
X138769Y105771D01*
X138786Y105652D01*
X138800Y105534D01*
X138810Y105415D01*
X138816Y105295D01*
X138818Y105176D01*
X138816Y105057D01*
X138810Y104937D01*
X138800Y104818D01*
X138786Y104700D01*
X138769Y104581D01*
X138747Y104464D01*
X138722Y104347D01*
X138692Y104232D01*
X138659Y104117D01*
X138622Y104003D01*
X138582Y103891D01*
X138537Y103780D01*
X138489Y103671D01*
X138438Y103563D01*
X138383Y103457D01*
X138324Y103353D01*
X138262Y103251D01*
X138197Y103151D01*
X138128Y103053D01*
X138056Y102957D01*
X137981Y102864D01*
X137904Y102774D01*
X137823Y102686D01*
X137739Y102601D01*
X137652Y102519D01*
X137563Y102439D01*
X137471Y102363D01*
X137377Y102289D01*
X137280Y102219D01*
X137182Y102152D01*
X137081Y102088D01*
X136977Y102028D01*
X136872Y101971D01*
X136765Y101918D01*
X136657Y101868D01*
X136547Y101822D01*
X136435Y101780D01*
X136322Y101741D01*
X136208Y101706D01*
X136093Y101675D01*
X135976Y101647D01*
X135859Y101624D01*
X135742Y101604D01*
X135623Y101588D01*
X135504Y101576D01*
X135385Y101568D01*
X135266Y101564D01*
X135146Y101564D01*
X135027Y101568D01*
X134908Y101576D01*
X134789Y101588D01*
X134670Y101604D01*
X134553Y101624D01*
X134436Y101647D01*
X134319Y101675D01*
X134204Y101706D01*
X134090Y101741D01*
X133977Y101780D01*
X133865Y101822D01*
X133755Y101868D01*
X133647Y101918D01*
X133540Y101971D01*
X133435Y102028D01*
X133331Y102088D01*
X133230Y102152D01*
X133132Y102219D01*
X133035Y102289D01*
X132941Y102363D01*
X132849Y102439D01*
X132760Y102519D01*
X132673Y102601D01*
X132589Y102686D01*
X132508Y102774D01*
X132431Y102864D01*
X132356Y102957D01*
X132284Y103053D01*
X132215Y103151D01*
X132150Y103251D01*
X132088Y103353D01*
X132029Y103457D01*
X131974Y103563D01*
X131923Y103671D01*
X131875Y103780D01*
X131830Y103891D01*
X131790Y104003D01*
X131753Y104117D01*
X131720Y104232D01*
X131690Y104347D01*
X131665Y104464D01*
X131643Y104581D01*
X131626Y104700D01*
X131612Y104818D01*
X131602Y104937D01*
X131596Y105057D01*
X131594Y105176D01*
X151289Y108788D02*
X151414Y108786D01*
X151539Y108780D01*
X151664Y108771D01*
X151788Y108757D01*
X151912Y108740D01*
X152036Y108719D01*
X152158Y108694D01*
X152280Y108665D01*
X152401Y108633D01*
X152521Y108597D01*
X152640Y108557D01*
X152757Y108514D01*
X152873Y108467D01*
X152988Y108416D01*
X153100Y108362D01*
X153212Y108304D01*
X153321Y108244D01*
X153428Y108179D01*
X153534Y108112D01*
X153637Y108041D01*
X153738Y107967D01*
X153837Y107890D01*
X153933Y107810D01*
X154027Y107727D01*
X154118Y107642D01*
X154207Y107553D01*
X154292Y107462D01*
X154375Y107368D01*
X154455Y107272D01*
X154532Y107173D01*
X154606Y107072D01*
X154677Y106969D01*
X154744Y106863D01*
X154809Y106756D01*
X154869Y106647D01*
X154927Y106535D01*
X154981Y106423D01*
X155032Y106308D01*
X155079Y106192D01*
X155122Y106075D01*
X155162Y105956D01*
X155198Y105836D01*
X155230Y105715D01*
X155259Y105593D01*
X155284Y105471D01*
X155305Y105347D01*
X155322Y105223D01*
X155336Y105099D01*
X155345Y104974D01*
X155351Y104849D01*
X155353Y104724D01*
X151289Y108788D02*
X151146Y108786D01*
X151004Y108780D01*
X150861Y108770D01*
X150719Y108757D01*
X150578Y108739D01*
X150436Y108718D01*
X150296Y108693D01*
X150156Y108664D01*
X150017Y108631D01*
X149879Y108594D01*
X149742Y108554D01*
X149607Y108510D01*
X149472Y108462D01*
X149339Y108410D01*
X149207Y108355D01*
X149077Y108296D01*
X148949Y108234D01*
X148822Y108168D01*
X148697Y108099D01*
X148574Y108027D01*
X148454Y107951D01*
X148335Y107872D01*
X148218Y107789D01*
X148104Y107704D01*
X147992Y107615D01*
X147883Y107524D01*
X147776Y107429D01*
X147671Y107332D01*
X147570Y107231D01*
X147471Y107128D01*
X147375Y107023D01*
X147282Y106914D01*
X147192Y106803D01*
X147105Y106690D01*
X147021Y106575D01*
X146941Y106457D01*
X146863Y106337D01*
X146789Y106215D01*
X146719Y106091D01*
X146651Y105965D01*
X146588Y105837D01*
X146527Y105708D01*
X146470Y105577D01*
X146417Y105445D01*
X146368Y105311D01*
X146322Y105176D01*
X153998Y101563D02*
X154092Y101655D01*
X154182Y101749D01*
X154270Y101846D01*
X154355Y101946D01*
X154437Y102048D01*
X154516Y102153D01*
X154591Y102260D01*
X154663Y102369D01*
X154732Y102480D01*
X154798Y102594D01*
X154860Y102709D01*
X154919Y102826D01*
X154974Y102945D01*
X155025Y103065D01*
X155073Y103187D01*
X155118Y103310D01*
X155158Y103434D01*
X155195Y103560D01*
X155228Y103687D01*
X155257Y103814D01*
X155283Y103943D01*
X155304Y104072D01*
X155322Y104202D01*
X155335Y104332D01*
X155345Y104462D01*
X155351Y104593D01*
X155353Y104724D01*
X153998Y101563D02*
X146322Y92532D01*
X155353Y92532D01*
X161953Y101563D02*
X167372Y101563D01*
X167490Y101561D01*
X167608Y101555D01*
X167726Y101546D01*
X167843Y101532D01*
X167960Y101515D01*
X168077Y101494D01*
X168192Y101469D01*
X168307Y101440D01*
X168421Y101407D01*
X168533Y101371D01*
X168644Y101331D01*
X168754Y101288D01*
X168863Y101241D01*
X168970Y101191D01*
X169075Y101136D01*
X169178Y101079D01*
X169279Y101018D01*
X169379Y100954D01*
X169476Y100887D01*
X169571Y100817D01*
X169663Y100743D01*
X169754Y100667D01*
X169841Y100587D01*
X169926Y100505D01*
X170008Y100420D01*
X170088Y100333D01*
X170164Y100242D01*
X170238Y100150D01*
X170308Y100055D01*
X170375Y99958D01*
X170439Y99858D01*
X170500Y99757D01*
X170557Y99654D01*
X170612Y99549D01*
X170662Y99442D01*
X170709Y99333D01*
X170752Y99223D01*
X170792Y99112D01*
X170828Y99000D01*
X170861Y98886D01*
X170890Y98771D01*
X170915Y98656D01*
X170936Y98539D01*
X170953Y98422D01*
X170967Y98305D01*
X170976Y98187D01*
X170982Y98069D01*
X170984Y97951D01*
X170984Y97048D01*
X170982Y96915D01*
X170976Y96783D01*
X170966Y96651D01*
X170953Y96519D01*
X170935Y96387D01*
X170914Y96257D01*
X170889Y96126D01*
X170860Y95997D01*
X170827Y95869D01*
X170791Y95741D01*
X170751Y95615D01*
X170707Y95490D01*
X170659Y95366D01*
X170608Y95244D01*
X170553Y95123D01*
X170495Y95004D01*
X170433Y94886D01*
X170368Y94771D01*
X170299Y94657D01*
X170228Y94546D01*
X170152Y94437D01*
X170074Y94330D01*
X169993Y94225D01*
X169908Y94123D01*
X169821Y94023D01*
X169731Y93926D01*
X169638Y93831D01*
X169542Y93740D01*
X169444Y93651D01*
X169343Y93565D01*
X169239Y93482D01*
X169133Y93402D01*
X169025Y93326D01*
X168915Y93252D01*
X168802Y93182D01*
X168688Y93115D01*
X168571Y93052D01*
X168453Y92992D01*
X168333Y92935D01*
X168211Y92882D01*
X168088Y92833D01*
X167964Y92787D01*
X167838Y92745D01*
X167711Y92707D01*
X167583Y92672D01*
X167454Y92641D01*
X167325Y92614D01*
X167194Y92591D01*
X167063Y92571D01*
X166931Y92556D01*
X166799Y92544D01*
X166667Y92536D01*
X166534Y92532D01*
X166402Y92532D01*
X166269Y92536D01*
X166137Y92544D01*
X166005Y92556D01*
X165873Y92571D01*
X165742Y92591D01*
X165611Y92614D01*
X165482Y92641D01*
X165353Y92672D01*
X165225Y92707D01*
X165098Y92745D01*
X164972Y92787D01*
X164848Y92833D01*
X164725Y92882D01*
X164603Y92935D01*
X164483Y92992D01*
X164365Y93052D01*
X164248Y93115D01*
X164134Y93182D01*
X164021Y93252D01*
X163911Y93326D01*
X163803Y93402D01*
X163697Y93482D01*
X163593Y93565D01*
X163492Y93651D01*
X163394Y93740D01*
X163298Y93831D01*
X163205Y93926D01*
X163115Y94023D01*
X163028Y94123D01*
X162943Y94225D01*
X162862Y94330D01*
X162784Y94437D01*
X162708Y94546D01*
X162637Y94657D01*
X162568Y94771D01*
X162503Y94886D01*
X162441Y95004D01*
X162383Y95123D01*
X162328Y95244D01*
X162277Y95366D01*
X162229Y95490D01*
X162185Y95615D01*
X162145Y95741D01*
X162109Y95869D01*
X162076Y95997D01*
X162047Y96126D01*
X162022Y96257D01*
X162001Y96387D01*
X161983Y96519D01*
X161970Y96651D01*
X161960Y96783D01*
X161954Y96915D01*
X161952Y97048D01*
X161953Y97048D02*
X161953Y101563D01*
X161955Y101740D01*
X161962Y101918D01*
X161973Y102095D01*
X161988Y102271D01*
X162007Y102447D01*
X162031Y102623D01*
X162059Y102798D01*
X162092Y102973D01*
X162129Y103146D01*
X162170Y103319D01*
X162215Y103490D01*
X162264Y103660D01*
X162318Y103829D01*
X162375Y103997D01*
X162437Y104163D01*
X162503Y104328D01*
X162573Y104491D01*
X162647Y104652D01*
X162724Y104811D01*
X162806Y104969D01*
X162892Y105124D01*
X162981Y105277D01*
X163074Y105428D01*
X163171Y105577D01*
X163271Y105723D01*
X163375Y105867D01*
X163482Y106008D01*
X163593Y106146D01*
X163707Y106282D01*
X163825Y106415D01*
X163945Y106545D01*
X164069Y106672D01*
X164196Y106796D01*
X164326Y106916D01*
X164459Y107034D01*
X164594Y107148D01*
X164733Y107259D01*
X164874Y107366D01*
X165018Y107470D01*
X165164Y107570D01*
X165313Y107667D01*
X165464Y107760D01*
X165617Y107849D01*
X165772Y107935D01*
X165930Y108017D01*
X166089Y108094D01*
X166250Y108168D01*
X166413Y108238D01*
X166578Y108304D01*
X166744Y108366D01*
X166912Y108423D01*
X167081Y108477D01*
X167251Y108526D01*
X167422Y108571D01*
X167595Y108612D01*
X167768Y108649D01*
X167943Y108682D01*
X168118Y108710D01*
X168294Y108734D01*
X168470Y108753D01*
X168646Y108768D01*
X168823Y108779D01*
X169001Y108786D01*
X169178Y108788D01*
X177584Y101563D02*
X183003Y101563D01*
X183121Y101561D01*
X183239Y101555D01*
X183357Y101546D01*
X183474Y101532D01*
X183591Y101515D01*
X183708Y101494D01*
X183823Y101469D01*
X183938Y101440D01*
X184052Y101407D01*
X184164Y101371D01*
X184275Y101331D01*
X184385Y101288D01*
X184494Y101241D01*
X184601Y101191D01*
X184706Y101136D01*
X184809Y101079D01*
X184910Y101018D01*
X185010Y100954D01*
X185107Y100887D01*
X185202Y100817D01*
X185294Y100743D01*
X185385Y100667D01*
X185472Y100587D01*
X185557Y100505D01*
X185639Y100420D01*
X185719Y100333D01*
X185795Y100242D01*
X185869Y100150D01*
X185939Y100055D01*
X186006Y99958D01*
X186070Y99858D01*
X186131Y99757D01*
X186188Y99654D01*
X186243Y99549D01*
X186293Y99442D01*
X186340Y99333D01*
X186383Y99223D01*
X186423Y99112D01*
X186459Y99000D01*
X186492Y98886D01*
X186521Y98771D01*
X186546Y98656D01*
X186567Y98539D01*
X186584Y98422D01*
X186598Y98305D01*
X186607Y98187D01*
X186613Y98069D01*
X186615Y97951D01*
X186615Y97048D01*
X186616Y97048D02*
X186614Y96915D01*
X186608Y96783D01*
X186598Y96651D01*
X186585Y96519D01*
X186567Y96387D01*
X186546Y96257D01*
X186521Y96126D01*
X186492Y95997D01*
X186459Y95869D01*
X186423Y95741D01*
X186383Y95615D01*
X186339Y95490D01*
X186291Y95366D01*
X186240Y95244D01*
X186185Y95123D01*
X186127Y95004D01*
X186065Y94886D01*
X186000Y94771D01*
X185931Y94657D01*
X185860Y94546D01*
X185784Y94437D01*
X185706Y94330D01*
X185625Y94225D01*
X185540Y94123D01*
X185453Y94023D01*
X185363Y93926D01*
X185270Y93831D01*
X185174Y93740D01*
X185076Y93651D01*
X184975Y93565D01*
X184871Y93482D01*
X184765Y93402D01*
X184657Y93326D01*
X184547Y93252D01*
X184434Y93182D01*
X184320Y93115D01*
X184203Y93052D01*
X184085Y92992D01*
X183965Y92935D01*
X183843Y92882D01*
X183720Y92833D01*
X183596Y92787D01*
X183470Y92745D01*
X183343Y92707D01*
X183215Y92672D01*
X183086Y92641D01*
X182957Y92614D01*
X182826Y92591D01*
X182695Y92571D01*
X182563Y92556D01*
X182431Y92544D01*
X182299Y92536D01*
X182166Y92532D01*
X182034Y92532D01*
X181901Y92536D01*
X181769Y92544D01*
X181637Y92556D01*
X181505Y92571D01*
X181374Y92591D01*
X181243Y92614D01*
X181114Y92641D01*
X180985Y92672D01*
X180857Y92707D01*
X180730Y92745D01*
X180604Y92787D01*
X180480Y92833D01*
X180357Y92882D01*
X180235Y92935D01*
X180115Y92992D01*
X179997Y93052D01*
X179880Y93115D01*
X179766Y93182D01*
X179653Y93252D01*
X179543Y93326D01*
X179435Y93402D01*
X179329Y93482D01*
X179225Y93565D01*
X179124Y93651D01*
X179026Y93740D01*
X178930Y93831D01*
X178837Y93926D01*
X178747Y94023D01*
X178660Y94123D01*
X178575Y94225D01*
X178494Y94330D01*
X178416Y94437D01*
X178340Y94546D01*
X178269Y94657D01*
X178200Y94771D01*
X178135Y94886D01*
X178073Y95004D01*
X178015Y95123D01*
X177960Y95244D01*
X177909Y95366D01*
X177861Y95490D01*
X177817Y95615D01*
X177777Y95741D01*
X177741Y95869D01*
X177708Y95997D01*
X177679Y96126D01*
X177654Y96257D01*
X177633Y96387D01*
X177615Y96519D01*
X177602Y96651D01*
X177592Y96783D01*
X177586Y96915D01*
X177584Y97048D01*
X177584Y101563D01*
X177586Y101740D01*
X177593Y101918D01*
X177604Y102095D01*
X177619Y102271D01*
X177638Y102447D01*
X177662Y102623D01*
X177690Y102798D01*
X177723Y102973D01*
X177760Y103146D01*
X177801Y103319D01*
X177846Y103490D01*
X177895Y103660D01*
X177949Y103829D01*
X178006Y103997D01*
X178068Y104163D01*
X178134Y104328D01*
X178204Y104491D01*
X178278Y104652D01*
X178355Y104811D01*
X178437Y104969D01*
X178523Y105124D01*
X178612Y105277D01*
X178705Y105428D01*
X178802Y105577D01*
X178902Y105723D01*
X179006Y105867D01*
X179113Y106008D01*
X179224Y106146D01*
X179338Y106282D01*
X179456Y106415D01*
X179576Y106545D01*
X179700Y106672D01*
X179827Y106796D01*
X179957Y106916D01*
X180090Y107034D01*
X180225Y107148D01*
X180364Y107259D01*
X180505Y107366D01*
X180649Y107470D01*
X180795Y107570D01*
X180944Y107667D01*
X181095Y107760D01*
X181248Y107849D01*
X181403Y107935D01*
X181561Y108017D01*
X181720Y108094D01*
X181881Y108168D01*
X182044Y108238D01*
X182209Y108304D01*
X182375Y108366D01*
X182543Y108423D01*
X182712Y108477D01*
X182882Y108526D01*
X183053Y108571D01*
X183226Y108612D01*
X183399Y108649D01*
X183574Y108682D01*
X183749Y108710D01*
X183925Y108734D01*
X184101Y108753D01*
X184277Y108768D01*
X184454Y108779D01*
X184632Y108786D01*
X184809Y108788D01*
X200892Y103369D02*
X204504Y92532D01*
X208117Y103369D01*
X214057Y92532D02*
X219476Y92532D01*
X219594Y92534D01*
X219712Y92540D01*
X219830Y92549D01*
X219947Y92563D01*
X220064Y92580D01*
X220181Y92601D01*
X220296Y92626D01*
X220411Y92655D01*
X220525Y92688D01*
X220637Y92724D01*
X220748Y92764D01*
X220858Y92807D01*
X220967Y92854D01*
X221074Y92904D01*
X221179Y92959D01*
X221282Y93016D01*
X221383Y93077D01*
X221483Y93141D01*
X221580Y93208D01*
X221675Y93278D01*
X221767Y93352D01*
X221858Y93428D01*
X221945Y93508D01*
X222030Y93590D01*
X222112Y93675D01*
X222192Y93762D01*
X222268Y93853D01*
X222342Y93945D01*
X222412Y94040D01*
X222479Y94137D01*
X222543Y94237D01*
X222604Y94338D01*
X222661Y94441D01*
X222716Y94546D01*
X222766Y94653D01*
X222813Y94762D01*
X222856Y94872D01*
X222896Y94983D01*
X222932Y95095D01*
X222965Y95209D01*
X222994Y95324D01*
X223019Y95439D01*
X223040Y95556D01*
X223057Y95673D01*
X223071Y95790D01*
X223080Y95908D01*
X223086Y96026D01*
X223088Y96144D01*
X223088Y97951D01*
X223086Y98069D01*
X223080Y98187D01*
X223071Y98305D01*
X223057Y98422D01*
X223040Y98539D01*
X223019Y98656D01*
X222994Y98771D01*
X222965Y98886D01*
X222932Y99000D01*
X222896Y99112D01*
X222856Y99223D01*
X222813Y99333D01*
X222766Y99442D01*
X222716Y99549D01*
X222661Y99654D01*
X222604Y99757D01*
X222543Y99858D01*
X222479Y99958D01*
X222412Y100055D01*
X222342Y100150D01*
X222268Y100242D01*
X222192Y100333D01*
X222112Y100420D01*
X222030Y100505D01*
X221945Y100587D01*
X221858Y100667D01*
X221767Y100743D01*
X221675Y100817D01*
X221580Y100887D01*
X221483Y100954D01*
X221383Y101018D01*
X221282Y101079D01*
X221179Y101136D01*
X221074Y101191D01*
X220967Y101241D01*
X220858Y101288D01*
X220748Y101331D01*
X220637Y101371D01*
X220525Y101407D01*
X220411Y101440D01*
X220296Y101469D01*
X220181Y101494D01*
X220064Y101515D01*
X219947Y101532D01*
X219830Y101546D01*
X219712Y101555D01*
X219594Y101561D01*
X219476Y101563D01*
X214057Y101563D01*
X214057Y108788D01*
X223088Y108788D01*
D11*
X13Y57163D02*
X13Y368313D01*
X13Y371488D01*
X13Y57163D02*
X7950Y57163D01*
X7950Y368313D02*
X13Y368313D01*
M02*
