M48
;GenerationSoftware,Autodesk,EAGLE,8.6.0*%
;CreationDate,2018-03-02T20:01:04Z*%
FMAT,2
ICI,OFF
METRIC,TZ,000.000
T4C0.813
T3C1.000
T2C1.016
%
G90
M71
T2
X23495Y2540
X20955Y2540
X18415Y2540
X15875Y2540
X13335Y2540
X10795Y2540
X26035Y2540
T3
X31910Y24925
X31910Y14765
X31910Y17305
X31910Y19845
X31910Y22385
X2160Y14765
X31910Y27465
X31910Y30005
X31910Y32545
X2160Y32545
X2160Y30005
X2160Y27465
X2160Y24925
X2160Y22385
X2160Y19845
X2160Y17305
X34925Y1905
X635Y1270
T4
X14605Y21590
X14605Y31750
X14605Y29210
X14605Y16510
X14605Y13970
X14605Y26670
X14605Y24130
X14605Y19050
X22225Y31750
X22225Y13970
X22225Y16510
X22225Y19050
X22225Y21590
X22225Y24130
X22225Y26670
X22225Y29210
M30