G04 EAGLE Gerber X2 export*
%TF.Part,Single*%
%TF.FileFunction,Profile,NP*%
%TF.FilePolarity,Positive*%
%TF.GenerationSoftware,Autodesk,EAGLE,8.6.0*%
%TF.CreationDate,2018-03-02T20:01:04Z*%
G75*
%MOMM*%
%FSLAX34Y34*%
%LPD*%
%AMOC8*
5,1,8,0,0,1.08239X$1,22.5*%
G01*
%ADD10C,0.254000*%


D10*
X-12700Y-6350D02*
X374600Y-6350D01*
X374600Y387300D01*
X-12700Y387300D01*
X-12700Y-6350D01*
X354250Y18769D02*
X354187Y18211D01*
X354062Y17664D01*
X353877Y17134D01*
X353633Y16628D01*
X353334Y16152D01*
X352984Y15713D01*
X352587Y15316D01*
X352148Y14966D01*
X351672Y14667D01*
X351166Y14423D01*
X350636Y14238D01*
X350089Y14113D01*
X349531Y14050D01*
X348969Y14050D01*
X348411Y14113D01*
X347864Y14238D01*
X347334Y14423D01*
X346828Y14667D01*
X346352Y14966D01*
X345913Y15316D01*
X345516Y15713D01*
X345166Y16152D01*
X344867Y16628D01*
X344623Y17134D01*
X344438Y17664D01*
X344313Y18211D01*
X344250Y18769D01*
X344250Y19331D01*
X344313Y19889D01*
X344438Y20436D01*
X344623Y20966D01*
X344867Y21472D01*
X345166Y21948D01*
X345516Y22387D01*
X345913Y22784D01*
X346352Y23134D01*
X346828Y23433D01*
X347334Y23677D01*
X347864Y23862D01*
X348411Y23987D01*
X348969Y24050D01*
X349531Y24050D01*
X350089Y23987D01*
X350636Y23862D01*
X351166Y23677D01*
X351672Y23433D01*
X352148Y23134D01*
X352587Y22784D01*
X352984Y22387D01*
X353334Y21948D01*
X353633Y21472D01*
X353877Y20966D01*
X354062Y20436D01*
X354187Y19889D01*
X354250Y19331D01*
X354250Y18769D01*
X11350Y12419D02*
X11287Y11861D01*
X11162Y11314D01*
X10977Y10784D01*
X10733Y10278D01*
X10434Y9802D01*
X10084Y9363D01*
X9687Y8966D01*
X9248Y8616D01*
X8772Y8317D01*
X8266Y8073D01*
X7736Y7888D01*
X7189Y7763D01*
X6631Y7700D01*
X6069Y7700D01*
X5511Y7763D01*
X4964Y7888D01*
X4434Y8073D01*
X3928Y8317D01*
X3452Y8616D01*
X3013Y8966D01*
X2616Y9363D01*
X2266Y9802D01*
X1967Y10278D01*
X1723Y10784D01*
X1538Y11314D01*
X1413Y11861D01*
X1350Y12419D01*
X1350Y12981D01*
X1413Y13539D01*
X1538Y14086D01*
X1723Y14616D01*
X1967Y15122D01*
X2266Y15598D01*
X2616Y16037D01*
X3013Y16434D01*
X3452Y16784D01*
X3928Y17083D01*
X4434Y17327D01*
X4964Y17512D01*
X5511Y17637D01*
X6069Y17700D01*
X6631Y17700D01*
X7189Y17637D01*
X7736Y17512D01*
X8266Y17327D01*
X8772Y17083D01*
X9248Y16784D01*
X9687Y16434D01*
X10084Y16037D01*
X10434Y15598D01*
X10733Y15122D01*
X10977Y14616D01*
X11162Y14086D01*
X11287Y13539D01*
X11350Y12981D01*
X11350Y12419D01*
X354250Y18769D02*
X354187Y18211D01*
X354062Y17664D01*
X353877Y17134D01*
X353633Y16628D01*
X353334Y16152D01*
X352984Y15713D01*
X352587Y15316D01*
X352148Y14966D01*
X351672Y14667D01*
X351166Y14423D01*
X350636Y14238D01*
X350089Y14113D01*
X349531Y14050D01*
X348969Y14050D01*
X348411Y14113D01*
X347864Y14238D01*
X347334Y14423D01*
X346828Y14667D01*
X346352Y14966D01*
X345913Y15316D01*
X345516Y15713D01*
X345166Y16152D01*
X344867Y16628D01*
X344623Y17134D01*
X344438Y17664D01*
X344313Y18211D01*
X344250Y18769D01*
X344250Y19331D01*
X344313Y19889D01*
X344438Y20436D01*
X344623Y20966D01*
X344867Y21472D01*
X345166Y21948D01*
X345516Y22387D01*
X345913Y22784D01*
X346352Y23134D01*
X346828Y23433D01*
X347334Y23677D01*
X347864Y23862D01*
X348411Y23987D01*
X348969Y24050D01*
X349531Y24050D01*
X350089Y23987D01*
X350636Y23862D01*
X351166Y23677D01*
X351672Y23433D01*
X352148Y23134D01*
X352587Y22784D01*
X352984Y22387D01*
X353334Y21948D01*
X353633Y21472D01*
X353877Y20966D01*
X354062Y20436D01*
X354187Y19889D01*
X354250Y19331D01*
X354250Y18769D01*
X11350Y12419D02*
X11287Y11861D01*
X11162Y11314D01*
X10977Y10784D01*
X10733Y10278D01*
X10434Y9802D01*
X10084Y9363D01*
X9687Y8966D01*
X9248Y8616D01*
X8772Y8317D01*
X8266Y8073D01*
X7736Y7888D01*
X7189Y7763D01*
X6631Y7700D01*
X6069Y7700D01*
X5511Y7763D01*
X4964Y7888D01*
X4434Y8073D01*
X3928Y8317D01*
X3452Y8616D01*
X3013Y8966D01*
X2616Y9363D01*
X2266Y9802D01*
X1967Y10278D01*
X1723Y10784D01*
X1538Y11314D01*
X1413Y11861D01*
X1350Y12419D01*
X1350Y12981D01*
X1413Y13539D01*
X1538Y14086D01*
X1723Y14616D01*
X1967Y15122D01*
X2266Y15598D01*
X2616Y16037D01*
X3013Y16434D01*
X3452Y16784D01*
X3928Y17083D01*
X4434Y17327D01*
X4964Y17512D01*
X5511Y17637D01*
X6069Y17700D01*
X6631Y17700D01*
X7189Y17637D01*
X7736Y17512D01*
X8266Y17327D01*
X8772Y17083D01*
X9248Y16784D01*
X9687Y16434D01*
X10084Y16037D01*
X10434Y15598D01*
X10733Y15122D01*
X10977Y14616D01*
X11162Y14086D01*
X11287Y13539D01*
X11350Y12981D01*
X11350Y12419D01*
M02*
