G04 EAGLE Gerber X2 export*
%TF.Part,Single*%
%TF.FileFunction,Legend,Top,1*%
%TF.FilePolarity,Positive*%
%TF.GenerationSoftware,Autodesk,EAGLE,8.6.0*%
%TF.CreationDate,2018-03-02T20:01:04Z*%
G75*
%MOMM*%
%FSLAX34Y34*%
%LPD*%
%AMOC8*
5,1,8,0,0,1.08239X$1,22.5*%
G01*
%ADD10C,0.152400*%
%ADD11C,0.127000*%
%ADD12C,0.203200*%
%ADD13C,0.076200*%


D10*
X213360Y127000D02*
X213360Y330200D01*
X154940Y330200D02*
X154940Y127000D01*
X213360Y127000D01*
X213360Y330200D02*
X194310Y330200D01*
X173990Y330200D02*
X154940Y330200D01*
X173990Y330200D02*
X173993Y329953D01*
X174002Y329705D01*
X174017Y329458D01*
X174038Y329212D01*
X174065Y328966D01*
X174098Y328721D01*
X174137Y328476D01*
X174182Y328233D01*
X174233Y327991D01*
X174290Y327750D01*
X174352Y327511D01*
X174421Y327273D01*
X174495Y327037D01*
X174575Y326803D01*
X174660Y326571D01*
X174752Y326341D01*
X174848Y326113D01*
X174951Y325888D01*
X175058Y325665D01*
X175172Y325445D01*
X175290Y325228D01*
X175414Y325013D01*
X175543Y324802D01*
X175677Y324594D01*
X175816Y324389D01*
X175960Y324188D01*
X176108Y323990D01*
X176262Y323796D01*
X176420Y323606D01*
X176583Y323420D01*
X176750Y323238D01*
X176922Y323060D01*
X177098Y322886D01*
X177278Y322716D01*
X177463Y322551D01*
X177651Y322391D01*
X177843Y322235D01*
X178039Y322083D01*
X178238Y321937D01*
X178441Y321795D01*
X178648Y321659D01*
X178857Y321527D01*
X179070Y321401D01*
X179286Y321280D01*
X179504Y321164D01*
X179726Y321054D01*
X179950Y320949D01*
X180176Y320849D01*
X180405Y320755D01*
X180636Y320667D01*
X180870Y320584D01*
X181105Y320507D01*
X181342Y320436D01*
X181580Y320370D01*
X181820Y320311D01*
X182062Y320257D01*
X182305Y320209D01*
X182548Y320167D01*
X182793Y320131D01*
X183039Y320101D01*
X183285Y320077D01*
X183532Y320059D01*
X183779Y320047D01*
X184026Y320041D01*
X184274Y320041D01*
X184521Y320047D01*
X184768Y320059D01*
X185015Y320077D01*
X185261Y320101D01*
X185507Y320131D01*
X185752Y320167D01*
X185995Y320209D01*
X186238Y320257D01*
X186480Y320311D01*
X186720Y320370D01*
X186958Y320436D01*
X187195Y320507D01*
X187430Y320584D01*
X187664Y320667D01*
X187895Y320755D01*
X188124Y320849D01*
X188350Y320949D01*
X188574Y321054D01*
X188796Y321164D01*
X189014Y321280D01*
X189230Y321401D01*
X189443Y321527D01*
X189652Y321659D01*
X189859Y321795D01*
X190062Y321937D01*
X190261Y322083D01*
X190457Y322235D01*
X190649Y322391D01*
X190837Y322551D01*
X191022Y322716D01*
X191202Y322886D01*
X191378Y323060D01*
X191550Y323238D01*
X191717Y323420D01*
X191880Y323606D01*
X192038Y323796D01*
X192192Y323990D01*
X192340Y324188D01*
X192484Y324389D01*
X192623Y324594D01*
X192757Y324802D01*
X192886Y325013D01*
X193010Y325228D01*
X193128Y325445D01*
X193242Y325665D01*
X193349Y325888D01*
X193452Y326113D01*
X193548Y326341D01*
X193640Y326571D01*
X193725Y326803D01*
X193805Y327037D01*
X193879Y327273D01*
X193948Y327511D01*
X194010Y327750D01*
X194067Y327991D01*
X194118Y328233D01*
X194163Y328476D01*
X194202Y328721D01*
X194235Y328966D01*
X194262Y329212D01*
X194283Y329458D01*
X194298Y329705D01*
X194307Y329953D01*
X194310Y330200D01*
D11*
X156845Y334645D02*
X156845Y346075D01*
X155575Y334645D02*
X158115Y334645D01*
X158115Y346075D02*
X155575Y346075D01*
X165317Y334645D02*
X167857Y334645D01*
X165317Y334645D02*
X165217Y334647D01*
X165118Y334653D01*
X165018Y334663D01*
X164920Y334676D01*
X164821Y334694D01*
X164724Y334715D01*
X164628Y334740D01*
X164532Y334769D01*
X164438Y334802D01*
X164345Y334838D01*
X164254Y334878D01*
X164164Y334922D01*
X164076Y334969D01*
X163990Y335019D01*
X163906Y335073D01*
X163824Y335130D01*
X163745Y335190D01*
X163667Y335254D01*
X163593Y335320D01*
X163521Y335389D01*
X163452Y335461D01*
X163386Y335535D01*
X163322Y335613D01*
X163262Y335692D01*
X163205Y335774D01*
X163151Y335858D01*
X163101Y335944D01*
X163054Y336032D01*
X163010Y336122D01*
X162970Y336213D01*
X162934Y336306D01*
X162901Y336400D01*
X162872Y336496D01*
X162847Y336592D01*
X162826Y336689D01*
X162808Y336788D01*
X162795Y336886D01*
X162785Y336986D01*
X162779Y337085D01*
X162777Y337185D01*
X162777Y343535D01*
X162779Y343635D01*
X162785Y343734D01*
X162795Y343834D01*
X162808Y343932D01*
X162826Y344031D01*
X162847Y344128D01*
X162872Y344224D01*
X162901Y344320D01*
X162934Y344414D01*
X162970Y344507D01*
X163010Y344598D01*
X163054Y344688D01*
X163101Y344776D01*
X163151Y344862D01*
X163205Y344946D01*
X163262Y345028D01*
X163322Y345107D01*
X163386Y345185D01*
X163452Y345259D01*
X163521Y345331D01*
X163593Y345400D01*
X163667Y345466D01*
X163745Y345530D01*
X163824Y345590D01*
X163906Y345647D01*
X163990Y345701D01*
X164076Y345751D01*
X164164Y345798D01*
X164254Y345842D01*
X164345Y345882D01*
X164438Y345918D01*
X164532Y345951D01*
X164628Y345980D01*
X164724Y346005D01*
X164821Y346026D01*
X164920Y346044D01*
X165018Y346057D01*
X165118Y346067D01*
X165217Y346073D01*
X165317Y346075D01*
X167857Y346075D01*
X172339Y343535D02*
X175514Y346075D01*
X175514Y334645D01*
X172339Y334645D02*
X178689Y334645D01*
D12*
X254000Y38100D02*
X266700Y38100D01*
X273050Y31750D01*
X273050Y19050D02*
X266700Y12700D01*
X228600Y38100D02*
X222250Y31750D01*
X228600Y38100D02*
X241300Y38100D01*
X247650Y31750D01*
X247650Y19050D02*
X241300Y12700D01*
X228600Y12700D01*
X222250Y19050D01*
X247650Y31750D02*
X254000Y38100D01*
X247650Y19050D02*
X254000Y12700D01*
X266700Y12700D01*
X190500Y38100D02*
X177800Y38100D01*
X190500Y38100D02*
X196850Y31750D01*
X196850Y19050D02*
X190500Y12700D01*
X196850Y31750D02*
X203200Y38100D01*
X215900Y38100D01*
X222250Y31750D01*
X222250Y19050D02*
X215900Y12700D01*
X203200Y12700D01*
X196850Y19050D01*
X152400Y38100D02*
X146050Y31750D01*
X152400Y38100D02*
X165100Y38100D01*
X171450Y31750D01*
X171450Y19050D02*
X165100Y12700D01*
X152400Y12700D01*
X146050Y19050D01*
X171450Y31750D02*
X177800Y38100D01*
X171450Y19050D02*
X177800Y12700D01*
X190500Y12700D01*
X114300Y38100D02*
X101600Y38100D01*
X114300Y38100D02*
X120650Y31750D01*
X120650Y19050D02*
X114300Y12700D01*
X120650Y31750D02*
X127000Y38100D01*
X139700Y38100D01*
X146050Y31750D01*
X146050Y19050D02*
X139700Y12700D01*
X127000Y12700D01*
X120650Y19050D01*
X95250Y19050D02*
X95250Y31750D01*
X101600Y38100D01*
X95250Y19050D02*
X101600Y12700D01*
X114300Y12700D01*
X273050Y19050D02*
X273050Y31750D01*
D11*
X97494Y41077D02*
X97494Y44831D01*
X97493Y41077D02*
X97491Y41012D01*
X97485Y40948D01*
X97475Y40884D01*
X97462Y40820D01*
X97444Y40758D01*
X97423Y40697D01*
X97399Y40637D01*
X97370Y40579D01*
X97338Y40522D01*
X97303Y40468D01*
X97265Y40416D01*
X97223Y40366D01*
X97179Y40319D01*
X97132Y40275D01*
X97082Y40233D01*
X97030Y40195D01*
X96976Y40160D01*
X96919Y40128D01*
X96861Y40099D01*
X96801Y40075D01*
X96740Y40054D01*
X96678Y40036D01*
X96614Y40023D01*
X96550Y40013D01*
X96486Y40007D01*
X96421Y40005D01*
X95885Y40005D01*
X100442Y43759D02*
X101782Y44831D01*
X101782Y40005D01*
X100442Y40005D02*
X103123Y40005D01*
D13*
X262943Y139903D02*
X262943Y147269D01*
X264989Y147269D01*
X265078Y147267D01*
X265167Y147261D01*
X265256Y147251D01*
X265344Y147238D01*
X265432Y147221D01*
X265519Y147199D01*
X265604Y147174D01*
X265689Y147146D01*
X265772Y147113D01*
X265854Y147077D01*
X265934Y147038D01*
X266012Y146995D01*
X266088Y146949D01*
X266163Y146899D01*
X266235Y146846D01*
X266304Y146790D01*
X266371Y146731D01*
X266436Y146670D01*
X266497Y146605D01*
X266556Y146538D01*
X266612Y146469D01*
X266665Y146397D01*
X266715Y146322D01*
X266761Y146246D01*
X266804Y146168D01*
X266843Y146088D01*
X266879Y146006D01*
X266912Y145923D01*
X266940Y145838D01*
X266965Y145753D01*
X266987Y145666D01*
X267004Y145578D01*
X267017Y145490D01*
X267027Y145401D01*
X267033Y145312D01*
X267035Y145223D01*
X267033Y145134D01*
X267027Y145045D01*
X267017Y144956D01*
X267004Y144868D01*
X266987Y144780D01*
X266965Y144693D01*
X266940Y144608D01*
X266912Y144523D01*
X266879Y144440D01*
X266843Y144358D01*
X266804Y144278D01*
X266761Y144200D01*
X266715Y144124D01*
X266665Y144049D01*
X266612Y143977D01*
X266556Y143908D01*
X266497Y143841D01*
X266436Y143776D01*
X266371Y143715D01*
X266304Y143656D01*
X266235Y143600D01*
X266163Y143547D01*
X266088Y143497D01*
X266012Y143451D01*
X265934Y143408D01*
X265854Y143369D01*
X265772Y143333D01*
X265689Y143300D01*
X265604Y143272D01*
X265519Y143247D01*
X265432Y143225D01*
X265344Y143208D01*
X265256Y143195D01*
X265167Y143185D01*
X265078Y143179D01*
X264989Y143177D01*
X262943Y143177D01*
X265399Y143177D02*
X267036Y139903D01*
X270467Y139903D02*
X273741Y139903D01*
X270467Y139903D02*
X270467Y147269D01*
X273741Y147269D01*
X272922Y143995D02*
X270467Y143995D01*
X278759Y139903D02*
X278837Y139905D01*
X278915Y139910D01*
X278992Y139920D01*
X279069Y139933D01*
X279145Y139949D01*
X279220Y139969D01*
X279294Y139993D01*
X279367Y140020D01*
X279439Y140051D01*
X279509Y140085D01*
X279578Y140122D01*
X279644Y140163D01*
X279709Y140207D01*
X279771Y140253D01*
X279831Y140303D01*
X279889Y140355D01*
X279944Y140410D01*
X279996Y140468D01*
X280046Y140528D01*
X280092Y140590D01*
X280136Y140655D01*
X280177Y140722D01*
X280214Y140790D01*
X280248Y140860D01*
X280279Y140932D01*
X280306Y141005D01*
X280330Y141079D01*
X280350Y141154D01*
X280366Y141230D01*
X280379Y141307D01*
X280389Y141384D01*
X280394Y141462D01*
X280396Y141540D01*
X278759Y139903D02*
X278645Y139905D01*
X278532Y139910D01*
X278418Y139920D01*
X278305Y139933D01*
X278193Y139950D01*
X278081Y139970D01*
X277970Y139994D01*
X277859Y140022D01*
X277750Y140053D01*
X277642Y140088D01*
X277535Y140127D01*
X277429Y140169D01*
X277325Y140214D01*
X277222Y140263D01*
X277121Y140316D01*
X277022Y140371D01*
X276924Y140430D01*
X276829Y140492D01*
X276736Y140557D01*
X276644Y140625D01*
X276556Y140696D01*
X276469Y140770D01*
X276385Y140847D01*
X276304Y140926D01*
X276508Y145632D02*
X276510Y145710D01*
X276515Y145788D01*
X276525Y145865D01*
X276538Y145942D01*
X276554Y146018D01*
X276574Y146093D01*
X276598Y146167D01*
X276625Y146240D01*
X276656Y146312D01*
X276690Y146382D01*
X276727Y146451D01*
X276768Y146517D01*
X276812Y146582D01*
X276858Y146644D01*
X276908Y146704D01*
X276960Y146762D01*
X277015Y146817D01*
X277073Y146869D01*
X277133Y146919D01*
X277195Y146965D01*
X277260Y147009D01*
X277327Y147050D01*
X277395Y147087D01*
X277465Y147121D01*
X277537Y147152D01*
X277610Y147179D01*
X277684Y147203D01*
X277759Y147223D01*
X277835Y147239D01*
X277912Y147252D01*
X277989Y147262D01*
X278067Y147267D01*
X278145Y147269D01*
X278255Y147267D01*
X278364Y147261D01*
X278474Y147251D01*
X278582Y147238D01*
X278691Y147220D01*
X278798Y147199D01*
X278905Y147173D01*
X279011Y147144D01*
X279116Y147112D01*
X279219Y147075D01*
X279321Y147035D01*
X279422Y146991D01*
X279521Y146943D01*
X279618Y146893D01*
X279713Y146838D01*
X279806Y146780D01*
X279897Y146719D01*
X279986Y146655D01*
X277326Y144199D02*
X277259Y144241D01*
X277194Y144285D01*
X277132Y144333D01*
X277072Y144383D01*
X277014Y144436D01*
X276959Y144492D01*
X276907Y144551D01*
X276857Y144611D01*
X276810Y144675D01*
X276767Y144740D01*
X276726Y144807D01*
X276689Y144876D01*
X276655Y144947D01*
X276624Y145019D01*
X276597Y145093D01*
X276573Y145167D01*
X276553Y145243D01*
X276537Y145320D01*
X276524Y145397D01*
X276514Y145475D01*
X276509Y145554D01*
X276507Y145632D01*
X279577Y142972D02*
X279643Y142930D01*
X279708Y142886D01*
X279770Y142839D01*
X279830Y142788D01*
X279888Y142735D01*
X279943Y142679D01*
X279996Y142621D01*
X280045Y142560D01*
X280092Y142497D01*
X280135Y142432D01*
X280176Y142365D01*
X280213Y142296D01*
X280247Y142225D01*
X280278Y142153D01*
X280305Y142079D01*
X280329Y142004D01*
X280349Y141929D01*
X280365Y141852D01*
X280378Y141775D01*
X280388Y141697D01*
X280393Y141618D01*
X280395Y141540D01*
X279577Y142972D02*
X277326Y144200D01*
X283634Y139903D02*
X286908Y139903D01*
X283634Y139903D02*
X283634Y147269D01*
X286908Y147269D01*
X286090Y143995D02*
X283634Y143995D01*
X291273Y147269D02*
X291273Y139903D01*
X289227Y147269D02*
X293319Y147269D01*
X274541Y165303D02*
X276996Y172669D01*
X279452Y165303D01*
X278838Y167145D02*
X275155Y167145D01*
X282509Y165303D02*
X282509Y172669D01*
X284555Y172669D01*
X284644Y172667D01*
X284733Y172661D01*
X284822Y172651D01*
X284910Y172638D01*
X284998Y172621D01*
X285085Y172599D01*
X285170Y172574D01*
X285255Y172546D01*
X285338Y172513D01*
X285420Y172477D01*
X285500Y172438D01*
X285578Y172395D01*
X285654Y172349D01*
X285729Y172299D01*
X285801Y172246D01*
X285870Y172190D01*
X285937Y172131D01*
X286002Y172070D01*
X286063Y172005D01*
X286122Y171938D01*
X286178Y171869D01*
X286231Y171797D01*
X286281Y171722D01*
X286327Y171646D01*
X286370Y171568D01*
X286409Y171488D01*
X286445Y171406D01*
X286478Y171323D01*
X286506Y171238D01*
X286531Y171153D01*
X286553Y171066D01*
X286570Y170978D01*
X286583Y170890D01*
X286593Y170801D01*
X286599Y170712D01*
X286601Y170623D01*
X286602Y170623D02*
X286602Y167349D01*
X286601Y167349D02*
X286599Y167260D01*
X286593Y167171D01*
X286583Y167082D01*
X286570Y166994D01*
X286553Y166906D01*
X286531Y166819D01*
X286506Y166734D01*
X286478Y166649D01*
X286445Y166566D01*
X286409Y166484D01*
X286370Y166404D01*
X286327Y166326D01*
X286281Y166250D01*
X286231Y166175D01*
X286178Y166103D01*
X286122Y166034D01*
X286063Y165967D01*
X286002Y165902D01*
X285937Y165841D01*
X285870Y165782D01*
X285801Y165726D01*
X285729Y165673D01*
X285654Y165623D01*
X285578Y165577D01*
X285500Y165534D01*
X285420Y165495D01*
X285338Y165459D01*
X285255Y165426D01*
X285170Y165398D01*
X285085Y165373D01*
X284998Y165351D01*
X284910Y165334D01*
X284822Y165321D01*
X284733Y165311D01*
X284644Y165305D01*
X284555Y165303D01*
X282509Y165303D01*
X291682Y165303D02*
X293319Y165303D01*
X291682Y165303D02*
X291604Y165305D01*
X291526Y165310D01*
X291449Y165320D01*
X291372Y165333D01*
X291296Y165349D01*
X291221Y165369D01*
X291147Y165393D01*
X291074Y165420D01*
X291002Y165451D01*
X290932Y165485D01*
X290864Y165522D01*
X290797Y165563D01*
X290732Y165607D01*
X290670Y165653D01*
X290610Y165703D01*
X290552Y165755D01*
X290497Y165810D01*
X290445Y165868D01*
X290395Y165928D01*
X290349Y165990D01*
X290305Y166055D01*
X290264Y166122D01*
X290227Y166190D01*
X290193Y166260D01*
X290162Y166332D01*
X290135Y166405D01*
X290111Y166479D01*
X290091Y166554D01*
X290075Y166630D01*
X290062Y166707D01*
X290052Y166784D01*
X290047Y166862D01*
X290045Y166940D01*
X290045Y171032D01*
X290047Y171112D01*
X290053Y171192D01*
X290063Y171272D01*
X290076Y171351D01*
X290094Y171430D01*
X290115Y171507D01*
X290141Y171583D01*
X290170Y171658D01*
X290202Y171732D01*
X290238Y171804D01*
X290278Y171874D01*
X290321Y171941D01*
X290367Y172007D01*
X290417Y172070D01*
X290469Y172131D01*
X290524Y172190D01*
X290583Y172245D01*
X290643Y172297D01*
X290707Y172347D01*
X290773Y172393D01*
X290840Y172436D01*
X290910Y172476D01*
X290982Y172512D01*
X291056Y172544D01*
X291130Y172573D01*
X291207Y172599D01*
X291284Y172620D01*
X291363Y172638D01*
X291442Y172651D01*
X291522Y172661D01*
X291602Y172667D01*
X291682Y172669D01*
X293319Y172669D01*
X265168Y190703D02*
X263531Y190703D01*
X263453Y190705D01*
X263375Y190710D01*
X263298Y190720D01*
X263221Y190733D01*
X263145Y190749D01*
X263070Y190769D01*
X262996Y190793D01*
X262923Y190820D01*
X262851Y190851D01*
X262781Y190885D01*
X262713Y190922D01*
X262646Y190963D01*
X262581Y191007D01*
X262519Y191053D01*
X262459Y191103D01*
X262401Y191155D01*
X262346Y191210D01*
X262294Y191268D01*
X262244Y191328D01*
X262198Y191390D01*
X262154Y191455D01*
X262113Y191522D01*
X262076Y191590D01*
X262042Y191660D01*
X262011Y191732D01*
X261984Y191805D01*
X261960Y191879D01*
X261940Y191954D01*
X261924Y192030D01*
X261911Y192107D01*
X261901Y192184D01*
X261896Y192262D01*
X261894Y192340D01*
X261894Y196432D01*
X261896Y196512D01*
X261902Y196592D01*
X261912Y196672D01*
X261925Y196751D01*
X261943Y196830D01*
X261964Y196907D01*
X261990Y196983D01*
X262019Y197058D01*
X262051Y197132D01*
X262087Y197204D01*
X262127Y197274D01*
X262170Y197341D01*
X262216Y197407D01*
X262266Y197470D01*
X262318Y197531D01*
X262373Y197590D01*
X262432Y197645D01*
X262492Y197697D01*
X262556Y197747D01*
X262622Y197793D01*
X262689Y197836D01*
X262759Y197876D01*
X262831Y197912D01*
X262905Y197944D01*
X262979Y197973D01*
X263056Y197999D01*
X263133Y198020D01*
X263212Y198038D01*
X263291Y198051D01*
X263371Y198061D01*
X263451Y198067D01*
X263531Y198069D01*
X265168Y198069D01*
X268257Y198069D02*
X268257Y190703D01*
X268257Y194795D02*
X272349Y194795D01*
X272349Y198069D02*
X272349Y190703D01*
X275493Y189885D02*
X278767Y189885D01*
X282029Y190703D02*
X282029Y198069D01*
X284075Y198069D01*
X284164Y198067D01*
X284253Y198061D01*
X284342Y198051D01*
X284430Y198038D01*
X284518Y198021D01*
X284605Y197999D01*
X284690Y197974D01*
X284775Y197946D01*
X284858Y197913D01*
X284940Y197877D01*
X285020Y197838D01*
X285098Y197795D01*
X285174Y197749D01*
X285249Y197699D01*
X285321Y197646D01*
X285390Y197590D01*
X285457Y197531D01*
X285522Y197470D01*
X285583Y197405D01*
X285642Y197338D01*
X285698Y197269D01*
X285751Y197197D01*
X285801Y197122D01*
X285847Y197046D01*
X285890Y196968D01*
X285929Y196888D01*
X285965Y196806D01*
X285998Y196723D01*
X286026Y196638D01*
X286051Y196553D01*
X286073Y196466D01*
X286090Y196378D01*
X286103Y196290D01*
X286113Y196201D01*
X286119Y196112D01*
X286121Y196023D01*
X286119Y195934D01*
X286113Y195845D01*
X286103Y195756D01*
X286090Y195668D01*
X286073Y195580D01*
X286051Y195493D01*
X286026Y195408D01*
X285998Y195323D01*
X285965Y195240D01*
X285929Y195158D01*
X285890Y195078D01*
X285847Y195000D01*
X285801Y194924D01*
X285751Y194849D01*
X285698Y194777D01*
X285642Y194708D01*
X285583Y194641D01*
X285522Y194576D01*
X285457Y194515D01*
X285390Y194456D01*
X285321Y194400D01*
X285249Y194347D01*
X285174Y194297D01*
X285098Y194251D01*
X285020Y194208D01*
X284940Y194169D01*
X284858Y194133D01*
X284775Y194100D01*
X284690Y194072D01*
X284605Y194047D01*
X284518Y194025D01*
X284430Y194008D01*
X284342Y193995D01*
X284253Y193985D01*
X284164Y193979D01*
X284075Y193977D01*
X282029Y193977D01*
X289227Y190703D02*
X289227Y198069D01*
X291273Y198069D01*
X291362Y198067D01*
X291451Y198061D01*
X291540Y198051D01*
X291628Y198038D01*
X291716Y198021D01*
X291803Y197999D01*
X291888Y197974D01*
X291973Y197946D01*
X292056Y197913D01*
X292138Y197877D01*
X292218Y197838D01*
X292296Y197795D01*
X292372Y197749D01*
X292447Y197699D01*
X292519Y197646D01*
X292588Y197590D01*
X292655Y197531D01*
X292720Y197470D01*
X292781Y197405D01*
X292840Y197338D01*
X292896Y197269D01*
X292949Y197197D01*
X292999Y197122D01*
X293045Y197046D01*
X293088Y196968D01*
X293127Y196888D01*
X293163Y196806D01*
X293196Y196723D01*
X293224Y196638D01*
X293249Y196553D01*
X293271Y196466D01*
X293288Y196378D01*
X293301Y196290D01*
X293311Y196201D01*
X293317Y196112D01*
X293319Y196023D01*
X293319Y192749D01*
X293317Y192660D01*
X293311Y192571D01*
X293301Y192482D01*
X293288Y192394D01*
X293271Y192306D01*
X293249Y192219D01*
X293224Y192134D01*
X293196Y192049D01*
X293163Y191966D01*
X293127Y191884D01*
X293088Y191804D01*
X293045Y191726D01*
X292999Y191650D01*
X292949Y191575D01*
X292896Y191503D01*
X292840Y191434D01*
X292781Y191367D01*
X292720Y191302D01*
X292655Y191241D01*
X292588Y191182D01*
X292519Y191126D01*
X292447Y191073D01*
X292372Y191023D01*
X292296Y190977D01*
X292218Y190934D01*
X292138Y190895D01*
X292056Y190859D01*
X291973Y190826D01*
X291888Y190798D01*
X291803Y190773D01*
X291716Y190751D01*
X291628Y190734D01*
X291540Y190721D01*
X291451Y190711D01*
X291362Y190705D01*
X291273Y190703D01*
X289227Y190703D01*
X259425Y220195D02*
X258198Y220195D01*
X259425Y220195D02*
X259425Y216103D01*
X256970Y216103D01*
X256892Y216105D01*
X256814Y216110D01*
X256737Y216120D01*
X256660Y216133D01*
X256584Y216149D01*
X256509Y216169D01*
X256435Y216193D01*
X256362Y216220D01*
X256290Y216251D01*
X256220Y216285D01*
X256152Y216322D01*
X256085Y216363D01*
X256020Y216407D01*
X255958Y216453D01*
X255898Y216503D01*
X255840Y216555D01*
X255785Y216610D01*
X255733Y216668D01*
X255683Y216728D01*
X255637Y216790D01*
X255593Y216855D01*
X255552Y216922D01*
X255515Y216990D01*
X255481Y217060D01*
X255450Y217132D01*
X255423Y217205D01*
X255399Y217279D01*
X255379Y217354D01*
X255363Y217430D01*
X255350Y217507D01*
X255340Y217584D01*
X255335Y217662D01*
X255333Y217740D01*
X255333Y221832D01*
X255335Y221912D01*
X255341Y221992D01*
X255351Y222072D01*
X255364Y222151D01*
X255382Y222230D01*
X255403Y222307D01*
X255429Y222383D01*
X255458Y222458D01*
X255490Y222532D01*
X255526Y222604D01*
X255566Y222674D01*
X255609Y222741D01*
X255655Y222807D01*
X255705Y222870D01*
X255757Y222931D01*
X255812Y222990D01*
X255871Y223045D01*
X255931Y223097D01*
X255995Y223147D01*
X256061Y223193D01*
X256128Y223236D01*
X256198Y223276D01*
X256270Y223312D01*
X256344Y223344D01*
X256418Y223373D01*
X256495Y223399D01*
X256572Y223420D01*
X256651Y223438D01*
X256730Y223451D01*
X256810Y223461D01*
X256890Y223467D01*
X256970Y223469D01*
X259425Y223469D01*
X263254Y223469D02*
X263254Y216103D01*
X263254Y223469D02*
X265300Y223469D01*
X265389Y223467D01*
X265478Y223461D01*
X265567Y223451D01*
X265655Y223438D01*
X265743Y223421D01*
X265830Y223399D01*
X265915Y223374D01*
X266000Y223346D01*
X266083Y223313D01*
X266165Y223277D01*
X266245Y223238D01*
X266323Y223195D01*
X266399Y223149D01*
X266474Y223099D01*
X266546Y223046D01*
X266615Y222990D01*
X266682Y222931D01*
X266747Y222870D01*
X266808Y222805D01*
X266867Y222738D01*
X266923Y222669D01*
X266976Y222597D01*
X267026Y222522D01*
X267072Y222446D01*
X267115Y222368D01*
X267154Y222288D01*
X267190Y222206D01*
X267223Y222123D01*
X267251Y222038D01*
X267276Y221953D01*
X267298Y221866D01*
X267315Y221778D01*
X267328Y221690D01*
X267338Y221601D01*
X267344Y221512D01*
X267346Y221423D01*
X267344Y221334D01*
X267338Y221245D01*
X267328Y221156D01*
X267315Y221068D01*
X267298Y220980D01*
X267276Y220893D01*
X267251Y220808D01*
X267223Y220723D01*
X267190Y220640D01*
X267154Y220558D01*
X267115Y220478D01*
X267072Y220400D01*
X267026Y220324D01*
X266976Y220249D01*
X266923Y220177D01*
X266867Y220108D01*
X266808Y220041D01*
X266747Y219976D01*
X266682Y219915D01*
X266615Y219856D01*
X266546Y219800D01*
X266474Y219747D01*
X266399Y219697D01*
X266323Y219651D01*
X266245Y219608D01*
X266165Y219569D01*
X266083Y219533D01*
X266000Y219500D01*
X265915Y219472D01*
X265830Y219447D01*
X265743Y219425D01*
X265655Y219408D01*
X265567Y219395D01*
X265478Y219385D01*
X265389Y219379D01*
X265300Y219377D01*
X263254Y219377D01*
X270790Y216103D02*
X270790Y223469D01*
X269972Y216103D02*
X271609Y216103D01*
X271609Y223469D02*
X269972Y223469D01*
X274596Y221423D02*
X274596Y218149D01*
X274596Y221423D02*
X274598Y221512D01*
X274604Y221601D01*
X274614Y221690D01*
X274627Y221778D01*
X274644Y221866D01*
X274666Y221953D01*
X274691Y222038D01*
X274719Y222123D01*
X274752Y222206D01*
X274788Y222288D01*
X274827Y222368D01*
X274870Y222446D01*
X274916Y222522D01*
X274966Y222597D01*
X275019Y222669D01*
X275075Y222738D01*
X275134Y222805D01*
X275195Y222870D01*
X275260Y222931D01*
X275327Y222990D01*
X275396Y223046D01*
X275468Y223099D01*
X275543Y223149D01*
X275619Y223195D01*
X275697Y223238D01*
X275777Y223277D01*
X275859Y223313D01*
X275942Y223346D01*
X276027Y223374D01*
X276112Y223399D01*
X276199Y223421D01*
X276287Y223438D01*
X276375Y223451D01*
X276464Y223461D01*
X276553Y223467D01*
X276642Y223469D01*
X276731Y223467D01*
X276820Y223461D01*
X276909Y223451D01*
X276997Y223438D01*
X277085Y223421D01*
X277172Y223399D01*
X277257Y223374D01*
X277342Y223346D01*
X277425Y223313D01*
X277507Y223277D01*
X277587Y223238D01*
X277665Y223195D01*
X277741Y223149D01*
X277816Y223099D01*
X277888Y223046D01*
X277957Y222990D01*
X278024Y222931D01*
X278089Y222870D01*
X278150Y222805D01*
X278209Y222738D01*
X278265Y222669D01*
X278318Y222597D01*
X278368Y222522D01*
X278414Y222446D01*
X278457Y222368D01*
X278496Y222288D01*
X278532Y222206D01*
X278565Y222123D01*
X278593Y222038D01*
X278618Y221953D01*
X278640Y221866D01*
X278657Y221778D01*
X278670Y221690D01*
X278680Y221601D01*
X278686Y221512D01*
X278688Y221423D01*
X278689Y221423D02*
X278689Y218149D01*
X278688Y218149D02*
X278686Y218060D01*
X278680Y217971D01*
X278670Y217882D01*
X278657Y217794D01*
X278640Y217706D01*
X278618Y217619D01*
X278593Y217534D01*
X278565Y217449D01*
X278532Y217366D01*
X278496Y217284D01*
X278457Y217204D01*
X278414Y217126D01*
X278368Y217050D01*
X278318Y216975D01*
X278265Y216903D01*
X278209Y216834D01*
X278150Y216767D01*
X278089Y216702D01*
X278024Y216641D01*
X277957Y216582D01*
X277888Y216526D01*
X277816Y216473D01*
X277741Y216423D01*
X277665Y216377D01*
X277587Y216334D01*
X277507Y216295D01*
X277425Y216259D01*
X277342Y216226D01*
X277257Y216198D01*
X277172Y216173D01*
X277085Y216151D01*
X276997Y216134D01*
X276909Y216121D01*
X276820Y216111D01*
X276731Y216105D01*
X276642Y216103D01*
X276553Y216105D01*
X276464Y216111D01*
X276375Y216121D01*
X276287Y216134D01*
X276199Y216151D01*
X276112Y216173D01*
X276027Y216198D01*
X275942Y216226D01*
X275859Y216259D01*
X275777Y216295D01*
X275697Y216334D01*
X275619Y216377D01*
X275543Y216423D01*
X275468Y216473D01*
X275396Y216526D01*
X275327Y216582D01*
X275260Y216641D01*
X275195Y216702D01*
X275134Y216767D01*
X275075Y216834D01*
X275019Y216903D01*
X274966Y216975D01*
X274916Y217050D01*
X274870Y217126D01*
X274827Y217204D01*
X274788Y217284D01*
X274752Y217366D01*
X274719Y217449D01*
X274691Y217534D01*
X274666Y217619D01*
X274644Y217706D01*
X274627Y217794D01*
X274614Y217882D01*
X274604Y217971D01*
X274598Y218060D01*
X274596Y218149D01*
X281912Y221832D02*
X283958Y223469D01*
X283958Y216103D01*
X281912Y216103D02*
X286004Y216103D01*
X289227Y220195D02*
X291682Y220195D01*
X291760Y220193D01*
X291838Y220188D01*
X291915Y220178D01*
X291992Y220165D01*
X292068Y220149D01*
X292143Y220129D01*
X292217Y220105D01*
X292290Y220078D01*
X292362Y220047D01*
X292432Y220013D01*
X292501Y219976D01*
X292567Y219935D01*
X292632Y219891D01*
X292694Y219845D01*
X292754Y219795D01*
X292812Y219743D01*
X292867Y219688D01*
X292919Y219630D01*
X292969Y219570D01*
X293015Y219508D01*
X293059Y219443D01*
X293100Y219377D01*
X293137Y219308D01*
X293171Y219238D01*
X293202Y219166D01*
X293229Y219093D01*
X293253Y219019D01*
X293273Y218944D01*
X293289Y218868D01*
X293302Y218791D01*
X293312Y218714D01*
X293317Y218636D01*
X293319Y218558D01*
X293319Y218149D01*
X293317Y218060D01*
X293311Y217971D01*
X293301Y217882D01*
X293288Y217794D01*
X293271Y217706D01*
X293249Y217619D01*
X293224Y217534D01*
X293196Y217449D01*
X293163Y217366D01*
X293127Y217284D01*
X293088Y217204D01*
X293045Y217126D01*
X292999Y217050D01*
X292949Y216975D01*
X292896Y216903D01*
X292840Y216834D01*
X292781Y216767D01*
X292720Y216702D01*
X292655Y216641D01*
X292588Y216582D01*
X292519Y216526D01*
X292447Y216473D01*
X292372Y216423D01*
X292296Y216377D01*
X292218Y216334D01*
X292138Y216295D01*
X292056Y216259D01*
X291973Y216226D01*
X291888Y216198D01*
X291803Y216173D01*
X291716Y216151D01*
X291628Y216134D01*
X291540Y216121D01*
X291451Y216111D01*
X291362Y216105D01*
X291273Y216103D01*
X291184Y216105D01*
X291095Y216111D01*
X291006Y216121D01*
X290918Y216134D01*
X290830Y216151D01*
X290743Y216173D01*
X290658Y216198D01*
X290573Y216226D01*
X290490Y216259D01*
X290408Y216295D01*
X290328Y216334D01*
X290250Y216377D01*
X290174Y216423D01*
X290099Y216473D01*
X290027Y216526D01*
X289958Y216582D01*
X289891Y216641D01*
X289826Y216702D01*
X289765Y216767D01*
X289706Y216834D01*
X289650Y216903D01*
X289597Y216975D01*
X289547Y217050D01*
X289501Y217126D01*
X289458Y217204D01*
X289419Y217284D01*
X289383Y217366D01*
X289350Y217449D01*
X289322Y217534D01*
X289297Y217619D01*
X289275Y217706D01*
X289258Y217794D01*
X289245Y217882D01*
X289235Y217971D01*
X289229Y218060D01*
X289227Y218149D01*
X289227Y220195D01*
X289229Y220309D01*
X289235Y220423D01*
X289245Y220537D01*
X289259Y220651D01*
X289277Y220764D01*
X289299Y220876D01*
X289324Y220987D01*
X289354Y221097D01*
X289387Y221207D01*
X289424Y221315D01*
X289465Y221421D01*
X289510Y221527D01*
X289558Y221630D01*
X289610Y221732D01*
X289666Y221832D01*
X289724Y221930D01*
X289787Y222026D01*
X289852Y222119D01*
X289921Y222211D01*
X289993Y222299D01*
X290068Y222386D01*
X290146Y222469D01*
X290227Y222550D01*
X290310Y222628D01*
X290397Y222703D01*
X290485Y222775D01*
X290577Y222844D01*
X290670Y222909D01*
X290766Y222971D01*
X290864Y223030D01*
X290964Y223086D01*
X291066Y223138D01*
X291169Y223186D01*
X291275Y223231D01*
X291381Y223272D01*
X291489Y223309D01*
X291599Y223342D01*
X291709Y223372D01*
X291820Y223397D01*
X291932Y223419D01*
X292045Y223437D01*
X292159Y223451D01*
X292273Y223461D01*
X292387Y223467D01*
X292501Y223469D01*
X259425Y245595D02*
X258198Y245595D01*
X259425Y245595D02*
X259425Y241503D01*
X256970Y241503D01*
X256892Y241505D01*
X256814Y241510D01*
X256737Y241520D01*
X256660Y241533D01*
X256584Y241549D01*
X256509Y241569D01*
X256435Y241593D01*
X256362Y241620D01*
X256290Y241651D01*
X256220Y241685D01*
X256152Y241722D01*
X256085Y241763D01*
X256020Y241807D01*
X255958Y241853D01*
X255898Y241903D01*
X255840Y241955D01*
X255785Y242010D01*
X255733Y242068D01*
X255683Y242128D01*
X255637Y242190D01*
X255593Y242255D01*
X255552Y242322D01*
X255515Y242390D01*
X255481Y242460D01*
X255450Y242532D01*
X255423Y242605D01*
X255399Y242679D01*
X255379Y242754D01*
X255363Y242830D01*
X255350Y242907D01*
X255340Y242984D01*
X255335Y243062D01*
X255333Y243140D01*
X255333Y247232D01*
X255335Y247312D01*
X255341Y247392D01*
X255351Y247472D01*
X255364Y247551D01*
X255382Y247630D01*
X255403Y247707D01*
X255429Y247783D01*
X255458Y247858D01*
X255490Y247932D01*
X255526Y248004D01*
X255566Y248074D01*
X255609Y248141D01*
X255655Y248207D01*
X255705Y248270D01*
X255757Y248331D01*
X255812Y248390D01*
X255871Y248445D01*
X255931Y248497D01*
X255995Y248547D01*
X256061Y248593D01*
X256128Y248636D01*
X256198Y248676D01*
X256270Y248712D01*
X256344Y248744D01*
X256418Y248773D01*
X256495Y248799D01*
X256572Y248820D01*
X256651Y248838D01*
X256730Y248851D01*
X256810Y248861D01*
X256890Y248867D01*
X256970Y248869D01*
X259425Y248869D01*
X263254Y248869D02*
X263254Y241503D01*
X263254Y248869D02*
X265300Y248869D01*
X265389Y248867D01*
X265478Y248861D01*
X265567Y248851D01*
X265655Y248838D01*
X265743Y248821D01*
X265830Y248799D01*
X265915Y248774D01*
X266000Y248746D01*
X266083Y248713D01*
X266165Y248677D01*
X266245Y248638D01*
X266323Y248595D01*
X266399Y248549D01*
X266474Y248499D01*
X266546Y248446D01*
X266615Y248390D01*
X266682Y248331D01*
X266747Y248270D01*
X266808Y248205D01*
X266867Y248138D01*
X266923Y248069D01*
X266976Y247997D01*
X267026Y247922D01*
X267072Y247846D01*
X267115Y247768D01*
X267154Y247688D01*
X267190Y247606D01*
X267223Y247523D01*
X267251Y247438D01*
X267276Y247353D01*
X267298Y247266D01*
X267315Y247178D01*
X267328Y247090D01*
X267338Y247001D01*
X267344Y246912D01*
X267346Y246823D01*
X267344Y246734D01*
X267338Y246645D01*
X267328Y246556D01*
X267315Y246468D01*
X267298Y246380D01*
X267276Y246293D01*
X267251Y246208D01*
X267223Y246123D01*
X267190Y246040D01*
X267154Y245958D01*
X267115Y245878D01*
X267072Y245800D01*
X267026Y245724D01*
X266976Y245649D01*
X266923Y245577D01*
X266867Y245508D01*
X266808Y245441D01*
X266747Y245376D01*
X266682Y245315D01*
X266615Y245256D01*
X266546Y245200D01*
X266474Y245147D01*
X266399Y245097D01*
X266323Y245051D01*
X266245Y245008D01*
X266165Y244969D01*
X266083Y244933D01*
X266000Y244900D01*
X265915Y244872D01*
X265830Y244847D01*
X265743Y244825D01*
X265655Y244808D01*
X265567Y244795D01*
X265478Y244785D01*
X265389Y244779D01*
X265300Y244777D01*
X263254Y244777D01*
X270790Y241503D02*
X270790Y248869D01*
X269972Y241503D02*
X271609Y241503D01*
X271609Y248869D02*
X269972Y248869D01*
X274596Y246823D02*
X274596Y243549D01*
X274596Y246823D02*
X274598Y246912D01*
X274604Y247001D01*
X274614Y247090D01*
X274627Y247178D01*
X274644Y247266D01*
X274666Y247353D01*
X274691Y247438D01*
X274719Y247523D01*
X274752Y247606D01*
X274788Y247688D01*
X274827Y247768D01*
X274870Y247846D01*
X274916Y247922D01*
X274966Y247997D01*
X275019Y248069D01*
X275075Y248138D01*
X275134Y248205D01*
X275195Y248270D01*
X275260Y248331D01*
X275327Y248390D01*
X275396Y248446D01*
X275468Y248499D01*
X275543Y248549D01*
X275619Y248595D01*
X275697Y248638D01*
X275777Y248677D01*
X275859Y248713D01*
X275942Y248746D01*
X276027Y248774D01*
X276112Y248799D01*
X276199Y248821D01*
X276287Y248838D01*
X276375Y248851D01*
X276464Y248861D01*
X276553Y248867D01*
X276642Y248869D01*
X276731Y248867D01*
X276820Y248861D01*
X276909Y248851D01*
X276997Y248838D01*
X277085Y248821D01*
X277172Y248799D01*
X277257Y248774D01*
X277342Y248746D01*
X277425Y248713D01*
X277507Y248677D01*
X277587Y248638D01*
X277665Y248595D01*
X277741Y248549D01*
X277816Y248499D01*
X277888Y248446D01*
X277957Y248390D01*
X278024Y248331D01*
X278089Y248270D01*
X278150Y248205D01*
X278209Y248138D01*
X278265Y248069D01*
X278318Y247997D01*
X278368Y247922D01*
X278414Y247846D01*
X278457Y247768D01*
X278496Y247688D01*
X278532Y247606D01*
X278565Y247523D01*
X278593Y247438D01*
X278618Y247353D01*
X278640Y247266D01*
X278657Y247178D01*
X278670Y247090D01*
X278680Y247001D01*
X278686Y246912D01*
X278688Y246823D01*
X278689Y246823D02*
X278689Y243549D01*
X278688Y243549D02*
X278686Y243460D01*
X278680Y243371D01*
X278670Y243282D01*
X278657Y243194D01*
X278640Y243106D01*
X278618Y243019D01*
X278593Y242934D01*
X278565Y242849D01*
X278532Y242766D01*
X278496Y242684D01*
X278457Y242604D01*
X278414Y242526D01*
X278368Y242450D01*
X278318Y242375D01*
X278265Y242303D01*
X278209Y242234D01*
X278150Y242167D01*
X278089Y242102D01*
X278024Y242041D01*
X277957Y241982D01*
X277888Y241926D01*
X277816Y241873D01*
X277741Y241823D01*
X277665Y241777D01*
X277587Y241734D01*
X277507Y241695D01*
X277425Y241659D01*
X277342Y241626D01*
X277257Y241598D01*
X277172Y241573D01*
X277085Y241551D01*
X276997Y241534D01*
X276909Y241521D01*
X276820Y241511D01*
X276731Y241505D01*
X276642Y241503D01*
X276553Y241505D01*
X276464Y241511D01*
X276375Y241521D01*
X276287Y241534D01*
X276199Y241551D01*
X276112Y241573D01*
X276027Y241598D01*
X275942Y241626D01*
X275859Y241659D01*
X275777Y241695D01*
X275697Y241734D01*
X275619Y241777D01*
X275543Y241823D01*
X275468Y241873D01*
X275396Y241926D01*
X275327Y241982D01*
X275260Y242041D01*
X275195Y242102D01*
X275134Y242167D01*
X275075Y242234D01*
X275019Y242303D01*
X274966Y242375D01*
X274916Y242450D01*
X274870Y242526D01*
X274827Y242604D01*
X274788Y242684D01*
X274752Y242766D01*
X274719Y242849D01*
X274691Y242934D01*
X274666Y243019D01*
X274644Y243106D01*
X274627Y243194D01*
X274614Y243282D01*
X274604Y243371D01*
X274598Y243460D01*
X274596Y243549D01*
X281912Y247232D02*
X283958Y248869D01*
X283958Y241503D01*
X281912Y241503D02*
X286004Y241503D01*
X289227Y243140D02*
X290864Y248869D01*
X289227Y243140D02*
X293319Y243140D01*
X292091Y244777D02*
X292091Y241503D01*
X259425Y270995D02*
X258198Y270995D01*
X259425Y270995D02*
X259425Y266903D01*
X256970Y266903D01*
X256892Y266905D01*
X256814Y266910D01*
X256737Y266920D01*
X256660Y266933D01*
X256584Y266949D01*
X256509Y266969D01*
X256435Y266993D01*
X256362Y267020D01*
X256290Y267051D01*
X256220Y267085D01*
X256152Y267122D01*
X256085Y267163D01*
X256020Y267207D01*
X255958Y267253D01*
X255898Y267303D01*
X255840Y267355D01*
X255785Y267410D01*
X255733Y267468D01*
X255683Y267528D01*
X255637Y267590D01*
X255593Y267655D01*
X255552Y267722D01*
X255515Y267790D01*
X255481Y267860D01*
X255450Y267932D01*
X255423Y268005D01*
X255399Y268079D01*
X255379Y268154D01*
X255363Y268230D01*
X255350Y268307D01*
X255340Y268384D01*
X255335Y268462D01*
X255333Y268540D01*
X255333Y272632D01*
X255335Y272712D01*
X255341Y272792D01*
X255351Y272872D01*
X255364Y272951D01*
X255382Y273030D01*
X255403Y273107D01*
X255429Y273183D01*
X255458Y273258D01*
X255490Y273332D01*
X255526Y273404D01*
X255566Y273474D01*
X255609Y273541D01*
X255655Y273607D01*
X255705Y273670D01*
X255757Y273731D01*
X255812Y273790D01*
X255871Y273845D01*
X255931Y273897D01*
X255995Y273947D01*
X256061Y273993D01*
X256128Y274036D01*
X256198Y274076D01*
X256270Y274112D01*
X256344Y274144D01*
X256418Y274173D01*
X256495Y274199D01*
X256572Y274220D01*
X256651Y274238D01*
X256730Y274251D01*
X256810Y274261D01*
X256890Y274267D01*
X256970Y274269D01*
X259425Y274269D01*
X263254Y274269D02*
X263254Y266903D01*
X263254Y274269D02*
X265300Y274269D01*
X265389Y274267D01*
X265478Y274261D01*
X265567Y274251D01*
X265655Y274238D01*
X265743Y274221D01*
X265830Y274199D01*
X265915Y274174D01*
X266000Y274146D01*
X266083Y274113D01*
X266165Y274077D01*
X266245Y274038D01*
X266323Y273995D01*
X266399Y273949D01*
X266474Y273899D01*
X266546Y273846D01*
X266615Y273790D01*
X266682Y273731D01*
X266747Y273670D01*
X266808Y273605D01*
X266867Y273538D01*
X266923Y273469D01*
X266976Y273397D01*
X267026Y273322D01*
X267072Y273246D01*
X267115Y273168D01*
X267154Y273088D01*
X267190Y273006D01*
X267223Y272923D01*
X267251Y272838D01*
X267276Y272753D01*
X267298Y272666D01*
X267315Y272578D01*
X267328Y272490D01*
X267338Y272401D01*
X267344Y272312D01*
X267346Y272223D01*
X267344Y272134D01*
X267338Y272045D01*
X267328Y271956D01*
X267315Y271868D01*
X267298Y271780D01*
X267276Y271693D01*
X267251Y271608D01*
X267223Y271523D01*
X267190Y271440D01*
X267154Y271358D01*
X267115Y271278D01*
X267072Y271200D01*
X267026Y271124D01*
X266976Y271049D01*
X266923Y270977D01*
X266867Y270908D01*
X266808Y270841D01*
X266747Y270776D01*
X266682Y270715D01*
X266615Y270656D01*
X266546Y270600D01*
X266474Y270547D01*
X266399Y270497D01*
X266323Y270451D01*
X266245Y270408D01*
X266165Y270369D01*
X266083Y270333D01*
X266000Y270300D01*
X265915Y270272D01*
X265830Y270247D01*
X265743Y270225D01*
X265655Y270208D01*
X265567Y270195D01*
X265478Y270185D01*
X265389Y270179D01*
X265300Y270177D01*
X263254Y270177D01*
X270790Y266903D02*
X270790Y274269D01*
X269972Y266903D02*
X271609Y266903D01*
X271609Y274269D02*
X269972Y274269D01*
X274596Y272223D02*
X274596Y268949D01*
X274596Y272223D02*
X274598Y272312D01*
X274604Y272401D01*
X274614Y272490D01*
X274627Y272578D01*
X274644Y272666D01*
X274666Y272753D01*
X274691Y272838D01*
X274719Y272923D01*
X274752Y273006D01*
X274788Y273088D01*
X274827Y273168D01*
X274870Y273246D01*
X274916Y273322D01*
X274966Y273397D01*
X275019Y273469D01*
X275075Y273538D01*
X275134Y273605D01*
X275195Y273670D01*
X275260Y273731D01*
X275327Y273790D01*
X275396Y273846D01*
X275468Y273899D01*
X275543Y273949D01*
X275619Y273995D01*
X275697Y274038D01*
X275777Y274077D01*
X275859Y274113D01*
X275942Y274146D01*
X276027Y274174D01*
X276112Y274199D01*
X276199Y274221D01*
X276287Y274238D01*
X276375Y274251D01*
X276464Y274261D01*
X276553Y274267D01*
X276642Y274269D01*
X276731Y274267D01*
X276820Y274261D01*
X276909Y274251D01*
X276997Y274238D01*
X277085Y274221D01*
X277172Y274199D01*
X277257Y274174D01*
X277342Y274146D01*
X277425Y274113D01*
X277507Y274077D01*
X277587Y274038D01*
X277665Y273995D01*
X277741Y273949D01*
X277816Y273899D01*
X277888Y273846D01*
X277957Y273790D01*
X278024Y273731D01*
X278089Y273670D01*
X278150Y273605D01*
X278209Y273538D01*
X278265Y273469D01*
X278318Y273397D01*
X278368Y273322D01*
X278414Y273246D01*
X278457Y273168D01*
X278496Y273088D01*
X278532Y273006D01*
X278565Y272923D01*
X278593Y272838D01*
X278618Y272753D01*
X278640Y272666D01*
X278657Y272578D01*
X278670Y272490D01*
X278680Y272401D01*
X278686Y272312D01*
X278688Y272223D01*
X278689Y272223D02*
X278689Y268949D01*
X278688Y268949D02*
X278686Y268860D01*
X278680Y268771D01*
X278670Y268682D01*
X278657Y268594D01*
X278640Y268506D01*
X278618Y268419D01*
X278593Y268334D01*
X278565Y268249D01*
X278532Y268166D01*
X278496Y268084D01*
X278457Y268004D01*
X278414Y267926D01*
X278368Y267850D01*
X278318Y267775D01*
X278265Y267703D01*
X278209Y267634D01*
X278150Y267567D01*
X278089Y267502D01*
X278024Y267441D01*
X277957Y267382D01*
X277888Y267326D01*
X277816Y267273D01*
X277741Y267223D01*
X277665Y267177D01*
X277587Y267134D01*
X277507Y267095D01*
X277425Y267059D01*
X277342Y267026D01*
X277257Y266998D01*
X277172Y266973D01*
X277085Y266951D01*
X276997Y266934D01*
X276909Y266921D01*
X276820Y266911D01*
X276731Y266905D01*
X276642Y266903D01*
X276553Y266905D01*
X276464Y266911D01*
X276375Y266921D01*
X276287Y266934D01*
X276199Y266951D01*
X276112Y266973D01*
X276027Y266998D01*
X275942Y267026D01*
X275859Y267059D01*
X275777Y267095D01*
X275697Y267134D01*
X275619Y267177D01*
X275543Y267223D01*
X275468Y267273D01*
X275396Y267326D01*
X275327Y267382D01*
X275260Y267441D01*
X275195Y267502D01*
X275134Y267567D01*
X275075Y267634D01*
X275019Y267703D01*
X274966Y267775D01*
X274916Y267850D01*
X274870Y267926D01*
X274827Y268004D01*
X274788Y268084D01*
X274752Y268166D01*
X274719Y268249D01*
X274691Y268334D01*
X274666Y268419D01*
X274644Y268506D01*
X274627Y268594D01*
X274614Y268682D01*
X274604Y268771D01*
X274598Y268860D01*
X274596Y268949D01*
X281912Y272632D02*
X283958Y274269D01*
X283958Y266903D01*
X281912Y266903D02*
X286004Y266903D01*
X293320Y272428D02*
X293318Y272513D01*
X293312Y272598D01*
X293302Y272682D01*
X293289Y272766D01*
X293271Y272850D01*
X293250Y272932D01*
X293225Y273013D01*
X293196Y273093D01*
X293163Y273172D01*
X293127Y273249D01*
X293087Y273324D01*
X293044Y273398D01*
X292998Y273469D01*
X292948Y273538D01*
X292895Y273605D01*
X292839Y273669D01*
X292780Y273730D01*
X292719Y273789D01*
X292655Y273845D01*
X292588Y273898D01*
X292519Y273948D01*
X292448Y273994D01*
X292374Y274037D01*
X292299Y274077D01*
X292222Y274113D01*
X292143Y274146D01*
X292063Y274175D01*
X291982Y274200D01*
X291900Y274221D01*
X291816Y274239D01*
X291732Y274252D01*
X291648Y274262D01*
X291563Y274268D01*
X291478Y274270D01*
X291478Y274269D02*
X291382Y274267D01*
X291286Y274261D01*
X291191Y274251D01*
X291096Y274238D01*
X291001Y274220D01*
X290908Y274199D01*
X290815Y274174D01*
X290724Y274145D01*
X290633Y274113D01*
X290544Y274077D01*
X290457Y274037D01*
X290371Y273994D01*
X290287Y273948D01*
X290205Y273898D01*
X290125Y273844D01*
X290048Y273788D01*
X289973Y273728D01*
X289900Y273666D01*
X289830Y273600D01*
X289762Y273532D01*
X289697Y273461D01*
X289636Y273388D01*
X289577Y273312D01*
X289521Y273233D01*
X289469Y273153D01*
X289420Y273070D01*
X289374Y272986D01*
X289332Y272900D01*
X289294Y272812D01*
X289259Y272723D01*
X289227Y272632D01*
X292705Y270996D02*
X292765Y271055D01*
X292822Y271117D01*
X292877Y271181D01*
X292928Y271248D01*
X292977Y271317D01*
X293023Y271387D01*
X293066Y271460D01*
X293106Y271534D01*
X293142Y271610D01*
X293175Y271688D01*
X293205Y271767D01*
X293232Y271847D01*
X293255Y271928D01*
X293274Y272010D01*
X293290Y272092D01*
X293303Y272176D01*
X293312Y272260D01*
X293317Y272344D01*
X293319Y272428D01*
X292705Y270995D02*
X289227Y266903D01*
X293319Y266903D01*
X259425Y296395D02*
X258198Y296395D01*
X259425Y296395D02*
X259425Y292303D01*
X256970Y292303D01*
X256892Y292305D01*
X256814Y292310D01*
X256737Y292320D01*
X256660Y292333D01*
X256584Y292349D01*
X256509Y292369D01*
X256435Y292393D01*
X256362Y292420D01*
X256290Y292451D01*
X256220Y292485D01*
X256152Y292522D01*
X256085Y292563D01*
X256020Y292607D01*
X255958Y292653D01*
X255898Y292703D01*
X255840Y292755D01*
X255785Y292810D01*
X255733Y292868D01*
X255683Y292928D01*
X255637Y292990D01*
X255593Y293055D01*
X255552Y293122D01*
X255515Y293190D01*
X255481Y293260D01*
X255450Y293332D01*
X255423Y293405D01*
X255399Y293479D01*
X255379Y293554D01*
X255363Y293630D01*
X255350Y293707D01*
X255340Y293784D01*
X255335Y293862D01*
X255333Y293940D01*
X255333Y298032D01*
X255335Y298112D01*
X255341Y298192D01*
X255351Y298272D01*
X255364Y298351D01*
X255382Y298430D01*
X255403Y298507D01*
X255429Y298583D01*
X255458Y298658D01*
X255490Y298732D01*
X255526Y298804D01*
X255566Y298874D01*
X255609Y298941D01*
X255655Y299007D01*
X255705Y299070D01*
X255757Y299131D01*
X255812Y299190D01*
X255871Y299245D01*
X255931Y299297D01*
X255995Y299347D01*
X256061Y299393D01*
X256128Y299436D01*
X256198Y299476D01*
X256270Y299512D01*
X256344Y299544D01*
X256418Y299573D01*
X256495Y299599D01*
X256572Y299620D01*
X256651Y299638D01*
X256730Y299651D01*
X256810Y299661D01*
X256890Y299667D01*
X256970Y299669D01*
X259425Y299669D01*
X263254Y299669D02*
X263254Y292303D01*
X263254Y299669D02*
X265300Y299669D01*
X265389Y299667D01*
X265478Y299661D01*
X265567Y299651D01*
X265655Y299638D01*
X265743Y299621D01*
X265830Y299599D01*
X265915Y299574D01*
X266000Y299546D01*
X266083Y299513D01*
X266165Y299477D01*
X266245Y299438D01*
X266323Y299395D01*
X266399Y299349D01*
X266474Y299299D01*
X266546Y299246D01*
X266615Y299190D01*
X266682Y299131D01*
X266747Y299070D01*
X266808Y299005D01*
X266867Y298938D01*
X266923Y298869D01*
X266976Y298797D01*
X267026Y298722D01*
X267072Y298646D01*
X267115Y298568D01*
X267154Y298488D01*
X267190Y298406D01*
X267223Y298323D01*
X267251Y298238D01*
X267276Y298153D01*
X267298Y298066D01*
X267315Y297978D01*
X267328Y297890D01*
X267338Y297801D01*
X267344Y297712D01*
X267346Y297623D01*
X267344Y297534D01*
X267338Y297445D01*
X267328Y297356D01*
X267315Y297268D01*
X267298Y297180D01*
X267276Y297093D01*
X267251Y297008D01*
X267223Y296923D01*
X267190Y296840D01*
X267154Y296758D01*
X267115Y296678D01*
X267072Y296600D01*
X267026Y296524D01*
X266976Y296449D01*
X266923Y296377D01*
X266867Y296308D01*
X266808Y296241D01*
X266747Y296176D01*
X266682Y296115D01*
X266615Y296056D01*
X266546Y296000D01*
X266474Y295947D01*
X266399Y295897D01*
X266323Y295851D01*
X266245Y295808D01*
X266165Y295769D01*
X266083Y295733D01*
X266000Y295700D01*
X265915Y295672D01*
X265830Y295647D01*
X265743Y295625D01*
X265655Y295608D01*
X265567Y295595D01*
X265478Y295585D01*
X265389Y295579D01*
X265300Y295577D01*
X263254Y295577D01*
X270790Y292303D02*
X270790Y299669D01*
X269972Y292303D02*
X271609Y292303D01*
X271609Y299669D02*
X269972Y299669D01*
X274596Y297623D02*
X274596Y294349D01*
X274596Y297623D02*
X274598Y297712D01*
X274604Y297801D01*
X274614Y297890D01*
X274627Y297978D01*
X274644Y298066D01*
X274666Y298153D01*
X274691Y298238D01*
X274719Y298323D01*
X274752Y298406D01*
X274788Y298488D01*
X274827Y298568D01*
X274870Y298646D01*
X274916Y298722D01*
X274966Y298797D01*
X275019Y298869D01*
X275075Y298938D01*
X275134Y299005D01*
X275195Y299070D01*
X275260Y299131D01*
X275327Y299190D01*
X275396Y299246D01*
X275468Y299299D01*
X275543Y299349D01*
X275619Y299395D01*
X275697Y299438D01*
X275777Y299477D01*
X275859Y299513D01*
X275942Y299546D01*
X276027Y299574D01*
X276112Y299599D01*
X276199Y299621D01*
X276287Y299638D01*
X276375Y299651D01*
X276464Y299661D01*
X276553Y299667D01*
X276642Y299669D01*
X276731Y299667D01*
X276820Y299661D01*
X276909Y299651D01*
X276997Y299638D01*
X277085Y299621D01*
X277172Y299599D01*
X277257Y299574D01*
X277342Y299546D01*
X277425Y299513D01*
X277507Y299477D01*
X277587Y299438D01*
X277665Y299395D01*
X277741Y299349D01*
X277816Y299299D01*
X277888Y299246D01*
X277957Y299190D01*
X278024Y299131D01*
X278089Y299070D01*
X278150Y299005D01*
X278209Y298938D01*
X278265Y298869D01*
X278318Y298797D01*
X278368Y298722D01*
X278414Y298646D01*
X278457Y298568D01*
X278496Y298488D01*
X278532Y298406D01*
X278565Y298323D01*
X278593Y298238D01*
X278618Y298153D01*
X278640Y298066D01*
X278657Y297978D01*
X278670Y297890D01*
X278680Y297801D01*
X278686Y297712D01*
X278688Y297623D01*
X278689Y297623D02*
X278689Y294349D01*
X278688Y294349D02*
X278686Y294260D01*
X278680Y294171D01*
X278670Y294082D01*
X278657Y293994D01*
X278640Y293906D01*
X278618Y293819D01*
X278593Y293734D01*
X278565Y293649D01*
X278532Y293566D01*
X278496Y293484D01*
X278457Y293404D01*
X278414Y293326D01*
X278368Y293250D01*
X278318Y293175D01*
X278265Y293103D01*
X278209Y293034D01*
X278150Y292967D01*
X278089Y292902D01*
X278024Y292841D01*
X277957Y292782D01*
X277888Y292726D01*
X277816Y292673D01*
X277741Y292623D01*
X277665Y292577D01*
X277587Y292534D01*
X277507Y292495D01*
X277425Y292459D01*
X277342Y292426D01*
X277257Y292398D01*
X277172Y292373D01*
X277085Y292351D01*
X276997Y292334D01*
X276909Y292321D01*
X276820Y292311D01*
X276731Y292305D01*
X276642Y292303D01*
X276553Y292305D01*
X276464Y292311D01*
X276375Y292321D01*
X276287Y292334D01*
X276199Y292351D01*
X276112Y292373D01*
X276027Y292398D01*
X275942Y292426D01*
X275859Y292459D01*
X275777Y292495D01*
X275697Y292534D01*
X275619Y292577D01*
X275543Y292623D01*
X275468Y292673D01*
X275396Y292726D01*
X275327Y292782D01*
X275260Y292841D01*
X275195Y292902D01*
X275134Y292967D01*
X275075Y293034D01*
X275019Y293103D01*
X274966Y293175D01*
X274916Y293250D01*
X274870Y293326D01*
X274827Y293404D01*
X274788Y293484D01*
X274752Y293566D01*
X274719Y293649D01*
X274691Y293734D01*
X274666Y293819D01*
X274644Y293906D01*
X274627Y293994D01*
X274614Y294082D01*
X274604Y294171D01*
X274598Y294260D01*
X274596Y294349D01*
X281912Y298032D02*
X283958Y299669D01*
X283958Y292303D01*
X281912Y292303D02*
X286004Y292303D01*
X289227Y292303D02*
X291273Y292303D01*
X291362Y292305D01*
X291451Y292311D01*
X291540Y292321D01*
X291628Y292334D01*
X291716Y292351D01*
X291803Y292373D01*
X291888Y292398D01*
X291973Y292426D01*
X292056Y292459D01*
X292138Y292495D01*
X292218Y292534D01*
X292296Y292577D01*
X292372Y292623D01*
X292447Y292673D01*
X292519Y292726D01*
X292588Y292782D01*
X292655Y292841D01*
X292720Y292902D01*
X292781Y292967D01*
X292840Y293034D01*
X292896Y293103D01*
X292949Y293175D01*
X292999Y293250D01*
X293045Y293326D01*
X293088Y293404D01*
X293127Y293484D01*
X293163Y293566D01*
X293196Y293649D01*
X293224Y293734D01*
X293249Y293819D01*
X293271Y293906D01*
X293288Y293994D01*
X293301Y294082D01*
X293311Y294171D01*
X293317Y294260D01*
X293319Y294349D01*
X293317Y294438D01*
X293311Y294527D01*
X293301Y294616D01*
X293288Y294704D01*
X293271Y294792D01*
X293249Y294879D01*
X293224Y294964D01*
X293196Y295049D01*
X293163Y295132D01*
X293127Y295214D01*
X293088Y295294D01*
X293045Y295372D01*
X292999Y295448D01*
X292949Y295523D01*
X292896Y295595D01*
X292840Y295664D01*
X292781Y295731D01*
X292720Y295796D01*
X292655Y295857D01*
X292588Y295916D01*
X292519Y295972D01*
X292447Y296025D01*
X292372Y296075D01*
X292296Y296121D01*
X292218Y296164D01*
X292138Y296203D01*
X292056Y296239D01*
X291973Y296272D01*
X291888Y296300D01*
X291803Y296325D01*
X291716Y296347D01*
X291628Y296364D01*
X291540Y296377D01*
X291451Y296387D01*
X291362Y296393D01*
X291273Y296395D01*
X291682Y299669D02*
X289227Y299669D01*
X291682Y299669D02*
X291761Y299667D01*
X291840Y299661D01*
X291919Y299652D01*
X291997Y299639D01*
X292074Y299621D01*
X292150Y299601D01*
X292225Y299576D01*
X292299Y299548D01*
X292372Y299517D01*
X292443Y299481D01*
X292512Y299443D01*
X292579Y299401D01*
X292644Y299356D01*
X292707Y299308D01*
X292768Y299257D01*
X292825Y299203D01*
X292881Y299147D01*
X292933Y299088D01*
X292983Y299026D01*
X293029Y298962D01*
X293073Y298896D01*
X293113Y298828D01*
X293149Y298758D01*
X293183Y298686D01*
X293213Y298612D01*
X293239Y298538D01*
X293262Y298462D01*
X293280Y298385D01*
X293296Y298308D01*
X293307Y298229D01*
X293315Y298151D01*
X293319Y298072D01*
X293319Y297992D01*
X293315Y297913D01*
X293307Y297835D01*
X293296Y297756D01*
X293280Y297679D01*
X293262Y297602D01*
X293239Y297526D01*
X293213Y297452D01*
X293183Y297378D01*
X293149Y297306D01*
X293113Y297236D01*
X293073Y297168D01*
X293029Y297102D01*
X292983Y297038D01*
X292933Y296976D01*
X292881Y296917D01*
X292825Y296861D01*
X292768Y296807D01*
X292707Y296756D01*
X292644Y296708D01*
X292579Y296663D01*
X292512Y296621D01*
X292443Y296583D01*
X292372Y296547D01*
X292299Y296516D01*
X292225Y296488D01*
X292150Y296463D01*
X292074Y296443D01*
X291997Y296425D01*
X291919Y296412D01*
X291840Y296403D01*
X291761Y296397D01*
X291682Y296395D01*
X290045Y296395D01*
X278703Y317703D02*
X276248Y325069D01*
X281159Y325069D02*
X278703Y317703D01*
X285586Y317703D02*
X287223Y317703D01*
X285586Y317703D02*
X285508Y317705D01*
X285430Y317710D01*
X285353Y317720D01*
X285276Y317733D01*
X285200Y317749D01*
X285125Y317769D01*
X285051Y317793D01*
X284978Y317820D01*
X284906Y317851D01*
X284836Y317885D01*
X284768Y317922D01*
X284701Y317963D01*
X284636Y318007D01*
X284574Y318053D01*
X284514Y318103D01*
X284456Y318155D01*
X284401Y318210D01*
X284349Y318268D01*
X284299Y318328D01*
X284253Y318390D01*
X284209Y318455D01*
X284168Y318522D01*
X284131Y318590D01*
X284097Y318660D01*
X284066Y318732D01*
X284039Y318805D01*
X284015Y318879D01*
X283995Y318954D01*
X283979Y319030D01*
X283966Y319107D01*
X283956Y319184D01*
X283951Y319262D01*
X283949Y319340D01*
X283949Y323432D01*
X283951Y323512D01*
X283957Y323592D01*
X283967Y323672D01*
X283980Y323751D01*
X283998Y323830D01*
X284019Y323907D01*
X284045Y323983D01*
X284074Y324058D01*
X284106Y324132D01*
X284142Y324204D01*
X284182Y324274D01*
X284225Y324341D01*
X284271Y324407D01*
X284321Y324470D01*
X284373Y324531D01*
X284428Y324590D01*
X284487Y324645D01*
X284547Y324697D01*
X284611Y324747D01*
X284677Y324793D01*
X284744Y324836D01*
X284814Y324876D01*
X284886Y324912D01*
X284960Y324944D01*
X285034Y324973D01*
X285111Y324999D01*
X285188Y325020D01*
X285267Y325038D01*
X285346Y325051D01*
X285426Y325061D01*
X285506Y325067D01*
X285586Y325069D01*
X287223Y325069D01*
X291682Y317703D02*
X293319Y317703D01*
X291682Y317703D02*
X291604Y317705D01*
X291526Y317710D01*
X291449Y317720D01*
X291372Y317733D01*
X291296Y317749D01*
X291221Y317769D01*
X291147Y317793D01*
X291074Y317820D01*
X291002Y317851D01*
X290932Y317885D01*
X290864Y317922D01*
X290797Y317963D01*
X290732Y318007D01*
X290670Y318053D01*
X290610Y318103D01*
X290552Y318155D01*
X290497Y318210D01*
X290445Y318268D01*
X290395Y318328D01*
X290349Y318390D01*
X290305Y318455D01*
X290264Y318522D01*
X290227Y318590D01*
X290193Y318660D01*
X290162Y318732D01*
X290135Y318805D01*
X290111Y318879D01*
X290091Y318954D01*
X290075Y319030D01*
X290062Y319107D01*
X290052Y319184D01*
X290047Y319262D01*
X290045Y319340D01*
X290045Y323432D01*
X290047Y323512D01*
X290053Y323592D01*
X290063Y323672D01*
X290076Y323751D01*
X290094Y323830D01*
X290115Y323907D01*
X290141Y323983D01*
X290170Y324058D01*
X290202Y324132D01*
X290238Y324204D01*
X290278Y324274D01*
X290321Y324341D01*
X290367Y324407D01*
X290417Y324470D01*
X290469Y324531D01*
X290524Y324590D01*
X290583Y324645D01*
X290643Y324697D01*
X290707Y324747D01*
X290773Y324793D01*
X290840Y324836D01*
X290910Y324876D01*
X290982Y324912D01*
X291056Y324944D01*
X291130Y324973D01*
X291207Y324999D01*
X291284Y325020D01*
X291363Y325038D01*
X291442Y325051D01*
X291522Y325061D01*
X291602Y325067D01*
X291682Y325069D01*
X293319Y325069D01*
X74513Y321795D02*
X73286Y321795D01*
X74513Y321795D02*
X74513Y317703D01*
X72058Y317703D01*
X71980Y317705D01*
X71902Y317710D01*
X71825Y317720D01*
X71748Y317733D01*
X71672Y317749D01*
X71597Y317769D01*
X71523Y317793D01*
X71450Y317820D01*
X71378Y317851D01*
X71308Y317885D01*
X71240Y317922D01*
X71173Y317963D01*
X71108Y318007D01*
X71046Y318053D01*
X70986Y318103D01*
X70928Y318155D01*
X70873Y318210D01*
X70821Y318268D01*
X70771Y318328D01*
X70725Y318390D01*
X70681Y318455D01*
X70640Y318522D01*
X70603Y318590D01*
X70569Y318660D01*
X70538Y318732D01*
X70511Y318805D01*
X70487Y318879D01*
X70467Y318954D01*
X70451Y319030D01*
X70438Y319107D01*
X70428Y319184D01*
X70423Y319262D01*
X70421Y319340D01*
X70421Y323432D01*
X70423Y323512D01*
X70429Y323592D01*
X70439Y323672D01*
X70452Y323751D01*
X70470Y323830D01*
X70491Y323907D01*
X70517Y323983D01*
X70546Y324058D01*
X70578Y324132D01*
X70614Y324204D01*
X70654Y324274D01*
X70697Y324341D01*
X70743Y324407D01*
X70793Y324470D01*
X70845Y324531D01*
X70900Y324590D01*
X70959Y324645D01*
X71019Y324697D01*
X71083Y324747D01*
X71149Y324793D01*
X71216Y324836D01*
X71286Y324876D01*
X71358Y324912D01*
X71432Y324944D01*
X71506Y324973D01*
X71583Y324999D01*
X71660Y325020D01*
X71739Y325038D01*
X71818Y325051D01*
X71898Y325061D01*
X71978Y325067D01*
X72058Y325069D01*
X74513Y325069D01*
X78224Y325069D02*
X78224Y317703D01*
X82316Y317703D02*
X78224Y325069D01*
X82316Y325069D02*
X82316Y317703D01*
X86027Y317703D02*
X86027Y325069D01*
X88073Y325069D01*
X88162Y325067D01*
X88251Y325061D01*
X88340Y325051D01*
X88428Y325038D01*
X88516Y325021D01*
X88603Y324999D01*
X88688Y324974D01*
X88773Y324946D01*
X88856Y324913D01*
X88938Y324877D01*
X89018Y324838D01*
X89096Y324795D01*
X89172Y324749D01*
X89247Y324699D01*
X89319Y324646D01*
X89388Y324590D01*
X89455Y324531D01*
X89520Y324470D01*
X89581Y324405D01*
X89640Y324338D01*
X89696Y324269D01*
X89749Y324197D01*
X89799Y324122D01*
X89845Y324046D01*
X89888Y323968D01*
X89927Y323888D01*
X89963Y323806D01*
X89996Y323723D01*
X90024Y323638D01*
X90049Y323553D01*
X90071Y323466D01*
X90088Y323378D01*
X90101Y323290D01*
X90111Y323201D01*
X90117Y323112D01*
X90119Y323023D01*
X90119Y319749D01*
X90117Y319660D01*
X90111Y319571D01*
X90101Y319482D01*
X90088Y319394D01*
X90071Y319306D01*
X90049Y319219D01*
X90024Y319134D01*
X89996Y319049D01*
X89963Y318966D01*
X89927Y318884D01*
X89888Y318804D01*
X89845Y318726D01*
X89799Y318650D01*
X89749Y318575D01*
X89696Y318503D01*
X89640Y318434D01*
X89581Y318367D01*
X89520Y318302D01*
X89455Y318241D01*
X89388Y318182D01*
X89319Y318126D01*
X89247Y318073D01*
X89172Y318023D01*
X89096Y317977D01*
X89018Y317934D01*
X88938Y317895D01*
X88856Y317859D01*
X88773Y317826D01*
X88688Y317798D01*
X88603Y317773D01*
X88516Y317751D01*
X88428Y317734D01*
X88340Y317721D01*
X88251Y317711D01*
X88162Y317705D01*
X88073Y317703D01*
X86027Y317703D01*
X56225Y296395D02*
X54998Y296395D01*
X56225Y296395D02*
X56225Y292303D01*
X53770Y292303D01*
X53692Y292305D01*
X53614Y292310D01*
X53537Y292320D01*
X53460Y292333D01*
X53384Y292349D01*
X53309Y292369D01*
X53235Y292393D01*
X53162Y292420D01*
X53090Y292451D01*
X53020Y292485D01*
X52952Y292522D01*
X52885Y292563D01*
X52820Y292607D01*
X52758Y292653D01*
X52698Y292703D01*
X52640Y292755D01*
X52585Y292810D01*
X52533Y292868D01*
X52483Y292928D01*
X52437Y292990D01*
X52393Y293055D01*
X52352Y293122D01*
X52315Y293190D01*
X52281Y293260D01*
X52250Y293332D01*
X52223Y293405D01*
X52199Y293479D01*
X52179Y293554D01*
X52163Y293630D01*
X52150Y293707D01*
X52140Y293784D01*
X52135Y293862D01*
X52133Y293940D01*
X52133Y298032D01*
X52135Y298112D01*
X52141Y298192D01*
X52151Y298272D01*
X52164Y298351D01*
X52182Y298430D01*
X52203Y298507D01*
X52229Y298583D01*
X52258Y298658D01*
X52290Y298732D01*
X52326Y298804D01*
X52366Y298874D01*
X52409Y298941D01*
X52455Y299007D01*
X52505Y299070D01*
X52557Y299131D01*
X52612Y299190D01*
X52671Y299245D01*
X52731Y299297D01*
X52795Y299347D01*
X52861Y299393D01*
X52928Y299436D01*
X52998Y299476D01*
X53070Y299512D01*
X53144Y299544D01*
X53218Y299573D01*
X53295Y299599D01*
X53372Y299620D01*
X53451Y299638D01*
X53530Y299651D01*
X53610Y299661D01*
X53690Y299667D01*
X53770Y299669D01*
X56225Y299669D01*
X60054Y299669D02*
X60054Y292303D01*
X60054Y299669D02*
X62100Y299669D01*
X62189Y299667D01*
X62278Y299661D01*
X62367Y299651D01*
X62455Y299638D01*
X62543Y299621D01*
X62630Y299599D01*
X62715Y299574D01*
X62800Y299546D01*
X62883Y299513D01*
X62965Y299477D01*
X63045Y299438D01*
X63123Y299395D01*
X63199Y299349D01*
X63274Y299299D01*
X63346Y299246D01*
X63415Y299190D01*
X63482Y299131D01*
X63547Y299070D01*
X63608Y299005D01*
X63667Y298938D01*
X63723Y298869D01*
X63776Y298797D01*
X63826Y298722D01*
X63872Y298646D01*
X63915Y298568D01*
X63954Y298488D01*
X63990Y298406D01*
X64023Y298323D01*
X64051Y298238D01*
X64076Y298153D01*
X64098Y298066D01*
X64115Y297978D01*
X64128Y297890D01*
X64138Y297801D01*
X64144Y297712D01*
X64146Y297623D01*
X64144Y297534D01*
X64138Y297445D01*
X64128Y297356D01*
X64115Y297268D01*
X64098Y297180D01*
X64076Y297093D01*
X64051Y297008D01*
X64023Y296923D01*
X63990Y296840D01*
X63954Y296758D01*
X63915Y296678D01*
X63872Y296600D01*
X63826Y296524D01*
X63776Y296449D01*
X63723Y296377D01*
X63667Y296308D01*
X63608Y296241D01*
X63547Y296176D01*
X63482Y296115D01*
X63415Y296056D01*
X63346Y296000D01*
X63274Y295947D01*
X63199Y295897D01*
X63123Y295851D01*
X63045Y295808D01*
X62965Y295769D01*
X62883Y295733D01*
X62800Y295700D01*
X62715Y295672D01*
X62630Y295647D01*
X62543Y295625D01*
X62455Y295608D01*
X62367Y295595D01*
X62278Y295585D01*
X62189Y295579D01*
X62100Y295577D01*
X60054Y295577D01*
X67590Y292303D02*
X67590Y299669D01*
X66772Y292303D02*
X68409Y292303D01*
X68409Y299669D02*
X66772Y299669D01*
X71396Y297623D02*
X71396Y294349D01*
X71396Y297623D02*
X71398Y297712D01*
X71404Y297801D01*
X71414Y297890D01*
X71427Y297978D01*
X71444Y298066D01*
X71466Y298153D01*
X71491Y298238D01*
X71519Y298323D01*
X71552Y298406D01*
X71588Y298488D01*
X71627Y298568D01*
X71670Y298646D01*
X71716Y298722D01*
X71766Y298797D01*
X71819Y298869D01*
X71875Y298938D01*
X71934Y299005D01*
X71995Y299070D01*
X72060Y299131D01*
X72127Y299190D01*
X72196Y299246D01*
X72268Y299299D01*
X72343Y299349D01*
X72419Y299395D01*
X72497Y299438D01*
X72577Y299477D01*
X72659Y299513D01*
X72742Y299546D01*
X72827Y299574D01*
X72912Y299599D01*
X72999Y299621D01*
X73087Y299638D01*
X73175Y299651D01*
X73264Y299661D01*
X73353Y299667D01*
X73442Y299669D01*
X73531Y299667D01*
X73620Y299661D01*
X73709Y299651D01*
X73797Y299638D01*
X73885Y299621D01*
X73972Y299599D01*
X74057Y299574D01*
X74142Y299546D01*
X74225Y299513D01*
X74307Y299477D01*
X74387Y299438D01*
X74465Y299395D01*
X74541Y299349D01*
X74616Y299299D01*
X74688Y299246D01*
X74757Y299190D01*
X74824Y299131D01*
X74889Y299070D01*
X74950Y299005D01*
X75009Y298938D01*
X75065Y298869D01*
X75118Y298797D01*
X75168Y298722D01*
X75214Y298646D01*
X75257Y298568D01*
X75296Y298488D01*
X75332Y298406D01*
X75365Y298323D01*
X75393Y298238D01*
X75418Y298153D01*
X75440Y298066D01*
X75457Y297978D01*
X75470Y297890D01*
X75480Y297801D01*
X75486Y297712D01*
X75488Y297623D01*
X75489Y297623D02*
X75489Y294349D01*
X75488Y294349D02*
X75486Y294260D01*
X75480Y294171D01*
X75470Y294082D01*
X75457Y293994D01*
X75440Y293906D01*
X75418Y293819D01*
X75393Y293734D01*
X75365Y293649D01*
X75332Y293566D01*
X75296Y293484D01*
X75257Y293404D01*
X75214Y293326D01*
X75168Y293250D01*
X75118Y293175D01*
X75065Y293103D01*
X75009Y293034D01*
X74950Y292967D01*
X74889Y292902D01*
X74824Y292841D01*
X74757Y292782D01*
X74688Y292726D01*
X74616Y292673D01*
X74541Y292623D01*
X74465Y292577D01*
X74387Y292534D01*
X74307Y292495D01*
X74225Y292459D01*
X74142Y292426D01*
X74057Y292398D01*
X73972Y292373D01*
X73885Y292351D01*
X73797Y292334D01*
X73709Y292321D01*
X73620Y292311D01*
X73531Y292305D01*
X73442Y292303D01*
X73353Y292305D01*
X73264Y292311D01*
X73175Y292321D01*
X73087Y292334D01*
X72999Y292351D01*
X72912Y292373D01*
X72827Y292398D01*
X72742Y292426D01*
X72659Y292459D01*
X72577Y292495D01*
X72497Y292534D01*
X72419Y292577D01*
X72343Y292623D01*
X72268Y292673D01*
X72196Y292726D01*
X72127Y292782D01*
X72060Y292841D01*
X71995Y292902D01*
X71934Y292967D01*
X71875Y293034D01*
X71819Y293103D01*
X71766Y293175D01*
X71716Y293250D01*
X71670Y293326D01*
X71627Y293404D01*
X71588Y293484D01*
X71552Y293566D01*
X71519Y293649D01*
X71491Y293734D01*
X71466Y293819D01*
X71444Y293906D01*
X71427Y293994D01*
X71414Y294082D01*
X71404Y294171D01*
X71398Y294260D01*
X71396Y294349D01*
X78712Y298032D02*
X80758Y299669D01*
X80758Y292303D01*
X78712Y292303D02*
X82804Y292303D01*
X86027Y292303D02*
X88482Y292303D01*
X88560Y292305D01*
X88638Y292310D01*
X88715Y292320D01*
X88792Y292333D01*
X88868Y292349D01*
X88943Y292369D01*
X89017Y292393D01*
X89090Y292420D01*
X89162Y292451D01*
X89232Y292485D01*
X89301Y292522D01*
X89367Y292563D01*
X89432Y292607D01*
X89494Y292653D01*
X89554Y292703D01*
X89612Y292755D01*
X89667Y292810D01*
X89719Y292868D01*
X89769Y292928D01*
X89815Y292990D01*
X89859Y293055D01*
X89900Y293122D01*
X89937Y293190D01*
X89971Y293260D01*
X90002Y293332D01*
X90029Y293405D01*
X90053Y293479D01*
X90073Y293554D01*
X90089Y293630D01*
X90102Y293707D01*
X90112Y293784D01*
X90117Y293862D01*
X90119Y293940D01*
X90119Y294758D01*
X90117Y294836D01*
X90112Y294914D01*
X90102Y294991D01*
X90089Y295068D01*
X90073Y295144D01*
X90053Y295219D01*
X90029Y295293D01*
X90002Y295366D01*
X89971Y295438D01*
X89937Y295508D01*
X89900Y295577D01*
X89859Y295643D01*
X89815Y295708D01*
X89769Y295770D01*
X89719Y295830D01*
X89667Y295888D01*
X89612Y295943D01*
X89554Y295995D01*
X89494Y296045D01*
X89432Y296091D01*
X89367Y296135D01*
X89301Y296176D01*
X89232Y296213D01*
X89162Y296247D01*
X89090Y296278D01*
X89017Y296305D01*
X88943Y296329D01*
X88868Y296349D01*
X88792Y296365D01*
X88715Y296378D01*
X88638Y296388D01*
X88560Y296393D01*
X88482Y296395D01*
X86027Y296395D01*
X86027Y299669D01*
X90119Y299669D01*
X63540Y270995D02*
X62313Y270995D01*
X63540Y270995D02*
X63540Y266903D01*
X61085Y266903D01*
X61007Y266905D01*
X60929Y266910D01*
X60852Y266920D01*
X60775Y266933D01*
X60699Y266949D01*
X60624Y266969D01*
X60550Y266993D01*
X60477Y267020D01*
X60405Y267051D01*
X60335Y267085D01*
X60267Y267122D01*
X60200Y267163D01*
X60135Y267207D01*
X60073Y267253D01*
X60013Y267303D01*
X59955Y267355D01*
X59900Y267410D01*
X59848Y267468D01*
X59798Y267528D01*
X59752Y267590D01*
X59708Y267655D01*
X59667Y267722D01*
X59630Y267790D01*
X59596Y267860D01*
X59565Y267932D01*
X59538Y268005D01*
X59514Y268079D01*
X59494Y268154D01*
X59478Y268230D01*
X59465Y268307D01*
X59455Y268384D01*
X59450Y268462D01*
X59448Y268540D01*
X59448Y272632D01*
X59450Y272712D01*
X59456Y272792D01*
X59466Y272872D01*
X59479Y272951D01*
X59497Y273030D01*
X59518Y273107D01*
X59544Y273183D01*
X59573Y273258D01*
X59605Y273332D01*
X59641Y273404D01*
X59681Y273474D01*
X59724Y273541D01*
X59770Y273607D01*
X59820Y273670D01*
X59872Y273731D01*
X59927Y273790D01*
X59986Y273845D01*
X60046Y273897D01*
X60110Y273947D01*
X60176Y273993D01*
X60243Y274036D01*
X60313Y274076D01*
X60385Y274112D01*
X60459Y274144D01*
X60533Y274173D01*
X60610Y274199D01*
X60687Y274220D01*
X60766Y274238D01*
X60845Y274251D01*
X60925Y274261D01*
X61005Y274267D01*
X61085Y274269D01*
X63540Y274269D01*
X67369Y274269D02*
X67369Y266903D01*
X67369Y274269D02*
X69415Y274269D01*
X69504Y274267D01*
X69593Y274261D01*
X69682Y274251D01*
X69770Y274238D01*
X69858Y274221D01*
X69945Y274199D01*
X70030Y274174D01*
X70115Y274146D01*
X70198Y274113D01*
X70280Y274077D01*
X70360Y274038D01*
X70438Y273995D01*
X70514Y273949D01*
X70589Y273899D01*
X70661Y273846D01*
X70730Y273790D01*
X70797Y273731D01*
X70862Y273670D01*
X70923Y273605D01*
X70982Y273538D01*
X71038Y273469D01*
X71091Y273397D01*
X71141Y273322D01*
X71187Y273246D01*
X71230Y273168D01*
X71269Y273088D01*
X71305Y273006D01*
X71338Y272923D01*
X71366Y272838D01*
X71391Y272753D01*
X71413Y272666D01*
X71430Y272578D01*
X71443Y272490D01*
X71453Y272401D01*
X71459Y272312D01*
X71461Y272223D01*
X71459Y272134D01*
X71453Y272045D01*
X71443Y271956D01*
X71430Y271868D01*
X71413Y271780D01*
X71391Y271693D01*
X71366Y271608D01*
X71338Y271523D01*
X71305Y271440D01*
X71269Y271358D01*
X71230Y271278D01*
X71187Y271200D01*
X71141Y271124D01*
X71091Y271049D01*
X71038Y270977D01*
X70982Y270908D01*
X70923Y270841D01*
X70862Y270776D01*
X70797Y270715D01*
X70730Y270656D01*
X70661Y270600D01*
X70589Y270547D01*
X70514Y270497D01*
X70438Y270451D01*
X70360Y270408D01*
X70280Y270369D01*
X70198Y270333D01*
X70115Y270300D01*
X70030Y270272D01*
X69945Y270247D01*
X69858Y270225D01*
X69770Y270208D01*
X69682Y270195D01*
X69593Y270185D01*
X69504Y270179D01*
X69415Y270177D01*
X67369Y270177D01*
X74906Y266903D02*
X74906Y274269D01*
X74087Y266903D02*
X75724Y266903D01*
X75724Y274269D02*
X74087Y274269D01*
X78712Y272223D02*
X78712Y268949D01*
X78712Y272223D02*
X78714Y272312D01*
X78720Y272401D01*
X78730Y272490D01*
X78743Y272578D01*
X78760Y272666D01*
X78782Y272753D01*
X78807Y272838D01*
X78835Y272923D01*
X78868Y273006D01*
X78904Y273088D01*
X78943Y273168D01*
X78986Y273246D01*
X79032Y273322D01*
X79082Y273397D01*
X79135Y273469D01*
X79191Y273538D01*
X79250Y273605D01*
X79311Y273670D01*
X79376Y273731D01*
X79443Y273790D01*
X79512Y273846D01*
X79584Y273899D01*
X79659Y273949D01*
X79735Y273995D01*
X79813Y274038D01*
X79893Y274077D01*
X79975Y274113D01*
X80058Y274146D01*
X80143Y274174D01*
X80228Y274199D01*
X80315Y274221D01*
X80403Y274238D01*
X80491Y274251D01*
X80580Y274261D01*
X80669Y274267D01*
X80758Y274269D01*
X80847Y274267D01*
X80936Y274261D01*
X81025Y274251D01*
X81113Y274238D01*
X81201Y274221D01*
X81288Y274199D01*
X81373Y274174D01*
X81458Y274146D01*
X81541Y274113D01*
X81623Y274077D01*
X81703Y274038D01*
X81781Y273995D01*
X81857Y273949D01*
X81932Y273899D01*
X82004Y273846D01*
X82073Y273790D01*
X82140Y273731D01*
X82205Y273670D01*
X82266Y273605D01*
X82325Y273538D01*
X82381Y273469D01*
X82434Y273397D01*
X82484Y273322D01*
X82530Y273246D01*
X82573Y273168D01*
X82612Y273088D01*
X82648Y273006D01*
X82681Y272923D01*
X82709Y272838D01*
X82734Y272753D01*
X82756Y272666D01*
X82773Y272578D01*
X82786Y272490D01*
X82796Y272401D01*
X82802Y272312D01*
X82804Y272223D01*
X82804Y268949D01*
X82802Y268860D01*
X82796Y268771D01*
X82786Y268682D01*
X82773Y268594D01*
X82756Y268506D01*
X82734Y268419D01*
X82709Y268334D01*
X82681Y268249D01*
X82648Y268166D01*
X82612Y268084D01*
X82573Y268004D01*
X82530Y267926D01*
X82484Y267850D01*
X82434Y267775D01*
X82381Y267703D01*
X82325Y267634D01*
X82266Y267567D01*
X82205Y267502D01*
X82140Y267441D01*
X82073Y267382D01*
X82004Y267326D01*
X81932Y267273D01*
X81857Y267223D01*
X81781Y267177D01*
X81703Y267134D01*
X81623Y267095D01*
X81541Y267059D01*
X81458Y267026D01*
X81373Y266998D01*
X81288Y266973D01*
X81201Y266951D01*
X81113Y266934D01*
X81025Y266921D01*
X80936Y266911D01*
X80847Y266905D01*
X80758Y266903D01*
X80669Y266905D01*
X80580Y266911D01*
X80491Y266921D01*
X80403Y266934D01*
X80315Y266951D01*
X80228Y266973D01*
X80143Y266998D01*
X80058Y267026D01*
X79975Y267059D01*
X79893Y267095D01*
X79813Y267134D01*
X79735Y267177D01*
X79659Y267223D01*
X79584Y267273D01*
X79512Y267326D01*
X79443Y267382D01*
X79376Y267441D01*
X79311Y267502D01*
X79250Y267567D01*
X79191Y267634D01*
X79135Y267703D01*
X79082Y267775D01*
X79032Y267850D01*
X78986Y267926D01*
X78943Y268004D01*
X78904Y268084D01*
X78868Y268166D01*
X78835Y268249D01*
X78807Y268334D01*
X78782Y268419D01*
X78760Y268506D01*
X78743Y268594D01*
X78730Y268682D01*
X78720Y268771D01*
X78714Y268860D01*
X78712Y268949D01*
X88278Y274270D02*
X88363Y274268D01*
X88448Y274262D01*
X88532Y274252D01*
X88616Y274239D01*
X88700Y274221D01*
X88782Y274200D01*
X88863Y274175D01*
X88943Y274146D01*
X89022Y274113D01*
X89099Y274077D01*
X89174Y274037D01*
X89248Y273994D01*
X89319Y273948D01*
X89388Y273898D01*
X89455Y273845D01*
X89519Y273789D01*
X89580Y273730D01*
X89639Y273669D01*
X89695Y273605D01*
X89748Y273538D01*
X89798Y273469D01*
X89844Y273398D01*
X89887Y273324D01*
X89927Y273249D01*
X89963Y273172D01*
X89996Y273093D01*
X90025Y273013D01*
X90050Y272932D01*
X90071Y272850D01*
X90089Y272766D01*
X90102Y272682D01*
X90112Y272598D01*
X90118Y272513D01*
X90120Y272428D01*
X88278Y274269D02*
X88182Y274267D01*
X88086Y274261D01*
X87991Y274251D01*
X87896Y274238D01*
X87801Y274220D01*
X87708Y274199D01*
X87615Y274174D01*
X87524Y274145D01*
X87433Y274113D01*
X87344Y274077D01*
X87257Y274037D01*
X87171Y273994D01*
X87087Y273948D01*
X87005Y273898D01*
X86925Y273844D01*
X86848Y273788D01*
X86773Y273728D01*
X86700Y273666D01*
X86630Y273600D01*
X86562Y273532D01*
X86497Y273461D01*
X86436Y273388D01*
X86377Y273312D01*
X86321Y273233D01*
X86269Y273153D01*
X86220Y273070D01*
X86174Y272986D01*
X86132Y272900D01*
X86094Y272812D01*
X86059Y272723D01*
X86027Y272632D01*
X89505Y270996D02*
X89565Y271055D01*
X89622Y271117D01*
X89677Y271181D01*
X89728Y271248D01*
X89777Y271317D01*
X89823Y271387D01*
X89866Y271460D01*
X89906Y271534D01*
X89942Y271610D01*
X89975Y271688D01*
X90005Y271767D01*
X90032Y271847D01*
X90055Y271928D01*
X90074Y272010D01*
X90090Y272092D01*
X90103Y272176D01*
X90112Y272260D01*
X90117Y272344D01*
X90119Y272428D01*
X89505Y270995D02*
X86027Y266903D01*
X90119Y266903D01*
X63540Y245595D02*
X62313Y245595D01*
X63540Y245595D02*
X63540Y241503D01*
X61085Y241503D01*
X61007Y241505D01*
X60929Y241510D01*
X60852Y241520D01*
X60775Y241533D01*
X60699Y241549D01*
X60624Y241569D01*
X60550Y241593D01*
X60477Y241620D01*
X60405Y241651D01*
X60335Y241685D01*
X60267Y241722D01*
X60200Y241763D01*
X60135Y241807D01*
X60073Y241853D01*
X60013Y241903D01*
X59955Y241955D01*
X59900Y242010D01*
X59848Y242068D01*
X59798Y242128D01*
X59752Y242190D01*
X59708Y242255D01*
X59667Y242322D01*
X59630Y242390D01*
X59596Y242460D01*
X59565Y242532D01*
X59538Y242605D01*
X59514Y242679D01*
X59494Y242754D01*
X59478Y242830D01*
X59465Y242907D01*
X59455Y242984D01*
X59450Y243062D01*
X59448Y243140D01*
X59448Y247232D01*
X59450Y247312D01*
X59456Y247392D01*
X59466Y247472D01*
X59479Y247551D01*
X59497Y247630D01*
X59518Y247707D01*
X59544Y247783D01*
X59573Y247858D01*
X59605Y247932D01*
X59641Y248004D01*
X59681Y248074D01*
X59724Y248141D01*
X59770Y248207D01*
X59820Y248270D01*
X59872Y248331D01*
X59927Y248390D01*
X59986Y248445D01*
X60046Y248497D01*
X60110Y248547D01*
X60176Y248593D01*
X60243Y248636D01*
X60313Y248676D01*
X60385Y248712D01*
X60459Y248744D01*
X60533Y248773D01*
X60610Y248799D01*
X60687Y248820D01*
X60766Y248838D01*
X60845Y248851D01*
X60925Y248861D01*
X61005Y248867D01*
X61085Y248869D01*
X63540Y248869D01*
X67369Y248869D02*
X67369Y241503D01*
X67369Y248869D02*
X69415Y248869D01*
X69504Y248867D01*
X69593Y248861D01*
X69682Y248851D01*
X69770Y248838D01*
X69858Y248821D01*
X69945Y248799D01*
X70030Y248774D01*
X70115Y248746D01*
X70198Y248713D01*
X70280Y248677D01*
X70360Y248638D01*
X70438Y248595D01*
X70514Y248549D01*
X70589Y248499D01*
X70661Y248446D01*
X70730Y248390D01*
X70797Y248331D01*
X70862Y248270D01*
X70923Y248205D01*
X70982Y248138D01*
X71038Y248069D01*
X71091Y247997D01*
X71141Y247922D01*
X71187Y247846D01*
X71230Y247768D01*
X71269Y247688D01*
X71305Y247606D01*
X71338Y247523D01*
X71366Y247438D01*
X71391Y247353D01*
X71413Y247266D01*
X71430Y247178D01*
X71443Y247090D01*
X71453Y247001D01*
X71459Y246912D01*
X71461Y246823D01*
X71459Y246734D01*
X71453Y246645D01*
X71443Y246556D01*
X71430Y246468D01*
X71413Y246380D01*
X71391Y246293D01*
X71366Y246208D01*
X71338Y246123D01*
X71305Y246040D01*
X71269Y245958D01*
X71230Y245878D01*
X71187Y245800D01*
X71141Y245724D01*
X71091Y245649D01*
X71038Y245577D01*
X70982Y245508D01*
X70923Y245441D01*
X70862Y245376D01*
X70797Y245315D01*
X70730Y245256D01*
X70661Y245200D01*
X70589Y245147D01*
X70514Y245097D01*
X70438Y245051D01*
X70360Y245008D01*
X70280Y244969D01*
X70198Y244933D01*
X70115Y244900D01*
X70030Y244872D01*
X69945Y244847D01*
X69858Y244825D01*
X69770Y244808D01*
X69682Y244795D01*
X69593Y244785D01*
X69504Y244779D01*
X69415Y244777D01*
X67369Y244777D01*
X74906Y241503D02*
X74906Y248869D01*
X74087Y241503D02*
X75724Y241503D01*
X75724Y248869D02*
X74087Y248869D01*
X78712Y246823D02*
X78712Y243549D01*
X78712Y246823D02*
X78714Y246912D01*
X78720Y247001D01*
X78730Y247090D01*
X78743Y247178D01*
X78760Y247266D01*
X78782Y247353D01*
X78807Y247438D01*
X78835Y247523D01*
X78868Y247606D01*
X78904Y247688D01*
X78943Y247768D01*
X78986Y247846D01*
X79032Y247922D01*
X79082Y247997D01*
X79135Y248069D01*
X79191Y248138D01*
X79250Y248205D01*
X79311Y248270D01*
X79376Y248331D01*
X79443Y248390D01*
X79512Y248446D01*
X79584Y248499D01*
X79659Y248549D01*
X79735Y248595D01*
X79813Y248638D01*
X79893Y248677D01*
X79975Y248713D01*
X80058Y248746D01*
X80143Y248774D01*
X80228Y248799D01*
X80315Y248821D01*
X80403Y248838D01*
X80491Y248851D01*
X80580Y248861D01*
X80669Y248867D01*
X80758Y248869D01*
X80847Y248867D01*
X80936Y248861D01*
X81025Y248851D01*
X81113Y248838D01*
X81201Y248821D01*
X81288Y248799D01*
X81373Y248774D01*
X81458Y248746D01*
X81541Y248713D01*
X81623Y248677D01*
X81703Y248638D01*
X81781Y248595D01*
X81857Y248549D01*
X81932Y248499D01*
X82004Y248446D01*
X82073Y248390D01*
X82140Y248331D01*
X82205Y248270D01*
X82266Y248205D01*
X82325Y248138D01*
X82381Y248069D01*
X82434Y247997D01*
X82484Y247922D01*
X82530Y247846D01*
X82573Y247768D01*
X82612Y247688D01*
X82648Y247606D01*
X82681Y247523D01*
X82709Y247438D01*
X82734Y247353D01*
X82756Y247266D01*
X82773Y247178D01*
X82786Y247090D01*
X82796Y247001D01*
X82802Y246912D01*
X82804Y246823D01*
X82804Y243549D01*
X82802Y243460D01*
X82796Y243371D01*
X82786Y243282D01*
X82773Y243194D01*
X82756Y243106D01*
X82734Y243019D01*
X82709Y242934D01*
X82681Y242849D01*
X82648Y242766D01*
X82612Y242684D01*
X82573Y242604D01*
X82530Y242526D01*
X82484Y242450D01*
X82434Y242375D01*
X82381Y242303D01*
X82325Y242234D01*
X82266Y242167D01*
X82205Y242102D01*
X82140Y242041D01*
X82073Y241982D01*
X82004Y241926D01*
X81932Y241873D01*
X81857Y241823D01*
X81781Y241777D01*
X81703Y241734D01*
X81623Y241695D01*
X81541Y241659D01*
X81458Y241626D01*
X81373Y241598D01*
X81288Y241573D01*
X81201Y241551D01*
X81113Y241534D01*
X81025Y241521D01*
X80936Y241511D01*
X80847Y241505D01*
X80758Y241503D01*
X80669Y241505D01*
X80580Y241511D01*
X80491Y241521D01*
X80403Y241534D01*
X80315Y241551D01*
X80228Y241573D01*
X80143Y241598D01*
X80058Y241626D01*
X79975Y241659D01*
X79893Y241695D01*
X79813Y241734D01*
X79735Y241777D01*
X79659Y241823D01*
X79584Y241873D01*
X79512Y241926D01*
X79443Y241982D01*
X79376Y242041D01*
X79311Y242102D01*
X79250Y242167D01*
X79191Y242234D01*
X79135Y242303D01*
X79082Y242375D01*
X79032Y242450D01*
X78986Y242526D01*
X78943Y242604D01*
X78904Y242684D01*
X78868Y242766D01*
X78835Y242849D01*
X78807Y242934D01*
X78782Y243019D01*
X78760Y243106D01*
X78743Y243194D01*
X78730Y243282D01*
X78720Y243371D01*
X78714Y243460D01*
X78712Y243549D01*
X86027Y245186D02*
X86029Y245339D01*
X86035Y245492D01*
X86044Y245644D01*
X86058Y245797D01*
X86075Y245949D01*
X86096Y246100D01*
X86121Y246251D01*
X86150Y246401D01*
X86182Y246551D01*
X86219Y246699D01*
X86259Y246847D01*
X86302Y246994D01*
X86350Y247139D01*
X86401Y247283D01*
X86455Y247426D01*
X86514Y247568D01*
X86575Y247707D01*
X86641Y247846D01*
X86667Y247916D01*
X86697Y247986D01*
X86730Y248053D01*
X86766Y248119D01*
X86805Y248183D01*
X86848Y248245D01*
X86894Y248304D01*
X86942Y248362D01*
X86993Y248416D01*
X87047Y248469D01*
X87104Y248518D01*
X87163Y248565D01*
X87224Y248608D01*
X87287Y248649D01*
X87352Y248686D01*
X87419Y248721D01*
X87488Y248751D01*
X87558Y248779D01*
X87629Y248802D01*
X87701Y248823D01*
X87774Y248839D01*
X87848Y248852D01*
X87923Y248862D01*
X87998Y248867D01*
X88073Y248869D01*
X88148Y248867D01*
X88223Y248862D01*
X88298Y248852D01*
X88372Y248839D01*
X88445Y248823D01*
X88517Y248802D01*
X88588Y248779D01*
X88658Y248751D01*
X88727Y248721D01*
X88794Y248686D01*
X88859Y248649D01*
X88922Y248608D01*
X88983Y248565D01*
X89042Y248518D01*
X89099Y248469D01*
X89153Y248416D01*
X89204Y248362D01*
X89253Y248304D01*
X89298Y248245D01*
X89341Y248183D01*
X89380Y248119D01*
X89417Y248053D01*
X89449Y247985D01*
X89479Y247916D01*
X89505Y247846D01*
X89570Y247708D01*
X89632Y247568D01*
X89690Y247426D01*
X89745Y247283D01*
X89796Y247139D01*
X89844Y246994D01*
X89887Y246847D01*
X89927Y246700D01*
X89964Y246551D01*
X89996Y246401D01*
X90025Y246251D01*
X90050Y246100D01*
X90071Y245949D01*
X90088Y245797D01*
X90102Y245644D01*
X90111Y245492D01*
X90117Y245339D01*
X90119Y245186D01*
X86026Y245186D02*
X86028Y245033D01*
X86034Y244880D01*
X86043Y244727D01*
X86057Y244575D01*
X86074Y244423D01*
X86095Y244272D01*
X86120Y244121D01*
X86149Y243970D01*
X86181Y243821D01*
X86218Y243672D01*
X86258Y243525D01*
X86301Y243378D01*
X86349Y243233D01*
X86400Y243088D01*
X86455Y242946D01*
X86513Y242804D01*
X86575Y242664D01*
X86640Y242526D01*
X86641Y242526D02*
X86667Y242455D01*
X86697Y242386D01*
X86730Y242319D01*
X86766Y242253D01*
X86805Y242189D01*
X86848Y242127D01*
X86894Y242068D01*
X86942Y242010D01*
X86993Y241956D01*
X87047Y241903D01*
X87104Y241854D01*
X87163Y241807D01*
X87224Y241764D01*
X87287Y241723D01*
X87352Y241686D01*
X87419Y241651D01*
X87488Y241621D01*
X87558Y241593D01*
X87629Y241570D01*
X87701Y241549D01*
X87774Y241533D01*
X87848Y241520D01*
X87923Y241510D01*
X87998Y241505D01*
X88073Y241503D01*
X89505Y242526D02*
X89570Y242664D01*
X89632Y242804D01*
X89690Y242946D01*
X89745Y243089D01*
X89796Y243233D01*
X89844Y243378D01*
X89887Y243525D01*
X89927Y243673D01*
X89964Y243821D01*
X89996Y243971D01*
X90025Y244121D01*
X90050Y244272D01*
X90071Y244423D01*
X90088Y244575D01*
X90102Y244728D01*
X90111Y244880D01*
X90117Y245033D01*
X90119Y245186D01*
X89505Y242526D02*
X89479Y242456D01*
X89449Y242386D01*
X89417Y242319D01*
X89380Y242253D01*
X89341Y242189D01*
X89298Y242127D01*
X89252Y242068D01*
X89204Y242010D01*
X89153Y241956D01*
X89099Y241903D01*
X89042Y241854D01*
X88983Y241807D01*
X88922Y241764D01*
X88859Y241723D01*
X88794Y241686D01*
X88727Y241651D01*
X88658Y241621D01*
X88588Y241593D01*
X88517Y241570D01*
X88445Y241549D01*
X88372Y241533D01*
X88298Y241520D01*
X88223Y241510D01*
X88148Y241505D01*
X88073Y241503D01*
X86436Y243140D02*
X89710Y247232D01*
X63540Y220195D02*
X62313Y220195D01*
X63540Y220195D02*
X63540Y216103D01*
X61085Y216103D01*
X61007Y216105D01*
X60929Y216110D01*
X60852Y216120D01*
X60775Y216133D01*
X60699Y216149D01*
X60624Y216169D01*
X60550Y216193D01*
X60477Y216220D01*
X60405Y216251D01*
X60335Y216285D01*
X60267Y216322D01*
X60200Y216363D01*
X60135Y216407D01*
X60073Y216453D01*
X60013Y216503D01*
X59955Y216555D01*
X59900Y216610D01*
X59848Y216668D01*
X59798Y216728D01*
X59752Y216790D01*
X59708Y216855D01*
X59667Y216922D01*
X59630Y216990D01*
X59596Y217060D01*
X59565Y217132D01*
X59538Y217205D01*
X59514Y217279D01*
X59494Y217354D01*
X59478Y217430D01*
X59465Y217507D01*
X59455Y217584D01*
X59450Y217662D01*
X59448Y217740D01*
X59448Y221832D01*
X59450Y221912D01*
X59456Y221992D01*
X59466Y222072D01*
X59479Y222151D01*
X59497Y222230D01*
X59518Y222307D01*
X59544Y222383D01*
X59573Y222458D01*
X59605Y222532D01*
X59641Y222604D01*
X59681Y222674D01*
X59724Y222741D01*
X59770Y222807D01*
X59820Y222870D01*
X59872Y222931D01*
X59927Y222990D01*
X59986Y223045D01*
X60046Y223097D01*
X60110Y223147D01*
X60176Y223193D01*
X60243Y223236D01*
X60313Y223276D01*
X60385Y223312D01*
X60459Y223344D01*
X60533Y223373D01*
X60610Y223399D01*
X60687Y223420D01*
X60766Y223438D01*
X60845Y223451D01*
X60925Y223461D01*
X61005Y223467D01*
X61085Y223469D01*
X63540Y223469D01*
X67369Y223469D02*
X67369Y216103D01*
X67369Y223469D02*
X69415Y223469D01*
X69504Y223467D01*
X69593Y223461D01*
X69682Y223451D01*
X69770Y223438D01*
X69858Y223421D01*
X69945Y223399D01*
X70030Y223374D01*
X70115Y223346D01*
X70198Y223313D01*
X70280Y223277D01*
X70360Y223238D01*
X70438Y223195D01*
X70514Y223149D01*
X70589Y223099D01*
X70661Y223046D01*
X70730Y222990D01*
X70797Y222931D01*
X70862Y222870D01*
X70923Y222805D01*
X70982Y222738D01*
X71038Y222669D01*
X71091Y222597D01*
X71141Y222522D01*
X71187Y222446D01*
X71230Y222368D01*
X71269Y222288D01*
X71305Y222206D01*
X71338Y222123D01*
X71366Y222038D01*
X71391Y221953D01*
X71413Y221866D01*
X71430Y221778D01*
X71443Y221690D01*
X71453Y221601D01*
X71459Y221512D01*
X71461Y221423D01*
X71459Y221334D01*
X71453Y221245D01*
X71443Y221156D01*
X71430Y221068D01*
X71413Y220980D01*
X71391Y220893D01*
X71366Y220808D01*
X71338Y220723D01*
X71305Y220640D01*
X71269Y220558D01*
X71230Y220478D01*
X71187Y220400D01*
X71141Y220324D01*
X71091Y220249D01*
X71038Y220177D01*
X70982Y220108D01*
X70923Y220041D01*
X70862Y219976D01*
X70797Y219915D01*
X70730Y219856D01*
X70661Y219800D01*
X70589Y219747D01*
X70514Y219697D01*
X70438Y219651D01*
X70360Y219608D01*
X70280Y219569D01*
X70198Y219533D01*
X70115Y219500D01*
X70030Y219472D01*
X69945Y219447D01*
X69858Y219425D01*
X69770Y219408D01*
X69682Y219395D01*
X69593Y219385D01*
X69504Y219379D01*
X69415Y219377D01*
X67369Y219377D01*
X74906Y216103D02*
X74906Y223469D01*
X74087Y216103D02*
X75724Y216103D01*
X75724Y223469D02*
X74087Y223469D01*
X78712Y221423D02*
X78712Y218149D01*
X78712Y221423D02*
X78714Y221512D01*
X78720Y221601D01*
X78730Y221690D01*
X78743Y221778D01*
X78760Y221866D01*
X78782Y221953D01*
X78807Y222038D01*
X78835Y222123D01*
X78868Y222206D01*
X78904Y222288D01*
X78943Y222368D01*
X78986Y222446D01*
X79032Y222522D01*
X79082Y222597D01*
X79135Y222669D01*
X79191Y222738D01*
X79250Y222805D01*
X79311Y222870D01*
X79376Y222931D01*
X79443Y222990D01*
X79512Y223046D01*
X79584Y223099D01*
X79659Y223149D01*
X79735Y223195D01*
X79813Y223238D01*
X79893Y223277D01*
X79975Y223313D01*
X80058Y223346D01*
X80143Y223374D01*
X80228Y223399D01*
X80315Y223421D01*
X80403Y223438D01*
X80491Y223451D01*
X80580Y223461D01*
X80669Y223467D01*
X80758Y223469D01*
X80847Y223467D01*
X80936Y223461D01*
X81025Y223451D01*
X81113Y223438D01*
X81201Y223421D01*
X81288Y223399D01*
X81373Y223374D01*
X81458Y223346D01*
X81541Y223313D01*
X81623Y223277D01*
X81703Y223238D01*
X81781Y223195D01*
X81857Y223149D01*
X81932Y223099D01*
X82004Y223046D01*
X82073Y222990D01*
X82140Y222931D01*
X82205Y222870D01*
X82266Y222805D01*
X82325Y222738D01*
X82381Y222669D01*
X82434Y222597D01*
X82484Y222522D01*
X82530Y222446D01*
X82573Y222368D01*
X82612Y222288D01*
X82648Y222206D01*
X82681Y222123D01*
X82709Y222038D01*
X82734Y221953D01*
X82756Y221866D01*
X82773Y221778D01*
X82786Y221690D01*
X82796Y221601D01*
X82802Y221512D01*
X82804Y221423D01*
X82804Y218149D01*
X82802Y218060D01*
X82796Y217971D01*
X82786Y217882D01*
X82773Y217794D01*
X82756Y217706D01*
X82734Y217619D01*
X82709Y217534D01*
X82681Y217449D01*
X82648Y217366D01*
X82612Y217284D01*
X82573Y217204D01*
X82530Y217126D01*
X82484Y217050D01*
X82434Y216975D01*
X82381Y216903D01*
X82325Y216834D01*
X82266Y216767D01*
X82205Y216702D01*
X82140Y216641D01*
X82073Y216582D01*
X82004Y216526D01*
X81932Y216473D01*
X81857Y216423D01*
X81781Y216377D01*
X81703Y216334D01*
X81623Y216295D01*
X81541Y216259D01*
X81458Y216226D01*
X81373Y216198D01*
X81288Y216173D01*
X81201Y216151D01*
X81113Y216134D01*
X81025Y216121D01*
X80936Y216111D01*
X80847Y216105D01*
X80758Y216103D01*
X80669Y216105D01*
X80580Y216111D01*
X80491Y216121D01*
X80403Y216134D01*
X80315Y216151D01*
X80228Y216173D01*
X80143Y216198D01*
X80058Y216226D01*
X79975Y216259D01*
X79893Y216295D01*
X79813Y216334D01*
X79735Y216377D01*
X79659Y216423D01*
X79584Y216473D01*
X79512Y216526D01*
X79443Y216582D01*
X79376Y216641D01*
X79311Y216702D01*
X79250Y216767D01*
X79191Y216834D01*
X79135Y216903D01*
X79082Y216975D01*
X79032Y217050D01*
X78986Y217126D01*
X78943Y217204D01*
X78904Y217284D01*
X78868Y217366D01*
X78835Y217449D01*
X78807Y217534D01*
X78782Y217619D01*
X78760Y217706D01*
X78743Y217794D01*
X78730Y217882D01*
X78720Y217971D01*
X78714Y218060D01*
X78712Y218149D01*
X86027Y217740D02*
X87664Y223469D01*
X86027Y217740D02*
X90119Y217740D01*
X88891Y219377D02*
X88891Y216103D01*
X63540Y194795D02*
X62313Y194795D01*
X63540Y194795D02*
X63540Y190703D01*
X61085Y190703D01*
X61007Y190705D01*
X60929Y190710D01*
X60852Y190720D01*
X60775Y190733D01*
X60699Y190749D01*
X60624Y190769D01*
X60550Y190793D01*
X60477Y190820D01*
X60405Y190851D01*
X60335Y190885D01*
X60267Y190922D01*
X60200Y190963D01*
X60135Y191007D01*
X60073Y191053D01*
X60013Y191103D01*
X59955Y191155D01*
X59900Y191210D01*
X59848Y191268D01*
X59798Y191328D01*
X59752Y191390D01*
X59708Y191455D01*
X59667Y191522D01*
X59630Y191590D01*
X59596Y191660D01*
X59565Y191732D01*
X59538Y191805D01*
X59514Y191879D01*
X59494Y191954D01*
X59478Y192030D01*
X59465Y192107D01*
X59455Y192184D01*
X59450Y192262D01*
X59448Y192340D01*
X59448Y196432D01*
X59450Y196512D01*
X59456Y196592D01*
X59466Y196672D01*
X59479Y196751D01*
X59497Y196830D01*
X59518Y196907D01*
X59544Y196983D01*
X59573Y197058D01*
X59605Y197132D01*
X59641Y197204D01*
X59681Y197274D01*
X59724Y197341D01*
X59770Y197407D01*
X59820Y197470D01*
X59872Y197531D01*
X59927Y197590D01*
X59986Y197645D01*
X60046Y197697D01*
X60110Y197747D01*
X60176Y197793D01*
X60243Y197836D01*
X60313Y197876D01*
X60385Y197912D01*
X60459Y197944D01*
X60533Y197973D01*
X60610Y197999D01*
X60687Y198020D01*
X60766Y198038D01*
X60845Y198051D01*
X60925Y198061D01*
X61005Y198067D01*
X61085Y198069D01*
X63540Y198069D01*
X67369Y198069D02*
X67369Y190703D01*
X67369Y198069D02*
X69415Y198069D01*
X69504Y198067D01*
X69593Y198061D01*
X69682Y198051D01*
X69770Y198038D01*
X69858Y198021D01*
X69945Y197999D01*
X70030Y197974D01*
X70115Y197946D01*
X70198Y197913D01*
X70280Y197877D01*
X70360Y197838D01*
X70438Y197795D01*
X70514Y197749D01*
X70589Y197699D01*
X70661Y197646D01*
X70730Y197590D01*
X70797Y197531D01*
X70862Y197470D01*
X70923Y197405D01*
X70982Y197338D01*
X71038Y197269D01*
X71091Y197197D01*
X71141Y197122D01*
X71187Y197046D01*
X71230Y196968D01*
X71269Y196888D01*
X71305Y196806D01*
X71338Y196723D01*
X71366Y196638D01*
X71391Y196553D01*
X71413Y196466D01*
X71430Y196378D01*
X71443Y196290D01*
X71453Y196201D01*
X71459Y196112D01*
X71461Y196023D01*
X71459Y195934D01*
X71453Y195845D01*
X71443Y195756D01*
X71430Y195668D01*
X71413Y195580D01*
X71391Y195493D01*
X71366Y195408D01*
X71338Y195323D01*
X71305Y195240D01*
X71269Y195158D01*
X71230Y195078D01*
X71187Y195000D01*
X71141Y194924D01*
X71091Y194849D01*
X71038Y194777D01*
X70982Y194708D01*
X70923Y194641D01*
X70862Y194576D01*
X70797Y194515D01*
X70730Y194456D01*
X70661Y194400D01*
X70589Y194347D01*
X70514Y194297D01*
X70438Y194251D01*
X70360Y194208D01*
X70280Y194169D01*
X70198Y194133D01*
X70115Y194100D01*
X70030Y194072D01*
X69945Y194047D01*
X69858Y194025D01*
X69770Y194008D01*
X69682Y193995D01*
X69593Y193985D01*
X69504Y193979D01*
X69415Y193977D01*
X67369Y193977D01*
X74906Y190703D02*
X74906Y198069D01*
X74087Y190703D02*
X75724Y190703D01*
X75724Y198069D02*
X74087Y198069D01*
X78712Y196023D02*
X78712Y192749D01*
X78712Y196023D02*
X78714Y196112D01*
X78720Y196201D01*
X78730Y196290D01*
X78743Y196378D01*
X78760Y196466D01*
X78782Y196553D01*
X78807Y196638D01*
X78835Y196723D01*
X78868Y196806D01*
X78904Y196888D01*
X78943Y196968D01*
X78986Y197046D01*
X79032Y197122D01*
X79082Y197197D01*
X79135Y197269D01*
X79191Y197338D01*
X79250Y197405D01*
X79311Y197470D01*
X79376Y197531D01*
X79443Y197590D01*
X79512Y197646D01*
X79584Y197699D01*
X79659Y197749D01*
X79735Y197795D01*
X79813Y197838D01*
X79893Y197877D01*
X79975Y197913D01*
X80058Y197946D01*
X80143Y197974D01*
X80228Y197999D01*
X80315Y198021D01*
X80403Y198038D01*
X80491Y198051D01*
X80580Y198061D01*
X80669Y198067D01*
X80758Y198069D01*
X80847Y198067D01*
X80936Y198061D01*
X81025Y198051D01*
X81113Y198038D01*
X81201Y198021D01*
X81288Y197999D01*
X81373Y197974D01*
X81458Y197946D01*
X81541Y197913D01*
X81623Y197877D01*
X81703Y197838D01*
X81781Y197795D01*
X81857Y197749D01*
X81932Y197699D01*
X82004Y197646D01*
X82073Y197590D01*
X82140Y197531D01*
X82205Y197470D01*
X82266Y197405D01*
X82325Y197338D01*
X82381Y197269D01*
X82434Y197197D01*
X82484Y197122D01*
X82530Y197046D01*
X82573Y196968D01*
X82612Y196888D01*
X82648Y196806D01*
X82681Y196723D01*
X82709Y196638D01*
X82734Y196553D01*
X82756Y196466D01*
X82773Y196378D01*
X82786Y196290D01*
X82796Y196201D01*
X82802Y196112D01*
X82804Y196023D01*
X82804Y192749D01*
X82802Y192660D01*
X82796Y192571D01*
X82786Y192482D01*
X82773Y192394D01*
X82756Y192306D01*
X82734Y192219D01*
X82709Y192134D01*
X82681Y192049D01*
X82648Y191966D01*
X82612Y191884D01*
X82573Y191804D01*
X82530Y191726D01*
X82484Y191650D01*
X82434Y191575D01*
X82381Y191503D01*
X82325Y191434D01*
X82266Y191367D01*
X82205Y191302D01*
X82140Y191241D01*
X82073Y191182D01*
X82004Y191126D01*
X81932Y191073D01*
X81857Y191023D01*
X81781Y190977D01*
X81703Y190934D01*
X81623Y190895D01*
X81541Y190859D01*
X81458Y190826D01*
X81373Y190798D01*
X81288Y190773D01*
X81201Y190751D01*
X81113Y190734D01*
X81025Y190721D01*
X80936Y190711D01*
X80847Y190705D01*
X80758Y190703D01*
X80669Y190705D01*
X80580Y190711D01*
X80491Y190721D01*
X80403Y190734D01*
X80315Y190751D01*
X80228Y190773D01*
X80143Y190798D01*
X80058Y190826D01*
X79975Y190859D01*
X79893Y190895D01*
X79813Y190934D01*
X79735Y190977D01*
X79659Y191023D01*
X79584Y191073D01*
X79512Y191126D01*
X79443Y191182D01*
X79376Y191241D01*
X79311Y191302D01*
X79250Y191367D01*
X79191Y191434D01*
X79135Y191503D01*
X79082Y191575D01*
X79032Y191650D01*
X78986Y191726D01*
X78943Y191804D01*
X78904Y191884D01*
X78868Y191966D01*
X78835Y192049D01*
X78807Y192134D01*
X78782Y192219D01*
X78760Y192306D01*
X78743Y192394D01*
X78730Y192482D01*
X78720Y192571D01*
X78714Y192660D01*
X78712Y192749D01*
X86027Y190703D02*
X88482Y190703D01*
X88560Y190705D01*
X88638Y190710D01*
X88715Y190720D01*
X88792Y190733D01*
X88868Y190749D01*
X88943Y190769D01*
X89017Y190793D01*
X89090Y190820D01*
X89162Y190851D01*
X89232Y190885D01*
X89301Y190922D01*
X89367Y190963D01*
X89432Y191007D01*
X89494Y191053D01*
X89554Y191103D01*
X89612Y191155D01*
X89667Y191210D01*
X89719Y191268D01*
X89769Y191328D01*
X89815Y191390D01*
X89859Y191455D01*
X89900Y191522D01*
X89937Y191590D01*
X89971Y191660D01*
X90002Y191732D01*
X90029Y191805D01*
X90053Y191879D01*
X90073Y191954D01*
X90089Y192030D01*
X90102Y192107D01*
X90112Y192184D01*
X90117Y192262D01*
X90119Y192340D01*
X90119Y193158D01*
X90117Y193236D01*
X90112Y193314D01*
X90102Y193391D01*
X90089Y193468D01*
X90073Y193544D01*
X90053Y193619D01*
X90029Y193693D01*
X90002Y193766D01*
X89971Y193838D01*
X89937Y193908D01*
X89900Y193977D01*
X89859Y194043D01*
X89815Y194108D01*
X89769Y194170D01*
X89719Y194230D01*
X89667Y194288D01*
X89612Y194343D01*
X89554Y194395D01*
X89494Y194445D01*
X89432Y194491D01*
X89367Y194535D01*
X89301Y194576D01*
X89232Y194613D01*
X89162Y194647D01*
X89090Y194678D01*
X89017Y194705D01*
X88943Y194729D01*
X88868Y194749D01*
X88792Y194765D01*
X88715Y194778D01*
X88638Y194788D01*
X88560Y194793D01*
X88482Y194795D01*
X86027Y194795D01*
X86027Y198069D01*
X90119Y198069D01*
X71204Y172669D02*
X71204Y165303D01*
X71204Y172669D02*
X73250Y172669D01*
X73339Y172667D01*
X73428Y172661D01*
X73517Y172651D01*
X73605Y172638D01*
X73693Y172621D01*
X73780Y172599D01*
X73865Y172574D01*
X73950Y172546D01*
X74033Y172513D01*
X74115Y172477D01*
X74195Y172438D01*
X74273Y172395D01*
X74349Y172349D01*
X74424Y172299D01*
X74496Y172246D01*
X74565Y172190D01*
X74632Y172131D01*
X74697Y172070D01*
X74758Y172005D01*
X74817Y171938D01*
X74873Y171869D01*
X74926Y171797D01*
X74976Y171722D01*
X75022Y171646D01*
X75065Y171568D01*
X75104Y171488D01*
X75140Y171406D01*
X75173Y171323D01*
X75201Y171238D01*
X75226Y171153D01*
X75248Y171066D01*
X75265Y170978D01*
X75278Y170890D01*
X75288Y170801D01*
X75294Y170712D01*
X75296Y170623D01*
X75294Y170534D01*
X75288Y170445D01*
X75278Y170356D01*
X75265Y170268D01*
X75248Y170180D01*
X75226Y170093D01*
X75201Y170008D01*
X75173Y169923D01*
X75140Y169840D01*
X75104Y169758D01*
X75065Y169678D01*
X75022Y169600D01*
X74976Y169524D01*
X74926Y169449D01*
X74873Y169377D01*
X74817Y169308D01*
X74758Y169241D01*
X74697Y169176D01*
X74632Y169115D01*
X74565Y169056D01*
X74496Y169000D01*
X74424Y168947D01*
X74349Y168897D01*
X74273Y168851D01*
X74195Y168808D01*
X74115Y168769D01*
X74033Y168733D01*
X73950Y168700D01*
X73865Y168672D01*
X73780Y168647D01*
X73693Y168625D01*
X73605Y168608D01*
X73517Y168595D01*
X73428Y168585D01*
X73339Y168579D01*
X73250Y168577D01*
X71204Y168577D01*
X73659Y168577D02*
X75296Y165303D01*
X78059Y165303D02*
X82969Y172669D01*
X78059Y172669D02*
X82969Y165303D01*
X86027Y165303D02*
X86027Y172669D01*
X88073Y172669D01*
X88162Y172667D01*
X88251Y172661D01*
X88340Y172651D01*
X88428Y172638D01*
X88516Y172621D01*
X88603Y172599D01*
X88688Y172574D01*
X88773Y172546D01*
X88856Y172513D01*
X88938Y172477D01*
X89018Y172438D01*
X89096Y172395D01*
X89172Y172349D01*
X89247Y172299D01*
X89319Y172246D01*
X89388Y172190D01*
X89455Y172131D01*
X89520Y172070D01*
X89581Y172005D01*
X89640Y171938D01*
X89696Y171869D01*
X89749Y171797D01*
X89799Y171722D01*
X89845Y171646D01*
X89888Y171568D01*
X89927Y171488D01*
X89963Y171406D01*
X89996Y171323D01*
X90024Y171238D01*
X90049Y171153D01*
X90071Y171066D01*
X90088Y170978D01*
X90101Y170890D01*
X90111Y170801D01*
X90117Y170712D01*
X90119Y170623D01*
X90119Y167349D01*
X90117Y167260D01*
X90111Y167171D01*
X90101Y167082D01*
X90088Y166994D01*
X90071Y166906D01*
X90049Y166819D01*
X90024Y166734D01*
X89996Y166649D01*
X89963Y166566D01*
X89927Y166484D01*
X89888Y166404D01*
X89845Y166326D01*
X89799Y166250D01*
X89749Y166175D01*
X89696Y166103D01*
X89640Y166034D01*
X89581Y165967D01*
X89520Y165902D01*
X89455Y165841D01*
X89388Y165782D01*
X89319Y165726D01*
X89247Y165673D01*
X89172Y165623D01*
X89096Y165577D01*
X89018Y165534D01*
X88938Y165495D01*
X88856Y165459D01*
X88773Y165426D01*
X88688Y165398D01*
X88603Y165373D01*
X88516Y165351D01*
X88428Y165334D01*
X88340Y165321D01*
X88251Y165311D01*
X88162Y165305D01*
X88073Y165303D01*
X86027Y165303D01*
X73686Y147269D02*
X73686Y139903D01*
X71640Y147269D02*
X75733Y147269D01*
X82969Y147269D02*
X78059Y139903D01*
X82969Y139903D02*
X78059Y147269D01*
X86027Y147269D02*
X86027Y139903D01*
X86027Y147269D02*
X88073Y147269D01*
X88162Y147267D01*
X88251Y147261D01*
X88340Y147251D01*
X88428Y147238D01*
X88516Y147221D01*
X88603Y147199D01*
X88688Y147174D01*
X88773Y147146D01*
X88856Y147113D01*
X88938Y147077D01*
X89018Y147038D01*
X89096Y146995D01*
X89172Y146949D01*
X89247Y146899D01*
X89319Y146846D01*
X89388Y146790D01*
X89455Y146731D01*
X89520Y146670D01*
X89581Y146605D01*
X89640Y146538D01*
X89696Y146469D01*
X89749Y146397D01*
X89799Y146322D01*
X89845Y146246D01*
X89888Y146168D01*
X89927Y146088D01*
X89963Y146006D01*
X89996Y145923D01*
X90024Y145838D01*
X90049Y145753D01*
X90071Y145666D01*
X90088Y145578D01*
X90101Y145490D01*
X90111Y145401D01*
X90117Y145312D01*
X90119Y145223D01*
X90119Y141949D01*
X90117Y141860D01*
X90111Y141771D01*
X90101Y141682D01*
X90088Y141594D01*
X90071Y141506D01*
X90049Y141419D01*
X90024Y141334D01*
X89996Y141249D01*
X89963Y141166D01*
X89927Y141084D01*
X89888Y141004D01*
X89845Y140926D01*
X89799Y140850D01*
X89749Y140775D01*
X89696Y140703D01*
X89640Y140634D01*
X89581Y140567D01*
X89520Y140502D01*
X89455Y140441D01*
X89388Y140382D01*
X89319Y140326D01*
X89247Y140273D01*
X89172Y140223D01*
X89096Y140177D01*
X89018Y140134D01*
X88938Y140095D01*
X88856Y140059D01*
X88773Y140026D01*
X88688Y139998D01*
X88603Y139973D01*
X88516Y139951D01*
X88428Y139934D01*
X88340Y139921D01*
X88251Y139911D01*
X88162Y139905D01*
X88073Y139903D01*
X86027Y139903D01*
D10*
X103349Y98882D02*
X110574Y98882D01*
X103349Y98882D02*
X103349Y115138D01*
X110574Y115138D01*
X108768Y107913D02*
X103349Y107913D01*
X121243Y98882D02*
X121361Y98884D01*
X121479Y98890D01*
X121597Y98899D01*
X121714Y98913D01*
X121831Y98930D01*
X121948Y98951D01*
X122063Y98976D01*
X122178Y99005D01*
X122292Y99038D01*
X122404Y99074D01*
X122515Y99114D01*
X122625Y99157D01*
X122734Y99204D01*
X122841Y99254D01*
X122946Y99309D01*
X123049Y99366D01*
X123150Y99427D01*
X123250Y99491D01*
X123347Y99558D01*
X123442Y99628D01*
X123534Y99702D01*
X123625Y99778D01*
X123712Y99858D01*
X123797Y99940D01*
X123879Y100025D01*
X123959Y100112D01*
X124035Y100203D01*
X124109Y100295D01*
X124179Y100390D01*
X124246Y100487D01*
X124310Y100587D01*
X124371Y100688D01*
X124428Y100791D01*
X124483Y100896D01*
X124533Y101003D01*
X124580Y101112D01*
X124623Y101222D01*
X124663Y101333D01*
X124699Y101445D01*
X124732Y101559D01*
X124761Y101674D01*
X124786Y101789D01*
X124807Y101906D01*
X124824Y102023D01*
X124838Y102140D01*
X124847Y102258D01*
X124853Y102376D01*
X124855Y102494D01*
X121243Y98882D02*
X121060Y98884D01*
X120878Y98891D01*
X120696Y98902D01*
X120514Y98917D01*
X120332Y98937D01*
X120151Y98960D01*
X119971Y98989D01*
X119791Y99021D01*
X119612Y99058D01*
X119435Y99099D01*
X119258Y99145D01*
X119082Y99194D01*
X118908Y99248D01*
X118734Y99306D01*
X118563Y99368D01*
X118393Y99434D01*
X118224Y99505D01*
X118057Y99579D01*
X117892Y99657D01*
X117729Y99739D01*
X117568Y99825D01*
X117409Y99915D01*
X117252Y100009D01*
X117098Y100106D01*
X116946Y100207D01*
X116796Y100312D01*
X116649Y100420D01*
X116505Y100531D01*
X116363Y100646D01*
X116224Y100765D01*
X116088Y100887D01*
X115955Y101012D01*
X115825Y101140D01*
X116276Y111526D02*
X116278Y111644D01*
X116284Y111762D01*
X116293Y111880D01*
X116307Y111997D01*
X116324Y112114D01*
X116345Y112231D01*
X116370Y112346D01*
X116399Y112461D01*
X116432Y112575D01*
X116468Y112687D01*
X116508Y112798D01*
X116551Y112908D01*
X116598Y113017D01*
X116648Y113124D01*
X116703Y113229D01*
X116760Y113332D01*
X116821Y113433D01*
X116885Y113533D01*
X116952Y113630D01*
X117022Y113725D01*
X117096Y113817D01*
X117172Y113908D01*
X117252Y113995D01*
X117334Y114080D01*
X117419Y114162D01*
X117506Y114242D01*
X117597Y114318D01*
X117689Y114392D01*
X117784Y114462D01*
X117881Y114529D01*
X117981Y114593D01*
X118082Y114654D01*
X118185Y114712D01*
X118290Y114766D01*
X118397Y114816D01*
X118506Y114863D01*
X118616Y114907D01*
X118727Y114946D01*
X118840Y114982D01*
X118953Y115015D01*
X119068Y115044D01*
X119183Y115069D01*
X119300Y115090D01*
X119417Y115107D01*
X119534Y115121D01*
X119652Y115130D01*
X119770Y115136D01*
X119888Y115138D01*
X120049Y115136D01*
X120211Y115130D01*
X120372Y115121D01*
X120533Y115107D01*
X120693Y115090D01*
X120853Y115069D01*
X121013Y115044D01*
X121172Y115015D01*
X121330Y114983D01*
X121487Y114947D01*
X121643Y114907D01*
X121799Y114863D01*
X121953Y114815D01*
X122106Y114764D01*
X122258Y114710D01*
X122409Y114651D01*
X122558Y114590D01*
X122705Y114524D01*
X122851Y114455D01*
X122996Y114383D01*
X123138Y114307D01*
X123279Y114228D01*
X123418Y114146D01*
X123554Y114060D01*
X123689Y113971D01*
X123822Y113879D01*
X123952Y113783D01*
X118081Y108365D02*
X117980Y108427D01*
X117880Y108492D01*
X117783Y108561D01*
X117688Y108633D01*
X117595Y108707D01*
X117505Y108785D01*
X117417Y108866D01*
X117332Y108949D01*
X117250Y109035D01*
X117171Y109124D01*
X117094Y109215D01*
X117021Y109309D01*
X116950Y109405D01*
X116883Y109503D01*
X116819Y109603D01*
X116758Y109706D01*
X116701Y109810D01*
X116647Y109916D01*
X116597Y110024D01*
X116550Y110133D01*
X116506Y110244D01*
X116466Y110356D01*
X116430Y110470D01*
X116398Y110584D01*
X116369Y110700D01*
X116344Y110816D01*
X116323Y110933D01*
X116306Y111051D01*
X116292Y111169D01*
X116283Y111288D01*
X116277Y111407D01*
X116275Y111526D01*
X123049Y105655D02*
X123150Y105593D01*
X123250Y105528D01*
X123347Y105459D01*
X123442Y105387D01*
X123535Y105313D01*
X123625Y105235D01*
X123713Y105154D01*
X123798Y105071D01*
X123880Y104985D01*
X123959Y104896D01*
X124036Y104805D01*
X124109Y104711D01*
X124180Y104615D01*
X124247Y104517D01*
X124311Y104417D01*
X124372Y104314D01*
X124429Y104210D01*
X124483Y104104D01*
X124533Y103996D01*
X124580Y103887D01*
X124624Y103776D01*
X124664Y103664D01*
X124700Y103550D01*
X124732Y103436D01*
X124761Y103320D01*
X124786Y103204D01*
X124807Y103087D01*
X124824Y102969D01*
X124838Y102851D01*
X124847Y102732D01*
X124853Y102613D01*
X124855Y102494D01*
X123049Y105655D02*
X118082Y108365D01*
X131666Y115138D02*
X131666Y98882D01*
X131666Y115138D02*
X136182Y115138D01*
X136315Y115136D01*
X136447Y115130D01*
X136579Y115120D01*
X136711Y115107D01*
X136843Y115089D01*
X136973Y115068D01*
X137104Y115043D01*
X137233Y115014D01*
X137361Y114981D01*
X137489Y114945D01*
X137615Y114905D01*
X137740Y114861D01*
X137864Y114813D01*
X137986Y114762D01*
X138107Y114707D01*
X138226Y114649D01*
X138344Y114587D01*
X138459Y114522D01*
X138573Y114453D01*
X138684Y114382D01*
X138793Y114306D01*
X138900Y114228D01*
X139005Y114147D01*
X139107Y114062D01*
X139207Y113975D01*
X139304Y113885D01*
X139399Y113792D01*
X139490Y113696D01*
X139579Y113598D01*
X139665Y113497D01*
X139748Y113393D01*
X139828Y113287D01*
X139904Y113179D01*
X139978Y113069D01*
X140048Y112956D01*
X140115Y112842D01*
X140178Y112725D01*
X140238Y112607D01*
X140295Y112487D01*
X140348Y112365D01*
X140397Y112242D01*
X140443Y112118D01*
X140485Y111992D01*
X140523Y111865D01*
X140558Y111737D01*
X140589Y111608D01*
X140616Y111479D01*
X140639Y111348D01*
X140659Y111217D01*
X140674Y111085D01*
X140686Y110953D01*
X140694Y110821D01*
X140698Y110688D01*
X140698Y110556D01*
X140694Y110423D01*
X140686Y110291D01*
X140674Y110159D01*
X140659Y110027D01*
X140639Y109896D01*
X140616Y109765D01*
X140589Y109636D01*
X140558Y109507D01*
X140523Y109379D01*
X140485Y109252D01*
X140443Y109126D01*
X140397Y109002D01*
X140348Y108879D01*
X140295Y108757D01*
X140238Y108637D01*
X140178Y108519D01*
X140115Y108402D01*
X140048Y108288D01*
X139978Y108175D01*
X139904Y108065D01*
X139828Y107957D01*
X139748Y107851D01*
X139665Y107747D01*
X139579Y107646D01*
X139490Y107548D01*
X139399Y107452D01*
X139304Y107359D01*
X139207Y107269D01*
X139107Y107182D01*
X139005Y107097D01*
X138900Y107016D01*
X138793Y106938D01*
X138684Y106862D01*
X138573Y106791D01*
X138459Y106722D01*
X138344Y106657D01*
X138226Y106595D01*
X138107Y106537D01*
X137986Y106482D01*
X137864Y106431D01*
X137740Y106383D01*
X137615Y106339D01*
X137489Y106299D01*
X137361Y106263D01*
X137233Y106230D01*
X137104Y106201D01*
X136973Y106176D01*
X136843Y106155D01*
X136711Y106137D01*
X136579Y106124D01*
X136447Y106114D01*
X136315Y106108D01*
X136182Y106106D01*
X136182Y106107D02*
X131666Y106107D01*
X146565Y103398D02*
X146567Y103531D01*
X146573Y103663D01*
X146583Y103795D01*
X146596Y103927D01*
X146614Y104059D01*
X146635Y104189D01*
X146660Y104320D01*
X146689Y104449D01*
X146722Y104577D01*
X146758Y104705D01*
X146798Y104831D01*
X146842Y104956D01*
X146890Y105080D01*
X146941Y105202D01*
X146996Y105323D01*
X147054Y105442D01*
X147116Y105560D01*
X147181Y105675D01*
X147250Y105789D01*
X147321Y105900D01*
X147397Y106009D01*
X147475Y106116D01*
X147556Y106221D01*
X147641Y106323D01*
X147728Y106423D01*
X147818Y106520D01*
X147911Y106615D01*
X148007Y106706D01*
X148105Y106795D01*
X148206Y106881D01*
X148310Y106964D01*
X148416Y107044D01*
X148524Y107120D01*
X148634Y107194D01*
X148747Y107264D01*
X148861Y107331D01*
X148978Y107394D01*
X149096Y107454D01*
X149216Y107511D01*
X149338Y107564D01*
X149461Y107613D01*
X149585Y107659D01*
X149711Y107701D01*
X149838Y107739D01*
X149966Y107774D01*
X150095Y107805D01*
X150224Y107832D01*
X150355Y107855D01*
X150486Y107875D01*
X150618Y107890D01*
X150750Y107902D01*
X150882Y107910D01*
X151015Y107914D01*
X151147Y107914D01*
X151280Y107910D01*
X151412Y107902D01*
X151544Y107890D01*
X151676Y107875D01*
X151807Y107855D01*
X151938Y107832D01*
X152067Y107805D01*
X152196Y107774D01*
X152324Y107739D01*
X152451Y107701D01*
X152577Y107659D01*
X152701Y107613D01*
X152824Y107564D01*
X152946Y107511D01*
X153066Y107454D01*
X153184Y107394D01*
X153301Y107331D01*
X153415Y107264D01*
X153528Y107194D01*
X153638Y107120D01*
X153746Y107044D01*
X153852Y106964D01*
X153956Y106881D01*
X154057Y106795D01*
X154155Y106706D01*
X154251Y106615D01*
X154344Y106520D01*
X154434Y106423D01*
X154521Y106323D01*
X154606Y106221D01*
X154687Y106116D01*
X154765Y106009D01*
X154841Y105900D01*
X154912Y105789D01*
X154981Y105675D01*
X155046Y105560D01*
X155108Y105442D01*
X155166Y105323D01*
X155221Y105202D01*
X155272Y105080D01*
X155320Y104956D01*
X155364Y104831D01*
X155404Y104705D01*
X155440Y104577D01*
X155473Y104449D01*
X155502Y104320D01*
X155527Y104189D01*
X155548Y104059D01*
X155566Y103927D01*
X155579Y103795D01*
X155589Y103663D01*
X155595Y103531D01*
X155597Y103398D01*
X155595Y103265D01*
X155589Y103133D01*
X155579Y103001D01*
X155566Y102869D01*
X155548Y102737D01*
X155527Y102607D01*
X155502Y102476D01*
X155473Y102347D01*
X155440Y102219D01*
X155404Y102091D01*
X155364Y101965D01*
X155320Y101840D01*
X155272Y101716D01*
X155221Y101594D01*
X155166Y101473D01*
X155108Y101354D01*
X155046Y101236D01*
X154981Y101121D01*
X154912Y101007D01*
X154841Y100896D01*
X154765Y100787D01*
X154687Y100680D01*
X154606Y100575D01*
X154521Y100473D01*
X154434Y100373D01*
X154344Y100276D01*
X154251Y100181D01*
X154155Y100090D01*
X154057Y100001D01*
X153956Y99915D01*
X153852Y99832D01*
X153746Y99752D01*
X153638Y99676D01*
X153528Y99602D01*
X153415Y99532D01*
X153301Y99465D01*
X153184Y99402D01*
X153066Y99342D01*
X152946Y99285D01*
X152824Y99232D01*
X152701Y99183D01*
X152577Y99137D01*
X152451Y99095D01*
X152324Y99057D01*
X152196Y99022D01*
X152067Y98991D01*
X151938Y98964D01*
X151807Y98941D01*
X151676Y98921D01*
X151544Y98906D01*
X151412Y98894D01*
X151280Y98886D01*
X151147Y98882D01*
X151015Y98882D01*
X150882Y98886D01*
X150750Y98894D01*
X150618Y98906D01*
X150486Y98921D01*
X150355Y98941D01*
X150224Y98964D01*
X150095Y98991D01*
X149966Y99022D01*
X149838Y99057D01*
X149711Y99095D01*
X149585Y99137D01*
X149461Y99183D01*
X149338Y99232D01*
X149216Y99285D01*
X149096Y99342D01*
X148978Y99402D01*
X148861Y99465D01*
X148747Y99532D01*
X148634Y99602D01*
X148524Y99676D01*
X148416Y99752D01*
X148310Y99832D01*
X148206Y99915D01*
X148105Y100001D01*
X148007Y100090D01*
X147911Y100181D01*
X147818Y100276D01*
X147728Y100373D01*
X147641Y100473D01*
X147556Y100575D01*
X147475Y100680D01*
X147397Y100787D01*
X147321Y100896D01*
X147250Y101007D01*
X147181Y101121D01*
X147116Y101236D01*
X147054Y101354D01*
X146996Y101473D01*
X146941Y101594D01*
X146890Y101716D01*
X146842Y101840D01*
X146798Y101965D01*
X146758Y102091D01*
X146722Y102219D01*
X146689Y102347D01*
X146660Y102476D01*
X146635Y102607D01*
X146614Y102737D01*
X146596Y102869D01*
X146583Y103001D01*
X146573Y103133D01*
X146567Y103265D01*
X146565Y103398D01*
X147469Y111526D02*
X147471Y111645D01*
X147477Y111765D01*
X147487Y111884D01*
X147501Y112002D01*
X147518Y112121D01*
X147540Y112238D01*
X147565Y112355D01*
X147595Y112470D01*
X147628Y112585D01*
X147665Y112699D01*
X147705Y112811D01*
X147750Y112922D01*
X147798Y113031D01*
X147849Y113139D01*
X147904Y113245D01*
X147963Y113349D01*
X148025Y113451D01*
X148090Y113551D01*
X148159Y113649D01*
X148231Y113745D01*
X148306Y113838D01*
X148383Y113928D01*
X148464Y114016D01*
X148548Y114101D01*
X148635Y114183D01*
X148724Y114263D01*
X148816Y114339D01*
X148910Y114413D01*
X149007Y114483D01*
X149105Y114550D01*
X149206Y114614D01*
X149310Y114674D01*
X149415Y114731D01*
X149522Y114784D01*
X149630Y114834D01*
X149740Y114880D01*
X149852Y114922D01*
X149965Y114961D01*
X150079Y114996D01*
X150194Y115027D01*
X150311Y115055D01*
X150428Y115078D01*
X150545Y115098D01*
X150664Y115114D01*
X150783Y115126D01*
X150902Y115134D01*
X151021Y115138D01*
X151141Y115138D01*
X151260Y115134D01*
X151379Y115126D01*
X151498Y115114D01*
X151617Y115098D01*
X151734Y115078D01*
X151851Y115055D01*
X151968Y115027D01*
X152083Y114996D01*
X152197Y114961D01*
X152310Y114922D01*
X152422Y114880D01*
X152532Y114834D01*
X152640Y114784D01*
X152747Y114731D01*
X152852Y114674D01*
X152956Y114614D01*
X153057Y114550D01*
X153155Y114483D01*
X153252Y114413D01*
X153346Y114339D01*
X153438Y114263D01*
X153527Y114183D01*
X153614Y114101D01*
X153698Y114016D01*
X153779Y113928D01*
X153856Y113838D01*
X153931Y113745D01*
X154003Y113649D01*
X154072Y113551D01*
X154137Y113451D01*
X154199Y113349D01*
X154258Y113245D01*
X154313Y113139D01*
X154364Y113031D01*
X154412Y112922D01*
X154457Y112811D01*
X154497Y112699D01*
X154534Y112585D01*
X154567Y112470D01*
X154597Y112355D01*
X154622Y112238D01*
X154644Y112121D01*
X154661Y112002D01*
X154675Y111884D01*
X154685Y111765D01*
X154691Y111645D01*
X154693Y111526D01*
X154691Y111407D01*
X154685Y111287D01*
X154675Y111168D01*
X154661Y111050D01*
X154644Y110931D01*
X154622Y110814D01*
X154597Y110697D01*
X154567Y110582D01*
X154534Y110467D01*
X154497Y110353D01*
X154457Y110241D01*
X154412Y110130D01*
X154364Y110021D01*
X154313Y109913D01*
X154258Y109807D01*
X154199Y109703D01*
X154137Y109601D01*
X154072Y109501D01*
X154003Y109403D01*
X153931Y109307D01*
X153856Y109214D01*
X153779Y109124D01*
X153698Y109036D01*
X153614Y108951D01*
X153527Y108869D01*
X153438Y108789D01*
X153346Y108713D01*
X153252Y108639D01*
X153155Y108569D01*
X153057Y108502D01*
X152956Y108438D01*
X152852Y108378D01*
X152747Y108321D01*
X152640Y108268D01*
X152532Y108218D01*
X152422Y108172D01*
X152310Y108130D01*
X152197Y108091D01*
X152083Y108056D01*
X151968Y108025D01*
X151851Y107997D01*
X151734Y107974D01*
X151617Y107954D01*
X151498Y107938D01*
X151379Y107926D01*
X151260Y107918D01*
X151141Y107914D01*
X151021Y107914D01*
X150902Y107918D01*
X150783Y107926D01*
X150664Y107938D01*
X150545Y107954D01*
X150428Y107974D01*
X150311Y107997D01*
X150194Y108025D01*
X150079Y108056D01*
X149965Y108091D01*
X149852Y108130D01*
X149740Y108172D01*
X149630Y108218D01*
X149522Y108268D01*
X149415Y108321D01*
X149310Y108378D01*
X149206Y108438D01*
X149105Y108502D01*
X149007Y108569D01*
X148910Y108639D01*
X148816Y108713D01*
X148724Y108789D01*
X148635Y108869D01*
X148548Y108951D01*
X148464Y109036D01*
X148383Y109124D01*
X148306Y109214D01*
X148231Y109307D01*
X148159Y109403D01*
X148090Y109501D01*
X148025Y109601D01*
X147963Y109703D01*
X147904Y109807D01*
X147849Y109913D01*
X147798Y110021D01*
X147750Y110130D01*
X147705Y110241D01*
X147665Y110353D01*
X147628Y110467D01*
X147595Y110582D01*
X147565Y110697D01*
X147540Y110814D01*
X147518Y110931D01*
X147501Y111050D01*
X147487Y111168D01*
X147477Y111287D01*
X147471Y111407D01*
X147469Y111526D01*
X167164Y115138D02*
X167289Y115136D01*
X167414Y115130D01*
X167539Y115121D01*
X167663Y115107D01*
X167787Y115090D01*
X167911Y115069D01*
X168033Y115044D01*
X168155Y115015D01*
X168276Y114983D01*
X168396Y114947D01*
X168515Y114907D01*
X168632Y114864D01*
X168748Y114817D01*
X168863Y114766D01*
X168975Y114712D01*
X169087Y114654D01*
X169196Y114594D01*
X169303Y114529D01*
X169409Y114462D01*
X169512Y114391D01*
X169613Y114317D01*
X169712Y114240D01*
X169808Y114160D01*
X169902Y114077D01*
X169993Y113992D01*
X170082Y113903D01*
X170167Y113812D01*
X170250Y113718D01*
X170330Y113622D01*
X170407Y113523D01*
X170481Y113422D01*
X170552Y113319D01*
X170619Y113213D01*
X170684Y113106D01*
X170744Y112997D01*
X170802Y112885D01*
X170856Y112773D01*
X170907Y112658D01*
X170954Y112542D01*
X170997Y112425D01*
X171037Y112306D01*
X171073Y112186D01*
X171105Y112065D01*
X171134Y111943D01*
X171159Y111821D01*
X171180Y111697D01*
X171197Y111573D01*
X171211Y111449D01*
X171220Y111324D01*
X171226Y111199D01*
X171228Y111074D01*
X167164Y115138D02*
X167021Y115136D01*
X166879Y115130D01*
X166736Y115120D01*
X166594Y115107D01*
X166453Y115089D01*
X166311Y115068D01*
X166171Y115043D01*
X166031Y115014D01*
X165892Y114981D01*
X165754Y114944D01*
X165617Y114904D01*
X165482Y114860D01*
X165347Y114812D01*
X165214Y114760D01*
X165082Y114705D01*
X164952Y114646D01*
X164824Y114584D01*
X164697Y114518D01*
X164572Y114449D01*
X164449Y114377D01*
X164329Y114301D01*
X164210Y114222D01*
X164093Y114139D01*
X163979Y114054D01*
X163867Y113965D01*
X163758Y113874D01*
X163651Y113779D01*
X163546Y113682D01*
X163445Y113581D01*
X163346Y113478D01*
X163250Y113373D01*
X163157Y113264D01*
X163067Y113153D01*
X162980Y113040D01*
X162896Y112925D01*
X162816Y112807D01*
X162738Y112687D01*
X162664Y112565D01*
X162594Y112441D01*
X162526Y112315D01*
X162463Y112187D01*
X162402Y112058D01*
X162345Y111927D01*
X162292Y111795D01*
X162243Y111661D01*
X162197Y111526D01*
X169873Y107913D02*
X169967Y108005D01*
X170057Y108099D01*
X170145Y108196D01*
X170230Y108296D01*
X170312Y108398D01*
X170391Y108503D01*
X170466Y108610D01*
X170538Y108719D01*
X170607Y108830D01*
X170673Y108944D01*
X170735Y109059D01*
X170794Y109176D01*
X170849Y109295D01*
X170900Y109415D01*
X170948Y109537D01*
X170993Y109660D01*
X171033Y109784D01*
X171070Y109910D01*
X171103Y110037D01*
X171132Y110164D01*
X171158Y110293D01*
X171179Y110422D01*
X171197Y110552D01*
X171210Y110682D01*
X171220Y110812D01*
X171226Y110943D01*
X171228Y111074D01*
X169873Y107913D02*
X162197Y98882D01*
X171228Y98882D01*
X177828Y107913D02*
X183247Y107913D01*
X183365Y107911D01*
X183483Y107905D01*
X183601Y107896D01*
X183718Y107882D01*
X183835Y107865D01*
X183952Y107844D01*
X184067Y107819D01*
X184182Y107790D01*
X184296Y107757D01*
X184408Y107721D01*
X184519Y107681D01*
X184629Y107638D01*
X184738Y107591D01*
X184845Y107541D01*
X184950Y107486D01*
X185053Y107429D01*
X185154Y107368D01*
X185254Y107304D01*
X185351Y107237D01*
X185446Y107167D01*
X185538Y107093D01*
X185629Y107017D01*
X185716Y106937D01*
X185801Y106855D01*
X185883Y106770D01*
X185963Y106683D01*
X186039Y106592D01*
X186113Y106500D01*
X186183Y106405D01*
X186250Y106308D01*
X186314Y106208D01*
X186375Y106107D01*
X186432Y106004D01*
X186487Y105899D01*
X186537Y105792D01*
X186584Y105683D01*
X186627Y105573D01*
X186667Y105462D01*
X186703Y105350D01*
X186736Y105236D01*
X186765Y105121D01*
X186790Y105006D01*
X186811Y104889D01*
X186828Y104772D01*
X186842Y104655D01*
X186851Y104537D01*
X186857Y104419D01*
X186859Y104301D01*
X186859Y103398D01*
X186857Y103265D01*
X186851Y103133D01*
X186841Y103001D01*
X186828Y102869D01*
X186810Y102737D01*
X186789Y102607D01*
X186764Y102476D01*
X186735Y102347D01*
X186702Y102219D01*
X186666Y102091D01*
X186626Y101965D01*
X186582Y101840D01*
X186534Y101716D01*
X186483Y101594D01*
X186428Y101473D01*
X186370Y101354D01*
X186308Y101236D01*
X186243Y101121D01*
X186174Y101007D01*
X186103Y100896D01*
X186027Y100787D01*
X185949Y100680D01*
X185868Y100575D01*
X185783Y100473D01*
X185696Y100373D01*
X185606Y100276D01*
X185513Y100181D01*
X185417Y100090D01*
X185319Y100001D01*
X185218Y99915D01*
X185114Y99832D01*
X185008Y99752D01*
X184900Y99676D01*
X184790Y99602D01*
X184677Y99532D01*
X184563Y99465D01*
X184446Y99402D01*
X184328Y99342D01*
X184208Y99285D01*
X184086Y99232D01*
X183963Y99183D01*
X183839Y99137D01*
X183713Y99095D01*
X183586Y99057D01*
X183458Y99022D01*
X183329Y98991D01*
X183200Y98964D01*
X183069Y98941D01*
X182938Y98921D01*
X182806Y98906D01*
X182674Y98894D01*
X182542Y98886D01*
X182409Y98882D01*
X182277Y98882D01*
X182144Y98886D01*
X182012Y98894D01*
X181880Y98906D01*
X181748Y98921D01*
X181617Y98941D01*
X181486Y98964D01*
X181357Y98991D01*
X181228Y99022D01*
X181100Y99057D01*
X180973Y99095D01*
X180847Y99137D01*
X180723Y99183D01*
X180600Y99232D01*
X180478Y99285D01*
X180358Y99342D01*
X180240Y99402D01*
X180123Y99465D01*
X180009Y99532D01*
X179896Y99602D01*
X179786Y99676D01*
X179678Y99752D01*
X179572Y99832D01*
X179468Y99915D01*
X179367Y100001D01*
X179269Y100090D01*
X179173Y100181D01*
X179080Y100276D01*
X178990Y100373D01*
X178903Y100473D01*
X178818Y100575D01*
X178737Y100680D01*
X178659Y100787D01*
X178583Y100896D01*
X178512Y101007D01*
X178443Y101121D01*
X178378Y101236D01*
X178316Y101354D01*
X178258Y101473D01*
X178203Y101594D01*
X178152Y101716D01*
X178104Y101840D01*
X178060Y101965D01*
X178020Y102091D01*
X177984Y102219D01*
X177951Y102347D01*
X177922Y102476D01*
X177897Y102607D01*
X177876Y102737D01*
X177858Y102869D01*
X177845Y103001D01*
X177835Y103133D01*
X177829Y103265D01*
X177827Y103398D01*
X177828Y103398D02*
X177828Y107913D01*
X177830Y108090D01*
X177837Y108268D01*
X177848Y108445D01*
X177863Y108621D01*
X177882Y108797D01*
X177906Y108973D01*
X177934Y109148D01*
X177967Y109323D01*
X178004Y109496D01*
X178045Y109669D01*
X178090Y109840D01*
X178139Y110010D01*
X178193Y110179D01*
X178250Y110347D01*
X178312Y110513D01*
X178378Y110678D01*
X178448Y110841D01*
X178522Y111002D01*
X178599Y111161D01*
X178681Y111319D01*
X178767Y111474D01*
X178856Y111627D01*
X178949Y111778D01*
X179046Y111927D01*
X179146Y112073D01*
X179250Y112217D01*
X179357Y112358D01*
X179468Y112496D01*
X179582Y112632D01*
X179700Y112765D01*
X179820Y112895D01*
X179944Y113022D01*
X180071Y113146D01*
X180201Y113266D01*
X180334Y113384D01*
X180469Y113498D01*
X180608Y113609D01*
X180749Y113716D01*
X180893Y113820D01*
X181039Y113920D01*
X181188Y114017D01*
X181339Y114110D01*
X181492Y114199D01*
X181647Y114285D01*
X181805Y114367D01*
X181964Y114444D01*
X182125Y114518D01*
X182288Y114588D01*
X182453Y114654D01*
X182619Y114716D01*
X182787Y114773D01*
X182956Y114827D01*
X183126Y114876D01*
X183297Y114921D01*
X183470Y114962D01*
X183643Y114999D01*
X183818Y115032D01*
X183993Y115060D01*
X184169Y115084D01*
X184345Y115103D01*
X184521Y115118D01*
X184698Y115129D01*
X184876Y115136D01*
X185053Y115138D01*
X193459Y107913D02*
X198878Y107913D01*
X198996Y107911D01*
X199114Y107905D01*
X199232Y107896D01*
X199349Y107882D01*
X199466Y107865D01*
X199583Y107844D01*
X199698Y107819D01*
X199813Y107790D01*
X199927Y107757D01*
X200039Y107721D01*
X200150Y107681D01*
X200260Y107638D01*
X200369Y107591D01*
X200476Y107541D01*
X200581Y107486D01*
X200684Y107429D01*
X200785Y107368D01*
X200885Y107304D01*
X200982Y107237D01*
X201077Y107167D01*
X201169Y107093D01*
X201260Y107017D01*
X201347Y106937D01*
X201432Y106855D01*
X201514Y106770D01*
X201594Y106683D01*
X201670Y106592D01*
X201744Y106500D01*
X201814Y106405D01*
X201881Y106308D01*
X201945Y106208D01*
X202006Y106107D01*
X202063Y106004D01*
X202118Y105899D01*
X202168Y105792D01*
X202215Y105683D01*
X202258Y105573D01*
X202298Y105462D01*
X202334Y105350D01*
X202367Y105236D01*
X202396Y105121D01*
X202421Y105006D01*
X202442Y104889D01*
X202459Y104772D01*
X202473Y104655D01*
X202482Y104537D01*
X202488Y104419D01*
X202490Y104301D01*
X202490Y103398D01*
X202491Y103398D02*
X202489Y103265D01*
X202483Y103133D01*
X202473Y103001D01*
X202460Y102869D01*
X202442Y102737D01*
X202421Y102607D01*
X202396Y102476D01*
X202367Y102347D01*
X202334Y102219D01*
X202298Y102091D01*
X202258Y101965D01*
X202214Y101840D01*
X202166Y101716D01*
X202115Y101594D01*
X202060Y101473D01*
X202002Y101354D01*
X201940Y101236D01*
X201875Y101121D01*
X201806Y101007D01*
X201735Y100896D01*
X201659Y100787D01*
X201581Y100680D01*
X201500Y100575D01*
X201415Y100473D01*
X201328Y100373D01*
X201238Y100276D01*
X201145Y100181D01*
X201049Y100090D01*
X200951Y100001D01*
X200850Y99915D01*
X200746Y99832D01*
X200640Y99752D01*
X200532Y99676D01*
X200422Y99602D01*
X200309Y99532D01*
X200195Y99465D01*
X200078Y99402D01*
X199960Y99342D01*
X199840Y99285D01*
X199718Y99232D01*
X199595Y99183D01*
X199471Y99137D01*
X199345Y99095D01*
X199218Y99057D01*
X199090Y99022D01*
X198961Y98991D01*
X198832Y98964D01*
X198701Y98941D01*
X198570Y98921D01*
X198438Y98906D01*
X198306Y98894D01*
X198174Y98886D01*
X198041Y98882D01*
X197909Y98882D01*
X197776Y98886D01*
X197644Y98894D01*
X197512Y98906D01*
X197380Y98921D01*
X197249Y98941D01*
X197118Y98964D01*
X196989Y98991D01*
X196860Y99022D01*
X196732Y99057D01*
X196605Y99095D01*
X196479Y99137D01*
X196355Y99183D01*
X196232Y99232D01*
X196110Y99285D01*
X195990Y99342D01*
X195872Y99402D01*
X195755Y99465D01*
X195641Y99532D01*
X195528Y99602D01*
X195418Y99676D01*
X195310Y99752D01*
X195204Y99832D01*
X195100Y99915D01*
X194999Y100001D01*
X194901Y100090D01*
X194805Y100181D01*
X194712Y100276D01*
X194622Y100373D01*
X194535Y100473D01*
X194450Y100575D01*
X194369Y100680D01*
X194291Y100787D01*
X194215Y100896D01*
X194144Y101007D01*
X194075Y101121D01*
X194010Y101236D01*
X193948Y101354D01*
X193890Y101473D01*
X193835Y101594D01*
X193784Y101716D01*
X193736Y101840D01*
X193692Y101965D01*
X193652Y102091D01*
X193616Y102219D01*
X193583Y102347D01*
X193554Y102476D01*
X193529Y102607D01*
X193508Y102737D01*
X193490Y102869D01*
X193477Y103001D01*
X193467Y103133D01*
X193461Y103265D01*
X193459Y103398D01*
X193459Y107913D01*
X193461Y108090D01*
X193468Y108268D01*
X193479Y108445D01*
X193494Y108621D01*
X193513Y108797D01*
X193537Y108973D01*
X193565Y109148D01*
X193598Y109323D01*
X193635Y109496D01*
X193676Y109669D01*
X193721Y109840D01*
X193770Y110010D01*
X193824Y110179D01*
X193881Y110347D01*
X193943Y110513D01*
X194009Y110678D01*
X194079Y110841D01*
X194153Y111002D01*
X194230Y111161D01*
X194312Y111319D01*
X194398Y111474D01*
X194487Y111627D01*
X194580Y111778D01*
X194677Y111927D01*
X194777Y112073D01*
X194881Y112217D01*
X194988Y112358D01*
X195099Y112496D01*
X195213Y112632D01*
X195331Y112765D01*
X195451Y112895D01*
X195575Y113022D01*
X195702Y113146D01*
X195832Y113266D01*
X195965Y113384D01*
X196100Y113498D01*
X196239Y113609D01*
X196380Y113716D01*
X196524Y113820D01*
X196670Y113920D01*
X196819Y114017D01*
X196970Y114110D01*
X197123Y114199D01*
X197278Y114285D01*
X197436Y114367D01*
X197595Y114444D01*
X197756Y114518D01*
X197919Y114588D01*
X198084Y114654D01*
X198250Y114716D01*
X198418Y114773D01*
X198587Y114827D01*
X198757Y114876D01*
X198928Y114921D01*
X199101Y114962D01*
X199274Y114999D01*
X199449Y115032D01*
X199624Y115060D01*
X199800Y115084D01*
X199976Y115103D01*
X200152Y115118D01*
X200329Y115129D01*
X200507Y115136D01*
X200684Y115138D01*
X216767Y109719D02*
X220379Y98882D01*
X223992Y109719D01*
X229932Y107913D02*
X235351Y107913D01*
X235469Y107911D01*
X235587Y107905D01*
X235705Y107896D01*
X235822Y107882D01*
X235939Y107865D01*
X236056Y107844D01*
X236171Y107819D01*
X236286Y107790D01*
X236400Y107757D01*
X236512Y107721D01*
X236623Y107681D01*
X236733Y107638D01*
X236842Y107591D01*
X236949Y107541D01*
X237054Y107486D01*
X237157Y107429D01*
X237258Y107368D01*
X237358Y107304D01*
X237455Y107237D01*
X237550Y107167D01*
X237642Y107093D01*
X237733Y107017D01*
X237820Y106937D01*
X237905Y106855D01*
X237987Y106770D01*
X238067Y106683D01*
X238143Y106592D01*
X238217Y106500D01*
X238287Y106405D01*
X238354Y106308D01*
X238418Y106208D01*
X238479Y106107D01*
X238536Y106004D01*
X238591Y105899D01*
X238641Y105792D01*
X238688Y105683D01*
X238731Y105573D01*
X238771Y105462D01*
X238807Y105350D01*
X238840Y105236D01*
X238869Y105121D01*
X238894Y105006D01*
X238915Y104889D01*
X238932Y104772D01*
X238946Y104655D01*
X238955Y104537D01*
X238961Y104419D01*
X238963Y104301D01*
X238963Y103398D01*
X238961Y103265D01*
X238955Y103133D01*
X238945Y103001D01*
X238932Y102869D01*
X238914Y102737D01*
X238893Y102607D01*
X238868Y102476D01*
X238839Y102347D01*
X238806Y102219D01*
X238770Y102091D01*
X238730Y101965D01*
X238686Y101840D01*
X238638Y101716D01*
X238587Y101594D01*
X238532Y101473D01*
X238474Y101354D01*
X238412Y101236D01*
X238347Y101121D01*
X238278Y101007D01*
X238207Y100896D01*
X238131Y100787D01*
X238053Y100680D01*
X237972Y100575D01*
X237887Y100473D01*
X237800Y100373D01*
X237710Y100276D01*
X237617Y100181D01*
X237521Y100090D01*
X237423Y100001D01*
X237322Y99915D01*
X237218Y99832D01*
X237112Y99752D01*
X237004Y99676D01*
X236894Y99602D01*
X236781Y99532D01*
X236667Y99465D01*
X236550Y99402D01*
X236432Y99342D01*
X236312Y99285D01*
X236190Y99232D01*
X236067Y99183D01*
X235943Y99137D01*
X235817Y99095D01*
X235690Y99057D01*
X235562Y99022D01*
X235433Y98991D01*
X235304Y98964D01*
X235173Y98941D01*
X235042Y98921D01*
X234910Y98906D01*
X234778Y98894D01*
X234646Y98886D01*
X234513Y98882D01*
X234381Y98882D01*
X234248Y98886D01*
X234116Y98894D01*
X233984Y98906D01*
X233852Y98921D01*
X233721Y98941D01*
X233590Y98964D01*
X233461Y98991D01*
X233332Y99022D01*
X233204Y99057D01*
X233077Y99095D01*
X232951Y99137D01*
X232827Y99183D01*
X232704Y99232D01*
X232582Y99285D01*
X232462Y99342D01*
X232344Y99402D01*
X232227Y99465D01*
X232113Y99532D01*
X232000Y99602D01*
X231890Y99676D01*
X231782Y99752D01*
X231676Y99832D01*
X231572Y99915D01*
X231471Y100001D01*
X231373Y100090D01*
X231277Y100181D01*
X231184Y100276D01*
X231094Y100373D01*
X231007Y100473D01*
X230922Y100575D01*
X230841Y100680D01*
X230763Y100787D01*
X230687Y100896D01*
X230616Y101007D01*
X230547Y101121D01*
X230482Y101236D01*
X230420Y101354D01*
X230362Y101473D01*
X230307Y101594D01*
X230256Y101716D01*
X230208Y101840D01*
X230164Y101965D01*
X230124Y102091D01*
X230088Y102219D01*
X230055Y102347D01*
X230026Y102476D01*
X230001Y102607D01*
X229980Y102737D01*
X229962Y102869D01*
X229949Y103001D01*
X229939Y103133D01*
X229933Y103265D01*
X229931Y103398D01*
X229932Y103398D02*
X229932Y107913D01*
X229934Y108090D01*
X229941Y108268D01*
X229952Y108445D01*
X229967Y108621D01*
X229986Y108797D01*
X230010Y108973D01*
X230038Y109148D01*
X230071Y109323D01*
X230108Y109496D01*
X230149Y109669D01*
X230194Y109840D01*
X230243Y110010D01*
X230297Y110179D01*
X230354Y110347D01*
X230416Y110513D01*
X230482Y110678D01*
X230552Y110841D01*
X230626Y111002D01*
X230703Y111161D01*
X230785Y111319D01*
X230871Y111474D01*
X230960Y111627D01*
X231053Y111778D01*
X231150Y111927D01*
X231250Y112073D01*
X231354Y112217D01*
X231461Y112358D01*
X231572Y112496D01*
X231686Y112632D01*
X231804Y112765D01*
X231924Y112895D01*
X232048Y113022D01*
X232175Y113146D01*
X232305Y113266D01*
X232438Y113384D01*
X232573Y113498D01*
X232712Y113609D01*
X232853Y113716D01*
X232997Y113820D01*
X233143Y113920D01*
X233292Y114017D01*
X233443Y114110D01*
X233596Y114199D01*
X233751Y114285D01*
X233909Y114367D01*
X234068Y114444D01*
X234229Y114518D01*
X234392Y114588D01*
X234557Y114654D01*
X234723Y114716D01*
X234891Y114773D01*
X235060Y114827D01*
X235230Y114876D01*
X235401Y114921D01*
X235574Y114962D01*
X235747Y114999D01*
X235922Y115032D01*
X236097Y115060D01*
X236273Y115084D01*
X236449Y115103D01*
X236625Y115118D01*
X236802Y115129D01*
X236980Y115136D01*
X237157Y115138D01*
D11*
X350850Y365450D02*
X-11100Y365450D01*
X-11100Y74350D02*
X350850Y74625D01*
X350850Y365450D01*
X-11100Y365450D02*
X-11100Y74350D01*
M02*
