G04 EAGLE Gerber X2 export*
%TF.Part,Single*%
%TF.FileFunction,Soldermask,Top,1*%
%TF.FilePolarity,Negative*%
%TF.GenerationSoftware,Autodesk,EAGLE,8.6.0*%
%TF.CreationDate,2018-03-02T20:01:04Z*%
G75*
%MOMM*%
%FSLAX34Y34*%
%LPD*%
%AMOC8*
5,1,8,0,0,1.08239X$1,22.5*%
G01*
%ADD10C,1.203200*%
%ADD11C,1.524000*%
%ADD12C,2.082800*%
%ADD13C,2.387600*%


D10*
X349250Y19050D03*
X6350Y12700D03*
D11*
X139446Y317500D02*
X152654Y317500D01*
X152654Y292100D02*
X139446Y292100D01*
X139446Y165100D02*
X152654Y165100D01*
X152654Y139700D02*
X139446Y139700D01*
X139446Y266700D02*
X152654Y266700D01*
X152654Y241300D02*
X139446Y241300D01*
X139446Y190500D02*
X152654Y190500D01*
X152654Y215900D02*
X139446Y215900D01*
X215646Y139700D02*
X228854Y139700D01*
X228854Y165100D02*
X215646Y165100D01*
X215646Y190500D02*
X228854Y190500D01*
X228854Y215900D02*
X215646Y215900D01*
X215646Y241300D02*
X228854Y241300D01*
X228854Y266700D02*
X215646Y266700D01*
X215646Y292100D02*
X228854Y292100D01*
X228854Y317500D02*
X215646Y317500D01*
D12*
X107950Y25400D03*
X133350Y25400D03*
X158750Y25400D03*
X184150Y25400D03*
X209550Y25400D03*
X234950Y25400D03*
X260350Y25400D03*
D13*
X308178Y147650D02*
X330022Y147650D01*
X330022Y173050D02*
X308178Y173050D01*
X308178Y198450D02*
X330022Y198450D01*
X330022Y223850D02*
X308178Y223850D01*
X308178Y249250D02*
X330022Y249250D01*
X330022Y274650D02*
X308178Y274650D01*
X308178Y300050D02*
X330022Y300050D01*
X330022Y325450D02*
X308178Y325450D01*
X32522Y325450D02*
X10678Y325450D01*
X10678Y300050D02*
X32522Y300050D01*
X32522Y274650D02*
X10678Y274650D01*
X10678Y249250D02*
X32522Y249250D01*
X32522Y223850D02*
X10678Y223850D01*
X10678Y198450D02*
X32522Y198450D01*
X32522Y173050D02*
X10678Y173050D01*
X10678Y147650D02*
X32522Y147650D01*
M02*
